G75*
%MOIN*%
%OFA0B0*%
%FSLAX25Y25*%
%IPPOS*%
%LPD*%
%AMOC8*
5,1,8,0,0,1.08239X$1,22.5*
%
%ADD10C,0.00000*%
%ADD11C,0.00600*%
%ADD12C,0.00100*%
%ADD13C,0.01000*%
D10*
X0035219Y0001892D02*
X0035219Y0273546D01*
X0039156Y0277483D01*
X0373802Y0277483D01*
X0373802Y0001892D01*
X0035219Y0001892D01*
X0040337Y0013703D02*
X0040339Y0013867D01*
X0040345Y0014031D01*
X0040355Y0014195D01*
X0040369Y0014359D01*
X0040387Y0014522D01*
X0040409Y0014685D01*
X0040436Y0014847D01*
X0040466Y0015009D01*
X0040500Y0015169D01*
X0040538Y0015329D01*
X0040579Y0015488D01*
X0040625Y0015646D01*
X0040675Y0015802D01*
X0040728Y0015958D01*
X0040785Y0016112D01*
X0040846Y0016264D01*
X0040911Y0016415D01*
X0040980Y0016565D01*
X0041052Y0016712D01*
X0041127Y0016858D01*
X0041207Y0017002D01*
X0041289Y0017144D01*
X0041375Y0017284D01*
X0041465Y0017421D01*
X0041558Y0017557D01*
X0041654Y0017690D01*
X0041754Y0017821D01*
X0041856Y0017949D01*
X0041962Y0018075D01*
X0042071Y0018198D01*
X0042183Y0018318D01*
X0042297Y0018436D01*
X0042415Y0018550D01*
X0042535Y0018662D01*
X0042658Y0018771D01*
X0042784Y0018877D01*
X0042912Y0018979D01*
X0043043Y0019079D01*
X0043176Y0019175D01*
X0043312Y0019268D01*
X0043449Y0019358D01*
X0043589Y0019444D01*
X0043731Y0019526D01*
X0043875Y0019606D01*
X0044021Y0019681D01*
X0044168Y0019753D01*
X0044318Y0019822D01*
X0044469Y0019887D01*
X0044621Y0019948D01*
X0044775Y0020005D01*
X0044931Y0020058D01*
X0045087Y0020108D01*
X0045245Y0020154D01*
X0045404Y0020195D01*
X0045564Y0020233D01*
X0045724Y0020267D01*
X0045886Y0020297D01*
X0046048Y0020324D01*
X0046211Y0020346D01*
X0046374Y0020364D01*
X0046538Y0020378D01*
X0046702Y0020388D01*
X0046866Y0020394D01*
X0047030Y0020396D01*
X0047194Y0020394D01*
X0047358Y0020388D01*
X0047522Y0020378D01*
X0047686Y0020364D01*
X0047849Y0020346D01*
X0048012Y0020324D01*
X0048174Y0020297D01*
X0048336Y0020267D01*
X0048496Y0020233D01*
X0048656Y0020195D01*
X0048815Y0020154D01*
X0048973Y0020108D01*
X0049129Y0020058D01*
X0049285Y0020005D01*
X0049439Y0019948D01*
X0049591Y0019887D01*
X0049742Y0019822D01*
X0049892Y0019753D01*
X0050039Y0019681D01*
X0050185Y0019606D01*
X0050329Y0019526D01*
X0050471Y0019444D01*
X0050611Y0019358D01*
X0050748Y0019268D01*
X0050884Y0019175D01*
X0051017Y0019079D01*
X0051148Y0018979D01*
X0051276Y0018877D01*
X0051402Y0018771D01*
X0051525Y0018662D01*
X0051645Y0018550D01*
X0051763Y0018436D01*
X0051877Y0018318D01*
X0051989Y0018198D01*
X0052098Y0018075D01*
X0052204Y0017949D01*
X0052306Y0017821D01*
X0052406Y0017690D01*
X0052502Y0017557D01*
X0052595Y0017421D01*
X0052685Y0017284D01*
X0052771Y0017144D01*
X0052853Y0017002D01*
X0052933Y0016858D01*
X0053008Y0016712D01*
X0053080Y0016565D01*
X0053149Y0016415D01*
X0053214Y0016264D01*
X0053275Y0016112D01*
X0053332Y0015958D01*
X0053385Y0015802D01*
X0053435Y0015646D01*
X0053481Y0015488D01*
X0053522Y0015329D01*
X0053560Y0015169D01*
X0053594Y0015009D01*
X0053624Y0014847D01*
X0053651Y0014685D01*
X0053673Y0014522D01*
X0053691Y0014359D01*
X0053705Y0014195D01*
X0053715Y0014031D01*
X0053721Y0013867D01*
X0053723Y0013703D01*
X0053721Y0013539D01*
X0053715Y0013375D01*
X0053705Y0013211D01*
X0053691Y0013047D01*
X0053673Y0012884D01*
X0053651Y0012721D01*
X0053624Y0012559D01*
X0053594Y0012397D01*
X0053560Y0012237D01*
X0053522Y0012077D01*
X0053481Y0011918D01*
X0053435Y0011760D01*
X0053385Y0011604D01*
X0053332Y0011448D01*
X0053275Y0011294D01*
X0053214Y0011142D01*
X0053149Y0010991D01*
X0053080Y0010841D01*
X0053008Y0010694D01*
X0052933Y0010548D01*
X0052853Y0010404D01*
X0052771Y0010262D01*
X0052685Y0010122D01*
X0052595Y0009985D01*
X0052502Y0009849D01*
X0052406Y0009716D01*
X0052306Y0009585D01*
X0052204Y0009457D01*
X0052098Y0009331D01*
X0051989Y0009208D01*
X0051877Y0009088D01*
X0051763Y0008970D01*
X0051645Y0008856D01*
X0051525Y0008744D01*
X0051402Y0008635D01*
X0051276Y0008529D01*
X0051148Y0008427D01*
X0051017Y0008327D01*
X0050884Y0008231D01*
X0050748Y0008138D01*
X0050611Y0008048D01*
X0050471Y0007962D01*
X0050329Y0007880D01*
X0050185Y0007800D01*
X0050039Y0007725D01*
X0049892Y0007653D01*
X0049742Y0007584D01*
X0049591Y0007519D01*
X0049439Y0007458D01*
X0049285Y0007401D01*
X0049129Y0007348D01*
X0048973Y0007298D01*
X0048815Y0007252D01*
X0048656Y0007211D01*
X0048496Y0007173D01*
X0048336Y0007139D01*
X0048174Y0007109D01*
X0048012Y0007082D01*
X0047849Y0007060D01*
X0047686Y0007042D01*
X0047522Y0007028D01*
X0047358Y0007018D01*
X0047194Y0007012D01*
X0047030Y0007010D01*
X0046866Y0007012D01*
X0046702Y0007018D01*
X0046538Y0007028D01*
X0046374Y0007042D01*
X0046211Y0007060D01*
X0046048Y0007082D01*
X0045886Y0007109D01*
X0045724Y0007139D01*
X0045564Y0007173D01*
X0045404Y0007211D01*
X0045245Y0007252D01*
X0045087Y0007298D01*
X0044931Y0007348D01*
X0044775Y0007401D01*
X0044621Y0007458D01*
X0044469Y0007519D01*
X0044318Y0007584D01*
X0044168Y0007653D01*
X0044021Y0007725D01*
X0043875Y0007800D01*
X0043731Y0007880D01*
X0043589Y0007962D01*
X0043449Y0008048D01*
X0043312Y0008138D01*
X0043176Y0008231D01*
X0043043Y0008327D01*
X0042912Y0008427D01*
X0042784Y0008529D01*
X0042658Y0008635D01*
X0042535Y0008744D01*
X0042415Y0008856D01*
X0042297Y0008970D01*
X0042183Y0009088D01*
X0042071Y0009208D01*
X0041962Y0009331D01*
X0041856Y0009457D01*
X0041754Y0009585D01*
X0041654Y0009716D01*
X0041558Y0009849D01*
X0041465Y0009985D01*
X0041375Y0010122D01*
X0041289Y0010262D01*
X0041207Y0010404D01*
X0041127Y0010548D01*
X0041052Y0010694D01*
X0040980Y0010841D01*
X0040911Y0010991D01*
X0040846Y0011142D01*
X0040785Y0011294D01*
X0040728Y0011448D01*
X0040675Y0011604D01*
X0040625Y0011760D01*
X0040579Y0011918D01*
X0040538Y0012077D01*
X0040500Y0012237D01*
X0040466Y0012397D01*
X0040436Y0012559D01*
X0040409Y0012721D01*
X0040387Y0012884D01*
X0040369Y0013047D01*
X0040355Y0013211D01*
X0040345Y0013375D01*
X0040339Y0013539D01*
X0040337Y0013703D01*
X0355298Y0013703D02*
X0355300Y0013867D01*
X0355306Y0014031D01*
X0355316Y0014195D01*
X0355330Y0014359D01*
X0355348Y0014522D01*
X0355370Y0014685D01*
X0355397Y0014847D01*
X0355427Y0015009D01*
X0355461Y0015169D01*
X0355499Y0015329D01*
X0355540Y0015488D01*
X0355586Y0015646D01*
X0355636Y0015802D01*
X0355689Y0015958D01*
X0355746Y0016112D01*
X0355807Y0016264D01*
X0355872Y0016415D01*
X0355941Y0016565D01*
X0356013Y0016712D01*
X0356088Y0016858D01*
X0356168Y0017002D01*
X0356250Y0017144D01*
X0356336Y0017284D01*
X0356426Y0017421D01*
X0356519Y0017557D01*
X0356615Y0017690D01*
X0356715Y0017821D01*
X0356817Y0017949D01*
X0356923Y0018075D01*
X0357032Y0018198D01*
X0357144Y0018318D01*
X0357258Y0018436D01*
X0357376Y0018550D01*
X0357496Y0018662D01*
X0357619Y0018771D01*
X0357745Y0018877D01*
X0357873Y0018979D01*
X0358004Y0019079D01*
X0358137Y0019175D01*
X0358273Y0019268D01*
X0358410Y0019358D01*
X0358550Y0019444D01*
X0358692Y0019526D01*
X0358836Y0019606D01*
X0358982Y0019681D01*
X0359129Y0019753D01*
X0359279Y0019822D01*
X0359430Y0019887D01*
X0359582Y0019948D01*
X0359736Y0020005D01*
X0359892Y0020058D01*
X0360048Y0020108D01*
X0360206Y0020154D01*
X0360365Y0020195D01*
X0360525Y0020233D01*
X0360685Y0020267D01*
X0360847Y0020297D01*
X0361009Y0020324D01*
X0361172Y0020346D01*
X0361335Y0020364D01*
X0361499Y0020378D01*
X0361663Y0020388D01*
X0361827Y0020394D01*
X0361991Y0020396D01*
X0362155Y0020394D01*
X0362319Y0020388D01*
X0362483Y0020378D01*
X0362647Y0020364D01*
X0362810Y0020346D01*
X0362973Y0020324D01*
X0363135Y0020297D01*
X0363297Y0020267D01*
X0363457Y0020233D01*
X0363617Y0020195D01*
X0363776Y0020154D01*
X0363934Y0020108D01*
X0364090Y0020058D01*
X0364246Y0020005D01*
X0364400Y0019948D01*
X0364552Y0019887D01*
X0364703Y0019822D01*
X0364853Y0019753D01*
X0365000Y0019681D01*
X0365146Y0019606D01*
X0365290Y0019526D01*
X0365432Y0019444D01*
X0365572Y0019358D01*
X0365709Y0019268D01*
X0365845Y0019175D01*
X0365978Y0019079D01*
X0366109Y0018979D01*
X0366237Y0018877D01*
X0366363Y0018771D01*
X0366486Y0018662D01*
X0366606Y0018550D01*
X0366724Y0018436D01*
X0366838Y0018318D01*
X0366950Y0018198D01*
X0367059Y0018075D01*
X0367165Y0017949D01*
X0367267Y0017821D01*
X0367367Y0017690D01*
X0367463Y0017557D01*
X0367556Y0017421D01*
X0367646Y0017284D01*
X0367732Y0017144D01*
X0367814Y0017002D01*
X0367894Y0016858D01*
X0367969Y0016712D01*
X0368041Y0016565D01*
X0368110Y0016415D01*
X0368175Y0016264D01*
X0368236Y0016112D01*
X0368293Y0015958D01*
X0368346Y0015802D01*
X0368396Y0015646D01*
X0368442Y0015488D01*
X0368483Y0015329D01*
X0368521Y0015169D01*
X0368555Y0015009D01*
X0368585Y0014847D01*
X0368612Y0014685D01*
X0368634Y0014522D01*
X0368652Y0014359D01*
X0368666Y0014195D01*
X0368676Y0014031D01*
X0368682Y0013867D01*
X0368684Y0013703D01*
X0368682Y0013539D01*
X0368676Y0013375D01*
X0368666Y0013211D01*
X0368652Y0013047D01*
X0368634Y0012884D01*
X0368612Y0012721D01*
X0368585Y0012559D01*
X0368555Y0012397D01*
X0368521Y0012237D01*
X0368483Y0012077D01*
X0368442Y0011918D01*
X0368396Y0011760D01*
X0368346Y0011604D01*
X0368293Y0011448D01*
X0368236Y0011294D01*
X0368175Y0011142D01*
X0368110Y0010991D01*
X0368041Y0010841D01*
X0367969Y0010694D01*
X0367894Y0010548D01*
X0367814Y0010404D01*
X0367732Y0010262D01*
X0367646Y0010122D01*
X0367556Y0009985D01*
X0367463Y0009849D01*
X0367367Y0009716D01*
X0367267Y0009585D01*
X0367165Y0009457D01*
X0367059Y0009331D01*
X0366950Y0009208D01*
X0366838Y0009088D01*
X0366724Y0008970D01*
X0366606Y0008856D01*
X0366486Y0008744D01*
X0366363Y0008635D01*
X0366237Y0008529D01*
X0366109Y0008427D01*
X0365978Y0008327D01*
X0365845Y0008231D01*
X0365709Y0008138D01*
X0365572Y0008048D01*
X0365432Y0007962D01*
X0365290Y0007880D01*
X0365146Y0007800D01*
X0365000Y0007725D01*
X0364853Y0007653D01*
X0364703Y0007584D01*
X0364552Y0007519D01*
X0364400Y0007458D01*
X0364246Y0007401D01*
X0364090Y0007348D01*
X0363934Y0007298D01*
X0363776Y0007252D01*
X0363617Y0007211D01*
X0363457Y0007173D01*
X0363297Y0007139D01*
X0363135Y0007109D01*
X0362973Y0007082D01*
X0362810Y0007060D01*
X0362647Y0007042D01*
X0362483Y0007028D01*
X0362319Y0007018D01*
X0362155Y0007012D01*
X0361991Y0007010D01*
X0361827Y0007012D01*
X0361663Y0007018D01*
X0361499Y0007028D01*
X0361335Y0007042D01*
X0361172Y0007060D01*
X0361009Y0007082D01*
X0360847Y0007109D01*
X0360685Y0007139D01*
X0360525Y0007173D01*
X0360365Y0007211D01*
X0360206Y0007252D01*
X0360048Y0007298D01*
X0359892Y0007348D01*
X0359736Y0007401D01*
X0359582Y0007458D01*
X0359430Y0007519D01*
X0359279Y0007584D01*
X0359129Y0007653D01*
X0358982Y0007725D01*
X0358836Y0007800D01*
X0358692Y0007880D01*
X0358550Y0007962D01*
X0358410Y0008048D01*
X0358273Y0008138D01*
X0358137Y0008231D01*
X0358004Y0008327D01*
X0357873Y0008427D01*
X0357745Y0008529D01*
X0357619Y0008635D01*
X0357496Y0008744D01*
X0357376Y0008856D01*
X0357258Y0008970D01*
X0357144Y0009088D01*
X0357032Y0009208D01*
X0356923Y0009331D01*
X0356817Y0009457D01*
X0356715Y0009585D01*
X0356615Y0009716D01*
X0356519Y0009849D01*
X0356426Y0009985D01*
X0356336Y0010122D01*
X0356250Y0010262D01*
X0356168Y0010404D01*
X0356088Y0010548D01*
X0356013Y0010694D01*
X0355941Y0010841D01*
X0355872Y0010991D01*
X0355807Y0011142D01*
X0355746Y0011294D01*
X0355689Y0011448D01*
X0355636Y0011604D01*
X0355586Y0011760D01*
X0355540Y0011918D01*
X0355499Y0012077D01*
X0355461Y0012237D01*
X0355427Y0012397D01*
X0355397Y0012559D01*
X0355370Y0012721D01*
X0355348Y0012884D01*
X0355330Y0013047D01*
X0355316Y0013211D01*
X0355306Y0013375D01*
X0355300Y0013539D01*
X0355298Y0013703D01*
X0355298Y0265672D02*
X0355300Y0265836D01*
X0355306Y0266000D01*
X0355316Y0266164D01*
X0355330Y0266328D01*
X0355348Y0266491D01*
X0355370Y0266654D01*
X0355397Y0266816D01*
X0355427Y0266978D01*
X0355461Y0267138D01*
X0355499Y0267298D01*
X0355540Y0267457D01*
X0355586Y0267615D01*
X0355636Y0267771D01*
X0355689Y0267927D01*
X0355746Y0268081D01*
X0355807Y0268233D01*
X0355872Y0268384D01*
X0355941Y0268534D01*
X0356013Y0268681D01*
X0356088Y0268827D01*
X0356168Y0268971D01*
X0356250Y0269113D01*
X0356336Y0269253D01*
X0356426Y0269390D01*
X0356519Y0269526D01*
X0356615Y0269659D01*
X0356715Y0269790D01*
X0356817Y0269918D01*
X0356923Y0270044D01*
X0357032Y0270167D01*
X0357144Y0270287D01*
X0357258Y0270405D01*
X0357376Y0270519D01*
X0357496Y0270631D01*
X0357619Y0270740D01*
X0357745Y0270846D01*
X0357873Y0270948D01*
X0358004Y0271048D01*
X0358137Y0271144D01*
X0358273Y0271237D01*
X0358410Y0271327D01*
X0358550Y0271413D01*
X0358692Y0271495D01*
X0358836Y0271575D01*
X0358982Y0271650D01*
X0359129Y0271722D01*
X0359279Y0271791D01*
X0359430Y0271856D01*
X0359582Y0271917D01*
X0359736Y0271974D01*
X0359892Y0272027D01*
X0360048Y0272077D01*
X0360206Y0272123D01*
X0360365Y0272164D01*
X0360525Y0272202D01*
X0360685Y0272236D01*
X0360847Y0272266D01*
X0361009Y0272293D01*
X0361172Y0272315D01*
X0361335Y0272333D01*
X0361499Y0272347D01*
X0361663Y0272357D01*
X0361827Y0272363D01*
X0361991Y0272365D01*
X0362155Y0272363D01*
X0362319Y0272357D01*
X0362483Y0272347D01*
X0362647Y0272333D01*
X0362810Y0272315D01*
X0362973Y0272293D01*
X0363135Y0272266D01*
X0363297Y0272236D01*
X0363457Y0272202D01*
X0363617Y0272164D01*
X0363776Y0272123D01*
X0363934Y0272077D01*
X0364090Y0272027D01*
X0364246Y0271974D01*
X0364400Y0271917D01*
X0364552Y0271856D01*
X0364703Y0271791D01*
X0364853Y0271722D01*
X0365000Y0271650D01*
X0365146Y0271575D01*
X0365290Y0271495D01*
X0365432Y0271413D01*
X0365572Y0271327D01*
X0365709Y0271237D01*
X0365845Y0271144D01*
X0365978Y0271048D01*
X0366109Y0270948D01*
X0366237Y0270846D01*
X0366363Y0270740D01*
X0366486Y0270631D01*
X0366606Y0270519D01*
X0366724Y0270405D01*
X0366838Y0270287D01*
X0366950Y0270167D01*
X0367059Y0270044D01*
X0367165Y0269918D01*
X0367267Y0269790D01*
X0367367Y0269659D01*
X0367463Y0269526D01*
X0367556Y0269390D01*
X0367646Y0269253D01*
X0367732Y0269113D01*
X0367814Y0268971D01*
X0367894Y0268827D01*
X0367969Y0268681D01*
X0368041Y0268534D01*
X0368110Y0268384D01*
X0368175Y0268233D01*
X0368236Y0268081D01*
X0368293Y0267927D01*
X0368346Y0267771D01*
X0368396Y0267615D01*
X0368442Y0267457D01*
X0368483Y0267298D01*
X0368521Y0267138D01*
X0368555Y0266978D01*
X0368585Y0266816D01*
X0368612Y0266654D01*
X0368634Y0266491D01*
X0368652Y0266328D01*
X0368666Y0266164D01*
X0368676Y0266000D01*
X0368682Y0265836D01*
X0368684Y0265672D01*
X0368682Y0265508D01*
X0368676Y0265344D01*
X0368666Y0265180D01*
X0368652Y0265016D01*
X0368634Y0264853D01*
X0368612Y0264690D01*
X0368585Y0264528D01*
X0368555Y0264366D01*
X0368521Y0264206D01*
X0368483Y0264046D01*
X0368442Y0263887D01*
X0368396Y0263729D01*
X0368346Y0263573D01*
X0368293Y0263417D01*
X0368236Y0263263D01*
X0368175Y0263111D01*
X0368110Y0262960D01*
X0368041Y0262810D01*
X0367969Y0262663D01*
X0367894Y0262517D01*
X0367814Y0262373D01*
X0367732Y0262231D01*
X0367646Y0262091D01*
X0367556Y0261954D01*
X0367463Y0261818D01*
X0367367Y0261685D01*
X0367267Y0261554D01*
X0367165Y0261426D01*
X0367059Y0261300D01*
X0366950Y0261177D01*
X0366838Y0261057D01*
X0366724Y0260939D01*
X0366606Y0260825D01*
X0366486Y0260713D01*
X0366363Y0260604D01*
X0366237Y0260498D01*
X0366109Y0260396D01*
X0365978Y0260296D01*
X0365845Y0260200D01*
X0365709Y0260107D01*
X0365572Y0260017D01*
X0365432Y0259931D01*
X0365290Y0259849D01*
X0365146Y0259769D01*
X0365000Y0259694D01*
X0364853Y0259622D01*
X0364703Y0259553D01*
X0364552Y0259488D01*
X0364400Y0259427D01*
X0364246Y0259370D01*
X0364090Y0259317D01*
X0363934Y0259267D01*
X0363776Y0259221D01*
X0363617Y0259180D01*
X0363457Y0259142D01*
X0363297Y0259108D01*
X0363135Y0259078D01*
X0362973Y0259051D01*
X0362810Y0259029D01*
X0362647Y0259011D01*
X0362483Y0258997D01*
X0362319Y0258987D01*
X0362155Y0258981D01*
X0361991Y0258979D01*
X0361827Y0258981D01*
X0361663Y0258987D01*
X0361499Y0258997D01*
X0361335Y0259011D01*
X0361172Y0259029D01*
X0361009Y0259051D01*
X0360847Y0259078D01*
X0360685Y0259108D01*
X0360525Y0259142D01*
X0360365Y0259180D01*
X0360206Y0259221D01*
X0360048Y0259267D01*
X0359892Y0259317D01*
X0359736Y0259370D01*
X0359582Y0259427D01*
X0359430Y0259488D01*
X0359279Y0259553D01*
X0359129Y0259622D01*
X0358982Y0259694D01*
X0358836Y0259769D01*
X0358692Y0259849D01*
X0358550Y0259931D01*
X0358410Y0260017D01*
X0358273Y0260107D01*
X0358137Y0260200D01*
X0358004Y0260296D01*
X0357873Y0260396D01*
X0357745Y0260498D01*
X0357619Y0260604D01*
X0357496Y0260713D01*
X0357376Y0260825D01*
X0357258Y0260939D01*
X0357144Y0261057D01*
X0357032Y0261177D01*
X0356923Y0261300D01*
X0356817Y0261426D01*
X0356715Y0261554D01*
X0356615Y0261685D01*
X0356519Y0261818D01*
X0356426Y0261954D01*
X0356336Y0262091D01*
X0356250Y0262231D01*
X0356168Y0262373D01*
X0356088Y0262517D01*
X0356013Y0262663D01*
X0355941Y0262810D01*
X0355872Y0262960D01*
X0355807Y0263111D01*
X0355746Y0263263D01*
X0355689Y0263417D01*
X0355636Y0263573D01*
X0355586Y0263729D01*
X0355540Y0263887D01*
X0355499Y0264046D01*
X0355461Y0264206D01*
X0355427Y0264366D01*
X0355397Y0264528D01*
X0355370Y0264690D01*
X0355348Y0264853D01*
X0355330Y0265016D01*
X0355316Y0265180D01*
X0355306Y0265344D01*
X0355300Y0265508D01*
X0355298Y0265672D01*
X0040337Y0265672D02*
X0040339Y0265836D01*
X0040345Y0266000D01*
X0040355Y0266164D01*
X0040369Y0266328D01*
X0040387Y0266491D01*
X0040409Y0266654D01*
X0040436Y0266816D01*
X0040466Y0266978D01*
X0040500Y0267138D01*
X0040538Y0267298D01*
X0040579Y0267457D01*
X0040625Y0267615D01*
X0040675Y0267771D01*
X0040728Y0267927D01*
X0040785Y0268081D01*
X0040846Y0268233D01*
X0040911Y0268384D01*
X0040980Y0268534D01*
X0041052Y0268681D01*
X0041127Y0268827D01*
X0041207Y0268971D01*
X0041289Y0269113D01*
X0041375Y0269253D01*
X0041465Y0269390D01*
X0041558Y0269526D01*
X0041654Y0269659D01*
X0041754Y0269790D01*
X0041856Y0269918D01*
X0041962Y0270044D01*
X0042071Y0270167D01*
X0042183Y0270287D01*
X0042297Y0270405D01*
X0042415Y0270519D01*
X0042535Y0270631D01*
X0042658Y0270740D01*
X0042784Y0270846D01*
X0042912Y0270948D01*
X0043043Y0271048D01*
X0043176Y0271144D01*
X0043312Y0271237D01*
X0043449Y0271327D01*
X0043589Y0271413D01*
X0043731Y0271495D01*
X0043875Y0271575D01*
X0044021Y0271650D01*
X0044168Y0271722D01*
X0044318Y0271791D01*
X0044469Y0271856D01*
X0044621Y0271917D01*
X0044775Y0271974D01*
X0044931Y0272027D01*
X0045087Y0272077D01*
X0045245Y0272123D01*
X0045404Y0272164D01*
X0045564Y0272202D01*
X0045724Y0272236D01*
X0045886Y0272266D01*
X0046048Y0272293D01*
X0046211Y0272315D01*
X0046374Y0272333D01*
X0046538Y0272347D01*
X0046702Y0272357D01*
X0046866Y0272363D01*
X0047030Y0272365D01*
X0047194Y0272363D01*
X0047358Y0272357D01*
X0047522Y0272347D01*
X0047686Y0272333D01*
X0047849Y0272315D01*
X0048012Y0272293D01*
X0048174Y0272266D01*
X0048336Y0272236D01*
X0048496Y0272202D01*
X0048656Y0272164D01*
X0048815Y0272123D01*
X0048973Y0272077D01*
X0049129Y0272027D01*
X0049285Y0271974D01*
X0049439Y0271917D01*
X0049591Y0271856D01*
X0049742Y0271791D01*
X0049892Y0271722D01*
X0050039Y0271650D01*
X0050185Y0271575D01*
X0050329Y0271495D01*
X0050471Y0271413D01*
X0050611Y0271327D01*
X0050748Y0271237D01*
X0050884Y0271144D01*
X0051017Y0271048D01*
X0051148Y0270948D01*
X0051276Y0270846D01*
X0051402Y0270740D01*
X0051525Y0270631D01*
X0051645Y0270519D01*
X0051763Y0270405D01*
X0051877Y0270287D01*
X0051989Y0270167D01*
X0052098Y0270044D01*
X0052204Y0269918D01*
X0052306Y0269790D01*
X0052406Y0269659D01*
X0052502Y0269526D01*
X0052595Y0269390D01*
X0052685Y0269253D01*
X0052771Y0269113D01*
X0052853Y0268971D01*
X0052933Y0268827D01*
X0053008Y0268681D01*
X0053080Y0268534D01*
X0053149Y0268384D01*
X0053214Y0268233D01*
X0053275Y0268081D01*
X0053332Y0267927D01*
X0053385Y0267771D01*
X0053435Y0267615D01*
X0053481Y0267457D01*
X0053522Y0267298D01*
X0053560Y0267138D01*
X0053594Y0266978D01*
X0053624Y0266816D01*
X0053651Y0266654D01*
X0053673Y0266491D01*
X0053691Y0266328D01*
X0053705Y0266164D01*
X0053715Y0266000D01*
X0053721Y0265836D01*
X0053723Y0265672D01*
X0053721Y0265508D01*
X0053715Y0265344D01*
X0053705Y0265180D01*
X0053691Y0265016D01*
X0053673Y0264853D01*
X0053651Y0264690D01*
X0053624Y0264528D01*
X0053594Y0264366D01*
X0053560Y0264206D01*
X0053522Y0264046D01*
X0053481Y0263887D01*
X0053435Y0263729D01*
X0053385Y0263573D01*
X0053332Y0263417D01*
X0053275Y0263263D01*
X0053214Y0263111D01*
X0053149Y0262960D01*
X0053080Y0262810D01*
X0053008Y0262663D01*
X0052933Y0262517D01*
X0052853Y0262373D01*
X0052771Y0262231D01*
X0052685Y0262091D01*
X0052595Y0261954D01*
X0052502Y0261818D01*
X0052406Y0261685D01*
X0052306Y0261554D01*
X0052204Y0261426D01*
X0052098Y0261300D01*
X0051989Y0261177D01*
X0051877Y0261057D01*
X0051763Y0260939D01*
X0051645Y0260825D01*
X0051525Y0260713D01*
X0051402Y0260604D01*
X0051276Y0260498D01*
X0051148Y0260396D01*
X0051017Y0260296D01*
X0050884Y0260200D01*
X0050748Y0260107D01*
X0050611Y0260017D01*
X0050471Y0259931D01*
X0050329Y0259849D01*
X0050185Y0259769D01*
X0050039Y0259694D01*
X0049892Y0259622D01*
X0049742Y0259553D01*
X0049591Y0259488D01*
X0049439Y0259427D01*
X0049285Y0259370D01*
X0049129Y0259317D01*
X0048973Y0259267D01*
X0048815Y0259221D01*
X0048656Y0259180D01*
X0048496Y0259142D01*
X0048336Y0259108D01*
X0048174Y0259078D01*
X0048012Y0259051D01*
X0047849Y0259029D01*
X0047686Y0259011D01*
X0047522Y0258997D01*
X0047358Y0258987D01*
X0047194Y0258981D01*
X0047030Y0258979D01*
X0046866Y0258981D01*
X0046702Y0258987D01*
X0046538Y0258997D01*
X0046374Y0259011D01*
X0046211Y0259029D01*
X0046048Y0259051D01*
X0045886Y0259078D01*
X0045724Y0259108D01*
X0045564Y0259142D01*
X0045404Y0259180D01*
X0045245Y0259221D01*
X0045087Y0259267D01*
X0044931Y0259317D01*
X0044775Y0259370D01*
X0044621Y0259427D01*
X0044469Y0259488D01*
X0044318Y0259553D01*
X0044168Y0259622D01*
X0044021Y0259694D01*
X0043875Y0259769D01*
X0043731Y0259849D01*
X0043589Y0259931D01*
X0043449Y0260017D01*
X0043312Y0260107D01*
X0043176Y0260200D01*
X0043043Y0260296D01*
X0042912Y0260396D01*
X0042784Y0260498D01*
X0042658Y0260604D01*
X0042535Y0260713D01*
X0042415Y0260825D01*
X0042297Y0260939D01*
X0042183Y0261057D01*
X0042071Y0261177D01*
X0041962Y0261300D01*
X0041856Y0261426D01*
X0041754Y0261554D01*
X0041654Y0261685D01*
X0041558Y0261818D01*
X0041465Y0261954D01*
X0041375Y0262091D01*
X0041289Y0262231D01*
X0041207Y0262373D01*
X0041127Y0262517D01*
X0041052Y0262663D01*
X0040980Y0262810D01*
X0040911Y0262960D01*
X0040846Y0263111D01*
X0040785Y0263263D01*
X0040728Y0263417D01*
X0040675Y0263573D01*
X0040625Y0263729D01*
X0040579Y0263887D01*
X0040538Y0264046D01*
X0040500Y0264206D01*
X0040466Y0264366D01*
X0040436Y0264528D01*
X0040409Y0264690D01*
X0040387Y0264853D01*
X0040369Y0265016D01*
X0040355Y0265180D01*
X0040345Y0265344D01*
X0040339Y0265508D01*
X0040337Y0265672D01*
D11*
X0121502Y0254395D02*
X0121502Y0251192D01*
X0121502Y0254395D02*
X0122569Y0255462D01*
X0124704Y0255462D01*
X0125772Y0254395D01*
X0127947Y0255462D02*
X0131150Y0255462D01*
X0132218Y0254395D01*
X0132218Y0252260D01*
X0131150Y0251192D01*
X0127947Y0251192D01*
X0125772Y0251192D02*
X0125772Y0257598D01*
X0134379Y0255462D02*
X0136515Y0255462D01*
X0135447Y0256530D02*
X0135447Y0252260D01*
X0134379Y0251192D01*
X0138676Y0251192D02*
X0140812Y0251192D01*
X0139744Y0251192D02*
X0139744Y0255462D01*
X0140812Y0255462D01*
X0142987Y0255462D02*
X0142987Y0252260D01*
X0144054Y0251192D01*
X0145122Y0252260D01*
X0146189Y0251192D01*
X0147257Y0252260D01*
X0147257Y0255462D01*
X0149432Y0255462D02*
X0152635Y0255462D01*
X0153703Y0254395D01*
X0152635Y0253327D01*
X0150500Y0253327D01*
X0149432Y0252260D01*
X0150500Y0251192D01*
X0153703Y0251192D01*
X0155878Y0254395D02*
X0160148Y0254395D01*
X0162323Y0255462D02*
X0162323Y0250125D01*
X0163391Y0249057D01*
X0164458Y0249057D01*
X0165526Y0251192D02*
X0162323Y0251192D01*
X0165526Y0251192D02*
X0166594Y0252260D01*
X0166594Y0255462D01*
X0168769Y0255462D02*
X0171971Y0255462D01*
X0173039Y0254395D01*
X0173039Y0252260D01*
X0171971Y0251192D01*
X0168769Y0251192D01*
X0175201Y0251192D02*
X0177336Y0251192D01*
X0176268Y0251192D02*
X0176268Y0255462D01*
X0177336Y0255462D01*
X0179511Y0255462D02*
X0179511Y0251192D01*
X0182714Y0251192D01*
X0183782Y0252260D01*
X0183782Y0255462D01*
X0185943Y0255462D02*
X0185943Y0250125D01*
X0187011Y0249057D01*
X0188079Y0249057D01*
X0194524Y0251192D02*
X0190254Y0257598D01*
X0185943Y0257598D02*
X0185943Y0258665D01*
X0176268Y0258665D02*
X0176268Y0257598D01*
X0196686Y0255462D02*
X0198821Y0255462D01*
X0197753Y0256530D02*
X0197753Y0252260D01*
X0196686Y0251192D01*
X0200996Y0252260D02*
X0200996Y0254395D01*
X0202064Y0255462D01*
X0204199Y0255462D01*
X0205267Y0254395D01*
X0205267Y0252260D01*
X0204199Y0251192D01*
X0202064Y0251192D01*
X0200996Y0252260D01*
X0207428Y0251192D02*
X0209564Y0251192D01*
X0208496Y0251192D02*
X0208496Y0255462D01*
X0209564Y0255462D01*
X0211739Y0255462D02*
X0211739Y0250125D01*
X0212806Y0249057D01*
X0213874Y0249057D01*
X0214941Y0251192D02*
X0211739Y0251192D01*
X0214941Y0251192D02*
X0216009Y0252260D01*
X0216009Y0255462D01*
X0218184Y0255462D02*
X0221387Y0255462D01*
X0222455Y0254395D01*
X0222455Y0252260D01*
X0221387Y0251192D01*
X0218184Y0251192D01*
X0224616Y0251192D02*
X0226752Y0251192D01*
X0225684Y0251192D02*
X0225684Y0255462D01*
X0226752Y0255462D01*
X0228927Y0255462D02*
X0228927Y0251192D01*
X0232129Y0251192D01*
X0233197Y0252260D01*
X0233197Y0255462D01*
X0235359Y0255462D02*
X0235359Y0250125D01*
X0236426Y0249057D01*
X0237494Y0249057D01*
X0243939Y0251192D02*
X0239669Y0257598D01*
X0235359Y0257598D02*
X0235359Y0258665D01*
X0225684Y0258665D02*
X0225684Y0257598D01*
X0208496Y0257598D02*
X0208496Y0258665D01*
X0233217Y0234462D02*
X0234285Y0234462D01*
X0236420Y0232327D01*
X0236420Y0230192D02*
X0236420Y0234462D01*
X0238595Y0233395D02*
X0238595Y0232327D01*
X0242865Y0232327D01*
X0242865Y0231260D02*
X0242865Y0233395D01*
X0241798Y0234462D01*
X0239663Y0234462D01*
X0238595Y0233395D01*
X0239663Y0230192D02*
X0241798Y0230192D01*
X0242865Y0231260D01*
X0245040Y0230192D02*
X0248243Y0230192D01*
X0249311Y0231260D01*
X0249311Y0233395D01*
X0248243Y0234462D01*
X0245040Y0234462D01*
X0245040Y0229125D01*
X0246108Y0228057D01*
X0247176Y0228057D01*
X0247162Y0226098D02*
X0242892Y0226098D01*
X0245027Y0222895D02*
X0247162Y0222895D01*
X0247162Y0226098D02*
X0247162Y0219692D01*
X0242892Y0219692D01*
X0240717Y0220760D02*
X0239649Y0219692D01*
X0236446Y0219692D01*
X0236446Y0218625D02*
X0236446Y0223962D01*
X0239649Y0223962D01*
X0240717Y0222895D01*
X0240717Y0220760D01*
X0238582Y0217557D02*
X0237514Y0217557D01*
X0236446Y0218625D01*
X0234271Y0220760D02*
X0233204Y0219692D01*
X0230001Y0219692D01*
X0230001Y0218625D02*
X0230001Y0223962D01*
X0233204Y0223962D01*
X0234271Y0222895D01*
X0234271Y0220760D01*
X0232136Y0217557D02*
X0231069Y0217557D01*
X0230001Y0218625D01*
X0227826Y0220760D02*
X0227826Y0222895D01*
X0226758Y0223962D01*
X0224623Y0223962D01*
X0223555Y0222895D01*
X0223555Y0221827D01*
X0227826Y0221827D01*
X0227826Y0220760D02*
X0226758Y0219692D01*
X0224623Y0219692D01*
X0221380Y0219692D02*
X0221380Y0223962D01*
X0221380Y0221827D02*
X0219245Y0223962D01*
X0218178Y0223962D01*
X0251486Y0229125D02*
X0251486Y0234462D01*
X0254689Y0234462D01*
X0255756Y0233395D01*
X0255756Y0231260D01*
X0254689Y0230192D01*
X0251486Y0230192D01*
X0251486Y0229125D02*
X0252554Y0228057D01*
X0253621Y0228057D01*
X0256837Y0226098D02*
X0256837Y0219692D01*
X0255770Y0219692D02*
X0257905Y0219692D01*
X0260080Y0221827D02*
X0264350Y0221827D01*
X0264350Y0220760D02*
X0264350Y0222895D01*
X0263283Y0223962D01*
X0261148Y0223962D01*
X0260080Y0222895D01*
X0260080Y0221827D01*
X0261148Y0219692D02*
X0263283Y0219692D01*
X0264350Y0220760D01*
X0266512Y0219692D02*
X0268647Y0219692D01*
X0267580Y0219692D02*
X0267580Y0223962D01*
X0268647Y0223962D01*
X0267580Y0226098D02*
X0267580Y0227165D01*
X0268647Y0230192D02*
X0268647Y0236598D01*
X0265445Y0236598D01*
X0264377Y0235530D01*
X0264377Y0233395D01*
X0265445Y0232327D01*
X0268647Y0232327D01*
X0266512Y0232327D02*
X0264377Y0230192D01*
X0262202Y0231260D02*
X0262202Y0233395D01*
X0261134Y0234462D01*
X0258999Y0234462D01*
X0257931Y0233395D01*
X0257931Y0231260D01*
X0258999Y0230192D01*
X0261134Y0230192D01*
X0262202Y0231260D01*
X0257905Y0226098D02*
X0256837Y0226098D01*
X0270822Y0222895D02*
X0270822Y0219692D01*
X0270822Y0222895D02*
X0271890Y0223962D01*
X0275093Y0223962D01*
X0275093Y0219692D01*
X0277268Y0219692D02*
X0280471Y0219692D01*
X0281538Y0220760D01*
X0280471Y0221827D01*
X0277268Y0221827D01*
X0277268Y0222895D02*
X0277268Y0219692D01*
X0277268Y0222895D02*
X0278335Y0223962D01*
X0280471Y0223962D01*
X0283713Y0225030D02*
X0283713Y0220760D01*
X0284781Y0219692D01*
X0287984Y0219692D01*
X0287984Y0226098D01*
X0284781Y0226098D01*
X0283713Y0225030D01*
X0284768Y0230192D02*
X0282632Y0230192D01*
X0284768Y0230192D02*
X0285835Y0231260D01*
X0285835Y0233395D01*
X0284768Y0234462D01*
X0282632Y0234462D01*
X0281565Y0233395D01*
X0281565Y0232327D01*
X0285835Y0232327D01*
X0288010Y0232327D02*
X0291213Y0232327D01*
X0292281Y0231260D01*
X0291213Y0230192D01*
X0288010Y0230192D01*
X0288010Y0233395D01*
X0289078Y0234462D01*
X0291213Y0234462D01*
X0294456Y0233395D02*
X0294456Y0230192D01*
X0294456Y0233395D02*
X0295523Y0234462D01*
X0297659Y0234462D01*
X0298726Y0233395D01*
X0300901Y0234462D02*
X0304104Y0234462D01*
X0305172Y0233395D01*
X0305172Y0231260D01*
X0304104Y0230192D01*
X0300901Y0230192D01*
X0298726Y0230192D02*
X0298726Y0236598D01*
X0301956Y0240692D02*
X0303023Y0240692D01*
X0303023Y0241760D01*
X0301956Y0241760D01*
X0301956Y0240692D01*
X0301956Y0243895D02*
X0303023Y0243895D01*
X0303023Y0244962D01*
X0301956Y0244962D01*
X0301956Y0243895D01*
X0305198Y0243895D02*
X0305198Y0240692D01*
X0305198Y0243895D02*
X0306266Y0244962D01*
X0309469Y0244962D01*
X0309469Y0240692D01*
X0311644Y0241760D02*
X0312711Y0240692D01*
X0314847Y0240692D01*
X0315914Y0241760D01*
X0315914Y0243895D01*
X0314847Y0244962D01*
X0312711Y0244962D01*
X0311644Y0243895D01*
X0311644Y0241760D01*
X0311644Y0236598D02*
X0311644Y0230192D01*
X0309469Y0230192D02*
X0307334Y0230192D01*
X0308401Y0230192D02*
X0308401Y0234462D01*
X0309469Y0234462D01*
X0308401Y0236598D02*
X0308401Y0237665D01*
X0311644Y0236598D02*
X0313779Y0234462D01*
X0315914Y0236598D01*
X0315914Y0230192D01*
X0324515Y0230192D02*
X0325582Y0230192D01*
X0325582Y0231260D01*
X0324515Y0231260D01*
X0324515Y0230192D01*
X0324515Y0233395D02*
X0325582Y0233395D01*
X0325582Y0234462D01*
X0324515Y0234462D01*
X0324515Y0233395D01*
X0327758Y0234462D02*
X0327758Y0235530D01*
X0328825Y0236598D01*
X0332028Y0236598D01*
X0332028Y0230192D01*
X0328825Y0230192D01*
X0327758Y0231260D01*
X0327758Y0232327D01*
X0328825Y0233395D01*
X0332028Y0233395D01*
X0334203Y0235530D02*
X0335271Y0236598D01*
X0337406Y0236598D01*
X0338473Y0235530D01*
X0338473Y0231260D01*
X0337406Y0230192D01*
X0335271Y0230192D01*
X0334203Y0231260D01*
X0337406Y0227165D02*
X0337406Y0226098D01*
X0337406Y0223962D02*
X0337406Y0219692D01*
X0338473Y0219692D02*
X0336338Y0219692D01*
X0334176Y0219692D02*
X0334176Y0223962D01*
X0334176Y0221827D02*
X0332041Y0223962D01*
X0330974Y0223962D01*
X0328805Y0223962D02*
X0327738Y0223962D01*
X0326670Y0222895D01*
X0325602Y0223962D01*
X0324535Y0222895D01*
X0324535Y0219692D01*
X0326670Y0219692D02*
X0326670Y0222895D01*
X0328805Y0223962D02*
X0328805Y0219692D01*
X0322360Y0220760D02*
X0321292Y0219692D01*
X0320225Y0220760D01*
X0319157Y0219692D01*
X0318089Y0220760D01*
X0318089Y0223962D01*
X0314847Y0223962D02*
X0312711Y0223962D01*
X0311644Y0222895D01*
X0311644Y0219692D01*
X0314847Y0219692D01*
X0315914Y0220760D01*
X0314847Y0221827D01*
X0311644Y0221827D01*
X0309469Y0221827D02*
X0307334Y0223962D01*
X0306266Y0223962D01*
X0304097Y0222895D02*
X0304097Y0220760D01*
X0303030Y0219692D01*
X0300895Y0219692D01*
X0299827Y0221827D02*
X0304097Y0221827D01*
X0304097Y0222895D02*
X0303030Y0223962D01*
X0300895Y0223962D01*
X0299827Y0222895D01*
X0299827Y0221827D01*
X0297652Y0220760D02*
X0297652Y0219692D01*
X0296584Y0219692D01*
X0296584Y0220760D01*
X0297652Y0220760D01*
X0297652Y0222895D02*
X0297652Y0223962D01*
X0296584Y0223962D01*
X0296584Y0222895D01*
X0297652Y0222895D01*
X0309469Y0223962D02*
X0309469Y0219692D01*
X0322360Y0220760D02*
X0322360Y0223962D01*
X0328825Y0233395D02*
X0327758Y0234462D01*
X0326657Y0240692D02*
X0323454Y0240692D01*
X0322386Y0241760D01*
X0323454Y0242827D01*
X0325589Y0242827D01*
X0326657Y0243895D01*
X0325589Y0244962D01*
X0322386Y0244962D01*
X0320211Y0244962D02*
X0319144Y0244962D01*
X0319144Y0240692D01*
X0320211Y0240692D02*
X0318076Y0240692D01*
X0319144Y0247098D02*
X0319144Y0248165D01*
X0320231Y0251192D02*
X0319164Y0252260D01*
X0320231Y0253327D01*
X0322366Y0253327D01*
X0323434Y0254395D01*
X0322366Y0255462D01*
X0319164Y0255462D01*
X0316988Y0255462D02*
X0316988Y0254395D01*
X0315921Y0254395D01*
X0315921Y0255462D01*
X0316988Y0255462D01*
X0313766Y0251192D02*
X0309495Y0257598D01*
X0303050Y0257598D02*
X0307320Y0251192D01*
X0300875Y0252260D02*
X0299807Y0251192D01*
X0296604Y0251192D01*
X0296604Y0250125D02*
X0296604Y0255462D01*
X0299807Y0255462D01*
X0300875Y0254395D01*
X0300875Y0252260D01*
X0298740Y0249057D02*
X0297672Y0249057D01*
X0296604Y0250125D01*
X0294429Y0251192D02*
X0292294Y0251192D01*
X0293362Y0251192D02*
X0293362Y0255462D01*
X0294429Y0255462D01*
X0293362Y0257598D02*
X0293362Y0258665D01*
X0290132Y0255462D02*
X0287997Y0255462D01*
X0289065Y0256530D02*
X0289065Y0252260D01*
X0287997Y0251192D01*
X0285835Y0251192D02*
X0285835Y0257598D01*
X0284768Y0255462D02*
X0282632Y0255462D01*
X0281565Y0254395D01*
X0281565Y0251192D01*
X0279390Y0252260D02*
X0278322Y0251192D01*
X0275119Y0251192D01*
X0275119Y0255462D01*
X0272944Y0255462D02*
X0269741Y0255462D01*
X0268674Y0254395D01*
X0268674Y0252260D01*
X0269741Y0251192D01*
X0272944Y0251192D01*
X0272944Y0257598D01*
X0279390Y0255462D02*
X0279390Y0252260D01*
X0284768Y0255462D02*
X0285835Y0254395D01*
X0290152Y0247098D02*
X0292287Y0247098D01*
X0293355Y0246030D01*
X0290152Y0247098D02*
X0289085Y0246030D01*
X0289085Y0244962D01*
X0293355Y0240692D01*
X0289085Y0240692D01*
X0279390Y0236598D02*
X0278322Y0236598D01*
X0278322Y0230192D01*
X0277255Y0230192D02*
X0279390Y0230192D01*
X0266499Y0251192D02*
X0265431Y0251192D01*
X0265431Y0252260D01*
X0266499Y0252260D01*
X0266499Y0251192D01*
X0263276Y0252260D02*
X0263276Y0254395D01*
X0262208Y0255462D01*
X0259006Y0255462D01*
X0256830Y0254395D02*
X0256830Y0252260D01*
X0255763Y0251192D01*
X0253628Y0251192D01*
X0252560Y0252260D01*
X0252560Y0254395D01*
X0253628Y0255462D01*
X0255763Y0255462D01*
X0256830Y0254395D01*
X0259006Y0251192D02*
X0262208Y0251192D01*
X0263276Y0252260D01*
X0250385Y0251192D02*
X0250385Y0255462D01*
X0249317Y0255462D01*
X0248250Y0254395D01*
X0247182Y0255462D01*
X0246115Y0254395D01*
X0246115Y0251192D01*
X0248250Y0251192D02*
X0248250Y0254395D01*
X0315921Y0252260D02*
X0315921Y0251192D01*
X0316988Y0251192D01*
X0316988Y0252260D01*
X0315921Y0252260D01*
X0320231Y0251192D02*
X0323434Y0251192D01*
X0325609Y0252260D02*
X0325609Y0254395D01*
X0326677Y0255462D01*
X0329879Y0255462D01*
X0329879Y0249057D01*
X0329879Y0251192D02*
X0326677Y0251192D01*
X0325609Y0252260D01*
X0332041Y0251192D02*
X0333109Y0252260D01*
X0333109Y0256530D01*
X0334176Y0255462D02*
X0332041Y0255462D01*
X0336338Y0255462D02*
X0338473Y0255462D01*
X0337406Y0256530D02*
X0337406Y0252260D01*
X0336338Y0251192D01*
X0340649Y0251192D02*
X0340649Y0254395D01*
X0341716Y0255462D01*
X0343851Y0255462D01*
X0344919Y0254395D01*
X0344919Y0257598D02*
X0344919Y0251192D01*
X0344919Y0247098D02*
X0344919Y0242827D01*
X0342784Y0240692D01*
X0340649Y0242827D01*
X0340649Y0247098D01*
X0338473Y0243895D02*
X0337406Y0244962D01*
X0335271Y0244962D01*
X0334203Y0243895D01*
X0334203Y0242827D01*
X0338473Y0242827D01*
X0338473Y0241760D02*
X0338473Y0243895D01*
X0338473Y0241760D02*
X0337406Y0240692D01*
X0335271Y0240692D01*
X0332028Y0240692D02*
X0332028Y0244962D01*
X0332028Y0242827D02*
X0329893Y0244962D01*
X0328825Y0244962D01*
X0340649Y0235530D02*
X0340649Y0233395D01*
X0341716Y0232327D01*
X0344919Y0232327D01*
X0344919Y0230192D02*
X0344919Y0236598D01*
X0341716Y0236598D01*
X0340649Y0235530D01*
X0340649Y0226098D02*
X0344919Y0226098D01*
X0344919Y0219692D01*
X0344919Y0222895D02*
X0342784Y0222895D01*
X0338473Y0223962D02*
X0337406Y0223962D01*
X0139744Y0257598D02*
X0139744Y0258665D01*
D12*
X0222908Y0127657D02*
X0223689Y0128103D01*
X0223782Y0127946D01*
X0223879Y0127792D01*
X0223980Y0127640D01*
X0224085Y0127491D01*
X0224193Y0127344D01*
X0224304Y0127199D01*
X0224419Y0127058D01*
X0224538Y0126919D01*
X0224660Y0126784D01*
X0224785Y0126651D01*
X0224913Y0126521D01*
X0225044Y0126395D01*
X0225178Y0126271D01*
X0225315Y0126151D01*
X0225455Y0126034D01*
X0225598Y0125921D01*
X0225744Y0125811D01*
X0225892Y0125705D01*
X0226043Y0125602D01*
X0226196Y0125503D01*
X0226351Y0125408D01*
X0226509Y0125317D01*
X0226669Y0125229D01*
X0226831Y0125145D01*
X0226994Y0125065D01*
X0227160Y0124989D01*
X0227328Y0124918D01*
X0227497Y0124850D01*
X0227668Y0124786D01*
X0227840Y0124727D01*
X0228014Y0124671D01*
X0228189Y0124620D01*
X0228365Y0124573D01*
X0228542Y0124531D01*
X0228721Y0124492D01*
X0228900Y0124458D01*
X0229080Y0124428D01*
X0229260Y0124403D01*
X0229441Y0124382D01*
X0229623Y0124366D01*
X0229805Y0124353D01*
X0229987Y0124346D01*
X0230169Y0124342D01*
X0230170Y0123443D01*
X0230169Y0123442D01*
X0229965Y0123446D01*
X0229761Y0123454D01*
X0229557Y0123468D01*
X0229353Y0123486D01*
X0229150Y0123510D01*
X0228948Y0123538D01*
X0228746Y0123571D01*
X0228546Y0123609D01*
X0228346Y0123652D01*
X0228147Y0123700D01*
X0227950Y0123752D01*
X0227754Y0123810D01*
X0227559Y0123872D01*
X0227366Y0123938D01*
X0227174Y0124010D01*
X0226985Y0124086D01*
X0226797Y0124166D01*
X0226611Y0124251D01*
X0226427Y0124341D01*
X0226246Y0124434D01*
X0226067Y0124533D01*
X0225890Y0124635D01*
X0225716Y0124742D01*
X0225544Y0124853D01*
X0225375Y0124968D01*
X0225209Y0125087D01*
X0225046Y0125210D01*
X0224886Y0125337D01*
X0224729Y0125468D01*
X0224575Y0125603D01*
X0224425Y0125741D01*
X0224278Y0125883D01*
X0224134Y0126028D01*
X0223994Y0126177D01*
X0223858Y0126329D01*
X0223725Y0126485D01*
X0223597Y0126643D01*
X0223472Y0126805D01*
X0223351Y0126970D01*
X0223234Y0127137D01*
X0223121Y0127308D01*
X0223012Y0127481D01*
X0222907Y0127656D01*
X0222989Y0127703D01*
X0223092Y0127529D01*
X0223200Y0127358D01*
X0223312Y0127190D01*
X0223427Y0127024D01*
X0223547Y0126861D01*
X0223671Y0126702D01*
X0223798Y0126545D01*
X0223929Y0126391D01*
X0224064Y0126241D01*
X0224202Y0126093D01*
X0224344Y0125950D01*
X0224490Y0125809D01*
X0224638Y0125673D01*
X0224790Y0125540D01*
X0224946Y0125410D01*
X0225104Y0125285D01*
X0225265Y0125163D01*
X0225429Y0125045D01*
X0225596Y0124931D01*
X0225766Y0124822D01*
X0225938Y0124716D01*
X0226113Y0124615D01*
X0226290Y0124517D01*
X0226469Y0124425D01*
X0226651Y0124336D01*
X0226835Y0124252D01*
X0227020Y0124172D01*
X0227208Y0124097D01*
X0227397Y0124027D01*
X0227588Y0123961D01*
X0227781Y0123900D01*
X0227975Y0123843D01*
X0228170Y0123791D01*
X0228366Y0123744D01*
X0228564Y0123702D01*
X0228762Y0123664D01*
X0228962Y0123631D01*
X0229162Y0123603D01*
X0229363Y0123580D01*
X0229564Y0123562D01*
X0229765Y0123548D01*
X0229967Y0123540D01*
X0230169Y0123536D01*
X0230169Y0123630D01*
X0229970Y0123634D01*
X0229770Y0123642D01*
X0229571Y0123655D01*
X0229372Y0123674D01*
X0229173Y0123696D01*
X0228976Y0123724D01*
X0228778Y0123757D01*
X0228582Y0123794D01*
X0228387Y0123836D01*
X0228193Y0123882D01*
X0228000Y0123934D01*
X0227808Y0123990D01*
X0227618Y0124050D01*
X0227429Y0124115D01*
X0227242Y0124185D01*
X0227056Y0124259D01*
X0226873Y0124338D01*
X0226691Y0124421D01*
X0226511Y0124509D01*
X0226334Y0124600D01*
X0226159Y0124696D01*
X0225986Y0124797D01*
X0225816Y0124901D01*
X0225648Y0125010D01*
X0225483Y0125122D01*
X0225321Y0125238D01*
X0225162Y0125359D01*
X0225005Y0125483D01*
X0224852Y0125611D01*
X0224701Y0125742D01*
X0224554Y0125878D01*
X0224411Y0126016D01*
X0224270Y0126158D01*
X0224133Y0126304D01*
X0224000Y0126453D01*
X0223870Y0126605D01*
X0223744Y0126760D01*
X0223622Y0126918D01*
X0223504Y0127079D01*
X0223390Y0127242D01*
X0223279Y0127409D01*
X0223173Y0127578D01*
X0223071Y0127749D01*
X0223152Y0127796D01*
X0223253Y0127626D01*
X0223358Y0127459D01*
X0223468Y0127295D01*
X0223581Y0127133D01*
X0223698Y0126974D01*
X0223818Y0126818D01*
X0223943Y0126664D01*
X0224071Y0126514D01*
X0224203Y0126367D01*
X0224338Y0126223D01*
X0224477Y0126083D01*
X0224619Y0125946D01*
X0224764Y0125812D01*
X0224913Y0125682D01*
X0225065Y0125556D01*
X0225219Y0125433D01*
X0225377Y0125314D01*
X0225537Y0125199D01*
X0225700Y0125088D01*
X0225866Y0124981D01*
X0226034Y0124877D01*
X0226205Y0124778D01*
X0226378Y0124683D01*
X0226554Y0124593D01*
X0226731Y0124506D01*
X0226911Y0124424D01*
X0227092Y0124346D01*
X0227275Y0124273D01*
X0227460Y0124204D01*
X0227647Y0124140D01*
X0227835Y0124080D01*
X0228025Y0124024D01*
X0228215Y0123974D01*
X0228407Y0123927D01*
X0228600Y0123886D01*
X0228794Y0123849D01*
X0228989Y0123817D01*
X0229185Y0123790D01*
X0229381Y0123767D01*
X0229578Y0123749D01*
X0229775Y0123736D01*
X0229972Y0123728D01*
X0230169Y0123724D01*
X0230169Y0123818D01*
X0229974Y0123822D01*
X0229779Y0123830D01*
X0229584Y0123843D01*
X0229390Y0123861D01*
X0229196Y0123883D01*
X0229003Y0123910D01*
X0228810Y0123942D01*
X0228619Y0123978D01*
X0228428Y0124019D01*
X0228238Y0124065D01*
X0228050Y0124115D01*
X0227862Y0124170D01*
X0227676Y0124229D01*
X0227492Y0124292D01*
X0227309Y0124361D01*
X0227128Y0124433D01*
X0226949Y0124510D01*
X0226771Y0124591D01*
X0226596Y0124677D01*
X0226422Y0124766D01*
X0226251Y0124860D01*
X0226083Y0124958D01*
X0225916Y0125060D01*
X0225752Y0125166D01*
X0225591Y0125276D01*
X0225433Y0125390D01*
X0225277Y0125507D01*
X0225124Y0125629D01*
X0224974Y0125754D01*
X0224827Y0125882D01*
X0224684Y0126014D01*
X0224543Y0126150D01*
X0224406Y0126289D01*
X0224272Y0126431D01*
X0224142Y0126576D01*
X0224015Y0126724D01*
X0223892Y0126876D01*
X0223773Y0127030D01*
X0223657Y0127187D01*
X0223546Y0127347D01*
X0223438Y0127510D01*
X0223334Y0127675D01*
X0223234Y0127843D01*
X0223315Y0127889D01*
X0223414Y0127724D01*
X0223517Y0127560D01*
X0223624Y0127400D01*
X0223734Y0127242D01*
X0223848Y0127086D01*
X0223966Y0126934D01*
X0224088Y0126784D01*
X0224213Y0126638D01*
X0224342Y0126494D01*
X0224474Y0126354D01*
X0224609Y0126216D01*
X0224748Y0126082D01*
X0224890Y0125952D01*
X0225035Y0125825D01*
X0225183Y0125701D01*
X0225334Y0125582D01*
X0225488Y0125465D01*
X0225645Y0125353D01*
X0225804Y0125244D01*
X0225966Y0125140D01*
X0226131Y0125039D01*
X0226297Y0124942D01*
X0226467Y0124849D01*
X0226638Y0124761D01*
X0226811Y0124676D01*
X0226987Y0124596D01*
X0227164Y0124520D01*
X0227343Y0124448D01*
X0227524Y0124381D01*
X0227706Y0124318D01*
X0227890Y0124260D01*
X0228075Y0124206D01*
X0228261Y0124156D01*
X0228449Y0124111D01*
X0228637Y0124070D01*
X0228826Y0124034D01*
X0229017Y0124003D01*
X0229208Y0123976D01*
X0229399Y0123954D01*
X0229591Y0123937D01*
X0229784Y0123924D01*
X0229976Y0123916D01*
X0230169Y0123912D01*
X0230169Y0124006D01*
X0229979Y0124010D01*
X0229788Y0124018D01*
X0229598Y0124030D01*
X0229408Y0124048D01*
X0229219Y0124070D01*
X0229031Y0124096D01*
X0228843Y0124127D01*
X0228655Y0124163D01*
X0228469Y0124203D01*
X0228284Y0124247D01*
X0228100Y0124296D01*
X0227917Y0124350D01*
X0227735Y0124407D01*
X0227555Y0124470D01*
X0227377Y0124536D01*
X0227200Y0124607D01*
X0227025Y0124682D01*
X0226851Y0124761D01*
X0226680Y0124845D01*
X0226511Y0124932D01*
X0226344Y0125024D01*
X0226179Y0125120D01*
X0226016Y0125219D01*
X0225856Y0125323D01*
X0225699Y0125430D01*
X0225544Y0125541D01*
X0225392Y0125656D01*
X0225243Y0125774D01*
X0225097Y0125896D01*
X0224953Y0126022D01*
X0224813Y0126151D01*
X0224676Y0126283D01*
X0224542Y0126419D01*
X0224411Y0126557D01*
X0224284Y0126699D01*
X0224160Y0126844D01*
X0224040Y0126992D01*
X0223924Y0127143D01*
X0223811Y0127296D01*
X0223702Y0127452D01*
X0223596Y0127611D01*
X0223495Y0127772D01*
X0223397Y0127936D01*
X0223479Y0127983D01*
X0223575Y0127821D01*
X0223675Y0127662D01*
X0223779Y0127505D01*
X0223887Y0127350D01*
X0223999Y0127199D01*
X0224114Y0127050D01*
X0224233Y0126904D01*
X0224355Y0126761D01*
X0224481Y0126621D01*
X0224610Y0126484D01*
X0224742Y0126350D01*
X0224878Y0126219D01*
X0225016Y0126092D01*
X0225158Y0125968D01*
X0225302Y0125847D01*
X0225450Y0125730D01*
X0225600Y0125617D01*
X0225753Y0125507D01*
X0225909Y0125401D01*
X0226067Y0125299D01*
X0226227Y0125200D01*
X0226390Y0125106D01*
X0226555Y0125015D01*
X0226722Y0124929D01*
X0226891Y0124846D01*
X0227062Y0124768D01*
X0227235Y0124694D01*
X0227410Y0124624D01*
X0227587Y0124558D01*
X0227765Y0124497D01*
X0227944Y0124440D01*
X0228125Y0124387D01*
X0228307Y0124338D01*
X0228490Y0124294D01*
X0228674Y0124255D01*
X0228859Y0124220D01*
X0229044Y0124189D01*
X0229231Y0124163D01*
X0229418Y0124141D01*
X0229605Y0124124D01*
X0229793Y0124112D01*
X0229981Y0124104D01*
X0230169Y0124100D01*
X0230169Y0124194D01*
X0229983Y0124198D01*
X0229798Y0124206D01*
X0229612Y0124218D01*
X0229427Y0124235D01*
X0229242Y0124256D01*
X0229058Y0124282D01*
X0228875Y0124312D01*
X0228692Y0124347D01*
X0228510Y0124386D01*
X0228329Y0124430D01*
X0228150Y0124477D01*
X0227971Y0124530D01*
X0227794Y0124586D01*
X0227618Y0124647D01*
X0227444Y0124712D01*
X0227271Y0124781D01*
X0227100Y0124854D01*
X0226931Y0124931D01*
X0226764Y0125013D01*
X0226599Y0125098D01*
X0226436Y0125188D01*
X0226275Y0125281D01*
X0226117Y0125378D01*
X0225961Y0125479D01*
X0225807Y0125584D01*
X0225656Y0125692D01*
X0225507Y0125804D01*
X0225362Y0125920D01*
X0225219Y0126039D01*
X0225079Y0126161D01*
X0224942Y0126287D01*
X0224808Y0126416D01*
X0224678Y0126549D01*
X0224550Y0126684D01*
X0224426Y0126822D01*
X0224305Y0126964D01*
X0224188Y0127108D01*
X0224074Y0127255D01*
X0223964Y0127405D01*
X0223857Y0127557D01*
X0223755Y0127712D01*
X0223656Y0127870D01*
X0223560Y0128029D01*
X0223642Y0128076D01*
X0223736Y0127918D01*
X0223834Y0127763D01*
X0223935Y0127610D01*
X0224041Y0127459D01*
X0224150Y0127311D01*
X0224262Y0127166D01*
X0224378Y0127024D01*
X0224497Y0126884D01*
X0224620Y0126747D01*
X0224746Y0126614D01*
X0224875Y0126483D01*
X0225007Y0126355D01*
X0225142Y0126231D01*
X0225280Y0126110D01*
X0225421Y0125993D01*
X0225565Y0125879D01*
X0225712Y0125768D01*
X0225861Y0125661D01*
X0226013Y0125557D01*
X0226167Y0125458D01*
X0226323Y0125362D01*
X0226482Y0125270D01*
X0226643Y0125181D01*
X0226806Y0125097D01*
X0226971Y0125016D01*
X0227138Y0124940D01*
X0227307Y0124868D01*
X0227478Y0124799D01*
X0227650Y0124735D01*
X0227823Y0124675D01*
X0227998Y0124619D01*
X0228175Y0124568D01*
X0228352Y0124521D01*
X0228531Y0124478D01*
X0228710Y0124439D01*
X0228891Y0124405D01*
X0229072Y0124375D01*
X0229254Y0124350D01*
X0229436Y0124328D01*
X0229619Y0124312D01*
X0229802Y0124299D01*
X0229986Y0124292D01*
X0230169Y0124288D01*
X0230169Y0140341D02*
X0230169Y0139441D01*
X0230169Y0139442D02*
X0229986Y0139438D01*
X0229803Y0139431D01*
X0229620Y0139418D01*
X0229437Y0139401D01*
X0229255Y0139380D01*
X0229074Y0139355D01*
X0228893Y0139325D01*
X0228713Y0139290D01*
X0228534Y0139252D01*
X0228356Y0139209D01*
X0228179Y0139161D01*
X0228004Y0139110D01*
X0227829Y0139054D01*
X0227656Y0138994D01*
X0227485Y0138929D01*
X0227315Y0138861D01*
X0227146Y0138789D01*
X0226980Y0138712D01*
X0226816Y0138631D01*
X0226653Y0138547D01*
X0226493Y0138458D01*
X0226334Y0138366D01*
X0226178Y0138270D01*
X0226025Y0138170D01*
X0225874Y0138066D01*
X0225725Y0137959D01*
X0225579Y0137848D01*
X0225436Y0137734D01*
X0225296Y0137616D01*
X0225159Y0137495D01*
X0225024Y0137371D01*
X0224893Y0137243D01*
X0224764Y0137112D01*
X0224639Y0136978D01*
X0224518Y0136842D01*
X0224399Y0136702D01*
X0224284Y0136559D01*
X0224173Y0136414D01*
X0224065Y0136266D01*
X0223961Y0136115D01*
X0223860Y0135962D01*
X0223763Y0135807D01*
X0223670Y0135649D01*
X0223581Y0135489D01*
X0222787Y0135912D01*
X0222887Y0136092D01*
X0222991Y0136269D01*
X0223099Y0136443D01*
X0223212Y0136615D01*
X0223329Y0136783D01*
X0223450Y0136949D01*
X0223574Y0137112D01*
X0223703Y0137272D01*
X0223836Y0137429D01*
X0223972Y0137582D01*
X0224112Y0137732D01*
X0224256Y0137879D01*
X0224403Y0138022D01*
X0224554Y0138162D01*
X0224708Y0138297D01*
X0224865Y0138429D01*
X0225025Y0138557D01*
X0225189Y0138682D01*
X0225355Y0138802D01*
X0225525Y0138918D01*
X0225697Y0139030D01*
X0225871Y0139138D01*
X0226049Y0139241D01*
X0226228Y0139340D01*
X0226411Y0139435D01*
X0226595Y0139525D01*
X0226781Y0139611D01*
X0226970Y0139692D01*
X0227160Y0139769D01*
X0227353Y0139841D01*
X0227547Y0139908D01*
X0227742Y0139971D01*
X0227939Y0140029D01*
X0228137Y0140082D01*
X0228337Y0140130D01*
X0228538Y0140173D01*
X0228739Y0140211D01*
X0228942Y0140245D01*
X0229145Y0140273D01*
X0229349Y0140297D01*
X0229554Y0140316D01*
X0229758Y0140329D01*
X0229963Y0140338D01*
X0230169Y0140342D01*
X0230169Y0140248D01*
X0229966Y0140244D01*
X0229763Y0140236D01*
X0229560Y0140222D01*
X0229358Y0140204D01*
X0229157Y0140180D01*
X0228956Y0140152D01*
X0228755Y0140119D01*
X0228556Y0140081D01*
X0228358Y0140038D01*
X0228160Y0139990D01*
X0227964Y0139938D01*
X0227769Y0139881D01*
X0227576Y0139819D01*
X0227384Y0139752D01*
X0227194Y0139681D01*
X0227006Y0139606D01*
X0226820Y0139525D01*
X0226635Y0139440D01*
X0226453Y0139351D01*
X0226273Y0139257D01*
X0226095Y0139159D01*
X0225920Y0139057D01*
X0225747Y0138951D01*
X0225577Y0138840D01*
X0225409Y0138725D01*
X0225245Y0138606D01*
X0225083Y0138483D01*
X0224925Y0138357D01*
X0224769Y0138226D01*
X0224617Y0138092D01*
X0224468Y0137954D01*
X0224322Y0137813D01*
X0224180Y0137668D01*
X0224042Y0137519D01*
X0223907Y0137368D01*
X0223776Y0137213D01*
X0223649Y0137055D01*
X0223525Y0136893D01*
X0223406Y0136729D01*
X0223290Y0136562D01*
X0223179Y0136393D01*
X0223071Y0136220D01*
X0222968Y0136045D01*
X0222870Y0135868D01*
X0222953Y0135824D01*
X0223050Y0135999D01*
X0223152Y0136172D01*
X0223258Y0136342D01*
X0223368Y0136510D01*
X0223482Y0136675D01*
X0223601Y0136837D01*
X0223723Y0136997D01*
X0223849Y0137153D01*
X0223978Y0137306D01*
X0224112Y0137456D01*
X0224248Y0137603D01*
X0224389Y0137746D01*
X0224533Y0137886D01*
X0224680Y0138022D01*
X0224831Y0138155D01*
X0224984Y0138284D01*
X0225141Y0138409D01*
X0225301Y0138531D01*
X0225464Y0138648D01*
X0225629Y0138762D01*
X0225797Y0138871D01*
X0225968Y0138977D01*
X0226141Y0139078D01*
X0226317Y0139175D01*
X0226495Y0139267D01*
X0226675Y0139355D01*
X0226858Y0139439D01*
X0227042Y0139519D01*
X0227228Y0139594D01*
X0227416Y0139664D01*
X0227606Y0139730D01*
X0227797Y0139791D01*
X0227989Y0139847D01*
X0228183Y0139899D01*
X0228378Y0139946D01*
X0228574Y0139989D01*
X0228772Y0140026D01*
X0228970Y0140059D01*
X0229168Y0140087D01*
X0229368Y0140110D01*
X0229567Y0140128D01*
X0229768Y0140142D01*
X0229968Y0140150D01*
X0230169Y0140154D01*
X0230169Y0140060D01*
X0229970Y0140056D01*
X0229772Y0140048D01*
X0229574Y0140035D01*
X0229377Y0140016D01*
X0229180Y0139994D01*
X0228983Y0139966D01*
X0228788Y0139934D01*
X0228593Y0139896D01*
X0228399Y0139855D01*
X0228206Y0139808D01*
X0228014Y0139757D01*
X0227824Y0139701D01*
X0227635Y0139641D01*
X0227448Y0139576D01*
X0227262Y0139506D01*
X0227078Y0139432D01*
X0226896Y0139353D01*
X0226716Y0139270D01*
X0226537Y0139183D01*
X0226361Y0139092D01*
X0226188Y0138996D01*
X0226016Y0138896D01*
X0225848Y0138792D01*
X0225681Y0138684D01*
X0225518Y0138571D01*
X0225357Y0138455D01*
X0225199Y0138335D01*
X0225044Y0138211D01*
X0224892Y0138084D01*
X0224743Y0137953D01*
X0224598Y0137818D01*
X0224455Y0137680D01*
X0224317Y0137538D01*
X0224181Y0137393D01*
X0224049Y0137245D01*
X0223921Y0137093D01*
X0223797Y0136939D01*
X0223676Y0136782D01*
X0223559Y0136621D01*
X0223446Y0136458D01*
X0223338Y0136292D01*
X0223233Y0136124D01*
X0223132Y0135953D01*
X0223036Y0135780D01*
X0223118Y0135735D01*
X0223214Y0135907D01*
X0223313Y0136076D01*
X0223417Y0136242D01*
X0223525Y0136406D01*
X0223636Y0136567D01*
X0223752Y0136726D01*
X0223871Y0136881D01*
X0223994Y0137034D01*
X0224121Y0137183D01*
X0224251Y0137330D01*
X0224385Y0137473D01*
X0224522Y0137613D01*
X0224663Y0137750D01*
X0224806Y0137883D01*
X0224953Y0138013D01*
X0225104Y0138139D01*
X0225257Y0138261D01*
X0225413Y0138380D01*
X0225572Y0138495D01*
X0225734Y0138605D01*
X0225898Y0138712D01*
X0226065Y0138815D01*
X0226234Y0138914D01*
X0226406Y0139009D01*
X0226580Y0139099D01*
X0226756Y0139186D01*
X0226934Y0139267D01*
X0227114Y0139345D01*
X0227296Y0139418D01*
X0227479Y0139487D01*
X0227665Y0139551D01*
X0227851Y0139611D01*
X0228039Y0139666D01*
X0228229Y0139717D01*
X0228419Y0139763D01*
X0228611Y0139804D01*
X0228804Y0139841D01*
X0228997Y0139873D01*
X0229191Y0139900D01*
X0229386Y0139923D01*
X0229581Y0139941D01*
X0229777Y0139954D01*
X0229973Y0139962D01*
X0230169Y0139966D01*
X0230169Y0139872D01*
X0229975Y0139868D01*
X0229781Y0139860D01*
X0229588Y0139847D01*
X0229395Y0139829D01*
X0229203Y0139807D01*
X0229011Y0139780D01*
X0228820Y0139748D01*
X0228629Y0139712D01*
X0228440Y0139671D01*
X0228252Y0139626D01*
X0228065Y0139576D01*
X0227879Y0139521D01*
X0227694Y0139462D01*
X0227511Y0139399D01*
X0227330Y0139331D01*
X0227150Y0139258D01*
X0226972Y0139182D01*
X0226796Y0139101D01*
X0226622Y0139015D01*
X0226450Y0138926D01*
X0226280Y0138832D01*
X0226113Y0138735D01*
X0225948Y0138633D01*
X0225786Y0138527D01*
X0225626Y0138418D01*
X0225469Y0138304D01*
X0225315Y0138187D01*
X0225163Y0138066D01*
X0225015Y0137942D01*
X0224870Y0137814D01*
X0224727Y0137682D01*
X0224588Y0137547D01*
X0224453Y0137409D01*
X0224321Y0137267D01*
X0224192Y0137122D01*
X0224067Y0136974D01*
X0223945Y0136823D01*
X0223827Y0136670D01*
X0223713Y0136513D01*
X0223603Y0136354D01*
X0223497Y0136192D01*
X0223394Y0136027D01*
X0223296Y0135860D01*
X0223201Y0135691D01*
X0223284Y0135647D01*
X0223378Y0135814D01*
X0223475Y0135979D01*
X0223576Y0136142D01*
X0223681Y0136302D01*
X0223790Y0136459D01*
X0223903Y0136614D01*
X0224019Y0136766D01*
X0224139Y0136915D01*
X0224263Y0137061D01*
X0224390Y0137204D01*
X0224521Y0137344D01*
X0224655Y0137480D01*
X0224792Y0137614D01*
X0224933Y0137744D01*
X0225076Y0137871D01*
X0225223Y0137994D01*
X0225373Y0138113D01*
X0225525Y0138229D01*
X0225680Y0138341D01*
X0225838Y0138449D01*
X0225999Y0138554D01*
X0226162Y0138654D01*
X0226327Y0138751D01*
X0226494Y0138843D01*
X0226664Y0138931D01*
X0226836Y0139016D01*
X0227010Y0139096D01*
X0227186Y0139171D01*
X0227364Y0139243D01*
X0227543Y0139310D01*
X0227724Y0139373D01*
X0227906Y0139431D01*
X0228090Y0139485D01*
X0228275Y0139535D01*
X0228461Y0139579D01*
X0228648Y0139620D01*
X0228836Y0139656D01*
X0229025Y0139687D01*
X0229214Y0139714D01*
X0229404Y0139736D01*
X0229595Y0139753D01*
X0229786Y0139766D01*
X0229977Y0139774D01*
X0230169Y0139778D01*
X0230169Y0139684D01*
X0229980Y0139680D01*
X0229791Y0139672D01*
X0229602Y0139660D01*
X0229414Y0139642D01*
X0229226Y0139620D01*
X0229039Y0139594D01*
X0228852Y0139563D01*
X0228666Y0139528D01*
X0228481Y0139488D01*
X0228297Y0139443D01*
X0228115Y0139394D01*
X0227933Y0139341D01*
X0227753Y0139284D01*
X0227575Y0139222D01*
X0227397Y0139155D01*
X0227222Y0139085D01*
X0227048Y0139010D01*
X0226876Y0138931D01*
X0226707Y0138847D01*
X0226539Y0138760D01*
X0226373Y0138669D01*
X0226210Y0138573D01*
X0226049Y0138474D01*
X0225890Y0138371D01*
X0225734Y0138264D01*
X0225581Y0138153D01*
X0225430Y0138039D01*
X0225283Y0137921D01*
X0225138Y0137799D01*
X0224996Y0137674D01*
X0224857Y0137546D01*
X0224722Y0137414D01*
X0224589Y0137279D01*
X0224460Y0137141D01*
X0224334Y0136999D01*
X0224212Y0136855D01*
X0224093Y0136708D01*
X0223978Y0136558D01*
X0223867Y0136405D01*
X0223759Y0136249D01*
X0223655Y0136091D01*
X0223555Y0135931D01*
X0223459Y0135768D01*
X0223367Y0135603D01*
X0223450Y0135558D01*
X0223541Y0135722D01*
X0223636Y0135883D01*
X0223735Y0136041D01*
X0223837Y0136197D01*
X0223944Y0136351D01*
X0224054Y0136502D01*
X0224168Y0136650D01*
X0224285Y0136796D01*
X0224406Y0136938D01*
X0224530Y0137078D01*
X0224657Y0137214D01*
X0224788Y0137348D01*
X0224922Y0137478D01*
X0225059Y0137605D01*
X0225199Y0137728D01*
X0225342Y0137848D01*
X0225488Y0137965D01*
X0225637Y0138078D01*
X0225789Y0138187D01*
X0225943Y0138293D01*
X0226099Y0138395D01*
X0226258Y0138493D01*
X0226420Y0138587D01*
X0226583Y0138677D01*
X0226749Y0138764D01*
X0226917Y0138846D01*
X0227086Y0138924D01*
X0227258Y0138998D01*
X0227431Y0139067D01*
X0227606Y0139133D01*
X0227783Y0139194D01*
X0227961Y0139251D01*
X0228140Y0139304D01*
X0228320Y0139352D01*
X0228502Y0139396D01*
X0228685Y0139436D01*
X0228868Y0139471D01*
X0229052Y0139501D01*
X0229237Y0139527D01*
X0229423Y0139549D01*
X0229609Y0139566D01*
X0229795Y0139578D01*
X0229982Y0139586D01*
X0230169Y0139590D01*
X0230169Y0139496D01*
X0229984Y0139492D01*
X0229800Y0139484D01*
X0229616Y0139472D01*
X0229432Y0139455D01*
X0229249Y0139434D01*
X0229066Y0139408D01*
X0228884Y0139378D01*
X0228703Y0139343D01*
X0228523Y0139304D01*
X0228343Y0139261D01*
X0228165Y0139213D01*
X0227988Y0139161D01*
X0227812Y0139105D01*
X0227638Y0139045D01*
X0227465Y0138980D01*
X0227294Y0138911D01*
X0227125Y0138838D01*
X0226957Y0138761D01*
X0226791Y0138680D01*
X0226628Y0138594D01*
X0226466Y0138505D01*
X0226307Y0138412D01*
X0226150Y0138315D01*
X0225995Y0138215D01*
X0225843Y0138110D01*
X0225693Y0138002D01*
X0225546Y0137891D01*
X0225402Y0137776D01*
X0225261Y0137657D01*
X0225122Y0137535D01*
X0224987Y0137410D01*
X0224855Y0137281D01*
X0224725Y0137149D01*
X0224599Y0137015D01*
X0224477Y0136877D01*
X0224358Y0136736D01*
X0224242Y0136592D01*
X0224129Y0136446D01*
X0224021Y0136297D01*
X0223916Y0136145D01*
X0223814Y0135991D01*
X0223717Y0135834D01*
X0223623Y0135675D01*
X0223533Y0135514D01*
X0236678Y0137340D02*
X0235986Y0136763D01*
X0235987Y0136764D02*
X0235868Y0136901D01*
X0235747Y0137035D01*
X0235622Y0137166D01*
X0235494Y0137294D01*
X0235363Y0137418D01*
X0235229Y0137540D01*
X0235092Y0137659D01*
X0234953Y0137774D01*
X0234810Y0137885D01*
X0234665Y0137994D01*
X0234518Y0138099D01*
X0234368Y0138200D01*
X0234216Y0138297D01*
X0234061Y0138391D01*
X0233904Y0138482D01*
X0233745Y0138568D01*
X0233584Y0138651D01*
X0233421Y0138729D01*
X0233256Y0138804D01*
X0233090Y0138875D01*
X0232922Y0138942D01*
X0232752Y0139004D01*
X0232581Y0139063D01*
X0232408Y0139118D01*
X0232235Y0139168D01*
X0232060Y0139214D01*
X0231884Y0139256D01*
X0231707Y0139294D01*
X0231529Y0139327D01*
X0231350Y0139357D01*
X0231171Y0139382D01*
X0230991Y0139402D01*
X0230811Y0139419D01*
X0230631Y0139431D01*
X0230450Y0139438D01*
X0230269Y0139442D01*
X0230268Y0140341D01*
X0230269Y0140342D01*
X0230472Y0140338D01*
X0230674Y0140330D01*
X0230877Y0140316D01*
X0231079Y0140298D01*
X0231280Y0140275D01*
X0231481Y0140247D01*
X0231681Y0140214D01*
X0231881Y0140177D01*
X0232079Y0140135D01*
X0232277Y0140088D01*
X0232473Y0140036D01*
X0232667Y0139979D01*
X0232861Y0139918D01*
X0233053Y0139853D01*
X0233243Y0139782D01*
X0233432Y0139707D01*
X0233618Y0139628D01*
X0233803Y0139544D01*
X0233986Y0139456D01*
X0234166Y0139363D01*
X0234344Y0139267D01*
X0234520Y0139165D01*
X0234693Y0139060D01*
X0234864Y0138951D01*
X0235032Y0138837D01*
X0235198Y0138720D01*
X0235360Y0138598D01*
X0235520Y0138473D01*
X0235676Y0138344D01*
X0235829Y0138211D01*
X0235979Y0138074D01*
X0236126Y0137934D01*
X0236269Y0137791D01*
X0236409Y0137644D01*
X0236546Y0137494D01*
X0236678Y0137340D01*
X0236606Y0137280D01*
X0236475Y0137432D01*
X0236340Y0137580D01*
X0236202Y0137725D01*
X0236060Y0137867D01*
X0235915Y0138006D01*
X0235767Y0138141D01*
X0235615Y0138272D01*
X0235460Y0138400D01*
X0235303Y0138524D01*
X0235142Y0138644D01*
X0234979Y0138760D01*
X0234812Y0138872D01*
X0234644Y0138980D01*
X0234472Y0139085D01*
X0234298Y0139185D01*
X0234122Y0139280D01*
X0233944Y0139372D01*
X0233763Y0139459D01*
X0233580Y0139542D01*
X0233396Y0139621D01*
X0233210Y0139695D01*
X0233021Y0139764D01*
X0232832Y0139829D01*
X0232640Y0139889D01*
X0232448Y0139945D01*
X0232254Y0139996D01*
X0232059Y0140043D01*
X0231863Y0140085D01*
X0231666Y0140122D01*
X0231468Y0140154D01*
X0231269Y0140182D01*
X0231070Y0140205D01*
X0230870Y0140223D01*
X0230670Y0140236D01*
X0230469Y0140244D01*
X0230269Y0140248D01*
X0230269Y0140154D01*
X0230467Y0140150D01*
X0230665Y0140142D01*
X0230863Y0140129D01*
X0231061Y0140111D01*
X0231258Y0140088D01*
X0231454Y0140061D01*
X0231650Y0140029D01*
X0231844Y0139993D01*
X0232038Y0139951D01*
X0232231Y0139905D01*
X0232423Y0139855D01*
X0232613Y0139799D01*
X0232802Y0139740D01*
X0232990Y0139675D01*
X0233176Y0139607D01*
X0233360Y0139534D01*
X0233543Y0139456D01*
X0233723Y0139374D01*
X0233902Y0139288D01*
X0234078Y0139197D01*
X0234252Y0139103D01*
X0234424Y0139004D01*
X0234594Y0138901D01*
X0234761Y0138794D01*
X0234925Y0138683D01*
X0235086Y0138568D01*
X0235245Y0138449D01*
X0235401Y0138327D01*
X0235554Y0138201D01*
X0235704Y0138071D01*
X0235851Y0137937D01*
X0235994Y0137800D01*
X0236134Y0137660D01*
X0236271Y0137517D01*
X0236404Y0137370D01*
X0236534Y0137220D01*
X0236462Y0137160D01*
X0236333Y0137308D01*
X0236202Y0137453D01*
X0236067Y0137595D01*
X0235928Y0137733D01*
X0235786Y0137869D01*
X0235641Y0138001D01*
X0235493Y0138129D01*
X0235342Y0138254D01*
X0235188Y0138375D01*
X0235031Y0138492D01*
X0234871Y0138606D01*
X0234709Y0138715D01*
X0234544Y0138821D01*
X0234376Y0138923D01*
X0234206Y0139021D01*
X0234034Y0139114D01*
X0233860Y0139204D01*
X0233683Y0139289D01*
X0233505Y0139370D01*
X0233325Y0139447D01*
X0233142Y0139519D01*
X0232959Y0139587D01*
X0232773Y0139650D01*
X0232586Y0139709D01*
X0232398Y0139764D01*
X0232209Y0139814D01*
X0232018Y0139859D01*
X0231826Y0139900D01*
X0231634Y0139937D01*
X0231440Y0139968D01*
X0231246Y0139995D01*
X0231051Y0140017D01*
X0230856Y0140035D01*
X0230661Y0140048D01*
X0230465Y0140056D01*
X0230269Y0140060D01*
X0230269Y0139966D01*
X0230463Y0139962D01*
X0230656Y0139954D01*
X0230849Y0139941D01*
X0231042Y0139924D01*
X0231235Y0139902D01*
X0231427Y0139875D01*
X0231618Y0139844D01*
X0231808Y0139808D01*
X0231998Y0139768D01*
X0232186Y0139723D01*
X0232373Y0139673D01*
X0232559Y0139619D01*
X0232744Y0139561D01*
X0232927Y0139498D01*
X0233109Y0139431D01*
X0233289Y0139360D01*
X0233467Y0139284D01*
X0233644Y0139204D01*
X0233818Y0139120D01*
X0233990Y0139031D01*
X0234160Y0138939D01*
X0234328Y0138842D01*
X0234494Y0138741D01*
X0234657Y0138637D01*
X0234817Y0138529D01*
X0234975Y0138416D01*
X0235130Y0138300D01*
X0235283Y0138181D01*
X0235432Y0138057D01*
X0235579Y0137931D01*
X0235722Y0137800D01*
X0235862Y0137667D01*
X0235999Y0137530D01*
X0236132Y0137389D01*
X0236263Y0137246D01*
X0236389Y0137099D01*
X0236317Y0137039D01*
X0236192Y0137184D01*
X0236063Y0137326D01*
X0235931Y0137464D01*
X0235796Y0137600D01*
X0235657Y0137732D01*
X0235516Y0137861D01*
X0235371Y0137986D01*
X0235224Y0138108D01*
X0235073Y0138226D01*
X0234920Y0138341D01*
X0234764Y0138451D01*
X0234605Y0138559D01*
X0234444Y0138662D01*
X0234280Y0138761D01*
X0234114Y0138857D01*
X0233946Y0138948D01*
X0233776Y0139035D01*
X0233604Y0139119D01*
X0233429Y0139198D01*
X0233253Y0139273D01*
X0233075Y0139343D01*
X0232896Y0139410D01*
X0232715Y0139472D01*
X0232532Y0139529D01*
X0232348Y0139583D01*
X0232163Y0139632D01*
X0231977Y0139676D01*
X0231790Y0139716D01*
X0231602Y0139751D01*
X0231413Y0139782D01*
X0231223Y0139809D01*
X0231033Y0139830D01*
X0230843Y0139848D01*
X0230652Y0139860D01*
X0230460Y0139868D01*
X0230269Y0139872D01*
X0230269Y0139778D01*
X0230458Y0139774D01*
X0230647Y0139766D01*
X0230836Y0139754D01*
X0231024Y0139737D01*
X0231212Y0139715D01*
X0231399Y0139689D01*
X0231586Y0139659D01*
X0231772Y0139624D01*
X0231957Y0139584D01*
X0232141Y0139540D01*
X0232323Y0139492D01*
X0232505Y0139439D01*
X0232685Y0139382D01*
X0232864Y0139321D01*
X0233042Y0139255D01*
X0233218Y0139186D01*
X0233392Y0139112D01*
X0233564Y0139034D01*
X0233734Y0138951D01*
X0233902Y0138865D01*
X0234068Y0138775D01*
X0234232Y0138680D01*
X0234394Y0138582D01*
X0234553Y0138480D01*
X0234710Y0138374D01*
X0234864Y0138265D01*
X0235016Y0138151D01*
X0235164Y0138035D01*
X0235310Y0137914D01*
X0235453Y0137791D01*
X0235593Y0137663D01*
X0235730Y0137533D01*
X0235864Y0137399D01*
X0235994Y0137262D01*
X0236121Y0137122D01*
X0236245Y0136979D01*
X0236173Y0136919D01*
X0236050Y0137060D01*
X0235925Y0137198D01*
X0235796Y0137334D01*
X0235664Y0137466D01*
X0235529Y0137595D01*
X0235390Y0137720D01*
X0235249Y0137843D01*
X0235105Y0137962D01*
X0234958Y0138077D01*
X0234809Y0138189D01*
X0234656Y0138297D01*
X0234501Y0138402D01*
X0234344Y0138502D01*
X0234184Y0138599D01*
X0234023Y0138693D01*
X0233858Y0138782D01*
X0233692Y0138867D01*
X0233524Y0138948D01*
X0233354Y0139026D01*
X0233182Y0139099D01*
X0233008Y0139168D01*
X0232833Y0139232D01*
X0232656Y0139293D01*
X0232478Y0139349D01*
X0232299Y0139401D01*
X0232118Y0139449D01*
X0231936Y0139492D01*
X0231754Y0139531D01*
X0231570Y0139566D01*
X0231386Y0139596D01*
X0231201Y0139622D01*
X0231015Y0139643D01*
X0230829Y0139660D01*
X0230642Y0139672D01*
X0230456Y0139680D01*
X0230269Y0139684D01*
X0230269Y0139590D01*
X0230453Y0139586D01*
X0230638Y0139579D01*
X0230822Y0139566D01*
X0231006Y0139550D01*
X0231189Y0139529D01*
X0231372Y0139503D01*
X0231554Y0139473D01*
X0231735Y0139439D01*
X0231916Y0139401D01*
X0232095Y0139358D01*
X0232274Y0139311D01*
X0232451Y0139259D01*
X0232627Y0139204D01*
X0232802Y0139144D01*
X0232975Y0139080D01*
X0233146Y0139012D01*
X0233316Y0138940D01*
X0233484Y0138863D01*
X0233650Y0138783D01*
X0233814Y0138699D01*
X0233977Y0138611D01*
X0234137Y0138519D01*
X0234294Y0138423D01*
X0234450Y0138323D01*
X0234603Y0138220D01*
X0234753Y0138113D01*
X0234901Y0138003D01*
X0235046Y0137889D01*
X0235188Y0137771D01*
X0235328Y0137650D01*
X0235464Y0137526D01*
X0235598Y0137399D01*
X0235728Y0137268D01*
X0235856Y0137135D01*
X0235980Y0136998D01*
X0236100Y0136859D01*
X0236028Y0136798D01*
X0235909Y0136936D01*
X0235786Y0137071D01*
X0235661Y0137203D01*
X0235532Y0137332D01*
X0235400Y0137458D01*
X0235265Y0137580D01*
X0235127Y0137700D01*
X0234987Y0137816D01*
X0234843Y0137928D01*
X0234697Y0138037D01*
X0234549Y0138143D01*
X0234398Y0138245D01*
X0234244Y0138343D01*
X0234089Y0138438D01*
X0233931Y0138529D01*
X0233770Y0138616D01*
X0233608Y0138699D01*
X0233444Y0138778D01*
X0233278Y0138853D01*
X0233110Y0138925D01*
X0232941Y0138992D01*
X0232770Y0139055D01*
X0232598Y0139114D01*
X0232424Y0139169D01*
X0232249Y0139220D01*
X0232073Y0139267D01*
X0231895Y0139309D01*
X0231717Y0139347D01*
X0231538Y0139381D01*
X0231358Y0139410D01*
X0231178Y0139435D01*
X0230997Y0139456D01*
X0230815Y0139473D01*
X0230633Y0139485D01*
X0230451Y0139492D01*
X0230269Y0139496D01*
X0230268Y0123443D02*
X0230268Y0124343D01*
X0230269Y0124342D02*
X0230453Y0124346D01*
X0230638Y0124354D01*
X0230822Y0124366D01*
X0231005Y0124383D01*
X0231189Y0124405D01*
X0231371Y0124430D01*
X0231553Y0124461D01*
X0231734Y0124496D01*
X0231915Y0124535D01*
X0232094Y0124579D01*
X0232272Y0124627D01*
X0232449Y0124679D01*
X0232625Y0124736D01*
X0232799Y0124796D01*
X0232971Y0124862D01*
X0233142Y0124931D01*
X0233312Y0125004D01*
X0233479Y0125082D01*
X0233644Y0125164D01*
X0233808Y0125249D01*
X0233969Y0125339D01*
X0234128Y0125433D01*
X0234285Y0125530D01*
X0234439Y0125631D01*
X0234591Y0125736D01*
X0234740Y0125845D01*
X0234886Y0125957D01*
X0235030Y0126073D01*
X0235170Y0126192D01*
X0235308Y0126315D01*
X0235443Y0126441D01*
X0235575Y0126570D01*
X0235703Y0126703D01*
X0235828Y0126838D01*
X0235950Y0126977D01*
X0236637Y0126396D01*
X0236501Y0126240D01*
X0236360Y0126088D01*
X0236216Y0125939D01*
X0236069Y0125794D01*
X0235918Y0125653D01*
X0235764Y0125516D01*
X0235606Y0125382D01*
X0235445Y0125252D01*
X0235281Y0125126D01*
X0235114Y0125004D01*
X0234944Y0124886D01*
X0234771Y0124773D01*
X0234595Y0124664D01*
X0234417Y0124559D01*
X0234236Y0124458D01*
X0234053Y0124362D01*
X0233868Y0124270D01*
X0233680Y0124183D01*
X0233490Y0124101D01*
X0233299Y0124023D01*
X0233105Y0123950D01*
X0232910Y0123882D01*
X0232713Y0123818D01*
X0232515Y0123760D01*
X0232315Y0123706D01*
X0232114Y0123657D01*
X0231912Y0123613D01*
X0231709Y0123574D01*
X0231505Y0123540D01*
X0231300Y0123511D01*
X0231095Y0123487D01*
X0230889Y0123469D01*
X0230682Y0123455D01*
X0230476Y0123446D01*
X0230269Y0123442D01*
X0230269Y0123536D01*
X0230473Y0123540D01*
X0230678Y0123549D01*
X0230882Y0123562D01*
X0231085Y0123581D01*
X0231288Y0123605D01*
X0231491Y0123633D01*
X0231693Y0123667D01*
X0231893Y0123705D01*
X0232093Y0123749D01*
X0232292Y0123797D01*
X0232489Y0123850D01*
X0232686Y0123908D01*
X0232880Y0123971D01*
X0233073Y0124039D01*
X0233265Y0124111D01*
X0233454Y0124188D01*
X0233642Y0124269D01*
X0233827Y0124355D01*
X0234010Y0124446D01*
X0234192Y0124541D01*
X0234370Y0124640D01*
X0234546Y0124744D01*
X0234720Y0124852D01*
X0234891Y0124964D01*
X0235059Y0125081D01*
X0235224Y0125201D01*
X0235387Y0125326D01*
X0235546Y0125454D01*
X0235702Y0125586D01*
X0235854Y0125722D01*
X0236004Y0125862D01*
X0236149Y0126005D01*
X0236292Y0126152D01*
X0236430Y0126303D01*
X0236565Y0126456D01*
X0236494Y0126517D01*
X0236360Y0126365D01*
X0236223Y0126216D01*
X0236082Y0126071D01*
X0235938Y0125930D01*
X0235791Y0125791D01*
X0235640Y0125657D01*
X0235486Y0125526D01*
X0235328Y0125399D01*
X0235168Y0125276D01*
X0235004Y0125157D01*
X0234838Y0125042D01*
X0234669Y0124931D01*
X0234498Y0124824D01*
X0234323Y0124722D01*
X0234147Y0124623D01*
X0233968Y0124529D01*
X0233786Y0124440D01*
X0233603Y0124355D01*
X0233418Y0124274D01*
X0233230Y0124198D01*
X0233041Y0124127D01*
X0232850Y0124060D01*
X0232658Y0123998D01*
X0232464Y0123941D01*
X0232269Y0123888D01*
X0232072Y0123841D01*
X0231875Y0123798D01*
X0231676Y0123760D01*
X0231477Y0123726D01*
X0231277Y0123698D01*
X0231076Y0123675D01*
X0230875Y0123656D01*
X0230673Y0123642D01*
X0230471Y0123634D01*
X0230269Y0123630D01*
X0230269Y0123724D01*
X0230469Y0123728D01*
X0230668Y0123736D01*
X0230868Y0123750D01*
X0231067Y0123768D01*
X0231265Y0123791D01*
X0231463Y0123819D01*
X0231660Y0123852D01*
X0231856Y0123890D01*
X0232052Y0123932D01*
X0232246Y0123979D01*
X0232439Y0124031D01*
X0232630Y0124088D01*
X0232821Y0124149D01*
X0233009Y0124215D01*
X0233196Y0124286D01*
X0233381Y0124361D01*
X0233565Y0124441D01*
X0233746Y0124525D01*
X0233925Y0124613D01*
X0234102Y0124706D01*
X0234277Y0124803D01*
X0234449Y0124905D01*
X0234618Y0125010D01*
X0234786Y0125120D01*
X0234950Y0125234D01*
X0235111Y0125351D01*
X0235270Y0125473D01*
X0235425Y0125598D01*
X0235578Y0125728D01*
X0235727Y0125861D01*
X0235873Y0125997D01*
X0236015Y0126137D01*
X0236154Y0126281D01*
X0236290Y0126428D01*
X0236422Y0126578D01*
X0236350Y0126638D01*
X0236220Y0126490D01*
X0236086Y0126345D01*
X0235948Y0126203D01*
X0235807Y0126065D01*
X0235663Y0125930D01*
X0235516Y0125798D01*
X0235365Y0125671D01*
X0235211Y0125547D01*
X0235055Y0125426D01*
X0234895Y0125310D01*
X0234733Y0125198D01*
X0234568Y0125089D01*
X0234400Y0124985D01*
X0234230Y0124885D01*
X0234057Y0124789D01*
X0233882Y0124697D01*
X0233705Y0124609D01*
X0233526Y0124526D01*
X0233345Y0124448D01*
X0233162Y0124373D01*
X0232977Y0124304D01*
X0232791Y0124239D01*
X0232603Y0124178D01*
X0232413Y0124122D01*
X0232223Y0124071D01*
X0232031Y0124024D01*
X0231838Y0123982D01*
X0231644Y0123945D01*
X0231449Y0123912D01*
X0231253Y0123885D01*
X0231057Y0123862D01*
X0230861Y0123844D01*
X0230664Y0123830D01*
X0230466Y0123822D01*
X0230269Y0123818D01*
X0230269Y0123912D01*
X0230464Y0123916D01*
X0230659Y0123924D01*
X0230854Y0123937D01*
X0231048Y0123955D01*
X0231242Y0123978D01*
X0231435Y0124005D01*
X0231628Y0124037D01*
X0231819Y0124074D01*
X0232010Y0124116D01*
X0232200Y0124162D01*
X0232388Y0124212D01*
X0232575Y0124268D01*
X0232761Y0124328D01*
X0232945Y0124392D01*
X0233128Y0124461D01*
X0233309Y0124534D01*
X0233488Y0124612D01*
X0233665Y0124694D01*
X0233840Y0124781D01*
X0234012Y0124871D01*
X0234183Y0124966D01*
X0234351Y0125065D01*
X0234517Y0125168D01*
X0234680Y0125275D01*
X0234841Y0125386D01*
X0234998Y0125501D01*
X0235153Y0125620D01*
X0235305Y0125743D01*
X0235454Y0125869D01*
X0235600Y0125999D01*
X0235742Y0126132D01*
X0235881Y0126269D01*
X0236017Y0126409D01*
X0236149Y0126553D01*
X0236278Y0126699D01*
X0236206Y0126760D01*
X0236079Y0126615D01*
X0235948Y0126473D01*
X0235814Y0126335D01*
X0235677Y0126200D01*
X0235536Y0126068D01*
X0235392Y0125940D01*
X0235245Y0125815D01*
X0235095Y0125694D01*
X0234942Y0125577D01*
X0234786Y0125463D01*
X0234627Y0125353D01*
X0234466Y0125247D01*
X0234302Y0125146D01*
X0234136Y0125048D01*
X0233968Y0124954D01*
X0233797Y0124864D01*
X0233624Y0124779D01*
X0233449Y0124698D01*
X0233272Y0124621D01*
X0233094Y0124549D01*
X0232913Y0124480D01*
X0232731Y0124417D01*
X0232548Y0124358D01*
X0232363Y0124303D01*
X0232177Y0124253D01*
X0231989Y0124207D01*
X0231801Y0124166D01*
X0231611Y0124130D01*
X0231421Y0124098D01*
X0231230Y0124071D01*
X0231039Y0124049D01*
X0230847Y0124031D01*
X0230654Y0124018D01*
X0230462Y0124010D01*
X0230269Y0124006D01*
X0230269Y0124100D01*
X0230459Y0124104D01*
X0230650Y0124112D01*
X0230840Y0124125D01*
X0231029Y0124142D01*
X0231219Y0124164D01*
X0231407Y0124191D01*
X0231595Y0124222D01*
X0231782Y0124258D01*
X0231968Y0124299D01*
X0232153Y0124344D01*
X0232337Y0124393D01*
X0232520Y0124448D01*
X0232701Y0124506D01*
X0232881Y0124569D01*
X0233059Y0124636D01*
X0233236Y0124708D01*
X0233411Y0124784D01*
X0233583Y0124864D01*
X0233754Y0124948D01*
X0233923Y0125037D01*
X0234089Y0125129D01*
X0234254Y0125226D01*
X0234415Y0125326D01*
X0234575Y0125431D01*
X0234731Y0125539D01*
X0234885Y0125652D01*
X0235036Y0125768D01*
X0235185Y0125887D01*
X0235330Y0126010D01*
X0235472Y0126137D01*
X0235611Y0126267D01*
X0235747Y0126401D01*
X0235880Y0126537D01*
X0236009Y0126677D01*
X0236135Y0126821D01*
X0236063Y0126881D01*
X0235939Y0126740D01*
X0235811Y0126602D01*
X0235680Y0126467D01*
X0235546Y0126335D01*
X0235409Y0126206D01*
X0235268Y0126081D01*
X0235124Y0125959D01*
X0234978Y0125841D01*
X0234829Y0125727D01*
X0234677Y0125616D01*
X0234522Y0125509D01*
X0234365Y0125406D01*
X0234205Y0125306D01*
X0234043Y0125211D01*
X0233878Y0125119D01*
X0233712Y0125032D01*
X0233543Y0124949D01*
X0233372Y0124869D01*
X0233200Y0124794D01*
X0233025Y0124724D01*
X0232849Y0124657D01*
X0232672Y0124595D01*
X0232492Y0124537D01*
X0232312Y0124484D01*
X0232130Y0124435D01*
X0231948Y0124391D01*
X0231764Y0124351D01*
X0231579Y0124315D01*
X0231393Y0124284D01*
X0231207Y0124258D01*
X0231020Y0124236D01*
X0230833Y0124219D01*
X0230645Y0124206D01*
X0230457Y0124198D01*
X0230269Y0124194D01*
X0230269Y0124288D01*
X0230455Y0124292D01*
X0230640Y0124300D01*
X0230826Y0124312D01*
X0231011Y0124329D01*
X0231195Y0124351D01*
X0231379Y0124377D01*
X0231563Y0124408D01*
X0231745Y0124443D01*
X0231927Y0124482D01*
X0232107Y0124526D01*
X0232287Y0124575D01*
X0232465Y0124627D01*
X0232642Y0124684D01*
X0232817Y0124746D01*
X0232991Y0124811D01*
X0233163Y0124881D01*
X0233334Y0124955D01*
X0233502Y0125033D01*
X0233669Y0125116D01*
X0233833Y0125202D01*
X0233996Y0125292D01*
X0234156Y0125387D01*
X0234314Y0125485D01*
X0234469Y0125587D01*
X0234622Y0125692D01*
X0234772Y0125802D01*
X0234920Y0125915D01*
X0235064Y0126032D01*
X0235206Y0126152D01*
X0235345Y0126275D01*
X0235481Y0126402D01*
X0235613Y0126532D01*
X0235742Y0126666D01*
X0235869Y0126802D01*
X0235991Y0126942D01*
X0355269Y0138443D02*
X0355269Y0139343D01*
X0355269Y0139342D02*
X0355452Y0139346D01*
X0355635Y0139353D01*
X0355818Y0139366D01*
X0356001Y0139383D01*
X0356183Y0139404D01*
X0356364Y0139429D01*
X0356545Y0139459D01*
X0356725Y0139494D01*
X0356904Y0139532D01*
X0357082Y0139575D01*
X0357259Y0139623D01*
X0357434Y0139674D01*
X0357609Y0139730D01*
X0357782Y0139790D01*
X0357953Y0139855D01*
X0358123Y0139923D01*
X0358292Y0139995D01*
X0358458Y0140072D01*
X0358622Y0140153D01*
X0358785Y0140237D01*
X0358945Y0140326D01*
X0359104Y0140418D01*
X0359260Y0140514D01*
X0359413Y0140614D01*
X0359564Y0140718D01*
X0359713Y0140825D01*
X0359859Y0140936D01*
X0360002Y0141050D01*
X0360142Y0141168D01*
X0360279Y0141289D01*
X0360414Y0141413D01*
X0360545Y0141541D01*
X0360674Y0141672D01*
X0360799Y0141806D01*
X0360920Y0141942D01*
X0361039Y0142082D01*
X0361154Y0142225D01*
X0361265Y0142370D01*
X0361373Y0142518D01*
X0361477Y0142669D01*
X0361578Y0142822D01*
X0361675Y0142977D01*
X0361768Y0143135D01*
X0361857Y0143295D01*
X0362651Y0142872D01*
X0362551Y0142692D01*
X0362447Y0142515D01*
X0362339Y0142341D01*
X0362226Y0142169D01*
X0362109Y0142001D01*
X0361988Y0141835D01*
X0361864Y0141672D01*
X0361735Y0141512D01*
X0361602Y0141355D01*
X0361466Y0141202D01*
X0361326Y0141052D01*
X0361182Y0140905D01*
X0361035Y0140762D01*
X0360884Y0140622D01*
X0360730Y0140487D01*
X0360573Y0140355D01*
X0360413Y0140227D01*
X0360249Y0140102D01*
X0360083Y0139982D01*
X0359913Y0139866D01*
X0359741Y0139754D01*
X0359567Y0139646D01*
X0359389Y0139543D01*
X0359210Y0139444D01*
X0359027Y0139349D01*
X0358843Y0139259D01*
X0358657Y0139173D01*
X0358468Y0139092D01*
X0358278Y0139015D01*
X0358085Y0138943D01*
X0357891Y0138876D01*
X0357696Y0138813D01*
X0357499Y0138755D01*
X0357301Y0138702D01*
X0357101Y0138654D01*
X0356900Y0138611D01*
X0356699Y0138573D01*
X0356496Y0138539D01*
X0356293Y0138511D01*
X0356089Y0138487D01*
X0355884Y0138468D01*
X0355680Y0138455D01*
X0355475Y0138446D01*
X0355269Y0138442D01*
X0355269Y0138536D01*
X0355472Y0138540D01*
X0355675Y0138548D01*
X0355878Y0138562D01*
X0356080Y0138580D01*
X0356281Y0138604D01*
X0356482Y0138632D01*
X0356683Y0138665D01*
X0356882Y0138703D01*
X0357080Y0138746D01*
X0357278Y0138794D01*
X0357474Y0138846D01*
X0357669Y0138903D01*
X0357862Y0138965D01*
X0358054Y0139032D01*
X0358244Y0139103D01*
X0358432Y0139178D01*
X0358618Y0139259D01*
X0358803Y0139344D01*
X0358985Y0139433D01*
X0359165Y0139527D01*
X0359343Y0139625D01*
X0359518Y0139727D01*
X0359691Y0139833D01*
X0359861Y0139944D01*
X0360029Y0140059D01*
X0360193Y0140178D01*
X0360355Y0140301D01*
X0360513Y0140427D01*
X0360669Y0140558D01*
X0360821Y0140692D01*
X0360970Y0140830D01*
X0361116Y0140971D01*
X0361258Y0141116D01*
X0361396Y0141265D01*
X0361531Y0141416D01*
X0361662Y0141571D01*
X0361789Y0141729D01*
X0361913Y0141891D01*
X0362032Y0142055D01*
X0362148Y0142222D01*
X0362259Y0142391D01*
X0362367Y0142564D01*
X0362470Y0142739D01*
X0362568Y0142916D01*
X0362485Y0142960D01*
X0362388Y0142785D01*
X0362286Y0142612D01*
X0362180Y0142442D01*
X0362070Y0142274D01*
X0361956Y0142109D01*
X0361837Y0141947D01*
X0361715Y0141787D01*
X0361589Y0141631D01*
X0361460Y0141478D01*
X0361326Y0141328D01*
X0361190Y0141181D01*
X0361049Y0141038D01*
X0360905Y0140898D01*
X0360758Y0140762D01*
X0360607Y0140629D01*
X0360454Y0140500D01*
X0360297Y0140375D01*
X0360137Y0140253D01*
X0359974Y0140136D01*
X0359809Y0140022D01*
X0359641Y0139913D01*
X0359470Y0139807D01*
X0359297Y0139706D01*
X0359121Y0139609D01*
X0358943Y0139517D01*
X0358763Y0139429D01*
X0358580Y0139345D01*
X0358396Y0139265D01*
X0358210Y0139190D01*
X0358022Y0139120D01*
X0357832Y0139054D01*
X0357641Y0138993D01*
X0357449Y0138937D01*
X0357255Y0138885D01*
X0357060Y0138838D01*
X0356864Y0138795D01*
X0356666Y0138758D01*
X0356468Y0138725D01*
X0356270Y0138697D01*
X0356070Y0138674D01*
X0355871Y0138656D01*
X0355670Y0138642D01*
X0355470Y0138634D01*
X0355269Y0138630D01*
X0355269Y0138724D01*
X0355468Y0138728D01*
X0355666Y0138736D01*
X0355864Y0138749D01*
X0356061Y0138768D01*
X0356258Y0138790D01*
X0356455Y0138818D01*
X0356650Y0138850D01*
X0356845Y0138888D01*
X0357039Y0138929D01*
X0357232Y0138976D01*
X0357424Y0139027D01*
X0357614Y0139083D01*
X0357803Y0139143D01*
X0357990Y0139208D01*
X0358176Y0139278D01*
X0358360Y0139352D01*
X0358542Y0139431D01*
X0358722Y0139514D01*
X0358901Y0139601D01*
X0359077Y0139692D01*
X0359250Y0139788D01*
X0359422Y0139888D01*
X0359590Y0139992D01*
X0359757Y0140100D01*
X0359920Y0140213D01*
X0360081Y0140329D01*
X0360239Y0140449D01*
X0360394Y0140573D01*
X0360546Y0140700D01*
X0360695Y0140831D01*
X0360840Y0140966D01*
X0360983Y0141104D01*
X0361121Y0141246D01*
X0361257Y0141391D01*
X0361389Y0141539D01*
X0361517Y0141691D01*
X0361641Y0141845D01*
X0361762Y0142002D01*
X0361879Y0142163D01*
X0361992Y0142326D01*
X0362100Y0142492D01*
X0362205Y0142660D01*
X0362306Y0142831D01*
X0362402Y0143004D01*
X0362320Y0143049D01*
X0362224Y0142877D01*
X0362125Y0142708D01*
X0362021Y0142542D01*
X0361913Y0142378D01*
X0361802Y0142217D01*
X0361686Y0142058D01*
X0361567Y0141903D01*
X0361444Y0141750D01*
X0361317Y0141601D01*
X0361187Y0141454D01*
X0361053Y0141311D01*
X0360916Y0141171D01*
X0360775Y0141034D01*
X0360632Y0140901D01*
X0360485Y0140771D01*
X0360334Y0140645D01*
X0360181Y0140523D01*
X0360025Y0140404D01*
X0359866Y0140289D01*
X0359704Y0140179D01*
X0359540Y0140072D01*
X0359373Y0139969D01*
X0359204Y0139870D01*
X0359032Y0139775D01*
X0358858Y0139685D01*
X0358682Y0139598D01*
X0358504Y0139517D01*
X0358324Y0139439D01*
X0358142Y0139366D01*
X0357959Y0139297D01*
X0357773Y0139233D01*
X0357587Y0139173D01*
X0357399Y0139118D01*
X0357209Y0139067D01*
X0357019Y0139021D01*
X0356827Y0138980D01*
X0356634Y0138943D01*
X0356441Y0138911D01*
X0356247Y0138884D01*
X0356052Y0138861D01*
X0355857Y0138843D01*
X0355661Y0138830D01*
X0355465Y0138822D01*
X0355269Y0138818D01*
X0355269Y0138912D01*
X0355463Y0138916D01*
X0355657Y0138924D01*
X0355850Y0138937D01*
X0356043Y0138955D01*
X0356235Y0138977D01*
X0356427Y0139004D01*
X0356618Y0139036D01*
X0356809Y0139072D01*
X0356998Y0139113D01*
X0357186Y0139158D01*
X0357373Y0139208D01*
X0357559Y0139263D01*
X0357744Y0139322D01*
X0357927Y0139385D01*
X0358108Y0139453D01*
X0358288Y0139526D01*
X0358466Y0139602D01*
X0358642Y0139683D01*
X0358816Y0139769D01*
X0358988Y0139858D01*
X0359158Y0139952D01*
X0359325Y0140049D01*
X0359490Y0140151D01*
X0359652Y0140257D01*
X0359812Y0140366D01*
X0359969Y0140480D01*
X0360123Y0140597D01*
X0360275Y0140718D01*
X0360423Y0140842D01*
X0360568Y0140970D01*
X0360711Y0141102D01*
X0360850Y0141237D01*
X0360985Y0141375D01*
X0361117Y0141517D01*
X0361246Y0141662D01*
X0361371Y0141810D01*
X0361493Y0141961D01*
X0361611Y0142114D01*
X0361725Y0142271D01*
X0361835Y0142430D01*
X0361941Y0142592D01*
X0362044Y0142757D01*
X0362142Y0142924D01*
X0362237Y0143093D01*
X0362154Y0143137D01*
X0362060Y0142970D01*
X0361963Y0142805D01*
X0361862Y0142642D01*
X0361757Y0142482D01*
X0361648Y0142325D01*
X0361535Y0142170D01*
X0361419Y0142018D01*
X0361299Y0141869D01*
X0361175Y0141723D01*
X0361048Y0141580D01*
X0360917Y0141440D01*
X0360783Y0141304D01*
X0360646Y0141170D01*
X0360505Y0141040D01*
X0360362Y0140913D01*
X0360215Y0140790D01*
X0360065Y0140671D01*
X0359913Y0140555D01*
X0359758Y0140443D01*
X0359600Y0140335D01*
X0359439Y0140230D01*
X0359276Y0140130D01*
X0359111Y0140033D01*
X0358944Y0139941D01*
X0358774Y0139853D01*
X0358602Y0139768D01*
X0358428Y0139688D01*
X0358252Y0139613D01*
X0358074Y0139541D01*
X0357895Y0139474D01*
X0357714Y0139411D01*
X0357532Y0139353D01*
X0357348Y0139299D01*
X0357163Y0139249D01*
X0356977Y0139205D01*
X0356790Y0139164D01*
X0356602Y0139128D01*
X0356413Y0139097D01*
X0356224Y0139070D01*
X0356034Y0139048D01*
X0355843Y0139031D01*
X0355652Y0139018D01*
X0355461Y0139010D01*
X0355269Y0139006D01*
X0355269Y0139100D01*
X0355458Y0139104D01*
X0355647Y0139112D01*
X0355836Y0139124D01*
X0356024Y0139142D01*
X0356212Y0139164D01*
X0356399Y0139190D01*
X0356586Y0139221D01*
X0356772Y0139256D01*
X0356957Y0139296D01*
X0357141Y0139341D01*
X0357323Y0139390D01*
X0357505Y0139443D01*
X0357685Y0139500D01*
X0357863Y0139562D01*
X0358041Y0139629D01*
X0358216Y0139699D01*
X0358390Y0139774D01*
X0358562Y0139853D01*
X0358731Y0139937D01*
X0358899Y0140024D01*
X0359065Y0140115D01*
X0359228Y0140211D01*
X0359389Y0140310D01*
X0359548Y0140413D01*
X0359704Y0140520D01*
X0359857Y0140631D01*
X0360008Y0140745D01*
X0360155Y0140863D01*
X0360300Y0140985D01*
X0360442Y0141110D01*
X0360581Y0141238D01*
X0360716Y0141370D01*
X0360849Y0141505D01*
X0360978Y0141643D01*
X0361104Y0141785D01*
X0361226Y0141929D01*
X0361345Y0142076D01*
X0361460Y0142226D01*
X0361571Y0142379D01*
X0361679Y0142535D01*
X0361783Y0142693D01*
X0361883Y0142853D01*
X0361979Y0143016D01*
X0362071Y0143181D01*
X0361988Y0143226D01*
X0361897Y0143062D01*
X0361802Y0142901D01*
X0361703Y0142743D01*
X0361601Y0142587D01*
X0361494Y0142433D01*
X0361384Y0142282D01*
X0361270Y0142134D01*
X0361153Y0141988D01*
X0361032Y0141846D01*
X0360908Y0141706D01*
X0360781Y0141570D01*
X0360650Y0141436D01*
X0360516Y0141306D01*
X0360379Y0141179D01*
X0360239Y0141056D01*
X0360096Y0140936D01*
X0359950Y0140819D01*
X0359801Y0140706D01*
X0359649Y0140597D01*
X0359495Y0140491D01*
X0359339Y0140389D01*
X0359180Y0140291D01*
X0359018Y0140197D01*
X0358855Y0140107D01*
X0358689Y0140020D01*
X0358521Y0139938D01*
X0358352Y0139860D01*
X0358180Y0139786D01*
X0358007Y0139717D01*
X0357832Y0139651D01*
X0357655Y0139590D01*
X0357477Y0139533D01*
X0357298Y0139480D01*
X0357118Y0139432D01*
X0356936Y0139388D01*
X0356753Y0139348D01*
X0356570Y0139313D01*
X0356386Y0139283D01*
X0356201Y0139257D01*
X0356015Y0139235D01*
X0355829Y0139218D01*
X0355643Y0139206D01*
X0355456Y0139198D01*
X0355269Y0139194D01*
X0355269Y0139288D01*
X0355454Y0139292D01*
X0355638Y0139300D01*
X0355822Y0139312D01*
X0356006Y0139329D01*
X0356189Y0139350D01*
X0356372Y0139376D01*
X0356554Y0139406D01*
X0356735Y0139441D01*
X0356915Y0139480D01*
X0357095Y0139523D01*
X0357273Y0139571D01*
X0357450Y0139623D01*
X0357626Y0139679D01*
X0357800Y0139739D01*
X0357973Y0139804D01*
X0358144Y0139873D01*
X0358313Y0139946D01*
X0358481Y0140023D01*
X0358647Y0140104D01*
X0358810Y0140190D01*
X0358972Y0140279D01*
X0359131Y0140372D01*
X0359288Y0140469D01*
X0359443Y0140569D01*
X0359595Y0140674D01*
X0359745Y0140782D01*
X0359892Y0140893D01*
X0360036Y0141008D01*
X0360177Y0141127D01*
X0360316Y0141249D01*
X0360451Y0141374D01*
X0360583Y0141503D01*
X0360713Y0141635D01*
X0360839Y0141769D01*
X0360961Y0141907D01*
X0361080Y0142048D01*
X0361196Y0142192D01*
X0361309Y0142338D01*
X0361417Y0142487D01*
X0361522Y0142639D01*
X0361624Y0142793D01*
X0361721Y0142950D01*
X0361815Y0143109D01*
X0361905Y0143270D01*
X0362530Y0151127D02*
X0361749Y0150681D01*
X0361656Y0150838D01*
X0361559Y0150992D01*
X0361458Y0151144D01*
X0361353Y0151293D01*
X0361245Y0151440D01*
X0361134Y0151585D01*
X0361019Y0151726D01*
X0360900Y0151865D01*
X0360778Y0152000D01*
X0360653Y0152133D01*
X0360525Y0152263D01*
X0360394Y0152389D01*
X0360260Y0152513D01*
X0360123Y0152633D01*
X0359983Y0152750D01*
X0359840Y0152863D01*
X0359694Y0152973D01*
X0359546Y0153079D01*
X0359395Y0153182D01*
X0359242Y0153281D01*
X0359087Y0153376D01*
X0358929Y0153467D01*
X0358769Y0153555D01*
X0358607Y0153639D01*
X0358444Y0153719D01*
X0358278Y0153795D01*
X0358110Y0153866D01*
X0357941Y0153934D01*
X0357770Y0153998D01*
X0357598Y0154057D01*
X0357424Y0154113D01*
X0357249Y0154164D01*
X0357073Y0154211D01*
X0356896Y0154253D01*
X0356717Y0154292D01*
X0356538Y0154326D01*
X0356358Y0154356D01*
X0356178Y0154381D01*
X0355997Y0154402D01*
X0355815Y0154418D01*
X0355633Y0154431D01*
X0355451Y0154438D01*
X0355269Y0154442D01*
X0355268Y0155341D01*
X0355269Y0155342D01*
X0355473Y0155338D01*
X0355677Y0155330D01*
X0355881Y0155316D01*
X0356085Y0155298D01*
X0356288Y0155274D01*
X0356490Y0155246D01*
X0356692Y0155213D01*
X0356892Y0155175D01*
X0357092Y0155132D01*
X0357291Y0155084D01*
X0357488Y0155032D01*
X0357684Y0154974D01*
X0357879Y0154912D01*
X0358072Y0154846D01*
X0358264Y0154774D01*
X0358453Y0154698D01*
X0358641Y0154618D01*
X0358827Y0154533D01*
X0359011Y0154443D01*
X0359192Y0154350D01*
X0359371Y0154251D01*
X0359548Y0154149D01*
X0359722Y0154042D01*
X0359894Y0153931D01*
X0360063Y0153816D01*
X0360229Y0153697D01*
X0360392Y0153574D01*
X0360552Y0153447D01*
X0360709Y0153316D01*
X0360863Y0153181D01*
X0361013Y0153043D01*
X0361160Y0152901D01*
X0361304Y0152756D01*
X0361444Y0152607D01*
X0361580Y0152455D01*
X0361713Y0152299D01*
X0361841Y0152141D01*
X0361966Y0151979D01*
X0362087Y0151814D01*
X0362204Y0151647D01*
X0362317Y0151476D01*
X0362426Y0151303D01*
X0362531Y0151128D01*
X0362449Y0151081D01*
X0362346Y0151255D01*
X0362238Y0151426D01*
X0362126Y0151594D01*
X0362011Y0151760D01*
X0361891Y0151923D01*
X0361767Y0152082D01*
X0361640Y0152239D01*
X0361509Y0152393D01*
X0361374Y0152543D01*
X0361236Y0152691D01*
X0361094Y0152834D01*
X0360948Y0152975D01*
X0360800Y0153111D01*
X0360648Y0153244D01*
X0360492Y0153374D01*
X0360334Y0153499D01*
X0360173Y0153621D01*
X0360009Y0153739D01*
X0359842Y0153853D01*
X0359672Y0153962D01*
X0359500Y0154068D01*
X0359325Y0154169D01*
X0359148Y0154267D01*
X0358969Y0154359D01*
X0358787Y0154448D01*
X0358603Y0154532D01*
X0358418Y0154612D01*
X0358230Y0154687D01*
X0358041Y0154757D01*
X0357850Y0154823D01*
X0357657Y0154884D01*
X0357463Y0154941D01*
X0357268Y0154993D01*
X0357072Y0155040D01*
X0356874Y0155082D01*
X0356676Y0155120D01*
X0356476Y0155153D01*
X0356276Y0155181D01*
X0356075Y0155204D01*
X0355874Y0155222D01*
X0355673Y0155236D01*
X0355471Y0155244D01*
X0355269Y0155248D01*
X0355269Y0155154D01*
X0355468Y0155150D01*
X0355668Y0155142D01*
X0355867Y0155129D01*
X0356066Y0155110D01*
X0356265Y0155088D01*
X0356462Y0155060D01*
X0356660Y0155027D01*
X0356856Y0154990D01*
X0357051Y0154948D01*
X0357245Y0154902D01*
X0357438Y0154850D01*
X0357630Y0154794D01*
X0357820Y0154734D01*
X0358009Y0154669D01*
X0358196Y0154599D01*
X0358382Y0154525D01*
X0358565Y0154446D01*
X0358747Y0154363D01*
X0358927Y0154275D01*
X0359104Y0154184D01*
X0359279Y0154088D01*
X0359452Y0153987D01*
X0359622Y0153883D01*
X0359790Y0153774D01*
X0359955Y0153662D01*
X0360117Y0153546D01*
X0360276Y0153425D01*
X0360433Y0153301D01*
X0360586Y0153173D01*
X0360737Y0153042D01*
X0360884Y0152906D01*
X0361027Y0152768D01*
X0361168Y0152626D01*
X0361305Y0152480D01*
X0361438Y0152331D01*
X0361568Y0152179D01*
X0361694Y0152024D01*
X0361816Y0151866D01*
X0361934Y0151705D01*
X0362048Y0151542D01*
X0362159Y0151375D01*
X0362265Y0151206D01*
X0362367Y0151035D01*
X0362286Y0150988D01*
X0362185Y0151158D01*
X0362080Y0151325D01*
X0361970Y0151489D01*
X0361857Y0151651D01*
X0361740Y0151810D01*
X0361620Y0151966D01*
X0361495Y0152120D01*
X0361367Y0152270D01*
X0361235Y0152417D01*
X0361100Y0152561D01*
X0360961Y0152701D01*
X0360819Y0152838D01*
X0360674Y0152972D01*
X0360525Y0153102D01*
X0360373Y0153228D01*
X0360219Y0153351D01*
X0360061Y0153470D01*
X0359901Y0153585D01*
X0359738Y0153696D01*
X0359572Y0153803D01*
X0359404Y0153907D01*
X0359233Y0154006D01*
X0359060Y0154101D01*
X0358884Y0154191D01*
X0358707Y0154278D01*
X0358527Y0154360D01*
X0358346Y0154438D01*
X0358163Y0154511D01*
X0357978Y0154580D01*
X0357791Y0154644D01*
X0357603Y0154704D01*
X0357413Y0154760D01*
X0357223Y0154810D01*
X0357031Y0154857D01*
X0356838Y0154898D01*
X0356644Y0154935D01*
X0356449Y0154967D01*
X0356253Y0154994D01*
X0356057Y0155017D01*
X0355860Y0155035D01*
X0355663Y0155048D01*
X0355466Y0155056D01*
X0355269Y0155060D01*
X0355269Y0154966D01*
X0355464Y0154962D01*
X0355659Y0154954D01*
X0355854Y0154941D01*
X0356048Y0154923D01*
X0356242Y0154901D01*
X0356435Y0154874D01*
X0356628Y0154842D01*
X0356819Y0154806D01*
X0357010Y0154765D01*
X0357200Y0154719D01*
X0357388Y0154669D01*
X0357576Y0154614D01*
X0357762Y0154555D01*
X0357946Y0154492D01*
X0358129Y0154423D01*
X0358310Y0154351D01*
X0358489Y0154274D01*
X0358667Y0154193D01*
X0358842Y0154107D01*
X0359016Y0154018D01*
X0359187Y0153924D01*
X0359355Y0153826D01*
X0359522Y0153724D01*
X0359686Y0153618D01*
X0359847Y0153508D01*
X0360005Y0153394D01*
X0360161Y0153277D01*
X0360314Y0153155D01*
X0360464Y0153030D01*
X0360611Y0152902D01*
X0360754Y0152770D01*
X0360895Y0152634D01*
X0361032Y0152495D01*
X0361166Y0152353D01*
X0361296Y0152208D01*
X0361423Y0152060D01*
X0361546Y0151908D01*
X0361665Y0151754D01*
X0361781Y0151597D01*
X0361892Y0151437D01*
X0362000Y0151274D01*
X0362104Y0151109D01*
X0362204Y0150941D01*
X0362123Y0150895D01*
X0362024Y0151060D01*
X0361921Y0151224D01*
X0361814Y0151384D01*
X0361704Y0151542D01*
X0361590Y0151698D01*
X0361472Y0151850D01*
X0361350Y0152000D01*
X0361225Y0152146D01*
X0361096Y0152290D01*
X0360964Y0152430D01*
X0360829Y0152568D01*
X0360690Y0152702D01*
X0360548Y0152832D01*
X0360403Y0152959D01*
X0360255Y0153083D01*
X0360104Y0153202D01*
X0359950Y0153319D01*
X0359793Y0153431D01*
X0359634Y0153540D01*
X0359472Y0153644D01*
X0359307Y0153745D01*
X0359141Y0153842D01*
X0358971Y0153935D01*
X0358800Y0154023D01*
X0358627Y0154108D01*
X0358451Y0154188D01*
X0358274Y0154264D01*
X0358095Y0154336D01*
X0357914Y0154403D01*
X0357732Y0154466D01*
X0357548Y0154524D01*
X0357363Y0154578D01*
X0357177Y0154628D01*
X0356989Y0154673D01*
X0356801Y0154714D01*
X0356612Y0154750D01*
X0356421Y0154781D01*
X0356230Y0154808D01*
X0356039Y0154830D01*
X0355847Y0154847D01*
X0355654Y0154860D01*
X0355462Y0154868D01*
X0355269Y0154872D01*
X0355269Y0154778D01*
X0355459Y0154774D01*
X0355650Y0154766D01*
X0355840Y0154754D01*
X0356030Y0154736D01*
X0356219Y0154714D01*
X0356407Y0154688D01*
X0356595Y0154657D01*
X0356783Y0154621D01*
X0356969Y0154581D01*
X0357154Y0154537D01*
X0357338Y0154488D01*
X0357521Y0154434D01*
X0357703Y0154377D01*
X0357883Y0154314D01*
X0358061Y0154248D01*
X0358238Y0154177D01*
X0358413Y0154102D01*
X0358587Y0154023D01*
X0358758Y0153939D01*
X0358927Y0153852D01*
X0359094Y0153760D01*
X0359259Y0153664D01*
X0359422Y0153565D01*
X0359582Y0153461D01*
X0359739Y0153354D01*
X0359894Y0153243D01*
X0360046Y0153128D01*
X0360195Y0153010D01*
X0360341Y0152888D01*
X0360485Y0152762D01*
X0360625Y0152633D01*
X0360762Y0152501D01*
X0360896Y0152365D01*
X0361027Y0152227D01*
X0361154Y0152085D01*
X0361278Y0151940D01*
X0361398Y0151792D01*
X0361514Y0151641D01*
X0361627Y0151488D01*
X0361736Y0151332D01*
X0361842Y0151173D01*
X0361943Y0151012D01*
X0362041Y0150848D01*
X0361959Y0150801D01*
X0361863Y0150963D01*
X0361763Y0151122D01*
X0361659Y0151279D01*
X0361551Y0151434D01*
X0361439Y0151585D01*
X0361324Y0151734D01*
X0361205Y0151880D01*
X0361083Y0152023D01*
X0360957Y0152163D01*
X0360828Y0152300D01*
X0360696Y0152434D01*
X0360560Y0152565D01*
X0360422Y0152692D01*
X0360280Y0152816D01*
X0360136Y0152937D01*
X0359988Y0153054D01*
X0359838Y0153167D01*
X0359685Y0153277D01*
X0359529Y0153383D01*
X0359371Y0153485D01*
X0359211Y0153584D01*
X0359048Y0153678D01*
X0358883Y0153769D01*
X0358716Y0153855D01*
X0358547Y0153938D01*
X0358376Y0154016D01*
X0358203Y0154090D01*
X0358028Y0154160D01*
X0357851Y0154226D01*
X0357673Y0154287D01*
X0357494Y0154344D01*
X0357313Y0154397D01*
X0357131Y0154446D01*
X0356948Y0154490D01*
X0356764Y0154529D01*
X0356579Y0154564D01*
X0356394Y0154595D01*
X0356207Y0154621D01*
X0356020Y0154643D01*
X0355833Y0154660D01*
X0355645Y0154672D01*
X0355457Y0154680D01*
X0355269Y0154684D01*
X0355269Y0154590D01*
X0355455Y0154586D01*
X0355640Y0154578D01*
X0355826Y0154566D01*
X0356011Y0154549D01*
X0356196Y0154528D01*
X0356380Y0154502D01*
X0356563Y0154472D01*
X0356746Y0154437D01*
X0356928Y0154398D01*
X0357109Y0154354D01*
X0357288Y0154307D01*
X0357467Y0154254D01*
X0357644Y0154198D01*
X0357820Y0154137D01*
X0357994Y0154072D01*
X0358167Y0154003D01*
X0358338Y0153930D01*
X0358507Y0153853D01*
X0358674Y0153771D01*
X0358839Y0153686D01*
X0359002Y0153596D01*
X0359163Y0153503D01*
X0359321Y0153406D01*
X0359477Y0153305D01*
X0359631Y0153200D01*
X0359782Y0153092D01*
X0359931Y0152980D01*
X0360076Y0152864D01*
X0360219Y0152745D01*
X0360359Y0152623D01*
X0360496Y0152497D01*
X0360630Y0152368D01*
X0360760Y0152235D01*
X0360888Y0152100D01*
X0361012Y0151962D01*
X0361133Y0151820D01*
X0361250Y0151676D01*
X0361364Y0151529D01*
X0361474Y0151379D01*
X0361581Y0151227D01*
X0361683Y0151072D01*
X0361782Y0150914D01*
X0361878Y0150755D01*
X0361796Y0150708D01*
X0361702Y0150866D01*
X0361604Y0151021D01*
X0361503Y0151174D01*
X0361397Y0151325D01*
X0361288Y0151473D01*
X0361176Y0151618D01*
X0361060Y0151760D01*
X0360941Y0151900D01*
X0360818Y0152037D01*
X0360692Y0152170D01*
X0360563Y0152301D01*
X0360431Y0152429D01*
X0360296Y0152553D01*
X0360158Y0152674D01*
X0360017Y0152791D01*
X0359873Y0152905D01*
X0359726Y0153016D01*
X0359577Y0153123D01*
X0359425Y0153227D01*
X0359271Y0153326D01*
X0359115Y0153422D01*
X0358956Y0153514D01*
X0358795Y0153603D01*
X0358632Y0153687D01*
X0358467Y0153768D01*
X0358300Y0153844D01*
X0358131Y0153916D01*
X0357960Y0153985D01*
X0357788Y0154049D01*
X0357615Y0154109D01*
X0357440Y0154165D01*
X0357263Y0154216D01*
X0357086Y0154263D01*
X0356907Y0154306D01*
X0356728Y0154345D01*
X0356547Y0154379D01*
X0356366Y0154409D01*
X0356184Y0154434D01*
X0356002Y0154456D01*
X0355819Y0154472D01*
X0355636Y0154485D01*
X0355452Y0154492D01*
X0355269Y0154496D01*
X0355170Y0155341D02*
X0355170Y0154441D01*
X0355169Y0154442D02*
X0354985Y0154438D01*
X0354800Y0154430D01*
X0354616Y0154418D01*
X0354433Y0154401D01*
X0354249Y0154379D01*
X0354067Y0154354D01*
X0353885Y0154323D01*
X0353704Y0154288D01*
X0353523Y0154249D01*
X0353344Y0154205D01*
X0353166Y0154157D01*
X0352989Y0154105D01*
X0352813Y0154048D01*
X0352639Y0153988D01*
X0352467Y0153922D01*
X0352296Y0153853D01*
X0352126Y0153780D01*
X0351959Y0153702D01*
X0351794Y0153620D01*
X0351630Y0153535D01*
X0351469Y0153445D01*
X0351310Y0153351D01*
X0351153Y0153254D01*
X0350999Y0153153D01*
X0350847Y0153048D01*
X0350698Y0152939D01*
X0350552Y0152827D01*
X0350408Y0152711D01*
X0350268Y0152592D01*
X0350130Y0152469D01*
X0349995Y0152343D01*
X0349863Y0152214D01*
X0349735Y0152081D01*
X0349610Y0151946D01*
X0349488Y0151807D01*
X0348801Y0152388D01*
X0348937Y0152544D01*
X0349078Y0152696D01*
X0349222Y0152845D01*
X0349369Y0152990D01*
X0349520Y0153131D01*
X0349674Y0153268D01*
X0349832Y0153402D01*
X0349993Y0153532D01*
X0350157Y0153658D01*
X0350324Y0153780D01*
X0350494Y0153898D01*
X0350667Y0154011D01*
X0350843Y0154120D01*
X0351021Y0154225D01*
X0351202Y0154326D01*
X0351385Y0154422D01*
X0351570Y0154514D01*
X0351758Y0154601D01*
X0351948Y0154683D01*
X0352139Y0154761D01*
X0352333Y0154834D01*
X0352528Y0154902D01*
X0352725Y0154966D01*
X0352923Y0155024D01*
X0353123Y0155078D01*
X0353324Y0155127D01*
X0353526Y0155171D01*
X0353729Y0155210D01*
X0353933Y0155244D01*
X0354138Y0155273D01*
X0354343Y0155297D01*
X0354549Y0155315D01*
X0354756Y0155329D01*
X0354962Y0155338D01*
X0355169Y0155342D01*
X0355169Y0155248D01*
X0354965Y0155244D01*
X0354760Y0155235D01*
X0354556Y0155222D01*
X0354353Y0155203D01*
X0354150Y0155179D01*
X0353947Y0155151D01*
X0353745Y0155117D01*
X0353545Y0155079D01*
X0353345Y0155035D01*
X0353146Y0154987D01*
X0352949Y0154934D01*
X0352752Y0154876D01*
X0352558Y0154813D01*
X0352365Y0154745D01*
X0352173Y0154673D01*
X0351984Y0154596D01*
X0351796Y0154515D01*
X0351611Y0154429D01*
X0351428Y0154338D01*
X0351246Y0154243D01*
X0351068Y0154144D01*
X0350892Y0154040D01*
X0350718Y0153932D01*
X0350547Y0153820D01*
X0350379Y0153703D01*
X0350214Y0153583D01*
X0350051Y0153458D01*
X0349892Y0153330D01*
X0349736Y0153198D01*
X0349584Y0153062D01*
X0349434Y0152922D01*
X0349289Y0152779D01*
X0349146Y0152632D01*
X0349008Y0152481D01*
X0348873Y0152328D01*
X0348944Y0152267D01*
X0349078Y0152419D01*
X0349215Y0152568D01*
X0349356Y0152713D01*
X0349500Y0152854D01*
X0349647Y0152993D01*
X0349798Y0153127D01*
X0349952Y0153258D01*
X0350110Y0153385D01*
X0350270Y0153508D01*
X0350434Y0153627D01*
X0350600Y0153742D01*
X0350769Y0153853D01*
X0350940Y0153960D01*
X0351115Y0154062D01*
X0351291Y0154161D01*
X0351470Y0154255D01*
X0351652Y0154344D01*
X0351835Y0154429D01*
X0352020Y0154510D01*
X0352208Y0154586D01*
X0352397Y0154657D01*
X0352588Y0154724D01*
X0352780Y0154786D01*
X0352974Y0154843D01*
X0353169Y0154896D01*
X0353366Y0154943D01*
X0353563Y0154986D01*
X0353762Y0155024D01*
X0353961Y0155058D01*
X0354161Y0155086D01*
X0354362Y0155109D01*
X0354563Y0155128D01*
X0354765Y0155142D01*
X0354967Y0155150D01*
X0355169Y0155154D01*
X0355169Y0155060D01*
X0354969Y0155056D01*
X0354770Y0155048D01*
X0354570Y0155034D01*
X0354371Y0155016D01*
X0354173Y0154993D01*
X0353975Y0154965D01*
X0353778Y0154932D01*
X0353582Y0154894D01*
X0353386Y0154852D01*
X0353192Y0154805D01*
X0352999Y0154753D01*
X0352808Y0154696D01*
X0352617Y0154635D01*
X0352429Y0154569D01*
X0352242Y0154498D01*
X0352057Y0154423D01*
X0351873Y0154343D01*
X0351692Y0154259D01*
X0351513Y0154171D01*
X0351336Y0154078D01*
X0351161Y0153981D01*
X0350989Y0153879D01*
X0350820Y0153774D01*
X0350652Y0153664D01*
X0350488Y0153550D01*
X0350327Y0153433D01*
X0350168Y0153311D01*
X0350013Y0153186D01*
X0349860Y0153056D01*
X0349711Y0152923D01*
X0349565Y0152787D01*
X0349423Y0152647D01*
X0349284Y0152503D01*
X0349148Y0152356D01*
X0349016Y0152206D01*
X0349088Y0152146D01*
X0349218Y0152294D01*
X0349352Y0152439D01*
X0349490Y0152581D01*
X0349631Y0152719D01*
X0349775Y0152854D01*
X0349922Y0152986D01*
X0350073Y0153113D01*
X0350227Y0153237D01*
X0350383Y0153358D01*
X0350543Y0153474D01*
X0350705Y0153586D01*
X0350870Y0153695D01*
X0351038Y0153799D01*
X0351208Y0153899D01*
X0351381Y0153995D01*
X0351556Y0154087D01*
X0351733Y0154175D01*
X0351912Y0154258D01*
X0352093Y0154336D01*
X0352276Y0154411D01*
X0352461Y0154480D01*
X0352647Y0154545D01*
X0352835Y0154606D01*
X0353025Y0154662D01*
X0353215Y0154713D01*
X0353407Y0154760D01*
X0353600Y0154802D01*
X0353794Y0154839D01*
X0353989Y0154872D01*
X0354185Y0154899D01*
X0354381Y0154922D01*
X0354577Y0154940D01*
X0354774Y0154954D01*
X0354972Y0154962D01*
X0355169Y0154966D01*
X0355169Y0154872D01*
X0354974Y0154868D01*
X0354779Y0154860D01*
X0354584Y0154847D01*
X0354390Y0154829D01*
X0354196Y0154806D01*
X0354003Y0154779D01*
X0353810Y0154747D01*
X0353619Y0154710D01*
X0353428Y0154668D01*
X0353238Y0154622D01*
X0353050Y0154572D01*
X0352863Y0154516D01*
X0352677Y0154456D01*
X0352493Y0154392D01*
X0352310Y0154323D01*
X0352129Y0154250D01*
X0351950Y0154172D01*
X0351773Y0154090D01*
X0351598Y0154003D01*
X0351426Y0153913D01*
X0351255Y0153818D01*
X0351087Y0153719D01*
X0350921Y0153616D01*
X0350758Y0153509D01*
X0350597Y0153398D01*
X0350440Y0153283D01*
X0350285Y0153164D01*
X0350133Y0153041D01*
X0349984Y0152915D01*
X0349838Y0152785D01*
X0349696Y0152652D01*
X0349557Y0152515D01*
X0349421Y0152375D01*
X0349289Y0152231D01*
X0349160Y0152085D01*
X0349232Y0152024D01*
X0349359Y0152169D01*
X0349490Y0152311D01*
X0349624Y0152449D01*
X0349761Y0152584D01*
X0349902Y0152716D01*
X0350046Y0152844D01*
X0350193Y0152969D01*
X0350343Y0153090D01*
X0350496Y0153207D01*
X0350652Y0153321D01*
X0350811Y0153431D01*
X0350972Y0153537D01*
X0351136Y0153638D01*
X0351302Y0153736D01*
X0351470Y0153830D01*
X0351641Y0153920D01*
X0351814Y0154005D01*
X0351989Y0154086D01*
X0352166Y0154163D01*
X0352344Y0154235D01*
X0352525Y0154304D01*
X0352707Y0154367D01*
X0352890Y0154426D01*
X0353075Y0154481D01*
X0353261Y0154531D01*
X0353449Y0154577D01*
X0353637Y0154618D01*
X0353827Y0154654D01*
X0354017Y0154686D01*
X0354208Y0154713D01*
X0354399Y0154735D01*
X0354591Y0154753D01*
X0354784Y0154766D01*
X0354976Y0154774D01*
X0355169Y0154778D01*
X0355169Y0154684D01*
X0354979Y0154680D01*
X0354788Y0154672D01*
X0354598Y0154659D01*
X0354409Y0154642D01*
X0354219Y0154620D01*
X0354031Y0154593D01*
X0353843Y0154562D01*
X0353656Y0154526D01*
X0353470Y0154485D01*
X0353285Y0154440D01*
X0353101Y0154391D01*
X0352918Y0154336D01*
X0352737Y0154278D01*
X0352557Y0154215D01*
X0352379Y0154148D01*
X0352202Y0154076D01*
X0352027Y0154000D01*
X0351855Y0153920D01*
X0351684Y0153836D01*
X0351515Y0153747D01*
X0351349Y0153655D01*
X0351184Y0153558D01*
X0351023Y0153458D01*
X0350863Y0153353D01*
X0350707Y0153245D01*
X0350553Y0153132D01*
X0350402Y0153016D01*
X0350253Y0152897D01*
X0350108Y0152774D01*
X0349966Y0152647D01*
X0349827Y0152517D01*
X0349691Y0152383D01*
X0349558Y0152247D01*
X0349429Y0152107D01*
X0349303Y0151963D01*
X0349375Y0151903D01*
X0349499Y0152044D01*
X0349627Y0152182D01*
X0349758Y0152317D01*
X0349892Y0152449D01*
X0350029Y0152578D01*
X0350170Y0152703D01*
X0350314Y0152825D01*
X0350460Y0152943D01*
X0350609Y0153057D01*
X0350761Y0153168D01*
X0350916Y0153275D01*
X0351073Y0153378D01*
X0351233Y0153478D01*
X0351395Y0153573D01*
X0351560Y0153665D01*
X0351726Y0153752D01*
X0351895Y0153835D01*
X0352066Y0153915D01*
X0352238Y0153990D01*
X0352413Y0154060D01*
X0352589Y0154127D01*
X0352766Y0154189D01*
X0352946Y0154247D01*
X0353126Y0154300D01*
X0353308Y0154349D01*
X0353490Y0154393D01*
X0353674Y0154433D01*
X0353859Y0154469D01*
X0354045Y0154500D01*
X0354231Y0154526D01*
X0354418Y0154548D01*
X0354605Y0154565D01*
X0354793Y0154578D01*
X0354981Y0154586D01*
X0355169Y0154590D01*
X0355169Y0154496D01*
X0354983Y0154492D01*
X0354798Y0154484D01*
X0354612Y0154472D01*
X0354427Y0154455D01*
X0354243Y0154433D01*
X0354059Y0154407D01*
X0353875Y0154376D01*
X0353693Y0154341D01*
X0353511Y0154302D01*
X0353331Y0154258D01*
X0353151Y0154209D01*
X0352973Y0154157D01*
X0352796Y0154100D01*
X0352621Y0154038D01*
X0352447Y0153973D01*
X0352275Y0153903D01*
X0352104Y0153829D01*
X0351936Y0153751D01*
X0351769Y0153668D01*
X0351605Y0153582D01*
X0351442Y0153492D01*
X0351282Y0153397D01*
X0351124Y0153299D01*
X0350969Y0153197D01*
X0350816Y0153092D01*
X0350666Y0152982D01*
X0350518Y0152869D01*
X0350374Y0152752D01*
X0350232Y0152632D01*
X0350093Y0152509D01*
X0349957Y0152382D01*
X0349825Y0152252D01*
X0349696Y0152118D01*
X0349569Y0151982D01*
X0349447Y0151842D01*
X0348760Y0141444D02*
X0349452Y0142021D01*
X0349451Y0142020D02*
X0349570Y0141883D01*
X0349691Y0141749D01*
X0349816Y0141618D01*
X0349944Y0141490D01*
X0350075Y0141366D01*
X0350209Y0141244D01*
X0350346Y0141125D01*
X0350485Y0141010D01*
X0350628Y0140899D01*
X0350773Y0140790D01*
X0350920Y0140685D01*
X0351070Y0140584D01*
X0351222Y0140487D01*
X0351377Y0140393D01*
X0351534Y0140302D01*
X0351693Y0140216D01*
X0351854Y0140133D01*
X0352017Y0140055D01*
X0352182Y0139980D01*
X0352348Y0139909D01*
X0352516Y0139842D01*
X0352686Y0139780D01*
X0352857Y0139721D01*
X0353030Y0139666D01*
X0353203Y0139616D01*
X0353378Y0139570D01*
X0353554Y0139528D01*
X0353731Y0139490D01*
X0353909Y0139457D01*
X0354088Y0139427D01*
X0354267Y0139402D01*
X0354447Y0139382D01*
X0354627Y0139365D01*
X0354807Y0139353D01*
X0354988Y0139346D01*
X0355169Y0139342D01*
X0355170Y0138443D01*
X0355169Y0138442D01*
X0354966Y0138446D01*
X0354764Y0138454D01*
X0354561Y0138468D01*
X0354359Y0138486D01*
X0354158Y0138509D01*
X0353957Y0138537D01*
X0353757Y0138570D01*
X0353557Y0138607D01*
X0353359Y0138649D01*
X0353161Y0138696D01*
X0352965Y0138748D01*
X0352771Y0138805D01*
X0352577Y0138866D01*
X0352385Y0138931D01*
X0352195Y0139002D01*
X0352006Y0139077D01*
X0351820Y0139156D01*
X0351635Y0139240D01*
X0351452Y0139328D01*
X0351272Y0139421D01*
X0351094Y0139517D01*
X0350918Y0139619D01*
X0350745Y0139724D01*
X0350574Y0139833D01*
X0350406Y0139947D01*
X0350240Y0140064D01*
X0350078Y0140186D01*
X0349918Y0140311D01*
X0349762Y0140440D01*
X0349609Y0140573D01*
X0349459Y0140710D01*
X0349312Y0140850D01*
X0349169Y0140993D01*
X0349029Y0141140D01*
X0348892Y0141290D01*
X0348760Y0141444D01*
X0348832Y0141504D01*
X0348963Y0141352D01*
X0349098Y0141204D01*
X0349236Y0141059D01*
X0349378Y0140917D01*
X0349523Y0140778D01*
X0349671Y0140643D01*
X0349823Y0140512D01*
X0349978Y0140384D01*
X0350135Y0140260D01*
X0350296Y0140140D01*
X0350459Y0140024D01*
X0350626Y0139912D01*
X0350794Y0139804D01*
X0350966Y0139699D01*
X0351140Y0139599D01*
X0351316Y0139504D01*
X0351494Y0139412D01*
X0351675Y0139325D01*
X0351858Y0139242D01*
X0352042Y0139163D01*
X0352228Y0139089D01*
X0352417Y0139020D01*
X0352606Y0138955D01*
X0352798Y0138895D01*
X0352990Y0138839D01*
X0353184Y0138788D01*
X0353379Y0138741D01*
X0353575Y0138699D01*
X0353772Y0138662D01*
X0353970Y0138630D01*
X0354169Y0138602D01*
X0354368Y0138579D01*
X0354568Y0138561D01*
X0354768Y0138548D01*
X0354969Y0138540D01*
X0355169Y0138536D01*
X0355169Y0138630D01*
X0354971Y0138634D01*
X0354773Y0138642D01*
X0354575Y0138655D01*
X0354377Y0138673D01*
X0354180Y0138696D01*
X0353984Y0138723D01*
X0353788Y0138755D01*
X0353594Y0138791D01*
X0353400Y0138833D01*
X0353207Y0138879D01*
X0353015Y0138929D01*
X0352825Y0138985D01*
X0352636Y0139044D01*
X0352448Y0139109D01*
X0352262Y0139177D01*
X0352078Y0139250D01*
X0351895Y0139328D01*
X0351715Y0139410D01*
X0351536Y0139496D01*
X0351360Y0139587D01*
X0351186Y0139681D01*
X0351014Y0139780D01*
X0350844Y0139883D01*
X0350677Y0139990D01*
X0350513Y0140101D01*
X0350352Y0140216D01*
X0350193Y0140335D01*
X0350037Y0140457D01*
X0349884Y0140583D01*
X0349734Y0140713D01*
X0349587Y0140847D01*
X0349444Y0140984D01*
X0349304Y0141124D01*
X0349167Y0141267D01*
X0349034Y0141414D01*
X0348904Y0141564D01*
X0348976Y0141624D01*
X0349105Y0141476D01*
X0349236Y0141331D01*
X0349371Y0141189D01*
X0349510Y0141051D01*
X0349652Y0140915D01*
X0349797Y0140783D01*
X0349945Y0140655D01*
X0350096Y0140530D01*
X0350250Y0140409D01*
X0350407Y0140292D01*
X0350567Y0140178D01*
X0350729Y0140069D01*
X0350894Y0139963D01*
X0351062Y0139861D01*
X0351232Y0139763D01*
X0351404Y0139670D01*
X0351578Y0139580D01*
X0351755Y0139495D01*
X0351933Y0139414D01*
X0352113Y0139337D01*
X0352296Y0139265D01*
X0352479Y0139197D01*
X0352665Y0139134D01*
X0352852Y0139075D01*
X0353040Y0139020D01*
X0353229Y0138970D01*
X0353420Y0138925D01*
X0353612Y0138884D01*
X0353804Y0138847D01*
X0353998Y0138816D01*
X0354192Y0138789D01*
X0354387Y0138767D01*
X0354582Y0138749D01*
X0354777Y0138736D01*
X0354973Y0138728D01*
X0355169Y0138724D01*
X0355169Y0138818D01*
X0354975Y0138822D01*
X0354782Y0138830D01*
X0354589Y0138843D01*
X0354396Y0138860D01*
X0354203Y0138882D01*
X0354011Y0138909D01*
X0353820Y0138940D01*
X0353630Y0138976D01*
X0353440Y0139016D01*
X0353252Y0139061D01*
X0353065Y0139111D01*
X0352879Y0139165D01*
X0352694Y0139223D01*
X0352511Y0139286D01*
X0352329Y0139353D01*
X0352149Y0139424D01*
X0351971Y0139500D01*
X0351794Y0139580D01*
X0351620Y0139664D01*
X0351448Y0139753D01*
X0351278Y0139845D01*
X0351110Y0139942D01*
X0350944Y0140043D01*
X0350781Y0140147D01*
X0350621Y0140255D01*
X0350463Y0140368D01*
X0350308Y0140484D01*
X0350155Y0140603D01*
X0350006Y0140727D01*
X0349859Y0140853D01*
X0349716Y0140984D01*
X0349576Y0141117D01*
X0349439Y0141254D01*
X0349306Y0141395D01*
X0349175Y0141538D01*
X0349049Y0141685D01*
X0349121Y0141745D01*
X0349246Y0141600D01*
X0349375Y0141458D01*
X0349507Y0141320D01*
X0349642Y0141184D01*
X0349781Y0141052D01*
X0349922Y0140923D01*
X0350067Y0140798D01*
X0350214Y0140676D01*
X0350365Y0140558D01*
X0350518Y0140443D01*
X0350674Y0140333D01*
X0350833Y0140225D01*
X0350994Y0140122D01*
X0351158Y0140023D01*
X0351324Y0139927D01*
X0351492Y0139836D01*
X0351662Y0139749D01*
X0351834Y0139665D01*
X0352009Y0139586D01*
X0352185Y0139511D01*
X0352363Y0139441D01*
X0352542Y0139374D01*
X0352723Y0139312D01*
X0352906Y0139255D01*
X0353090Y0139201D01*
X0353275Y0139152D01*
X0353461Y0139108D01*
X0353648Y0139068D01*
X0353836Y0139033D01*
X0354025Y0139002D01*
X0354215Y0138975D01*
X0354405Y0138954D01*
X0354595Y0138936D01*
X0354786Y0138924D01*
X0354978Y0138916D01*
X0355169Y0138912D01*
X0355169Y0139006D01*
X0354980Y0139010D01*
X0354791Y0139018D01*
X0354602Y0139030D01*
X0354414Y0139047D01*
X0354226Y0139069D01*
X0354039Y0139095D01*
X0353852Y0139125D01*
X0353666Y0139160D01*
X0353481Y0139200D01*
X0353297Y0139244D01*
X0353115Y0139292D01*
X0352933Y0139345D01*
X0352753Y0139402D01*
X0352574Y0139463D01*
X0352396Y0139529D01*
X0352220Y0139598D01*
X0352046Y0139672D01*
X0351874Y0139750D01*
X0351704Y0139833D01*
X0351536Y0139919D01*
X0351370Y0140009D01*
X0351206Y0140104D01*
X0351044Y0140202D01*
X0350885Y0140304D01*
X0350728Y0140410D01*
X0350574Y0140519D01*
X0350422Y0140633D01*
X0350274Y0140749D01*
X0350128Y0140870D01*
X0349985Y0140993D01*
X0349845Y0141121D01*
X0349708Y0141251D01*
X0349574Y0141385D01*
X0349444Y0141522D01*
X0349317Y0141662D01*
X0349193Y0141805D01*
X0349265Y0141865D01*
X0349388Y0141724D01*
X0349513Y0141586D01*
X0349642Y0141450D01*
X0349774Y0141318D01*
X0349909Y0141189D01*
X0350048Y0141064D01*
X0350189Y0140941D01*
X0350333Y0140822D01*
X0350480Y0140707D01*
X0350629Y0140595D01*
X0350782Y0140487D01*
X0350937Y0140382D01*
X0351094Y0140282D01*
X0351254Y0140185D01*
X0351415Y0140091D01*
X0351580Y0140002D01*
X0351746Y0139917D01*
X0351914Y0139836D01*
X0352084Y0139758D01*
X0352256Y0139685D01*
X0352430Y0139616D01*
X0352605Y0139552D01*
X0352782Y0139491D01*
X0352960Y0139435D01*
X0353139Y0139383D01*
X0353320Y0139335D01*
X0353502Y0139292D01*
X0353684Y0139253D01*
X0353868Y0139218D01*
X0354052Y0139188D01*
X0354237Y0139162D01*
X0354423Y0139141D01*
X0354609Y0139124D01*
X0354796Y0139112D01*
X0354982Y0139104D01*
X0355169Y0139100D01*
X0355169Y0139194D01*
X0354985Y0139198D01*
X0354800Y0139205D01*
X0354616Y0139218D01*
X0354432Y0139234D01*
X0354249Y0139255D01*
X0354066Y0139281D01*
X0353884Y0139311D01*
X0353703Y0139345D01*
X0353522Y0139383D01*
X0353343Y0139426D01*
X0353164Y0139473D01*
X0352987Y0139525D01*
X0352811Y0139580D01*
X0352636Y0139640D01*
X0352463Y0139704D01*
X0352292Y0139772D01*
X0352122Y0139844D01*
X0351954Y0139921D01*
X0351788Y0140001D01*
X0351624Y0140085D01*
X0351461Y0140173D01*
X0351301Y0140265D01*
X0351144Y0140361D01*
X0350988Y0140461D01*
X0350835Y0140564D01*
X0350685Y0140671D01*
X0350537Y0140781D01*
X0350392Y0140895D01*
X0350250Y0141013D01*
X0350110Y0141134D01*
X0349974Y0141258D01*
X0349840Y0141385D01*
X0349710Y0141516D01*
X0349582Y0141649D01*
X0349458Y0141786D01*
X0349338Y0141925D01*
X0349410Y0141986D01*
X0349529Y0141848D01*
X0349652Y0141713D01*
X0349777Y0141581D01*
X0349906Y0141452D01*
X0350038Y0141326D01*
X0350173Y0141204D01*
X0350311Y0141084D01*
X0350451Y0140968D01*
X0350595Y0140856D01*
X0350741Y0140747D01*
X0350889Y0140641D01*
X0351040Y0140539D01*
X0351194Y0140441D01*
X0351349Y0140346D01*
X0351507Y0140255D01*
X0351668Y0140168D01*
X0351830Y0140085D01*
X0351994Y0140006D01*
X0352160Y0139931D01*
X0352328Y0139859D01*
X0352497Y0139792D01*
X0352668Y0139729D01*
X0352840Y0139670D01*
X0353014Y0139615D01*
X0353189Y0139564D01*
X0353365Y0139517D01*
X0353543Y0139475D01*
X0353721Y0139437D01*
X0353900Y0139403D01*
X0354080Y0139374D01*
X0354260Y0139349D01*
X0354441Y0139328D01*
X0354623Y0139311D01*
X0354805Y0139299D01*
X0354987Y0139292D01*
X0355169Y0139288D01*
D13*
X0349019Y0141792D02*
X0349019Y0143792D01*
X0349019Y0150192D02*
X0349019Y0151992D01*
X0236419Y0136992D02*
X0236419Y0134992D01*
X0236419Y0128592D02*
X0236419Y0126792D01*
M02*
