G75*
%MOIN*%
%OFA0B0*%
%FSLAX25Y25*%
%IPPOS*%
%LPD*%
%AMOC8*
5,1,8,0,0,1.08239X$1,22.5*
%
%ADD10C,0.00000*%
%ADD11R,0.05118X0.05906*%
%ADD12C,0.07400*%
%ADD13C,0.10000*%
%ADD14OC8,0.11811*%
%ADD15R,0.03150X0.04724*%
%ADD16R,0.05512X0.11811*%
%ADD17R,0.03150X0.03543*%
%ADD18R,0.04724X0.03150*%
%ADD19R,0.11811X0.04200*%
%ADD20R,0.06000X0.03000*%
%ADD21R,0.08000X0.08000*%
%ADD22C,0.08000*%
%ADD23C,0.07677*%
%ADD24R,0.08800X0.04800*%
%ADD25R,0.08661X0.14173*%
%ADD26OC8,0.05200*%
%ADD27C,0.03200*%
%ADD28C,0.01600*%
%ADD29C,0.02578*%
D10*
X0035219Y0001892D02*
X0035219Y0273546D01*
X0039156Y0277483D01*
X0373802Y0277483D01*
X0373802Y0001892D01*
X0035219Y0001892D01*
X0040337Y0013703D02*
X0040339Y0013867D01*
X0040345Y0014031D01*
X0040355Y0014195D01*
X0040369Y0014359D01*
X0040387Y0014522D01*
X0040409Y0014685D01*
X0040436Y0014847D01*
X0040466Y0015009D01*
X0040500Y0015169D01*
X0040538Y0015329D01*
X0040579Y0015488D01*
X0040625Y0015646D01*
X0040675Y0015802D01*
X0040728Y0015958D01*
X0040785Y0016112D01*
X0040846Y0016264D01*
X0040911Y0016415D01*
X0040980Y0016565D01*
X0041052Y0016712D01*
X0041127Y0016858D01*
X0041207Y0017002D01*
X0041289Y0017144D01*
X0041375Y0017284D01*
X0041465Y0017421D01*
X0041558Y0017557D01*
X0041654Y0017690D01*
X0041754Y0017821D01*
X0041856Y0017949D01*
X0041962Y0018075D01*
X0042071Y0018198D01*
X0042183Y0018318D01*
X0042297Y0018436D01*
X0042415Y0018550D01*
X0042535Y0018662D01*
X0042658Y0018771D01*
X0042784Y0018877D01*
X0042912Y0018979D01*
X0043043Y0019079D01*
X0043176Y0019175D01*
X0043312Y0019268D01*
X0043449Y0019358D01*
X0043589Y0019444D01*
X0043731Y0019526D01*
X0043875Y0019606D01*
X0044021Y0019681D01*
X0044168Y0019753D01*
X0044318Y0019822D01*
X0044469Y0019887D01*
X0044621Y0019948D01*
X0044775Y0020005D01*
X0044931Y0020058D01*
X0045087Y0020108D01*
X0045245Y0020154D01*
X0045404Y0020195D01*
X0045564Y0020233D01*
X0045724Y0020267D01*
X0045886Y0020297D01*
X0046048Y0020324D01*
X0046211Y0020346D01*
X0046374Y0020364D01*
X0046538Y0020378D01*
X0046702Y0020388D01*
X0046866Y0020394D01*
X0047030Y0020396D01*
X0047194Y0020394D01*
X0047358Y0020388D01*
X0047522Y0020378D01*
X0047686Y0020364D01*
X0047849Y0020346D01*
X0048012Y0020324D01*
X0048174Y0020297D01*
X0048336Y0020267D01*
X0048496Y0020233D01*
X0048656Y0020195D01*
X0048815Y0020154D01*
X0048973Y0020108D01*
X0049129Y0020058D01*
X0049285Y0020005D01*
X0049439Y0019948D01*
X0049591Y0019887D01*
X0049742Y0019822D01*
X0049892Y0019753D01*
X0050039Y0019681D01*
X0050185Y0019606D01*
X0050329Y0019526D01*
X0050471Y0019444D01*
X0050611Y0019358D01*
X0050748Y0019268D01*
X0050884Y0019175D01*
X0051017Y0019079D01*
X0051148Y0018979D01*
X0051276Y0018877D01*
X0051402Y0018771D01*
X0051525Y0018662D01*
X0051645Y0018550D01*
X0051763Y0018436D01*
X0051877Y0018318D01*
X0051989Y0018198D01*
X0052098Y0018075D01*
X0052204Y0017949D01*
X0052306Y0017821D01*
X0052406Y0017690D01*
X0052502Y0017557D01*
X0052595Y0017421D01*
X0052685Y0017284D01*
X0052771Y0017144D01*
X0052853Y0017002D01*
X0052933Y0016858D01*
X0053008Y0016712D01*
X0053080Y0016565D01*
X0053149Y0016415D01*
X0053214Y0016264D01*
X0053275Y0016112D01*
X0053332Y0015958D01*
X0053385Y0015802D01*
X0053435Y0015646D01*
X0053481Y0015488D01*
X0053522Y0015329D01*
X0053560Y0015169D01*
X0053594Y0015009D01*
X0053624Y0014847D01*
X0053651Y0014685D01*
X0053673Y0014522D01*
X0053691Y0014359D01*
X0053705Y0014195D01*
X0053715Y0014031D01*
X0053721Y0013867D01*
X0053723Y0013703D01*
X0053721Y0013539D01*
X0053715Y0013375D01*
X0053705Y0013211D01*
X0053691Y0013047D01*
X0053673Y0012884D01*
X0053651Y0012721D01*
X0053624Y0012559D01*
X0053594Y0012397D01*
X0053560Y0012237D01*
X0053522Y0012077D01*
X0053481Y0011918D01*
X0053435Y0011760D01*
X0053385Y0011604D01*
X0053332Y0011448D01*
X0053275Y0011294D01*
X0053214Y0011142D01*
X0053149Y0010991D01*
X0053080Y0010841D01*
X0053008Y0010694D01*
X0052933Y0010548D01*
X0052853Y0010404D01*
X0052771Y0010262D01*
X0052685Y0010122D01*
X0052595Y0009985D01*
X0052502Y0009849D01*
X0052406Y0009716D01*
X0052306Y0009585D01*
X0052204Y0009457D01*
X0052098Y0009331D01*
X0051989Y0009208D01*
X0051877Y0009088D01*
X0051763Y0008970D01*
X0051645Y0008856D01*
X0051525Y0008744D01*
X0051402Y0008635D01*
X0051276Y0008529D01*
X0051148Y0008427D01*
X0051017Y0008327D01*
X0050884Y0008231D01*
X0050748Y0008138D01*
X0050611Y0008048D01*
X0050471Y0007962D01*
X0050329Y0007880D01*
X0050185Y0007800D01*
X0050039Y0007725D01*
X0049892Y0007653D01*
X0049742Y0007584D01*
X0049591Y0007519D01*
X0049439Y0007458D01*
X0049285Y0007401D01*
X0049129Y0007348D01*
X0048973Y0007298D01*
X0048815Y0007252D01*
X0048656Y0007211D01*
X0048496Y0007173D01*
X0048336Y0007139D01*
X0048174Y0007109D01*
X0048012Y0007082D01*
X0047849Y0007060D01*
X0047686Y0007042D01*
X0047522Y0007028D01*
X0047358Y0007018D01*
X0047194Y0007012D01*
X0047030Y0007010D01*
X0046866Y0007012D01*
X0046702Y0007018D01*
X0046538Y0007028D01*
X0046374Y0007042D01*
X0046211Y0007060D01*
X0046048Y0007082D01*
X0045886Y0007109D01*
X0045724Y0007139D01*
X0045564Y0007173D01*
X0045404Y0007211D01*
X0045245Y0007252D01*
X0045087Y0007298D01*
X0044931Y0007348D01*
X0044775Y0007401D01*
X0044621Y0007458D01*
X0044469Y0007519D01*
X0044318Y0007584D01*
X0044168Y0007653D01*
X0044021Y0007725D01*
X0043875Y0007800D01*
X0043731Y0007880D01*
X0043589Y0007962D01*
X0043449Y0008048D01*
X0043312Y0008138D01*
X0043176Y0008231D01*
X0043043Y0008327D01*
X0042912Y0008427D01*
X0042784Y0008529D01*
X0042658Y0008635D01*
X0042535Y0008744D01*
X0042415Y0008856D01*
X0042297Y0008970D01*
X0042183Y0009088D01*
X0042071Y0009208D01*
X0041962Y0009331D01*
X0041856Y0009457D01*
X0041754Y0009585D01*
X0041654Y0009716D01*
X0041558Y0009849D01*
X0041465Y0009985D01*
X0041375Y0010122D01*
X0041289Y0010262D01*
X0041207Y0010404D01*
X0041127Y0010548D01*
X0041052Y0010694D01*
X0040980Y0010841D01*
X0040911Y0010991D01*
X0040846Y0011142D01*
X0040785Y0011294D01*
X0040728Y0011448D01*
X0040675Y0011604D01*
X0040625Y0011760D01*
X0040579Y0011918D01*
X0040538Y0012077D01*
X0040500Y0012237D01*
X0040466Y0012397D01*
X0040436Y0012559D01*
X0040409Y0012721D01*
X0040387Y0012884D01*
X0040369Y0013047D01*
X0040355Y0013211D01*
X0040345Y0013375D01*
X0040339Y0013539D01*
X0040337Y0013703D01*
X0355298Y0013703D02*
X0355300Y0013867D01*
X0355306Y0014031D01*
X0355316Y0014195D01*
X0355330Y0014359D01*
X0355348Y0014522D01*
X0355370Y0014685D01*
X0355397Y0014847D01*
X0355427Y0015009D01*
X0355461Y0015169D01*
X0355499Y0015329D01*
X0355540Y0015488D01*
X0355586Y0015646D01*
X0355636Y0015802D01*
X0355689Y0015958D01*
X0355746Y0016112D01*
X0355807Y0016264D01*
X0355872Y0016415D01*
X0355941Y0016565D01*
X0356013Y0016712D01*
X0356088Y0016858D01*
X0356168Y0017002D01*
X0356250Y0017144D01*
X0356336Y0017284D01*
X0356426Y0017421D01*
X0356519Y0017557D01*
X0356615Y0017690D01*
X0356715Y0017821D01*
X0356817Y0017949D01*
X0356923Y0018075D01*
X0357032Y0018198D01*
X0357144Y0018318D01*
X0357258Y0018436D01*
X0357376Y0018550D01*
X0357496Y0018662D01*
X0357619Y0018771D01*
X0357745Y0018877D01*
X0357873Y0018979D01*
X0358004Y0019079D01*
X0358137Y0019175D01*
X0358273Y0019268D01*
X0358410Y0019358D01*
X0358550Y0019444D01*
X0358692Y0019526D01*
X0358836Y0019606D01*
X0358982Y0019681D01*
X0359129Y0019753D01*
X0359279Y0019822D01*
X0359430Y0019887D01*
X0359582Y0019948D01*
X0359736Y0020005D01*
X0359892Y0020058D01*
X0360048Y0020108D01*
X0360206Y0020154D01*
X0360365Y0020195D01*
X0360525Y0020233D01*
X0360685Y0020267D01*
X0360847Y0020297D01*
X0361009Y0020324D01*
X0361172Y0020346D01*
X0361335Y0020364D01*
X0361499Y0020378D01*
X0361663Y0020388D01*
X0361827Y0020394D01*
X0361991Y0020396D01*
X0362155Y0020394D01*
X0362319Y0020388D01*
X0362483Y0020378D01*
X0362647Y0020364D01*
X0362810Y0020346D01*
X0362973Y0020324D01*
X0363135Y0020297D01*
X0363297Y0020267D01*
X0363457Y0020233D01*
X0363617Y0020195D01*
X0363776Y0020154D01*
X0363934Y0020108D01*
X0364090Y0020058D01*
X0364246Y0020005D01*
X0364400Y0019948D01*
X0364552Y0019887D01*
X0364703Y0019822D01*
X0364853Y0019753D01*
X0365000Y0019681D01*
X0365146Y0019606D01*
X0365290Y0019526D01*
X0365432Y0019444D01*
X0365572Y0019358D01*
X0365709Y0019268D01*
X0365845Y0019175D01*
X0365978Y0019079D01*
X0366109Y0018979D01*
X0366237Y0018877D01*
X0366363Y0018771D01*
X0366486Y0018662D01*
X0366606Y0018550D01*
X0366724Y0018436D01*
X0366838Y0018318D01*
X0366950Y0018198D01*
X0367059Y0018075D01*
X0367165Y0017949D01*
X0367267Y0017821D01*
X0367367Y0017690D01*
X0367463Y0017557D01*
X0367556Y0017421D01*
X0367646Y0017284D01*
X0367732Y0017144D01*
X0367814Y0017002D01*
X0367894Y0016858D01*
X0367969Y0016712D01*
X0368041Y0016565D01*
X0368110Y0016415D01*
X0368175Y0016264D01*
X0368236Y0016112D01*
X0368293Y0015958D01*
X0368346Y0015802D01*
X0368396Y0015646D01*
X0368442Y0015488D01*
X0368483Y0015329D01*
X0368521Y0015169D01*
X0368555Y0015009D01*
X0368585Y0014847D01*
X0368612Y0014685D01*
X0368634Y0014522D01*
X0368652Y0014359D01*
X0368666Y0014195D01*
X0368676Y0014031D01*
X0368682Y0013867D01*
X0368684Y0013703D01*
X0368682Y0013539D01*
X0368676Y0013375D01*
X0368666Y0013211D01*
X0368652Y0013047D01*
X0368634Y0012884D01*
X0368612Y0012721D01*
X0368585Y0012559D01*
X0368555Y0012397D01*
X0368521Y0012237D01*
X0368483Y0012077D01*
X0368442Y0011918D01*
X0368396Y0011760D01*
X0368346Y0011604D01*
X0368293Y0011448D01*
X0368236Y0011294D01*
X0368175Y0011142D01*
X0368110Y0010991D01*
X0368041Y0010841D01*
X0367969Y0010694D01*
X0367894Y0010548D01*
X0367814Y0010404D01*
X0367732Y0010262D01*
X0367646Y0010122D01*
X0367556Y0009985D01*
X0367463Y0009849D01*
X0367367Y0009716D01*
X0367267Y0009585D01*
X0367165Y0009457D01*
X0367059Y0009331D01*
X0366950Y0009208D01*
X0366838Y0009088D01*
X0366724Y0008970D01*
X0366606Y0008856D01*
X0366486Y0008744D01*
X0366363Y0008635D01*
X0366237Y0008529D01*
X0366109Y0008427D01*
X0365978Y0008327D01*
X0365845Y0008231D01*
X0365709Y0008138D01*
X0365572Y0008048D01*
X0365432Y0007962D01*
X0365290Y0007880D01*
X0365146Y0007800D01*
X0365000Y0007725D01*
X0364853Y0007653D01*
X0364703Y0007584D01*
X0364552Y0007519D01*
X0364400Y0007458D01*
X0364246Y0007401D01*
X0364090Y0007348D01*
X0363934Y0007298D01*
X0363776Y0007252D01*
X0363617Y0007211D01*
X0363457Y0007173D01*
X0363297Y0007139D01*
X0363135Y0007109D01*
X0362973Y0007082D01*
X0362810Y0007060D01*
X0362647Y0007042D01*
X0362483Y0007028D01*
X0362319Y0007018D01*
X0362155Y0007012D01*
X0361991Y0007010D01*
X0361827Y0007012D01*
X0361663Y0007018D01*
X0361499Y0007028D01*
X0361335Y0007042D01*
X0361172Y0007060D01*
X0361009Y0007082D01*
X0360847Y0007109D01*
X0360685Y0007139D01*
X0360525Y0007173D01*
X0360365Y0007211D01*
X0360206Y0007252D01*
X0360048Y0007298D01*
X0359892Y0007348D01*
X0359736Y0007401D01*
X0359582Y0007458D01*
X0359430Y0007519D01*
X0359279Y0007584D01*
X0359129Y0007653D01*
X0358982Y0007725D01*
X0358836Y0007800D01*
X0358692Y0007880D01*
X0358550Y0007962D01*
X0358410Y0008048D01*
X0358273Y0008138D01*
X0358137Y0008231D01*
X0358004Y0008327D01*
X0357873Y0008427D01*
X0357745Y0008529D01*
X0357619Y0008635D01*
X0357496Y0008744D01*
X0357376Y0008856D01*
X0357258Y0008970D01*
X0357144Y0009088D01*
X0357032Y0009208D01*
X0356923Y0009331D01*
X0356817Y0009457D01*
X0356715Y0009585D01*
X0356615Y0009716D01*
X0356519Y0009849D01*
X0356426Y0009985D01*
X0356336Y0010122D01*
X0356250Y0010262D01*
X0356168Y0010404D01*
X0356088Y0010548D01*
X0356013Y0010694D01*
X0355941Y0010841D01*
X0355872Y0010991D01*
X0355807Y0011142D01*
X0355746Y0011294D01*
X0355689Y0011448D01*
X0355636Y0011604D01*
X0355586Y0011760D01*
X0355540Y0011918D01*
X0355499Y0012077D01*
X0355461Y0012237D01*
X0355427Y0012397D01*
X0355397Y0012559D01*
X0355370Y0012721D01*
X0355348Y0012884D01*
X0355330Y0013047D01*
X0355316Y0013211D01*
X0355306Y0013375D01*
X0355300Y0013539D01*
X0355298Y0013703D01*
X0355298Y0265672D02*
X0355300Y0265836D01*
X0355306Y0266000D01*
X0355316Y0266164D01*
X0355330Y0266328D01*
X0355348Y0266491D01*
X0355370Y0266654D01*
X0355397Y0266816D01*
X0355427Y0266978D01*
X0355461Y0267138D01*
X0355499Y0267298D01*
X0355540Y0267457D01*
X0355586Y0267615D01*
X0355636Y0267771D01*
X0355689Y0267927D01*
X0355746Y0268081D01*
X0355807Y0268233D01*
X0355872Y0268384D01*
X0355941Y0268534D01*
X0356013Y0268681D01*
X0356088Y0268827D01*
X0356168Y0268971D01*
X0356250Y0269113D01*
X0356336Y0269253D01*
X0356426Y0269390D01*
X0356519Y0269526D01*
X0356615Y0269659D01*
X0356715Y0269790D01*
X0356817Y0269918D01*
X0356923Y0270044D01*
X0357032Y0270167D01*
X0357144Y0270287D01*
X0357258Y0270405D01*
X0357376Y0270519D01*
X0357496Y0270631D01*
X0357619Y0270740D01*
X0357745Y0270846D01*
X0357873Y0270948D01*
X0358004Y0271048D01*
X0358137Y0271144D01*
X0358273Y0271237D01*
X0358410Y0271327D01*
X0358550Y0271413D01*
X0358692Y0271495D01*
X0358836Y0271575D01*
X0358982Y0271650D01*
X0359129Y0271722D01*
X0359279Y0271791D01*
X0359430Y0271856D01*
X0359582Y0271917D01*
X0359736Y0271974D01*
X0359892Y0272027D01*
X0360048Y0272077D01*
X0360206Y0272123D01*
X0360365Y0272164D01*
X0360525Y0272202D01*
X0360685Y0272236D01*
X0360847Y0272266D01*
X0361009Y0272293D01*
X0361172Y0272315D01*
X0361335Y0272333D01*
X0361499Y0272347D01*
X0361663Y0272357D01*
X0361827Y0272363D01*
X0361991Y0272365D01*
X0362155Y0272363D01*
X0362319Y0272357D01*
X0362483Y0272347D01*
X0362647Y0272333D01*
X0362810Y0272315D01*
X0362973Y0272293D01*
X0363135Y0272266D01*
X0363297Y0272236D01*
X0363457Y0272202D01*
X0363617Y0272164D01*
X0363776Y0272123D01*
X0363934Y0272077D01*
X0364090Y0272027D01*
X0364246Y0271974D01*
X0364400Y0271917D01*
X0364552Y0271856D01*
X0364703Y0271791D01*
X0364853Y0271722D01*
X0365000Y0271650D01*
X0365146Y0271575D01*
X0365290Y0271495D01*
X0365432Y0271413D01*
X0365572Y0271327D01*
X0365709Y0271237D01*
X0365845Y0271144D01*
X0365978Y0271048D01*
X0366109Y0270948D01*
X0366237Y0270846D01*
X0366363Y0270740D01*
X0366486Y0270631D01*
X0366606Y0270519D01*
X0366724Y0270405D01*
X0366838Y0270287D01*
X0366950Y0270167D01*
X0367059Y0270044D01*
X0367165Y0269918D01*
X0367267Y0269790D01*
X0367367Y0269659D01*
X0367463Y0269526D01*
X0367556Y0269390D01*
X0367646Y0269253D01*
X0367732Y0269113D01*
X0367814Y0268971D01*
X0367894Y0268827D01*
X0367969Y0268681D01*
X0368041Y0268534D01*
X0368110Y0268384D01*
X0368175Y0268233D01*
X0368236Y0268081D01*
X0368293Y0267927D01*
X0368346Y0267771D01*
X0368396Y0267615D01*
X0368442Y0267457D01*
X0368483Y0267298D01*
X0368521Y0267138D01*
X0368555Y0266978D01*
X0368585Y0266816D01*
X0368612Y0266654D01*
X0368634Y0266491D01*
X0368652Y0266328D01*
X0368666Y0266164D01*
X0368676Y0266000D01*
X0368682Y0265836D01*
X0368684Y0265672D01*
X0368682Y0265508D01*
X0368676Y0265344D01*
X0368666Y0265180D01*
X0368652Y0265016D01*
X0368634Y0264853D01*
X0368612Y0264690D01*
X0368585Y0264528D01*
X0368555Y0264366D01*
X0368521Y0264206D01*
X0368483Y0264046D01*
X0368442Y0263887D01*
X0368396Y0263729D01*
X0368346Y0263573D01*
X0368293Y0263417D01*
X0368236Y0263263D01*
X0368175Y0263111D01*
X0368110Y0262960D01*
X0368041Y0262810D01*
X0367969Y0262663D01*
X0367894Y0262517D01*
X0367814Y0262373D01*
X0367732Y0262231D01*
X0367646Y0262091D01*
X0367556Y0261954D01*
X0367463Y0261818D01*
X0367367Y0261685D01*
X0367267Y0261554D01*
X0367165Y0261426D01*
X0367059Y0261300D01*
X0366950Y0261177D01*
X0366838Y0261057D01*
X0366724Y0260939D01*
X0366606Y0260825D01*
X0366486Y0260713D01*
X0366363Y0260604D01*
X0366237Y0260498D01*
X0366109Y0260396D01*
X0365978Y0260296D01*
X0365845Y0260200D01*
X0365709Y0260107D01*
X0365572Y0260017D01*
X0365432Y0259931D01*
X0365290Y0259849D01*
X0365146Y0259769D01*
X0365000Y0259694D01*
X0364853Y0259622D01*
X0364703Y0259553D01*
X0364552Y0259488D01*
X0364400Y0259427D01*
X0364246Y0259370D01*
X0364090Y0259317D01*
X0363934Y0259267D01*
X0363776Y0259221D01*
X0363617Y0259180D01*
X0363457Y0259142D01*
X0363297Y0259108D01*
X0363135Y0259078D01*
X0362973Y0259051D01*
X0362810Y0259029D01*
X0362647Y0259011D01*
X0362483Y0258997D01*
X0362319Y0258987D01*
X0362155Y0258981D01*
X0361991Y0258979D01*
X0361827Y0258981D01*
X0361663Y0258987D01*
X0361499Y0258997D01*
X0361335Y0259011D01*
X0361172Y0259029D01*
X0361009Y0259051D01*
X0360847Y0259078D01*
X0360685Y0259108D01*
X0360525Y0259142D01*
X0360365Y0259180D01*
X0360206Y0259221D01*
X0360048Y0259267D01*
X0359892Y0259317D01*
X0359736Y0259370D01*
X0359582Y0259427D01*
X0359430Y0259488D01*
X0359279Y0259553D01*
X0359129Y0259622D01*
X0358982Y0259694D01*
X0358836Y0259769D01*
X0358692Y0259849D01*
X0358550Y0259931D01*
X0358410Y0260017D01*
X0358273Y0260107D01*
X0358137Y0260200D01*
X0358004Y0260296D01*
X0357873Y0260396D01*
X0357745Y0260498D01*
X0357619Y0260604D01*
X0357496Y0260713D01*
X0357376Y0260825D01*
X0357258Y0260939D01*
X0357144Y0261057D01*
X0357032Y0261177D01*
X0356923Y0261300D01*
X0356817Y0261426D01*
X0356715Y0261554D01*
X0356615Y0261685D01*
X0356519Y0261818D01*
X0356426Y0261954D01*
X0356336Y0262091D01*
X0356250Y0262231D01*
X0356168Y0262373D01*
X0356088Y0262517D01*
X0356013Y0262663D01*
X0355941Y0262810D01*
X0355872Y0262960D01*
X0355807Y0263111D01*
X0355746Y0263263D01*
X0355689Y0263417D01*
X0355636Y0263573D01*
X0355586Y0263729D01*
X0355540Y0263887D01*
X0355499Y0264046D01*
X0355461Y0264206D01*
X0355427Y0264366D01*
X0355397Y0264528D01*
X0355370Y0264690D01*
X0355348Y0264853D01*
X0355330Y0265016D01*
X0355316Y0265180D01*
X0355306Y0265344D01*
X0355300Y0265508D01*
X0355298Y0265672D01*
X0040337Y0265672D02*
X0040339Y0265836D01*
X0040345Y0266000D01*
X0040355Y0266164D01*
X0040369Y0266328D01*
X0040387Y0266491D01*
X0040409Y0266654D01*
X0040436Y0266816D01*
X0040466Y0266978D01*
X0040500Y0267138D01*
X0040538Y0267298D01*
X0040579Y0267457D01*
X0040625Y0267615D01*
X0040675Y0267771D01*
X0040728Y0267927D01*
X0040785Y0268081D01*
X0040846Y0268233D01*
X0040911Y0268384D01*
X0040980Y0268534D01*
X0041052Y0268681D01*
X0041127Y0268827D01*
X0041207Y0268971D01*
X0041289Y0269113D01*
X0041375Y0269253D01*
X0041465Y0269390D01*
X0041558Y0269526D01*
X0041654Y0269659D01*
X0041754Y0269790D01*
X0041856Y0269918D01*
X0041962Y0270044D01*
X0042071Y0270167D01*
X0042183Y0270287D01*
X0042297Y0270405D01*
X0042415Y0270519D01*
X0042535Y0270631D01*
X0042658Y0270740D01*
X0042784Y0270846D01*
X0042912Y0270948D01*
X0043043Y0271048D01*
X0043176Y0271144D01*
X0043312Y0271237D01*
X0043449Y0271327D01*
X0043589Y0271413D01*
X0043731Y0271495D01*
X0043875Y0271575D01*
X0044021Y0271650D01*
X0044168Y0271722D01*
X0044318Y0271791D01*
X0044469Y0271856D01*
X0044621Y0271917D01*
X0044775Y0271974D01*
X0044931Y0272027D01*
X0045087Y0272077D01*
X0045245Y0272123D01*
X0045404Y0272164D01*
X0045564Y0272202D01*
X0045724Y0272236D01*
X0045886Y0272266D01*
X0046048Y0272293D01*
X0046211Y0272315D01*
X0046374Y0272333D01*
X0046538Y0272347D01*
X0046702Y0272357D01*
X0046866Y0272363D01*
X0047030Y0272365D01*
X0047194Y0272363D01*
X0047358Y0272357D01*
X0047522Y0272347D01*
X0047686Y0272333D01*
X0047849Y0272315D01*
X0048012Y0272293D01*
X0048174Y0272266D01*
X0048336Y0272236D01*
X0048496Y0272202D01*
X0048656Y0272164D01*
X0048815Y0272123D01*
X0048973Y0272077D01*
X0049129Y0272027D01*
X0049285Y0271974D01*
X0049439Y0271917D01*
X0049591Y0271856D01*
X0049742Y0271791D01*
X0049892Y0271722D01*
X0050039Y0271650D01*
X0050185Y0271575D01*
X0050329Y0271495D01*
X0050471Y0271413D01*
X0050611Y0271327D01*
X0050748Y0271237D01*
X0050884Y0271144D01*
X0051017Y0271048D01*
X0051148Y0270948D01*
X0051276Y0270846D01*
X0051402Y0270740D01*
X0051525Y0270631D01*
X0051645Y0270519D01*
X0051763Y0270405D01*
X0051877Y0270287D01*
X0051989Y0270167D01*
X0052098Y0270044D01*
X0052204Y0269918D01*
X0052306Y0269790D01*
X0052406Y0269659D01*
X0052502Y0269526D01*
X0052595Y0269390D01*
X0052685Y0269253D01*
X0052771Y0269113D01*
X0052853Y0268971D01*
X0052933Y0268827D01*
X0053008Y0268681D01*
X0053080Y0268534D01*
X0053149Y0268384D01*
X0053214Y0268233D01*
X0053275Y0268081D01*
X0053332Y0267927D01*
X0053385Y0267771D01*
X0053435Y0267615D01*
X0053481Y0267457D01*
X0053522Y0267298D01*
X0053560Y0267138D01*
X0053594Y0266978D01*
X0053624Y0266816D01*
X0053651Y0266654D01*
X0053673Y0266491D01*
X0053691Y0266328D01*
X0053705Y0266164D01*
X0053715Y0266000D01*
X0053721Y0265836D01*
X0053723Y0265672D01*
X0053721Y0265508D01*
X0053715Y0265344D01*
X0053705Y0265180D01*
X0053691Y0265016D01*
X0053673Y0264853D01*
X0053651Y0264690D01*
X0053624Y0264528D01*
X0053594Y0264366D01*
X0053560Y0264206D01*
X0053522Y0264046D01*
X0053481Y0263887D01*
X0053435Y0263729D01*
X0053385Y0263573D01*
X0053332Y0263417D01*
X0053275Y0263263D01*
X0053214Y0263111D01*
X0053149Y0262960D01*
X0053080Y0262810D01*
X0053008Y0262663D01*
X0052933Y0262517D01*
X0052853Y0262373D01*
X0052771Y0262231D01*
X0052685Y0262091D01*
X0052595Y0261954D01*
X0052502Y0261818D01*
X0052406Y0261685D01*
X0052306Y0261554D01*
X0052204Y0261426D01*
X0052098Y0261300D01*
X0051989Y0261177D01*
X0051877Y0261057D01*
X0051763Y0260939D01*
X0051645Y0260825D01*
X0051525Y0260713D01*
X0051402Y0260604D01*
X0051276Y0260498D01*
X0051148Y0260396D01*
X0051017Y0260296D01*
X0050884Y0260200D01*
X0050748Y0260107D01*
X0050611Y0260017D01*
X0050471Y0259931D01*
X0050329Y0259849D01*
X0050185Y0259769D01*
X0050039Y0259694D01*
X0049892Y0259622D01*
X0049742Y0259553D01*
X0049591Y0259488D01*
X0049439Y0259427D01*
X0049285Y0259370D01*
X0049129Y0259317D01*
X0048973Y0259267D01*
X0048815Y0259221D01*
X0048656Y0259180D01*
X0048496Y0259142D01*
X0048336Y0259108D01*
X0048174Y0259078D01*
X0048012Y0259051D01*
X0047849Y0259029D01*
X0047686Y0259011D01*
X0047522Y0258997D01*
X0047358Y0258987D01*
X0047194Y0258981D01*
X0047030Y0258979D01*
X0046866Y0258981D01*
X0046702Y0258987D01*
X0046538Y0258997D01*
X0046374Y0259011D01*
X0046211Y0259029D01*
X0046048Y0259051D01*
X0045886Y0259078D01*
X0045724Y0259108D01*
X0045564Y0259142D01*
X0045404Y0259180D01*
X0045245Y0259221D01*
X0045087Y0259267D01*
X0044931Y0259317D01*
X0044775Y0259370D01*
X0044621Y0259427D01*
X0044469Y0259488D01*
X0044318Y0259553D01*
X0044168Y0259622D01*
X0044021Y0259694D01*
X0043875Y0259769D01*
X0043731Y0259849D01*
X0043589Y0259931D01*
X0043449Y0260017D01*
X0043312Y0260107D01*
X0043176Y0260200D01*
X0043043Y0260296D01*
X0042912Y0260396D01*
X0042784Y0260498D01*
X0042658Y0260604D01*
X0042535Y0260713D01*
X0042415Y0260825D01*
X0042297Y0260939D01*
X0042183Y0261057D01*
X0042071Y0261177D01*
X0041962Y0261300D01*
X0041856Y0261426D01*
X0041754Y0261554D01*
X0041654Y0261685D01*
X0041558Y0261818D01*
X0041465Y0261954D01*
X0041375Y0262091D01*
X0041289Y0262231D01*
X0041207Y0262373D01*
X0041127Y0262517D01*
X0041052Y0262663D01*
X0040980Y0262810D01*
X0040911Y0262960D01*
X0040846Y0263111D01*
X0040785Y0263263D01*
X0040728Y0263417D01*
X0040675Y0263573D01*
X0040625Y0263729D01*
X0040579Y0263887D01*
X0040538Y0264046D01*
X0040500Y0264206D01*
X0040466Y0264366D01*
X0040436Y0264528D01*
X0040409Y0264690D01*
X0040387Y0264853D01*
X0040369Y0265016D01*
X0040355Y0265180D01*
X0040345Y0265344D01*
X0040339Y0265508D01*
X0040337Y0265672D01*
D11*
X0233979Y0229392D03*
X0241459Y0229392D03*
X0266479Y0141892D03*
X0273959Y0141892D03*
X0283979Y0141892D03*
X0291459Y0141892D03*
X0301479Y0141892D03*
X0308959Y0141892D03*
X0321479Y0141892D03*
X0328959Y0141892D03*
X0346479Y0131892D03*
X0353959Y0131892D03*
X0257709Y0131892D03*
X0250229Y0131892D03*
D12*
X0235219Y0131892D03*
X0225219Y0131892D03*
X0265219Y0116892D03*
X0295219Y0116892D03*
X0350219Y0146892D03*
X0360219Y0146892D03*
X0360219Y0166892D03*
X0360219Y0176892D03*
X0360219Y0186892D03*
X0360219Y0196892D03*
X0360219Y0206892D03*
X0360219Y0216892D03*
X0300219Y0266390D03*
X0290219Y0266390D03*
X0280219Y0266390D03*
X0270219Y0266390D03*
X0260219Y0266390D03*
X0200219Y0266892D03*
X0190219Y0266892D03*
X0232719Y0206892D03*
X0232719Y0196892D03*
X0330219Y0266892D03*
X0340219Y0266892D03*
D13*
X0114825Y0125947D02*
X0104825Y0125947D01*
X0085140Y0125947D02*
X0075140Y0125947D01*
X0055919Y0056892D02*
X0055919Y0046892D01*
X0144519Y0046892D02*
X0144519Y0056892D01*
X0160919Y0056892D02*
X0160919Y0046892D01*
X0249519Y0046892D02*
X0249519Y0056892D01*
D14*
X0125298Y0241695D03*
X0064668Y0241695D03*
D15*
X0177926Y0186892D03*
X0185012Y0186892D03*
X0195426Y0186892D03*
X0202512Y0186892D03*
X0234176Y0241892D03*
X0241262Y0241892D03*
D16*
X0165219Y0242443D03*
X0165219Y0261341D03*
D17*
X0301479Y0130829D03*
X0308959Y0130829D03*
X0305219Y0122561D03*
D18*
X0240219Y0150849D03*
X0240219Y0157935D03*
X0225219Y0157935D03*
X0225219Y0150849D03*
D19*
X0255219Y0157798D03*
X0255219Y0165672D03*
X0255219Y0173546D03*
X0255219Y0181420D03*
X0255219Y0189294D03*
X0255219Y0197168D03*
X0255219Y0205042D03*
X0255219Y0212916D03*
X0318211Y0212916D03*
X0318211Y0205042D03*
X0318211Y0197168D03*
X0318211Y0189294D03*
X0318211Y0181420D03*
X0318211Y0173546D03*
X0318211Y0165672D03*
X0318211Y0157798D03*
D20*
X0241219Y0254392D03*
X0241219Y0269392D03*
X0219219Y0269392D03*
X0219219Y0254392D03*
D21*
X0313469Y0015392D03*
X0105219Y0014392D03*
D22*
X0124904Y0014392D03*
X0333154Y0015392D03*
D23*
X0331872Y0043270D03*
X0283841Y0043270D03*
X0275967Y0066892D03*
X0283841Y0090514D03*
X0331872Y0090514D03*
D24*
X0178019Y0201542D03*
X0178019Y0210642D03*
X0178019Y0219742D03*
D25*
X0202420Y0210642D03*
D26*
X0110219Y0091892D03*
X0080219Y0091892D03*
D27*
X0177926Y0134185D02*
X0180219Y0131892D01*
X0225219Y0131892D01*
X0225219Y0121892D01*
X0230219Y0116892D01*
X0265219Y0116892D01*
X0265219Y0109136D01*
X0283841Y0090514D01*
X0177926Y0134185D02*
X0177926Y0186892D01*
X0178019Y0186985D01*
X0178019Y0201542D01*
X0177669Y0201892D01*
X0165219Y0201892D01*
X0165219Y0242443D01*
X0164471Y0241695D01*
X0189668Y0266892D01*
X0190219Y0266892D01*
X0164471Y0241695D02*
X0125298Y0241695D01*
D28*
X0118887Y0246464D02*
X0070796Y0246464D01*
X0072373Y0244887D02*
X0067859Y0249401D01*
X0065049Y0249401D01*
X0065049Y0242076D01*
X0072373Y0242076D01*
X0072373Y0244887D01*
X0072373Y0244866D02*
X0117392Y0244866D01*
X0117392Y0244970D02*
X0117392Y0238421D01*
X0122023Y0233790D01*
X0128572Y0233790D01*
X0132878Y0238095D01*
X0160463Y0238095D01*
X0160463Y0235709D01*
X0161619Y0234553D01*
X0161619Y0201176D01*
X0162167Y0199853D01*
X0163180Y0198840D01*
X0164503Y0198292D01*
X0171641Y0198292D01*
X0172791Y0197142D01*
X0174419Y0197142D01*
X0174419Y0190151D01*
X0174351Y0190083D01*
X0174351Y0187669D01*
X0174326Y0187608D01*
X0174326Y0133469D01*
X0174874Y0132146D01*
X0175886Y0131134D01*
X0177167Y0129853D01*
X0177167Y0129853D01*
X0178180Y0128840D01*
X0179503Y0128292D01*
X0220758Y0128292D01*
X0221619Y0127431D01*
X0221619Y0121176D01*
X0222167Y0119853D01*
X0227167Y0114853D01*
X0228180Y0113840D01*
X0229503Y0113292D01*
X0260758Y0113292D01*
X0261619Y0112431D01*
X0261619Y0108420D01*
X0262167Y0107097D01*
X0262372Y0106892D01*
X0155469Y0106892D01*
X0155219Y0206892D01*
X0037219Y0206892D01*
X0037219Y0272717D01*
X0039984Y0275483D01*
X0371802Y0275483D01*
X0371802Y0121892D01*
X0315219Y0121892D01*
X0300219Y0106892D01*
X0298019Y0106892D01*
X0298019Y0111882D01*
X0298448Y0112060D01*
X0300051Y0113663D01*
X0300254Y0114153D01*
X0301136Y0114518D01*
X0305407Y0118790D01*
X0307622Y0118790D01*
X0308794Y0119961D01*
X0308794Y0125161D01*
X0307622Y0126333D01*
X0302816Y0126333D01*
X0301644Y0125161D01*
X0301644Y0122946D01*
X0299435Y0120737D01*
X0298448Y0121724D01*
X0298019Y0121902D01*
X0298019Y0127449D01*
X0297593Y0128478D01*
X0292593Y0133478D01*
X0291805Y0134266D01*
X0290776Y0134692D01*
X0262268Y0134692D01*
X0262268Y0135673D01*
X0261097Y0136845D01*
X0254322Y0136845D01*
X0253969Y0136492D01*
X0253616Y0136845D01*
X0246841Y0136845D01*
X0245670Y0135673D01*
X0245670Y0134692D01*
X0240229Y0134692D01*
X0240051Y0135121D01*
X0238448Y0136724D01*
X0236353Y0137592D01*
X0234085Y0137592D01*
X0231990Y0136724D01*
X0230387Y0135121D01*
X0230219Y0134716D01*
X0230051Y0135121D01*
X0228448Y0136724D01*
X0226353Y0137592D01*
X0224085Y0137592D01*
X0221990Y0136724D01*
X0220758Y0135492D01*
X0181710Y0135492D01*
X0181526Y0135677D01*
X0181526Y0186044D01*
X0181619Y0186269D01*
X0181619Y0197142D01*
X0182419Y0197142D01*
X0182419Y0191335D01*
X0182616Y0190859D01*
X0182332Y0190695D01*
X0181997Y0190360D01*
X0181760Y0189949D01*
X0181637Y0189491D01*
X0181637Y0186892D01*
X0181637Y0184293D01*
X0181760Y0183835D01*
X0181997Y0183425D01*
X0182332Y0183090D01*
X0182743Y0182853D01*
X0183200Y0182730D01*
X0185012Y0182730D01*
X0185012Y0186892D01*
X0181637Y0186892D01*
X0185012Y0186892D01*
X0185012Y0186892D01*
X0185012Y0186892D01*
X0185012Y0182730D01*
X0186824Y0182730D01*
X0187282Y0182853D01*
X0187692Y0183090D01*
X0188027Y0183425D01*
X0188264Y0183835D01*
X0188387Y0184293D01*
X0188387Y0186892D01*
X0185012Y0186892D01*
X0185012Y0186892D01*
X0188387Y0186892D01*
X0188387Y0189092D01*
X0192051Y0189092D01*
X0192051Y0186892D01*
X0192051Y0184293D01*
X0192173Y0183835D01*
X0192410Y0183425D01*
X0192746Y0183090D01*
X0193156Y0182853D01*
X0193614Y0182730D01*
X0195426Y0182730D01*
X0197237Y0182730D01*
X0197419Y0182779D01*
X0197419Y0156335D01*
X0197845Y0155306D01*
X0198633Y0154518D01*
X0199662Y0154092D01*
X0222147Y0154092D01*
X0221752Y0153864D01*
X0221416Y0153529D01*
X0221179Y0153118D01*
X0221057Y0152661D01*
X0221057Y0150849D01*
X0225219Y0150849D01*
X0229381Y0150849D01*
X0229381Y0152661D01*
X0229258Y0153118D01*
X0229022Y0153529D01*
X0228686Y0153864D01*
X0228291Y0154092D01*
X0237147Y0154092D01*
X0236752Y0153864D01*
X0236416Y0153529D01*
X0236179Y0153118D01*
X0236057Y0152661D01*
X0236057Y0150849D01*
X0240219Y0150849D01*
X0244381Y0150849D01*
X0244381Y0152661D01*
X0244258Y0153118D01*
X0244022Y0153529D01*
X0243686Y0153864D01*
X0243291Y0154092D01*
X0245776Y0154092D01*
X0246805Y0154518D01*
X0247313Y0155027D01*
X0247313Y0154869D01*
X0248485Y0153698D01*
X0252419Y0153698D01*
X0252419Y0152595D01*
X0252845Y0151566D01*
X0261920Y0142491D01*
X0261920Y0138111D01*
X0263091Y0136939D01*
X0269866Y0136939D01*
X0270219Y0137292D01*
X0270572Y0136939D01*
X0277347Y0136939D01*
X0278518Y0138111D01*
X0278518Y0145673D01*
X0278019Y0146173D01*
X0278019Y0155057D01*
X0278508Y0156238D01*
X0278508Y0157546D01*
X0278007Y0158755D01*
X0277391Y0159372D01*
X0281850Y0159372D01*
X0281605Y0159127D01*
X0281179Y0158098D01*
X0281179Y0146845D01*
X0280591Y0146845D01*
X0279420Y0145673D01*
X0279420Y0138111D01*
X0280591Y0136939D01*
X0287366Y0136939D01*
X0287719Y0137292D01*
X0288072Y0136939D01*
X0294847Y0136939D01*
X0296018Y0138111D01*
X0296018Y0145673D01*
X0294847Y0146845D01*
X0294259Y0146845D01*
X0294259Y0151972D01*
X0295901Y0153615D01*
X0297082Y0154104D01*
X0298007Y0155029D01*
X0298508Y0156238D01*
X0298508Y0157546D01*
X0298007Y0158755D01*
X0297082Y0159680D01*
X0295873Y0160181D01*
X0294565Y0160181D01*
X0293356Y0159680D01*
X0292431Y0158755D01*
X0291942Y0157575D01*
X0289085Y0154718D01*
X0288659Y0153689D01*
X0288659Y0146845D01*
X0288072Y0146845D01*
X0287719Y0146492D01*
X0287366Y0146845D01*
X0286779Y0146845D01*
X0286779Y0156381D01*
X0290983Y0160586D01*
X0298679Y0168281D01*
X0298679Y0146845D01*
X0298091Y0146845D01*
X0296920Y0145673D01*
X0296920Y0138111D01*
X0298091Y0136939D01*
X0304866Y0136939D01*
X0305219Y0137292D01*
X0305572Y0136939D01*
X0306159Y0136939D01*
X0306159Y0134204D01*
X0305384Y0133429D01*
X0305384Y0128229D01*
X0306556Y0127057D01*
X0311362Y0127057D01*
X0312534Y0128229D01*
X0312534Y0133429D01*
X0311759Y0134204D01*
X0311759Y0136939D01*
X0312347Y0136939D01*
X0313518Y0138111D01*
X0313518Y0145673D01*
X0312347Y0146845D01*
X0305572Y0146845D01*
X0305219Y0146492D01*
X0304866Y0146845D01*
X0304279Y0146845D01*
X0304279Y0181992D01*
X0308780Y0186494D01*
X0310306Y0186494D01*
X0310306Y0186365D01*
X0311314Y0185357D01*
X0311061Y0185103D01*
X0310873Y0185181D01*
X0309565Y0185181D01*
X0308356Y0184680D01*
X0307431Y0183755D01*
X0306930Y0182546D01*
X0306930Y0181238D01*
X0307431Y0180029D01*
X0308356Y0179104D01*
X0309565Y0178603D01*
X0310306Y0178603D01*
X0310306Y0178491D01*
X0311314Y0177483D01*
X0310306Y0176474D01*
X0310306Y0170617D01*
X0311314Y0169609D01*
X0310306Y0168600D01*
X0310306Y0162743D01*
X0311477Y0161572D01*
X0311605Y0161572D01*
X0311200Y0161338D01*
X0310865Y0161003D01*
X0310628Y0160592D01*
X0310506Y0160135D01*
X0310506Y0158048D01*
X0317961Y0158048D01*
X0317961Y0157548D01*
X0310506Y0157548D01*
X0310506Y0155461D01*
X0310628Y0155003D01*
X0310865Y0154592D01*
X0311200Y0154257D01*
X0311611Y0154020D01*
X0312069Y0153898D01*
X0317961Y0153898D01*
X0317961Y0157548D01*
X0318461Y0157548D01*
X0318461Y0158048D01*
X0325917Y0158048D01*
X0325917Y0160135D01*
X0325794Y0160592D01*
X0325557Y0161003D01*
X0325222Y0161338D01*
X0324817Y0161572D01*
X0324945Y0161572D01*
X0325762Y0162389D01*
X0327419Y0160732D01*
X0327419Y0146845D01*
X0325572Y0146845D01*
X0325060Y0146333D01*
X0324733Y0146522D01*
X0324275Y0146645D01*
X0321958Y0146645D01*
X0321958Y0142372D01*
X0320999Y0142372D01*
X0320999Y0146645D01*
X0318683Y0146645D01*
X0318225Y0146522D01*
X0317815Y0146285D01*
X0317479Y0145950D01*
X0317242Y0145540D01*
X0317120Y0145082D01*
X0317120Y0142372D01*
X0320999Y0142372D01*
X0320999Y0141413D01*
X0317120Y0141413D01*
X0317120Y0138702D01*
X0317242Y0138245D01*
X0317479Y0137834D01*
X0317815Y0137499D01*
X0318225Y0137262D01*
X0318683Y0137139D01*
X0320999Y0137139D01*
X0320999Y0141413D01*
X0321958Y0141413D01*
X0321958Y0137139D01*
X0324275Y0137139D01*
X0324733Y0137262D01*
X0325060Y0137451D01*
X0325572Y0136939D01*
X0332347Y0136939D01*
X0333518Y0138111D01*
X0333518Y0145673D01*
X0333019Y0146173D01*
X0333019Y0162449D01*
X0332593Y0163478D01*
X0331805Y0164266D01*
X0328025Y0168045D01*
X0326996Y0168472D01*
X0326117Y0168472D01*
X0326117Y0168600D01*
X0325108Y0169609D01*
X0326117Y0170617D01*
X0326117Y0170746D01*
X0352406Y0170746D01*
X0354697Y0168455D01*
X0354519Y0168026D01*
X0354519Y0165758D01*
X0355387Y0163663D01*
X0356990Y0162060D01*
X0359085Y0161192D01*
X0361353Y0161192D01*
X0363448Y0162060D01*
X0365051Y0163663D01*
X0365919Y0165758D01*
X0365919Y0168026D01*
X0365051Y0170121D01*
X0363448Y0171724D01*
X0363043Y0171892D01*
X0363448Y0172060D01*
X0365051Y0173663D01*
X0365919Y0175758D01*
X0365919Y0178026D01*
X0365051Y0180121D01*
X0363448Y0181724D01*
X0363043Y0181892D01*
X0363448Y0182060D01*
X0365051Y0183663D01*
X0365919Y0185758D01*
X0365919Y0188026D01*
X0365051Y0190121D01*
X0363448Y0191724D01*
X0363043Y0191892D01*
X0363448Y0192060D01*
X0365051Y0193663D01*
X0365919Y0195758D01*
X0365919Y0198026D01*
X0365051Y0200121D01*
X0363448Y0201724D01*
X0363043Y0201892D01*
X0363448Y0202060D01*
X0365051Y0203663D01*
X0365919Y0205758D01*
X0365919Y0208026D01*
X0365051Y0210121D01*
X0363448Y0211724D01*
X0363043Y0211892D01*
X0363448Y0212060D01*
X0365051Y0213663D01*
X0365919Y0215758D01*
X0365919Y0218026D01*
X0365051Y0220121D01*
X0363448Y0221724D01*
X0361353Y0222592D01*
X0359085Y0222592D01*
X0356990Y0221724D01*
X0355387Y0220121D01*
X0354519Y0218026D01*
X0354519Y0215758D01*
X0354537Y0215716D01*
X0326117Y0215716D01*
X0326117Y0215844D01*
X0324945Y0217016D01*
X0311477Y0217016D01*
X0310306Y0215844D01*
X0310306Y0209987D01*
X0311314Y0208979D01*
X0310306Y0207970D01*
X0310306Y0202113D01*
X0311314Y0201105D01*
X0310306Y0200096D01*
X0310306Y0194239D01*
X0311314Y0193231D01*
X0310306Y0192222D01*
X0310306Y0192094D01*
X0307064Y0192094D01*
X0306034Y0191667D01*
X0300219Y0185852D01*
X0300219Y0232932D01*
X0328656Y0261370D01*
X0329085Y0261192D01*
X0331353Y0261192D01*
X0333448Y0262060D01*
X0335051Y0263663D01*
X0335338Y0264356D01*
X0335515Y0264009D01*
X0336024Y0263309D01*
X0336636Y0262697D01*
X0337336Y0262188D01*
X0338108Y0261795D01*
X0338931Y0261528D01*
X0339786Y0261392D01*
X0340019Y0261392D01*
X0340019Y0266692D01*
X0340419Y0266692D01*
X0340419Y0261392D01*
X0340652Y0261392D01*
X0341507Y0261528D01*
X0342330Y0261795D01*
X0343102Y0262188D01*
X0343802Y0262697D01*
X0344414Y0263309D01*
X0344923Y0264009D01*
X0345316Y0264781D01*
X0345584Y0265604D01*
X0345719Y0266459D01*
X0345719Y0266692D01*
X0340419Y0266692D01*
X0340419Y0267092D01*
X0345719Y0267092D01*
X0345719Y0267325D01*
X0345584Y0268180D01*
X0345316Y0269003D01*
X0344923Y0269775D01*
X0344414Y0270475D01*
X0343802Y0271087D01*
X0343102Y0271596D01*
X0342330Y0271989D01*
X0341507Y0272257D01*
X0340652Y0272392D01*
X0340419Y0272392D01*
X0340419Y0267092D01*
X0340019Y0267092D01*
X0340019Y0272392D01*
X0339786Y0272392D01*
X0338931Y0272257D01*
X0338108Y0271989D01*
X0337336Y0271596D01*
X0336636Y0271087D01*
X0336024Y0270475D01*
X0335515Y0269775D01*
X0335338Y0269428D01*
X0335051Y0270121D01*
X0333448Y0271724D01*
X0331353Y0272592D01*
X0329085Y0272592D01*
X0326990Y0271724D01*
X0325387Y0270121D01*
X0324519Y0268026D01*
X0324519Y0265758D01*
X0324697Y0265330D01*
X0295045Y0235678D01*
X0294619Y0234649D01*
X0294619Y0172141D01*
X0287450Y0164972D01*
X0287258Y0164972D01*
X0291805Y0169518D01*
X0292593Y0170306D01*
X0293019Y0171335D01*
X0293019Y0255230D01*
X0298656Y0260868D01*
X0299085Y0260690D01*
X0301353Y0260690D01*
X0303448Y0261558D01*
X0305051Y0263161D01*
X0305919Y0265256D01*
X0305919Y0267524D01*
X0305051Y0269619D01*
X0303448Y0271222D01*
X0301353Y0272090D01*
X0299085Y0272090D01*
X0296990Y0271222D01*
X0295387Y0269619D01*
X0295219Y0269214D01*
X0295051Y0269619D01*
X0293448Y0271222D01*
X0291353Y0272090D01*
X0289085Y0272090D01*
X0286990Y0271222D01*
X0285387Y0269619D01*
X0285219Y0269214D01*
X0285051Y0269619D01*
X0283448Y0271222D01*
X0281353Y0272090D01*
X0279085Y0272090D01*
X0276990Y0271222D01*
X0275387Y0269619D01*
X0275219Y0269214D01*
X0275051Y0269619D01*
X0273448Y0271222D01*
X0271353Y0272090D01*
X0269085Y0272090D01*
X0266990Y0271222D01*
X0265387Y0269619D01*
X0265219Y0269214D01*
X0265051Y0269619D01*
X0263448Y0271222D01*
X0261353Y0272090D01*
X0259085Y0272090D01*
X0256990Y0271222D01*
X0255387Y0269619D01*
X0254519Y0267524D01*
X0254519Y0265615D01*
X0253821Y0265092D01*
X0253633Y0265014D01*
X0253380Y0264761D01*
X0253093Y0264546D01*
X0252989Y0264370D01*
X0252845Y0264226D01*
X0252708Y0263895D01*
X0252526Y0263587D01*
X0252497Y0263386D01*
X0252419Y0263197D01*
X0252419Y0262839D01*
X0252368Y0262485D01*
X0252419Y0262287D01*
X0252419Y0244692D01*
X0244837Y0244692D01*
X0244837Y0245083D01*
X0244019Y0245901D01*
X0244019Y0250892D01*
X0245047Y0250892D01*
X0246219Y0252064D01*
X0246219Y0256721D01*
X0245047Y0257892D01*
X0237391Y0257892D01*
X0236691Y0257192D01*
X0223747Y0257192D01*
X0223047Y0257892D01*
X0215391Y0257892D01*
X0214219Y0256721D01*
X0214219Y0252064D01*
X0215391Y0250892D01*
X0223047Y0250892D01*
X0223747Y0251592D01*
X0236691Y0251592D01*
X0237391Y0250892D01*
X0238419Y0250892D01*
X0238419Y0245814D01*
X0237687Y0245083D01*
X0237687Y0238701D01*
X0238462Y0237927D01*
X0238462Y0234345D01*
X0238072Y0234345D01*
X0237719Y0233992D01*
X0237366Y0234345D01*
X0230591Y0234345D01*
X0229420Y0233173D01*
X0229420Y0232192D01*
X0223019Y0232192D01*
X0223019Y0247449D01*
X0222593Y0248478D01*
X0221805Y0249266D01*
X0220776Y0249692D01*
X0184662Y0249692D01*
X0183633Y0249266D01*
X0182845Y0248478D01*
X0182419Y0247449D01*
X0182419Y0223942D01*
X0178419Y0223942D01*
X0178419Y0220142D01*
X0177619Y0220142D01*
X0177619Y0219342D01*
X0178419Y0219342D01*
X0178419Y0215542D01*
X0182419Y0215542D01*
X0182419Y0215042D01*
X0172791Y0215042D01*
X0171619Y0213871D01*
X0171619Y0207414D01*
X0172791Y0206242D01*
X0182419Y0206242D01*
X0182419Y0205942D01*
X0172791Y0205942D01*
X0172341Y0205492D01*
X0168819Y0205492D01*
X0168819Y0234553D01*
X0169975Y0235709D01*
X0169975Y0242108D01*
X0189067Y0261200D01*
X0189085Y0261192D01*
X0191353Y0261192D01*
X0193448Y0262060D01*
X0195051Y0263663D01*
X0195338Y0264356D01*
X0195515Y0264009D01*
X0196024Y0263309D01*
X0196636Y0262697D01*
X0197336Y0262188D01*
X0198108Y0261795D01*
X0198931Y0261528D01*
X0199786Y0261392D01*
X0200019Y0261392D01*
X0200019Y0266692D01*
X0200419Y0266692D01*
X0200419Y0261392D01*
X0200652Y0261392D01*
X0201507Y0261528D01*
X0202330Y0261795D01*
X0203102Y0262188D01*
X0203802Y0262697D01*
X0204414Y0263309D01*
X0204923Y0264009D01*
X0205316Y0264781D01*
X0205584Y0265604D01*
X0205719Y0266459D01*
X0205719Y0266692D01*
X0200419Y0266692D01*
X0200419Y0267092D01*
X0205719Y0267092D01*
X0205719Y0267325D01*
X0205584Y0268180D01*
X0205316Y0269003D01*
X0204923Y0269775D01*
X0204414Y0270475D01*
X0203802Y0271087D01*
X0203102Y0271596D01*
X0202330Y0271989D01*
X0201507Y0272257D01*
X0200652Y0272392D01*
X0200419Y0272392D01*
X0200419Y0267092D01*
X0200019Y0267092D01*
X0200019Y0272392D01*
X0199786Y0272392D01*
X0198931Y0272257D01*
X0198108Y0271989D01*
X0197336Y0271596D01*
X0196636Y0271087D01*
X0196024Y0270475D01*
X0195515Y0269775D01*
X0195338Y0269428D01*
X0195051Y0270121D01*
X0193448Y0271724D01*
X0191353Y0272592D01*
X0189085Y0272592D01*
X0186990Y0271724D01*
X0185387Y0270121D01*
X0184519Y0268026D01*
X0184519Y0266834D01*
X0168033Y0250349D01*
X0161635Y0250349D01*
X0160463Y0249177D01*
X0160463Y0245295D01*
X0132878Y0245295D01*
X0128572Y0249601D01*
X0122023Y0249601D01*
X0117392Y0244970D01*
X0117392Y0243267D02*
X0072373Y0243267D01*
X0072373Y0241314D02*
X0065049Y0241314D01*
X0065049Y0242076D01*
X0064287Y0242076D01*
X0064287Y0241314D01*
X0065049Y0241314D01*
X0065049Y0233990D01*
X0067859Y0233990D01*
X0072373Y0238504D01*
X0072373Y0241314D01*
X0072373Y0240070D02*
X0117392Y0240070D01*
X0117392Y0238472D02*
X0072342Y0238472D01*
X0070743Y0236873D02*
X0118940Y0236873D01*
X0120538Y0235275D02*
X0069145Y0235275D01*
X0065049Y0235275D02*
X0064287Y0235275D01*
X0064287Y0233990D02*
X0064287Y0241314D01*
X0056962Y0241314D01*
X0056962Y0238504D01*
X0061476Y0233990D01*
X0064287Y0233990D01*
X0064287Y0236873D02*
X0065049Y0236873D01*
X0065049Y0238472D02*
X0064287Y0238472D01*
X0064287Y0240070D02*
X0065049Y0240070D01*
X0065049Y0241669D02*
X0117392Y0241669D01*
X0120485Y0248063D02*
X0069197Y0248063D01*
X0065049Y0248063D02*
X0064287Y0248063D01*
X0064287Y0249401D02*
X0061476Y0249401D01*
X0056962Y0244887D01*
X0056962Y0242076D01*
X0064287Y0242076D01*
X0064287Y0249401D01*
X0064287Y0246464D02*
X0065049Y0246464D01*
X0065049Y0244866D02*
X0064287Y0244866D01*
X0064287Y0243267D02*
X0065049Y0243267D01*
X0064287Y0241669D02*
X0037219Y0241669D01*
X0037219Y0243267D02*
X0056962Y0243267D01*
X0056962Y0244866D02*
X0037219Y0244866D01*
X0037219Y0246464D02*
X0058540Y0246464D01*
X0060138Y0248063D02*
X0037219Y0248063D01*
X0037219Y0249661D02*
X0160947Y0249661D01*
X0160463Y0248063D02*
X0130110Y0248063D01*
X0131709Y0246464D02*
X0160463Y0246464D01*
X0168944Y0251260D02*
X0037219Y0251260D01*
X0037219Y0252858D02*
X0170543Y0252858D01*
X0169080Y0253995D02*
X0169415Y0254330D01*
X0169652Y0254741D01*
X0169775Y0255198D01*
X0169775Y0260763D01*
X0165797Y0260763D01*
X0165797Y0261919D01*
X0164641Y0261919D01*
X0164641Y0269046D01*
X0162226Y0269046D01*
X0161768Y0268924D01*
X0161358Y0268687D01*
X0161023Y0268352D01*
X0160786Y0267941D01*
X0160663Y0267483D01*
X0160663Y0261919D01*
X0164641Y0261919D01*
X0164641Y0260763D01*
X0160663Y0260763D01*
X0160663Y0255198D01*
X0160786Y0254741D01*
X0161023Y0254330D01*
X0161358Y0253995D01*
X0161768Y0253758D01*
X0162226Y0253635D01*
X0164641Y0253635D01*
X0164641Y0260763D01*
X0165797Y0260763D01*
X0165797Y0253635D01*
X0168212Y0253635D01*
X0168670Y0253758D01*
X0169080Y0253995D01*
X0169488Y0254457D02*
X0172141Y0254457D01*
X0173740Y0256055D02*
X0169775Y0256055D01*
X0169775Y0257654D02*
X0175338Y0257654D01*
X0176937Y0259252D02*
X0169775Y0259252D01*
X0169775Y0261919D02*
X0165797Y0261919D01*
X0165797Y0269046D01*
X0168212Y0269046D01*
X0168670Y0268924D01*
X0169080Y0268687D01*
X0169415Y0268352D01*
X0169652Y0267941D01*
X0169775Y0267483D01*
X0169775Y0261919D01*
X0169775Y0262449D02*
X0180134Y0262449D01*
X0178535Y0260851D02*
X0165797Y0260851D01*
X0164641Y0260851D02*
X0054442Y0260851D01*
X0054399Y0260748D02*
X0055723Y0263943D01*
X0055723Y0267401D01*
X0054399Y0270596D01*
X0051954Y0273041D01*
X0048759Y0274365D01*
X0045301Y0274365D01*
X0042106Y0273041D01*
X0039660Y0270596D01*
X0038337Y0267401D01*
X0038337Y0263943D01*
X0039660Y0260748D01*
X0042106Y0258302D01*
X0045301Y0256979D01*
X0048759Y0256979D01*
X0051954Y0258302D01*
X0054399Y0260748D01*
X0055104Y0262449D02*
X0160663Y0262449D01*
X0160663Y0264048D02*
X0055723Y0264048D01*
X0055723Y0265646D02*
X0160663Y0265646D01*
X0160663Y0267245D02*
X0055723Y0267245D01*
X0055125Y0268844D02*
X0161629Y0268844D01*
X0164641Y0268844D02*
X0165797Y0268844D01*
X0165797Y0267245D02*
X0164641Y0267245D01*
X0164641Y0265646D02*
X0165797Y0265646D01*
X0165797Y0264048D02*
X0164641Y0264048D01*
X0164641Y0262449D02*
X0165797Y0262449D01*
X0165797Y0259252D02*
X0164641Y0259252D01*
X0164641Y0257654D02*
X0165797Y0257654D01*
X0165797Y0256055D02*
X0164641Y0256055D01*
X0164641Y0254457D02*
X0165797Y0254457D01*
X0160950Y0254457D02*
X0037219Y0254457D01*
X0037219Y0256055D02*
X0160663Y0256055D01*
X0160663Y0257654D02*
X0050389Y0257654D01*
X0052904Y0259252D02*
X0160663Y0259252D01*
X0169775Y0264048D02*
X0181732Y0264048D01*
X0183331Y0265646D02*
X0169775Y0265646D01*
X0169775Y0267245D02*
X0184519Y0267245D01*
X0184858Y0268844D02*
X0168809Y0268844D01*
X0185708Y0270442D02*
X0054463Y0270442D01*
X0052955Y0272041D02*
X0187754Y0272041D01*
X0192684Y0272041D02*
X0198266Y0272041D01*
X0200019Y0272041D02*
X0200419Y0272041D01*
X0200419Y0270442D02*
X0200019Y0270442D01*
X0200019Y0268844D02*
X0200419Y0268844D01*
X0200419Y0267245D02*
X0200019Y0267245D01*
X0200019Y0265646D02*
X0200419Y0265646D01*
X0200419Y0264048D02*
X0200019Y0264048D01*
X0200019Y0262449D02*
X0200419Y0262449D01*
X0203461Y0262449D02*
X0252377Y0262449D01*
X0252419Y0260851D02*
X0188718Y0260851D01*
X0187119Y0259252D02*
X0252419Y0259252D01*
X0252419Y0257654D02*
X0245286Y0257654D01*
X0246219Y0256055D02*
X0252419Y0256055D01*
X0252419Y0254457D02*
X0246219Y0254457D01*
X0246219Y0252858D02*
X0252419Y0252858D01*
X0252419Y0251260D02*
X0245415Y0251260D01*
X0244019Y0249661D02*
X0252419Y0249661D01*
X0252419Y0248063D02*
X0244019Y0248063D01*
X0244019Y0246464D02*
X0252419Y0246464D01*
X0252419Y0244866D02*
X0244837Y0244866D01*
X0241262Y0241892D02*
X0241262Y0229589D01*
X0241459Y0229392D01*
X0238462Y0235275D02*
X0223019Y0235275D01*
X0223019Y0236873D02*
X0238462Y0236873D01*
X0237917Y0238472D02*
X0237218Y0238472D01*
X0237191Y0238425D02*
X0237428Y0238835D01*
X0237550Y0239293D01*
X0237550Y0241892D01*
X0234176Y0241892D01*
X0234176Y0241892D01*
X0237550Y0241892D01*
X0237550Y0244491D01*
X0237428Y0244949D01*
X0237191Y0245360D01*
X0236856Y0245695D01*
X0236445Y0245932D01*
X0235987Y0246054D01*
X0234176Y0246054D01*
X0234176Y0241892D01*
X0234176Y0237730D01*
X0235987Y0237730D01*
X0236445Y0237853D01*
X0236856Y0238090D01*
X0237191Y0238425D01*
X0237550Y0240070D02*
X0237687Y0240070D01*
X0237687Y0241669D02*
X0237550Y0241669D01*
X0237550Y0243267D02*
X0237687Y0243267D01*
X0237687Y0244866D02*
X0237450Y0244866D01*
X0238419Y0246464D02*
X0223019Y0246464D01*
X0223019Y0244866D02*
X0230901Y0244866D01*
X0230923Y0244949D02*
X0230801Y0244491D01*
X0230801Y0241892D01*
X0230801Y0239293D01*
X0230923Y0238835D01*
X0231160Y0238425D01*
X0231496Y0238090D01*
X0231906Y0237853D01*
X0232364Y0237730D01*
X0234176Y0237730D01*
X0234176Y0241892D01*
X0234176Y0241892D01*
X0234176Y0241892D01*
X0230801Y0241892D01*
X0234176Y0241892D01*
X0234176Y0241892D01*
X0234176Y0246054D01*
X0232364Y0246054D01*
X0231906Y0245932D01*
X0231496Y0245695D01*
X0231160Y0245360D01*
X0230923Y0244949D01*
X0230801Y0243267D02*
X0223019Y0243267D01*
X0223019Y0241669D02*
X0230801Y0241669D01*
X0230801Y0240070D02*
X0223019Y0240070D01*
X0223019Y0238472D02*
X0231133Y0238472D01*
X0234176Y0238472D02*
X0234176Y0238472D01*
X0234176Y0240070D02*
X0234176Y0240070D01*
X0234176Y0241669D02*
X0234176Y0241669D01*
X0234176Y0243267D02*
X0234176Y0243267D01*
X0234176Y0244866D02*
X0234176Y0244866D01*
X0238419Y0248063D02*
X0222765Y0248063D01*
X0220850Y0249661D02*
X0238419Y0249661D01*
X0237023Y0251260D02*
X0223415Y0251260D01*
X0219219Y0254392D02*
X0241219Y0254392D01*
X0241219Y0241935D01*
X0241262Y0241892D01*
X0255219Y0241892D01*
X0255219Y0262640D01*
X0260219Y0266390D01*
X0264228Y0270442D02*
X0266210Y0270442D01*
X0268965Y0272041D02*
X0261473Y0272041D01*
X0258965Y0272041D02*
X0245616Y0272041D01*
X0245659Y0271997D02*
X0245324Y0272332D01*
X0244914Y0272569D01*
X0244456Y0272692D01*
X0241219Y0272692D01*
X0241219Y0269392D01*
X0241219Y0266092D01*
X0244456Y0266092D01*
X0244914Y0266215D01*
X0245324Y0266452D01*
X0245659Y0266787D01*
X0245896Y0267197D01*
X0246019Y0267655D01*
X0246019Y0269392D01*
X0241219Y0269392D01*
X0241219Y0269392D01*
X0241219Y0269392D01*
X0241219Y0266092D01*
X0237982Y0266092D01*
X0237524Y0266215D01*
X0237114Y0266452D01*
X0236779Y0266787D01*
X0236542Y0267197D01*
X0236419Y0267655D01*
X0236419Y0269392D01*
X0241219Y0269392D01*
X0241219Y0269392D01*
X0246019Y0269392D01*
X0246019Y0271129D01*
X0245896Y0271587D01*
X0245659Y0271997D01*
X0246019Y0270442D02*
X0256210Y0270442D01*
X0255066Y0268844D02*
X0246019Y0268844D01*
X0245909Y0267245D02*
X0254519Y0267245D01*
X0254519Y0265646D02*
X0205590Y0265646D01*
X0205719Y0267245D02*
X0214529Y0267245D01*
X0214542Y0267197D02*
X0214779Y0266787D01*
X0215114Y0266452D01*
X0215524Y0266215D01*
X0215982Y0266092D01*
X0219219Y0266092D01*
X0222456Y0266092D01*
X0222914Y0266215D01*
X0223324Y0266452D01*
X0223659Y0266787D01*
X0223896Y0267197D01*
X0224019Y0267655D01*
X0224019Y0269392D01*
X0219219Y0269392D01*
X0219219Y0266092D01*
X0219219Y0269392D01*
X0219219Y0269392D01*
X0219219Y0269392D01*
X0214419Y0269392D01*
X0214419Y0267655D01*
X0214542Y0267197D01*
X0214419Y0268844D02*
X0205368Y0268844D01*
X0204438Y0270442D02*
X0214419Y0270442D01*
X0214419Y0271129D02*
X0214419Y0269392D01*
X0219219Y0269392D01*
X0219219Y0269392D01*
X0224019Y0269392D01*
X0224019Y0271129D01*
X0223896Y0271587D01*
X0223659Y0271997D01*
X0223324Y0272332D01*
X0222914Y0272569D01*
X0222456Y0272692D01*
X0219219Y0272692D01*
X0219219Y0269392D01*
X0219219Y0269392D01*
X0219219Y0272692D01*
X0215982Y0272692D01*
X0215524Y0272569D01*
X0215114Y0272332D01*
X0214779Y0271997D01*
X0214542Y0271587D01*
X0214419Y0271129D01*
X0214822Y0272041D02*
X0202172Y0272041D01*
X0196000Y0270442D02*
X0194730Y0270442D01*
X0195210Y0264048D02*
X0195495Y0264048D01*
X0196977Y0262449D02*
X0193837Y0262449D01*
X0185521Y0257654D02*
X0215152Y0257654D01*
X0214219Y0256055D02*
X0183922Y0256055D01*
X0182324Y0254457D02*
X0214219Y0254457D01*
X0214219Y0252858D02*
X0180725Y0252858D01*
X0179127Y0251260D02*
X0215023Y0251260D01*
X0220219Y0246892D02*
X0220219Y0221892D01*
X0225219Y0216892D01*
X0225219Y0181892D01*
X0245219Y0181892D01*
X0245219Y0156892D01*
X0244381Y0156892D01*
X0244381Y0157935D01*
X0240219Y0157935D01*
X0240219Y0157935D01*
X0236057Y0157935D01*
X0236057Y0156892D01*
X0229381Y0156892D01*
X0229381Y0157935D01*
X0225219Y0157935D01*
X0225219Y0157935D01*
X0221057Y0157935D01*
X0221057Y0156892D01*
X0200219Y0156892D01*
X0200219Y0182866D01*
X0200243Y0182853D01*
X0200700Y0182730D01*
X0202512Y0182730D01*
X0202512Y0186892D01*
X0202512Y0186892D01*
X0202420Y0186985D01*
X0202512Y0186892D02*
X0202512Y0191054D01*
X0200700Y0191054D01*
X0200243Y0190932D01*
X0200219Y0190918D01*
X0200219Y0191892D01*
X0185219Y0191892D01*
X0185219Y0246892D01*
X0220219Y0246892D01*
X0220219Y0246464D02*
X0185219Y0246464D01*
X0185219Y0244866D02*
X0220219Y0244866D01*
X0220219Y0243267D02*
X0185219Y0243267D01*
X0185219Y0241669D02*
X0220219Y0241669D01*
X0220219Y0240070D02*
X0185219Y0240070D01*
X0185219Y0238472D02*
X0220219Y0238472D01*
X0220219Y0236873D02*
X0185219Y0236873D01*
X0185219Y0235275D02*
X0220219Y0235275D01*
X0220219Y0233676D02*
X0185219Y0233676D01*
X0185219Y0232078D02*
X0220219Y0232078D01*
X0220219Y0230479D02*
X0185219Y0230479D01*
X0185219Y0228881D02*
X0220219Y0228881D01*
X0218969Y0229392D02*
X0200219Y0210642D01*
X0202420Y0210642D01*
X0203220Y0211297D02*
X0225219Y0211297D01*
X0225219Y0209699D02*
X0208550Y0209699D01*
X0208550Y0209842D02*
X0208550Y0203319D01*
X0208428Y0202861D01*
X0208191Y0202450D01*
X0207856Y0202115D01*
X0207445Y0201878D01*
X0206987Y0201756D01*
X0203220Y0201756D01*
X0203220Y0209842D01*
X0203220Y0211442D01*
X0208550Y0211442D01*
X0208550Y0217966D01*
X0208428Y0218424D01*
X0208191Y0218834D01*
X0207856Y0219169D01*
X0207445Y0219406D01*
X0206987Y0219529D01*
X0203220Y0219529D01*
X0203220Y0211442D01*
X0201620Y0211442D01*
X0201620Y0219529D01*
X0197852Y0219529D01*
X0197394Y0219406D01*
X0196984Y0219169D01*
X0196649Y0218834D01*
X0196412Y0218424D01*
X0196289Y0217966D01*
X0196289Y0211442D01*
X0201620Y0211442D01*
X0201620Y0209842D01*
X0203220Y0209842D01*
X0208550Y0209842D01*
X0208550Y0208100D02*
X0225219Y0208100D01*
X0225219Y0206502D02*
X0208550Y0206502D01*
X0208550Y0204903D02*
X0225219Y0204903D01*
X0225219Y0203305D02*
X0208547Y0203305D01*
X0203220Y0203305D02*
X0201620Y0203305D01*
X0201620Y0201756D02*
X0201620Y0209842D01*
X0196289Y0209842D01*
X0196289Y0203319D01*
X0196412Y0202861D01*
X0196649Y0202450D01*
X0196984Y0202115D01*
X0197394Y0201878D01*
X0197852Y0201756D01*
X0201620Y0201756D01*
X0201620Y0204903D02*
X0203220Y0204903D01*
X0203220Y0206502D02*
X0201620Y0206502D01*
X0201620Y0208100D02*
X0203220Y0208100D01*
X0203220Y0209699D02*
X0201620Y0209699D01*
X0201620Y0211297D02*
X0185219Y0211297D01*
X0185219Y0209699D02*
X0196289Y0209699D01*
X0196289Y0208100D02*
X0185219Y0208100D01*
X0185219Y0206502D02*
X0196289Y0206502D01*
X0196289Y0204903D02*
X0185219Y0204903D01*
X0185219Y0203305D02*
X0196293Y0203305D01*
X0200219Y0210642D02*
X0178019Y0210642D01*
X0177619Y0215542D02*
X0173382Y0215542D01*
X0172924Y0215665D01*
X0172514Y0215902D01*
X0172179Y0216237D01*
X0171942Y0216647D01*
X0171819Y0217105D01*
X0171819Y0219342D01*
X0177619Y0219342D01*
X0177619Y0215542D01*
X0177619Y0216093D02*
X0178419Y0216093D01*
X0178419Y0217691D02*
X0177619Y0217691D01*
X0177619Y0219290D02*
X0178419Y0219290D01*
X0177619Y0220142D02*
X0171819Y0220142D01*
X0171819Y0222379D01*
X0171942Y0222837D01*
X0172179Y0223247D01*
X0172514Y0223582D01*
X0172924Y0223819D01*
X0173382Y0223942D01*
X0177619Y0223942D01*
X0177619Y0220142D01*
X0177619Y0220888D02*
X0178419Y0220888D01*
X0178419Y0222487D02*
X0177619Y0222487D01*
X0182419Y0224085D02*
X0168819Y0224085D01*
X0168819Y0222487D02*
X0171848Y0222487D01*
X0171819Y0220888D02*
X0168819Y0220888D01*
X0168819Y0219290D02*
X0171819Y0219290D01*
X0171819Y0217691D02*
X0168819Y0217691D01*
X0168819Y0216093D02*
X0172323Y0216093D01*
X0172243Y0214494D02*
X0168819Y0214494D01*
X0168819Y0212896D02*
X0171619Y0212896D01*
X0171619Y0211297D02*
X0168819Y0211297D01*
X0168819Y0209699D02*
X0171619Y0209699D01*
X0171619Y0208100D02*
X0168819Y0208100D01*
X0168819Y0206502D02*
X0172531Y0206502D01*
X0174419Y0196911D02*
X0155244Y0196911D01*
X0155240Y0198509D02*
X0163979Y0198509D01*
X0162062Y0200108D02*
X0155236Y0200108D01*
X0155232Y0201706D02*
X0161619Y0201706D01*
X0161619Y0203305D02*
X0155228Y0203305D01*
X0155224Y0204903D02*
X0161619Y0204903D01*
X0161619Y0206502D02*
X0155220Y0206502D01*
X0161619Y0208100D02*
X0037219Y0208100D01*
X0037219Y0209699D02*
X0161619Y0209699D01*
X0161619Y0211297D02*
X0037219Y0211297D01*
X0037219Y0212896D02*
X0161619Y0212896D01*
X0161619Y0214494D02*
X0037219Y0214494D01*
X0037219Y0216093D02*
X0161619Y0216093D01*
X0161619Y0217691D02*
X0037219Y0217691D01*
X0037219Y0219290D02*
X0161619Y0219290D01*
X0161619Y0220888D02*
X0037219Y0220888D01*
X0037219Y0222487D02*
X0161619Y0222487D01*
X0161619Y0224085D02*
X0037219Y0224085D01*
X0037219Y0225684D02*
X0161619Y0225684D01*
X0161619Y0227282D02*
X0037219Y0227282D01*
X0037219Y0228881D02*
X0161619Y0228881D01*
X0161619Y0230479D02*
X0037219Y0230479D01*
X0037219Y0232078D02*
X0161619Y0232078D01*
X0161619Y0233676D02*
X0037219Y0233676D01*
X0037219Y0235275D02*
X0060191Y0235275D01*
X0058593Y0236873D02*
X0037219Y0236873D01*
X0037219Y0238472D02*
X0056994Y0238472D01*
X0056962Y0240070D02*
X0037219Y0240070D01*
X0037219Y0257654D02*
X0043671Y0257654D01*
X0041156Y0259252D02*
X0037219Y0259252D01*
X0037219Y0260851D02*
X0039618Y0260851D01*
X0038955Y0262449D02*
X0037219Y0262449D01*
X0037219Y0264048D02*
X0038337Y0264048D01*
X0038337Y0265646D02*
X0037219Y0265646D01*
X0037219Y0267245D02*
X0038337Y0267245D01*
X0038935Y0268844D02*
X0037219Y0268844D01*
X0037219Y0270442D02*
X0039597Y0270442D01*
X0041105Y0272041D02*
X0037219Y0272041D01*
X0038141Y0273639D02*
X0043549Y0273639D01*
X0039739Y0275238D02*
X0371802Y0275238D01*
X0371802Y0273639D02*
X0365471Y0273639D01*
X0366915Y0273041D02*
X0363720Y0274365D01*
X0360261Y0274365D01*
X0357066Y0273041D01*
X0354621Y0270596D01*
X0353298Y0267401D01*
X0353298Y0263943D01*
X0354621Y0260748D01*
X0357066Y0258302D01*
X0360261Y0256979D01*
X0363720Y0256979D01*
X0366915Y0258302D01*
X0369360Y0260748D01*
X0370684Y0263943D01*
X0370684Y0267401D01*
X0369360Y0270596D01*
X0366915Y0273041D01*
X0367915Y0272041D02*
X0371802Y0272041D01*
X0371802Y0270442D02*
X0369424Y0270442D01*
X0370086Y0268844D02*
X0371802Y0268844D01*
X0371802Y0267245D02*
X0370684Y0267245D01*
X0370684Y0265646D02*
X0371802Y0265646D01*
X0371802Y0264048D02*
X0370684Y0264048D01*
X0370065Y0262449D02*
X0371802Y0262449D01*
X0371802Y0260851D02*
X0369403Y0260851D01*
X0367865Y0259252D02*
X0371802Y0259252D01*
X0371802Y0257654D02*
X0365350Y0257654D01*
X0371802Y0256055D02*
X0323342Y0256055D01*
X0321744Y0254457D02*
X0371802Y0254457D01*
X0371802Y0252858D02*
X0320145Y0252858D01*
X0318546Y0251260D02*
X0371802Y0251260D01*
X0371802Y0249661D02*
X0316948Y0249661D01*
X0315349Y0248063D02*
X0371802Y0248063D01*
X0371802Y0246464D02*
X0313751Y0246464D01*
X0312152Y0244866D02*
X0371802Y0244866D01*
X0371802Y0243267D02*
X0310554Y0243267D01*
X0308955Y0241669D02*
X0371802Y0241669D01*
X0371802Y0240070D02*
X0307357Y0240070D01*
X0305758Y0238472D02*
X0371802Y0238472D01*
X0371802Y0236873D02*
X0304160Y0236873D01*
X0302561Y0235275D02*
X0371802Y0235275D01*
X0371802Y0233676D02*
X0300963Y0233676D01*
X0300219Y0232078D02*
X0371802Y0232078D01*
X0371802Y0230479D02*
X0300219Y0230479D01*
X0300219Y0228881D02*
X0371802Y0228881D01*
X0371802Y0227282D02*
X0300219Y0227282D01*
X0300219Y0225684D02*
X0371802Y0225684D01*
X0371802Y0224085D02*
X0300219Y0224085D01*
X0300219Y0222487D02*
X0358831Y0222487D01*
X0361607Y0222487D02*
X0371802Y0222487D01*
X0371802Y0220888D02*
X0364284Y0220888D01*
X0365395Y0219290D02*
X0371802Y0219290D01*
X0371802Y0217691D02*
X0365919Y0217691D01*
X0365919Y0216093D02*
X0371802Y0216093D01*
X0371802Y0214494D02*
X0365395Y0214494D01*
X0364283Y0212896D02*
X0371802Y0212896D01*
X0371802Y0211297D02*
X0363875Y0211297D01*
X0365226Y0209699D02*
X0371802Y0209699D01*
X0371802Y0208100D02*
X0365888Y0208100D01*
X0365919Y0206502D02*
X0371802Y0206502D01*
X0371802Y0204903D02*
X0365565Y0204903D01*
X0364692Y0203305D02*
X0371802Y0203305D01*
X0371802Y0201706D02*
X0363466Y0201706D01*
X0365057Y0200108D02*
X0371802Y0200108D01*
X0371802Y0198509D02*
X0365719Y0198509D01*
X0365919Y0196911D02*
X0371802Y0196911D01*
X0371802Y0195312D02*
X0365734Y0195312D01*
X0365072Y0193713D02*
X0371802Y0193713D01*
X0371802Y0192115D02*
X0363503Y0192115D01*
X0364656Y0190516D02*
X0371802Y0190516D01*
X0371802Y0188918D02*
X0365549Y0188918D01*
X0365919Y0187319D02*
X0371802Y0187319D01*
X0371802Y0185721D02*
X0365903Y0185721D01*
X0365241Y0184122D02*
X0371802Y0184122D01*
X0371802Y0182524D02*
X0363912Y0182524D01*
X0364247Y0180925D02*
X0371802Y0180925D01*
X0371802Y0179327D02*
X0365380Y0179327D01*
X0365919Y0177728D02*
X0371802Y0177728D01*
X0371802Y0176130D02*
X0365919Y0176130D01*
X0365411Y0174531D02*
X0371802Y0174531D01*
X0371802Y0172933D02*
X0364321Y0172933D01*
X0363838Y0171334D02*
X0371802Y0171334D01*
X0371802Y0169736D02*
X0365211Y0169736D01*
X0365873Y0168137D02*
X0371802Y0168137D01*
X0371802Y0166539D02*
X0365919Y0166539D01*
X0365580Y0164940D02*
X0371802Y0164940D01*
X0371802Y0163342D02*
X0364730Y0163342D01*
X0362683Y0161743D02*
X0371802Y0161743D01*
X0371802Y0160145D02*
X0333019Y0160145D01*
X0333019Y0161743D02*
X0357755Y0161743D01*
X0355708Y0163342D02*
X0332649Y0163342D01*
X0331131Y0164940D02*
X0354858Y0164940D01*
X0354519Y0166539D02*
X0329532Y0166539D01*
X0327804Y0168137D02*
X0354565Y0168137D01*
X0353415Y0169736D02*
X0325235Y0169736D01*
X0326439Y0165672D02*
X0330219Y0161892D01*
X0330219Y0143152D01*
X0328959Y0141892D01*
X0333518Y0142561D02*
X0346489Y0142561D01*
X0346990Y0142060D02*
X0347419Y0141882D01*
X0347419Y0136845D01*
X0343091Y0136845D01*
X0341920Y0135673D01*
X0341920Y0128111D01*
X0343091Y0126939D01*
X0349866Y0126939D01*
X0350378Y0127451D01*
X0350705Y0127262D01*
X0351163Y0127139D01*
X0353480Y0127139D01*
X0353480Y0131413D01*
X0354439Y0131413D01*
X0354439Y0132372D01*
X0358318Y0132372D01*
X0358318Y0135082D01*
X0358195Y0135540D01*
X0357959Y0135950D01*
X0357623Y0136285D01*
X0357213Y0136522D01*
X0356755Y0136645D01*
X0354439Y0136645D01*
X0354439Y0132372D01*
X0353480Y0132372D01*
X0353480Y0136645D01*
X0353019Y0136645D01*
X0353019Y0141882D01*
X0353448Y0142060D01*
X0355051Y0143663D01*
X0355219Y0144068D01*
X0355387Y0143663D01*
X0356990Y0142060D01*
X0359085Y0141192D01*
X0361353Y0141192D01*
X0363448Y0142060D01*
X0365051Y0143663D01*
X0365919Y0145758D01*
X0371802Y0145758D01*
X0371802Y0144160D02*
X0365257Y0144160D01*
X0365919Y0145758D02*
X0365919Y0148026D01*
X0365051Y0150121D01*
X0363448Y0151724D01*
X0361353Y0152592D01*
X0359085Y0152592D01*
X0356990Y0151724D01*
X0355387Y0150121D01*
X0355219Y0149716D01*
X0355051Y0150121D01*
X0353448Y0151724D01*
X0351353Y0152592D01*
X0349085Y0152592D01*
X0346990Y0151724D01*
X0345387Y0150121D01*
X0344519Y0148026D01*
X0344519Y0145758D01*
X0333433Y0145758D01*
X0333518Y0144160D02*
X0345181Y0144160D01*
X0345387Y0143663D02*
X0346990Y0142060D01*
X0347419Y0140963D02*
X0333518Y0140963D01*
X0333518Y0139364D02*
X0347419Y0139364D01*
X0347419Y0137766D02*
X0333173Y0137766D01*
X0341920Y0134569D02*
X0311759Y0134569D01*
X0311759Y0136167D02*
X0342414Y0136167D01*
X0341920Y0132970D02*
X0312534Y0132970D01*
X0312534Y0131372D02*
X0341920Y0131372D01*
X0341920Y0129773D02*
X0312534Y0129773D01*
X0312479Y0128175D02*
X0341920Y0128175D01*
X0346479Y0131892D02*
X0350000Y0135413D01*
X0350000Y0135425D01*
X0350219Y0135644D01*
X0350219Y0146892D01*
X0344904Y0148955D02*
X0333019Y0148955D01*
X0333019Y0147357D02*
X0344519Y0147357D01*
X0344519Y0145758D02*
X0345387Y0143663D01*
X0353019Y0140963D02*
X0371802Y0140963D01*
X0371802Y0142561D02*
X0363949Y0142561D01*
X0365919Y0147357D02*
X0371802Y0147357D01*
X0371802Y0148955D02*
X0365534Y0148955D01*
X0364618Y0150554D02*
X0371802Y0150554D01*
X0371802Y0152152D02*
X0362415Y0152152D01*
X0358023Y0152152D02*
X0352415Y0152152D01*
X0354618Y0150554D02*
X0355819Y0150554D01*
X0348023Y0152152D02*
X0333019Y0152152D01*
X0333019Y0150554D02*
X0345819Y0150554D01*
X0353949Y0142561D02*
X0356489Y0142561D01*
X0353019Y0139364D02*
X0371802Y0139364D01*
X0371802Y0137766D02*
X0353019Y0137766D01*
X0353480Y0136167D02*
X0354439Y0136167D01*
X0354439Y0134569D02*
X0353480Y0134569D01*
X0353480Y0132970D02*
X0354439Y0132970D01*
X0354439Y0131413D02*
X0358318Y0131413D01*
X0358318Y0128702D01*
X0358195Y0128245D01*
X0357959Y0127834D01*
X0357623Y0127499D01*
X0357213Y0127262D01*
X0356755Y0127139D01*
X0354439Y0127139D01*
X0354439Y0131413D01*
X0354439Y0131372D02*
X0353480Y0131372D01*
X0353480Y0129773D02*
X0354439Y0129773D01*
X0354439Y0128175D02*
X0353480Y0128175D01*
X0358155Y0128175D02*
X0371802Y0128175D01*
X0371802Y0129773D02*
X0358318Y0129773D01*
X0358318Y0131372D02*
X0371802Y0131372D01*
X0371802Y0132970D02*
X0358318Y0132970D01*
X0358318Y0134569D02*
X0371802Y0134569D01*
X0371802Y0136167D02*
X0357742Y0136167D01*
X0346479Y0131892D02*
X0345219Y0133152D01*
X0327419Y0147357D02*
X0304279Y0147357D01*
X0304279Y0148955D02*
X0327419Y0148955D01*
X0327419Y0150554D02*
X0304279Y0150554D01*
X0304279Y0152152D02*
X0327419Y0152152D01*
X0327419Y0153751D02*
X0304279Y0153751D01*
X0304279Y0155349D02*
X0310535Y0155349D01*
X0310506Y0156948D02*
X0304279Y0156948D01*
X0304279Y0158546D02*
X0310506Y0158546D01*
X0310508Y0160145D02*
X0304279Y0160145D01*
X0304279Y0161743D02*
X0311306Y0161743D01*
X0310306Y0163342D02*
X0304279Y0163342D01*
X0304279Y0164940D02*
X0310306Y0164940D01*
X0310306Y0166539D02*
X0304279Y0166539D01*
X0304279Y0168137D02*
X0310306Y0168137D01*
X0311187Y0169736D02*
X0304279Y0169736D01*
X0304279Y0171334D02*
X0310306Y0171334D01*
X0310306Y0172933D02*
X0304279Y0172933D01*
X0304279Y0174531D02*
X0310306Y0174531D01*
X0310306Y0176130D02*
X0304279Y0176130D01*
X0304279Y0177728D02*
X0311068Y0177728D01*
X0308133Y0179327D02*
X0304279Y0179327D01*
X0304279Y0180925D02*
X0307059Y0180925D01*
X0306930Y0182524D02*
X0304811Y0182524D01*
X0306409Y0184122D02*
X0307798Y0184122D01*
X0308008Y0185721D02*
X0310950Y0185721D01*
X0310219Y0181892D02*
X0318684Y0181892D01*
X0318211Y0181420D01*
X0355691Y0181420D01*
X0360219Y0176892D01*
X0353565Y0173546D02*
X0360219Y0166892D01*
X0353565Y0173546D02*
X0318211Y0173546D01*
X0318211Y0165672D02*
X0326439Y0165672D01*
X0326408Y0161743D02*
X0325117Y0161743D01*
X0325914Y0160145D02*
X0327419Y0160145D01*
X0327419Y0158546D02*
X0325917Y0158546D01*
X0325917Y0157548D02*
X0318461Y0157548D01*
X0318461Y0153898D01*
X0324354Y0153898D01*
X0324811Y0154020D01*
X0325222Y0154257D01*
X0325557Y0154592D01*
X0325794Y0155003D01*
X0325917Y0155461D01*
X0325917Y0157548D01*
X0325917Y0156948D02*
X0327419Y0156948D01*
X0327419Y0155349D02*
X0325887Y0155349D01*
X0333019Y0155349D02*
X0371802Y0155349D01*
X0371802Y0153751D02*
X0333019Y0153751D01*
X0333019Y0156948D02*
X0371802Y0156948D01*
X0371802Y0158546D02*
X0333019Y0158546D01*
X0318461Y0156948D02*
X0317961Y0156948D01*
X0317961Y0155349D02*
X0318461Y0155349D01*
X0317369Y0145758D02*
X0313433Y0145758D01*
X0313518Y0144160D02*
X0317120Y0144160D01*
X0317120Y0142561D02*
X0313518Y0142561D01*
X0313518Y0140963D02*
X0317120Y0140963D01*
X0317120Y0139364D02*
X0313518Y0139364D01*
X0313173Y0137766D02*
X0317548Y0137766D01*
X0320999Y0137766D02*
X0321958Y0137766D01*
X0321958Y0139364D02*
X0320999Y0139364D01*
X0320999Y0140963D02*
X0321958Y0140963D01*
X0321958Y0142561D02*
X0320999Y0142561D01*
X0320999Y0144160D02*
X0321958Y0144160D01*
X0321958Y0145758D02*
X0320999Y0145758D01*
X0308959Y0141892D02*
X0308959Y0130829D01*
X0305384Y0131372D02*
X0304854Y0131372D01*
X0304854Y0130829D02*
X0304854Y0132838D01*
X0304731Y0133296D01*
X0304494Y0133706D01*
X0304159Y0134041D01*
X0303748Y0134278D01*
X0303291Y0134401D01*
X0301479Y0134401D01*
X0301479Y0130829D01*
X0301479Y0130829D01*
X0304854Y0130829D01*
X0304854Y0128820D01*
X0304731Y0128363D01*
X0304494Y0127952D01*
X0304159Y0127617D01*
X0303748Y0127380D01*
X0303291Y0127257D01*
X0301479Y0127257D01*
X0301479Y0130829D01*
X0301479Y0130829D01*
X0304854Y0130829D01*
X0304854Y0129773D02*
X0305384Y0129773D01*
X0305439Y0128175D02*
X0304622Y0128175D01*
X0301479Y0128175D02*
X0301479Y0128175D01*
X0301479Y0127257D02*
X0299667Y0127257D01*
X0299209Y0127380D01*
X0298799Y0127617D01*
X0298464Y0127952D01*
X0298227Y0128363D01*
X0298104Y0128820D01*
X0298104Y0130829D01*
X0301479Y0130829D01*
X0301479Y0127257D01*
X0301644Y0124977D02*
X0298019Y0124977D01*
X0298019Y0123379D02*
X0301644Y0123379D01*
X0300478Y0121780D02*
X0298312Y0121780D01*
X0299550Y0116892D02*
X0295219Y0116892D01*
X0295219Y0126892D01*
X0290219Y0131892D01*
X0257709Y0131892D01*
X0261774Y0136167D02*
X0306159Y0136167D01*
X0306159Y0134569D02*
X0291074Y0134569D01*
X0293101Y0132970D02*
X0298139Y0132970D01*
X0298104Y0132838D02*
X0298104Y0130829D01*
X0301479Y0130829D01*
X0301479Y0130829D01*
X0301479Y0130829D01*
X0301479Y0134401D01*
X0299667Y0134401D01*
X0299209Y0134278D01*
X0298799Y0134041D01*
X0298464Y0133706D01*
X0298227Y0133296D01*
X0298104Y0132838D01*
X0298104Y0131372D02*
X0294699Y0131372D01*
X0296298Y0129773D02*
X0298104Y0129773D01*
X0298335Y0128175D02*
X0297718Y0128175D01*
X0298019Y0126576D02*
X0371802Y0126576D01*
X0371802Y0124977D02*
X0308794Y0124977D01*
X0308794Y0123379D02*
X0371802Y0123379D01*
X0315107Y0121780D02*
X0308794Y0121780D01*
X0308794Y0120182D02*
X0313509Y0120182D01*
X0311910Y0118583D02*
X0305201Y0118583D01*
X0303602Y0116985D02*
X0310312Y0116985D01*
X0308713Y0115386D02*
X0302004Y0115386D01*
X0300103Y0113788D02*
X0307115Y0113788D01*
X0305516Y0112189D02*
X0298577Y0112189D01*
X0298019Y0110591D02*
X0303918Y0110591D01*
X0302319Y0108992D02*
X0298019Y0108992D01*
X0298019Y0107394D02*
X0300721Y0107394D01*
X0299550Y0116892D02*
X0305219Y0122561D01*
X0301479Y0129773D02*
X0301479Y0129773D01*
X0301479Y0131372D02*
X0301479Y0131372D01*
X0301479Y0132970D02*
X0301479Y0132970D01*
X0304818Y0132970D02*
X0305384Y0132970D01*
X0297265Y0137766D02*
X0295673Y0137766D01*
X0296018Y0139364D02*
X0296920Y0139364D01*
X0296920Y0140963D02*
X0296018Y0140963D01*
X0296018Y0142561D02*
X0296920Y0142561D01*
X0296920Y0144160D02*
X0296018Y0144160D01*
X0295933Y0145758D02*
X0297005Y0145758D01*
X0298679Y0147357D02*
X0294259Y0147357D01*
X0294259Y0148955D02*
X0298679Y0148955D01*
X0298679Y0150554D02*
X0294259Y0150554D01*
X0294439Y0152152D02*
X0298679Y0152152D01*
X0298679Y0153751D02*
X0296229Y0153751D01*
X0298140Y0155349D02*
X0298679Y0155349D01*
X0298679Y0156948D02*
X0298508Y0156948D01*
X0298679Y0158546D02*
X0298094Y0158546D01*
X0298679Y0160145D02*
X0295961Y0160145D01*
X0294477Y0160145D02*
X0290543Y0160145D01*
X0292141Y0161743D02*
X0298679Y0161743D01*
X0298679Y0163342D02*
X0293740Y0163342D01*
X0295338Y0164940D02*
X0298679Y0164940D01*
X0298679Y0166539D02*
X0296937Y0166539D01*
X0298535Y0168137D02*
X0298679Y0168137D01*
X0297419Y0170981D02*
X0297419Y0234092D01*
X0330219Y0266892D01*
X0324858Y0268844D02*
X0305372Y0268844D01*
X0305919Y0267245D02*
X0324519Y0267245D01*
X0324565Y0265646D02*
X0305919Y0265646D01*
X0305418Y0264048D02*
X0323415Y0264048D01*
X0321817Y0262449D02*
X0304339Y0262449D01*
X0301741Y0260851D02*
X0320218Y0260851D01*
X0318619Y0259252D02*
X0297041Y0259252D01*
X0295443Y0257654D02*
X0317021Y0257654D01*
X0315422Y0256055D02*
X0293844Y0256055D01*
X0293019Y0254457D02*
X0313824Y0254457D01*
X0312225Y0252858D02*
X0293019Y0252858D01*
X0293019Y0251260D02*
X0310627Y0251260D01*
X0309028Y0249661D02*
X0293019Y0249661D01*
X0293019Y0248063D02*
X0307430Y0248063D01*
X0305831Y0246464D02*
X0293019Y0246464D01*
X0293019Y0244866D02*
X0304233Y0244866D01*
X0302634Y0243267D02*
X0293019Y0243267D01*
X0293019Y0241669D02*
X0301036Y0241669D01*
X0299437Y0240070D02*
X0293019Y0240070D01*
X0293019Y0238472D02*
X0297839Y0238472D01*
X0296240Y0236873D02*
X0293019Y0236873D01*
X0293019Y0235275D02*
X0294878Y0235275D01*
X0294619Y0233676D02*
X0293019Y0233676D01*
X0293019Y0232078D02*
X0294619Y0232078D01*
X0294619Y0230479D02*
X0293019Y0230479D01*
X0293019Y0228881D02*
X0294619Y0228881D01*
X0294619Y0227282D02*
X0293019Y0227282D01*
X0293019Y0225684D02*
X0294619Y0225684D01*
X0294619Y0224085D02*
X0293019Y0224085D01*
X0293019Y0222487D02*
X0294619Y0222487D01*
X0294619Y0220888D02*
X0293019Y0220888D01*
X0293019Y0219290D02*
X0294619Y0219290D01*
X0294619Y0217691D02*
X0293019Y0217691D01*
X0293019Y0216093D02*
X0294619Y0216093D01*
X0294619Y0214494D02*
X0293019Y0214494D01*
X0293019Y0212896D02*
X0294619Y0212896D01*
X0294619Y0211297D02*
X0293019Y0211297D01*
X0293019Y0209699D02*
X0294619Y0209699D01*
X0294619Y0208100D02*
X0293019Y0208100D01*
X0293019Y0206502D02*
X0294619Y0206502D01*
X0294619Y0204903D02*
X0293019Y0204903D01*
X0293019Y0203305D02*
X0294619Y0203305D01*
X0294619Y0201706D02*
X0293019Y0201706D01*
X0293019Y0200108D02*
X0294619Y0200108D01*
X0294619Y0198509D02*
X0293019Y0198509D01*
X0293019Y0196911D02*
X0294619Y0196911D01*
X0294619Y0195312D02*
X0293019Y0195312D01*
X0293019Y0193713D02*
X0294619Y0193713D01*
X0294619Y0192115D02*
X0293019Y0192115D01*
X0293019Y0190516D02*
X0294619Y0190516D01*
X0294619Y0188918D02*
X0293019Y0188918D01*
X0293019Y0187319D02*
X0294619Y0187319D01*
X0294619Y0185721D02*
X0293019Y0185721D01*
X0293019Y0184122D02*
X0294619Y0184122D01*
X0294619Y0182524D02*
X0293019Y0182524D01*
X0293019Y0180925D02*
X0294619Y0180925D01*
X0294619Y0179327D02*
X0293019Y0179327D01*
X0293019Y0177728D02*
X0294619Y0177728D01*
X0294619Y0176130D02*
X0293019Y0176130D01*
X0293019Y0174531D02*
X0294619Y0174531D01*
X0294619Y0172933D02*
X0293019Y0172933D01*
X0293019Y0171334D02*
X0293813Y0171334D01*
X0292214Y0169736D02*
X0292022Y0169736D01*
X0290616Y0168137D02*
X0290424Y0168137D01*
X0289017Y0166539D02*
X0288825Y0166539D01*
X0288610Y0162172D02*
X0283979Y0157541D01*
X0283979Y0141892D01*
X0279420Y0142561D02*
X0278518Y0142561D01*
X0278518Y0140963D02*
X0279420Y0140963D01*
X0279420Y0139364D02*
X0278518Y0139364D01*
X0278173Y0137766D02*
X0279765Y0137766D01*
X0279420Y0144160D02*
X0278518Y0144160D01*
X0278433Y0145758D02*
X0279505Y0145758D01*
X0278019Y0147357D02*
X0281179Y0147357D01*
X0281179Y0148955D02*
X0278019Y0148955D01*
X0278019Y0150554D02*
X0281179Y0150554D01*
X0281179Y0152152D02*
X0278019Y0152152D01*
X0278019Y0153751D02*
X0281179Y0153751D01*
X0281179Y0155349D02*
X0278140Y0155349D01*
X0278508Y0156948D02*
X0281179Y0156948D01*
X0281365Y0158546D02*
X0278094Y0158546D01*
X0275219Y0156892D02*
X0275219Y0143152D01*
X0273959Y0141892D01*
X0266479Y0141892D02*
X0255219Y0153152D01*
X0255219Y0157798D01*
X0255081Y0157935D01*
X0259317Y0162172D01*
X0288610Y0162172D01*
X0297419Y0170981D01*
X0290219Y0171892D02*
X0290219Y0256390D01*
X0300219Y0266390D01*
X0304228Y0270442D02*
X0325708Y0270442D01*
X0327754Y0272041D02*
X0301473Y0272041D01*
X0298965Y0272041D02*
X0291473Y0272041D01*
X0288965Y0272041D02*
X0281473Y0272041D01*
X0278965Y0272041D02*
X0271473Y0272041D01*
X0274228Y0270442D02*
X0276210Y0270442D01*
X0280219Y0266390D02*
X0280219Y0186892D01*
X0274747Y0181420D01*
X0255219Y0181420D01*
X0255219Y0173546D02*
X0281872Y0173546D01*
X0285219Y0176892D01*
X0285219Y0261892D01*
X0290219Y0266390D01*
X0294228Y0270442D02*
X0296210Y0270442D01*
X0286210Y0270442D02*
X0284228Y0270442D01*
X0270219Y0266390D02*
X0270219Y0211892D01*
X0263369Y0205042D01*
X0255219Y0205042D01*
X0254195Y0211892D02*
X0255219Y0212916D01*
X0238743Y0212916D01*
X0232719Y0206892D01*
X0225219Y0201706D02*
X0185219Y0201706D01*
X0185219Y0200108D02*
X0225219Y0200108D01*
X0225219Y0198509D02*
X0185219Y0198509D01*
X0185219Y0196911D02*
X0225219Y0196911D01*
X0225219Y0195312D02*
X0185219Y0195312D01*
X0185219Y0193713D02*
X0225219Y0193713D01*
X0225219Y0192115D02*
X0185219Y0192115D01*
X0182419Y0192115D02*
X0181619Y0192115D01*
X0181619Y0193713D02*
X0182419Y0193713D01*
X0182419Y0195312D02*
X0181619Y0195312D01*
X0181619Y0196911D02*
X0182419Y0196911D01*
X0182154Y0190516D02*
X0181619Y0190516D01*
X0181619Y0188918D02*
X0181637Y0188918D01*
X0181619Y0187319D02*
X0181637Y0187319D01*
X0181637Y0185721D02*
X0181526Y0185721D01*
X0181526Y0184122D02*
X0181683Y0184122D01*
X0181526Y0182524D02*
X0197419Y0182524D01*
X0197419Y0180925D02*
X0181526Y0180925D01*
X0181526Y0179327D02*
X0197419Y0179327D01*
X0197419Y0177728D02*
X0181526Y0177728D01*
X0181526Y0176130D02*
X0197419Y0176130D01*
X0197419Y0174531D02*
X0181526Y0174531D01*
X0181526Y0172933D02*
X0197419Y0172933D01*
X0197419Y0171334D02*
X0181526Y0171334D01*
X0181526Y0169736D02*
X0197419Y0169736D01*
X0197419Y0168137D02*
X0181526Y0168137D01*
X0181526Y0166539D02*
X0197419Y0166539D01*
X0197419Y0164940D02*
X0181526Y0164940D01*
X0181526Y0163342D02*
X0197419Y0163342D01*
X0197419Y0161743D02*
X0181526Y0161743D01*
X0181526Y0160145D02*
X0197419Y0160145D01*
X0197419Y0158546D02*
X0181526Y0158546D01*
X0181526Y0156948D02*
X0197419Y0156948D01*
X0197827Y0155349D02*
X0181526Y0155349D01*
X0181526Y0153751D02*
X0221638Y0153751D01*
X0221057Y0152152D02*
X0181526Y0152152D01*
X0181526Y0150554D02*
X0221057Y0150554D01*
X0221057Y0150849D02*
X0221057Y0149037D01*
X0221179Y0148579D01*
X0221416Y0148169D01*
X0221752Y0147834D01*
X0222162Y0147597D01*
X0222620Y0147474D01*
X0225219Y0147474D01*
X0227818Y0147474D01*
X0228276Y0147597D01*
X0228686Y0147834D01*
X0229022Y0148169D01*
X0229258Y0148579D01*
X0229381Y0149037D01*
X0229381Y0150849D01*
X0225219Y0150849D01*
X0225219Y0150849D01*
X0225219Y0150849D01*
X0221057Y0150849D01*
X0221079Y0148955D02*
X0181526Y0148955D01*
X0181526Y0147357D02*
X0257054Y0147357D01*
X0255456Y0148955D02*
X0244359Y0148955D01*
X0244381Y0149037D02*
X0244381Y0150849D01*
X0240219Y0150849D01*
X0240219Y0150849D01*
X0240219Y0150849D01*
X0236057Y0150849D01*
X0236057Y0149037D01*
X0236179Y0148579D01*
X0236416Y0148169D01*
X0236752Y0147834D01*
X0237162Y0147597D01*
X0237620Y0147474D01*
X0240219Y0147474D01*
X0242818Y0147474D01*
X0243276Y0147597D01*
X0243686Y0147834D01*
X0244022Y0148169D01*
X0244258Y0148579D01*
X0244381Y0149037D01*
X0244381Y0150554D02*
X0253857Y0150554D01*
X0252602Y0152152D02*
X0244381Y0152152D01*
X0243800Y0153751D02*
X0248432Y0153751D01*
X0245219Y0156948D02*
X0244381Y0156948D01*
X0244381Y0157935D02*
X0244381Y0159747D01*
X0244258Y0160205D01*
X0244022Y0160615D01*
X0243686Y0160951D01*
X0243276Y0161188D01*
X0242818Y0161310D01*
X0240219Y0161310D01*
X0240219Y0157936D01*
X0240219Y0157936D01*
X0240219Y0161310D01*
X0237620Y0161310D01*
X0237162Y0161188D01*
X0236752Y0160951D01*
X0236416Y0160615D01*
X0236179Y0160205D01*
X0236057Y0159747D01*
X0236057Y0157935D01*
X0240219Y0157935D01*
X0240219Y0157935D01*
X0225219Y0157935D01*
X0225219Y0157935D01*
X0229381Y0157935D01*
X0229381Y0159747D01*
X0229258Y0160205D01*
X0229022Y0160615D01*
X0228686Y0160951D01*
X0228276Y0161188D01*
X0227818Y0161310D01*
X0225219Y0161310D01*
X0225219Y0157936D01*
X0225219Y0157936D01*
X0225219Y0161310D01*
X0222620Y0161310D01*
X0222162Y0161188D01*
X0221752Y0160951D01*
X0221416Y0160615D01*
X0221179Y0160205D01*
X0221057Y0159747D01*
X0221057Y0157935D01*
X0225219Y0157935D01*
X0225219Y0158546D02*
X0225219Y0158546D01*
X0225219Y0160145D02*
X0225219Y0160145D01*
X0221163Y0160145D02*
X0200219Y0160145D01*
X0200219Y0161743D02*
X0245219Y0161743D01*
X0245219Y0160145D02*
X0244275Y0160145D01*
X0244381Y0158546D02*
X0245219Y0158546D01*
X0244381Y0157935D02*
X0240219Y0157935D01*
X0255081Y0157935D01*
X0245219Y0163342D02*
X0200219Y0163342D01*
X0200219Y0164940D02*
X0245219Y0164940D01*
X0245219Y0166539D02*
X0200219Y0166539D01*
X0200219Y0168137D02*
X0245219Y0168137D01*
X0245219Y0169736D02*
X0200219Y0169736D01*
X0200219Y0171334D02*
X0245219Y0171334D01*
X0245219Y0172933D02*
X0200219Y0172933D01*
X0200219Y0174531D02*
X0245219Y0174531D01*
X0245219Y0176130D02*
X0200219Y0176130D01*
X0200219Y0177728D02*
X0245219Y0177728D01*
X0245219Y0179327D02*
X0200219Y0179327D01*
X0200219Y0180925D02*
X0245219Y0180925D01*
X0240317Y0189294D02*
X0232719Y0196892D01*
X0225219Y0190516D02*
X0205370Y0190516D01*
X0205527Y0190360D02*
X0205192Y0190695D01*
X0204782Y0190932D01*
X0204324Y0191054D01*
X0202512Y0191054D01*
X0202512Y0186892D01*
X0202512Y0186892D01*
X0202512Y0182730D01*
X0204324Y0182730D01*
X0204782Y0182853D01*
X0205192Y0183090D01*
X0205527Y0183425D01*
X0205764Y0183835D01*
X0205887Y0184293D01*
X0205887Y0186892D01*
X0202512Y0186892D01*
X0202512Y0186892D01*
X0205887Y0186892D01*
X0205887Y0189491D01*
X0205764Y0189949D01*
X0205527Y0190360D01*
X0205887Y0188918D02*
X0225219Y0188918D01*
X0225219Y0187319D02*
X0205887Y0187319D01*
X0205887Y0185721D02*
X0225219Y0185721D01*
X0225219Y0184122D02*
X0205841Y0184122D01*
X0202512Y0184122D02*
X0202512Y0184122D01*
X0202512Y0185721D02*
X0202512Y0185721D01*
X0202512Y0187319D02*
X0202512Y0187319D01*
X0202512Y0188918D02*
X0202512Y0188918D01*
X0202512Y0190516D02*
X0202512Y0190516D01*
X0195426Y0186892D02*
X0195426Y0182730D01*
X0195426Y0186892D01*
X0195426Y0186892D01*
X0192051Y0186892D01*
X0195426Y0186892D01*
X0195426Y0186892D01*
X0195426Y0185721D02*
X0195426Y0185721D01*
X0195426Y0184122D02*
X0195426Y0184122D01*
X0192097Y0184122D02*
X0188341Y0184122D01*
X0188387Y0185721D02*
X0192051Y0185721D01*
X0192051Y0187319D02*
X0188387Y0187319D01*
X0188387Y0188918D02*
X0192051Y0188918D01*
X0185012Y0185721D02*
X0185012Y0185721D01*
X0185012Y0184122D02*
X0185012Y0184122D01*
X0174326Y0184122D02*
X0155276Y0184122D01*
X0155280Y0182524D02*
X0174326Y0182524D01*
X0174326Y0180925D02*
X0155284Y0180925D01*
X0155288Y0179327D02*
X0174326Y0179327D01*
X0174326Y0177728D02*
X0155292Y0177728D01*
X0155296Y0176130D02*
X0174326Y0176130D01*
X0174326Y0174531D02*
X0155300Y0174531D01*
X0155304Y0172933D02*
X0174326Y0172933D01*
X0174326Y0171334D02*
X0155308Y0171334D01*
X0155312Y0169736D02*
X0174326Y0169736D01*
X0174326Y0168137D02*
X0155316Y0168137D01*
X0155320Y0166539D02*
X0174326Y0166539D01*
X0174326Y0164940D02*
X0155324Y0164940D01*
X0155328Y0163342D02*
X0174326Y0163342D01*
X0174326Y0161743D02*
X0155332Y0161743D01*
X0155336Y0160145D02*
X0174326Y0160145D01*
X0174326Y0158546D02*
X0155340Y0158546D01*
X0155344Y0156948D02*
X0174326Y0156948D01*
X0174326Y0155349D02*
X0155348Y0155349D01*
X0155352Y0153751D02*
X0174326Y0153751D01*
X0174326Y0152152D02*
X0155356Y0152152D01*
X0155360Y0150554D02*
X0174326Y0150554D01*
X0174326Y0148955D02*
X0155364Y0148955D01*
X0155368Y0147357D02*
X0174326Y0147357D01*
X0174326Y0145758D02*
X0155372Y0145758D01*
X0155376Y0144160D02*
X0174326Y0144160D01*
X0174326Y0142561D02*
X0155380Y0142561D01*
X0155384Y0140963D02*
X0174326Y0140963D01*
X0174326Y0139364D02*
X0155388Y0139364D01*
X0155392Y0137766D02*
X0174326Y0137766D01*
X0174326Y0136167D02*
X0155396Y0136167D01*
X0155400Y0134569D02*
X0174326Y0134569D01*
X0174532Y0132970D02*
X0155404Y0132970D01*
X0155408Y0131372D02*
X0175648Y0131372D01*
X0175886Y0131134D02*
X0175886Y0131134D01*
X0177247Y0129773D02*
X0155412Y0129773D01*
X0155416Y0128175D02*
X0220876Y0128175D01*
X0221619Y0126576D02*
X0155420Y0126576D01*
X0155424Y0124977D02*
X0221619Y0124977D01*
X0221619Y0123379D02*
X0155428Y0123379D01*
X0155432Y0121780D02*
X0221619Y0121780D01*
X0222031Y0120182D02*
X0155436Y0120182D01*
X0155440Y0118583D02*
X0223436Y0118583D01*
X0225035Y0116985D02*
X0155444Y0116985D01*
X0155448Y0115386D02*
X0226633Y0115386D01*
X0228306Y0113788D02*
X0155452Y0113788D01*
X0155456Y0112189D02*
X0261619Y0112189D01*
X0261619Y0110591D02*
X0155460Y0110591D01*
X0155464Y0108992D02*
X0261619Y0108992D01*
X0262044Y0107394D02*
X0155468Y0107394D01*
X0181526Y0136167D02*
X0221433Y0136167D01*
X0229005Y0136167D02*
X0231433Y0136167D01*
X0235219Y0131892D02*
X0250229Y0131892D01*
X0246164Y0136167D02*
X0239005Y0136167D01*
X0240219Y0147474D02*
X0240219Y0150849D01*
X0240219Y0147474D01*
X0240219Y0148955D02*
X0240219Y0148955D01*
X0240219Y0150554D02*
X0240219Y0150554D01*
X0240219Y0150849D02*
X0240219Y0150849D01*
X0236057Y0150554D02*
X0229381Y0150554D01*
X0229381Y0152152D02*
X0236057Y0152152D01*
X0236638Y0153751D02*
X0228800Y0153751D01*
X0229381Y0156948D02*
X0236057Y0156948D01*
X0236057Y0158546D02*
X0229381Y0158546D01*
X0229275Y0160145D02*
X0236163Y0160145D01*
X0240219Y0160145D02*
X0240219Y0160145D01*
X0240219Y0158546D02*
X0240219Y0158546D01*
X0236079Y0148955D02*
X0229359Y0148955D01*
X0225219Y0148955D02*
X0225219Y0148955D01*
X0225219Y0147474D02*
X0225219Y0150849D01*
X0225219Y0150849D01*
X0225219Y0147474D01*
X0225219Y0150554D02*
X0225219Y0150554D01*
X0221057Y0156948D02*
X0200219Y0156948D01*
X0200219Y0158546D02*
X0221057Y0158546D01*
X0225219Y0182524D02*
X0200219Y0182524D01*
X0174326Y0185721D02*
X0155272Y0185721D01*
X0155268Y0187319D02*
X0174326Y0187319D01*
X0174351Y0188918D02*
X0155264Y0188918D01*
X0155260Y0190516D02*
X0174419Y0190516D01*
X0174419Y0192115D02*
X0155256Y0192115D01*
X0155252Y0193713D02*
X0174419Y0193713D01*
X0174419Y0195312D02*
X0155248Y0195312D01*
X0185219Y0212896D02*
X0196289Y0212896D01*
X0196289Y0214494D02*
X0185219Y0214494D01*
X0185219Y0216093D02*
X0196289Y0216093D01*
X0196289Y0217691D02*
X0185219Y0217691D01*
X0185219Y0219290D02*
X0197193Y0219290D01*
X0201620Y0219290D02*
X0203220Y0219290D01*
X0203220Y0217691D02*
X0201620Y0217691D01*
X0201620Y0216093D02*
X0203220Y0216093D01*
X0203220Y0214494D02*
X0201620Y0214494D01*
X0201620Y0212896D02*
X0203220Y0212896D01*
X0208550Y0212896D02*
X0225219Y0212896D01*
X0225219Y0214494D02*
X0208550Y0214494D01*
X0208550Y0216093D02*
X0225219Y0216093D01*
X0224420Y0217691D02*
X0208550Y0217691D01*
X0207647Y0219290D02*
X0222821Y0219290D01*
X0221223Y0220888D02*
X0185219Y0220888D01*
X0185219Y0222487D02*
X0220219Y0222487D01*
X0220219Y0224085D02*
X0185219Y0224085D01*
X0185219Y0225684D02*
X0220219Y0225684D01*
X0220219Y0227282D02*
X0185219Y0227282D01*
X0182419Y0227282D02*
X0168819Y0227282D01*
X0168819Y0225684D02*
X0182419Y0225684D01*
X0182419Y0228881D02*
X0168819Y0228881D01*
X0168819Y0230479D02*
X0182419Y0230479D01*
X0182419Y0232078D02*
X0168819Y0232078D01*
X0168819Y0233676D02*
X0182419Y0233676D01*
X0182419Y0235275D02*
X0169540Y0235275D01*
X0169975Y0236873D02*
X0182419Y0236873D01*
X0182419Y0238472D02*
X0169975Y0238472D01*
X0169975Y0240070D02*
X0182419Y0240070D01*
X0182419Y0241669D02*
X0169975Y0241669D01*
X0171134Y0243267D02*
X0182419Y0243267D01*
X0182419Y0244866D02*
X0172733Y0244866D01*
X0174331Y0246464D02*
X0182419Y0246464D01*
X0182673Y0248063D02*
X0175930Y0248063D01*
X0177528Y0249661D02*
X0184588Y0249661D01*
X0204943Y0264048D02*
X0252771Y0264048D01*
X0241219Y0267245D02*
X0241219Y0267245D01*
X0241219Y0268844D02*
X0241219Y0268844D01*
X0241219Y0269392D02*
X0236419Y0269392D01*
X0236419Y0271129D01*
X0236542Y0271587D01*
X0236779Y0271997D01*
X0237114Y0272332D01*
X0237524Y0272569D01*
X0237982Y0272692D01*
X0241219Y0272692D01*
X0241219Y0269392D01*
X0241219Y0269392D01*
X0241219Y0270442D02*
X0241219Y0270442D01*
X0241219Y0272041D02*
X0241219Y0272041D01*
X0236822Y0272041D02*
X0223616Y0272041D01*
X0224019Y0270442D02*
X0236419Y0270442D01*
X0236419Y0268844D02*
X0224019Y0268844D01*
X0223909Y0267245D02*
X0236529Y0267245D01*
X0237152Y0257654D02*
X0223286Y0257654D01*
X0219219Y0267245D02*
X0219219Y0267245D01*
X0219219Y0268844D02*
X0219219Y0268844D01*
X0219219Y0270442D02*
X0219219Y0270442D01*
X0219219Y0272041D02*
X0219219Y0272041D01*
X0255219Y0241892D02*
X0255219Y0212916D01*
X0233979Y0229392D02*
X0218969Y0229392D01*
X0223019Y0233676D02*
X0229923Y0233676D01*
X0255219Y0197168D02*
X0264943Y0197168D01*
X0270219Y0191892D01*
X0255219Y0189294D02*
X0240317Y0189294D01*
X0255219Y0165672D02*
X0283998Y0165672D01*
X0290219Y0171892D01*
X0301479Y0183152D02*
X0307621Y0189294D01*
X0318211Y0189294D01*
X0357817Y0189294D01*
X0360219Y0186892D01*
X0360219Y0196892D02*
X0359943Y0197168D01*
X0318211Y0197168D01*
X0310306Y0196911D02*
X0300219Y0196911D01*
X0300219Y0198509D02*
X0310306Y0198509D01*
X0310317Y0200108D02*
X0300219Y0200108D01*
X0300219Y0201706D02*
X0310713Y0201706D01*
X0310306Y0203305D02*
X0300219Y0203305D01*
X0300219Y0204903D02*
X0310306Y0204903D01*
X0310306Y0206502D02*
X0300219Y0206502D01*
X0300219Y0208100D02*
X0310436Y0208100D01*
X0310594Y0209699D02*
X0300219Y0209699D01*
X0300219Y0211297D02*
X0310306Y0211297D01*
X0310306Y0212896D02*
X0300219Y0212896D01*
X0300219Y0214494D02*
X0310306Y0214494D01*
X0310554Y0216093D02*
X0300219Y0216093D01*
X0300219Y0217691D02*
X0354519Y0217691D01*
X0354519Y0216093D02*
X0325868Y0216093D01*
X0318211Y0212916D02*
X0356243Y0212916D01*
X0360219Y0216892D01*
X0356154Y0220888D02*
X0300219Y0220888D01*
X0300219Y0219290D02*
X0355042Y0219290D01*
X0360219Y0206892D02*
X0358369Y0205042D01*
X0318211Y0205042D01*
X0310306Y0195312D02*
X0300219Y0195312D01*
X0300219Y0193713D02*
X0310831Y0193713D01*
X0310306Y0192115D02*
X0300219Y0192115D01*
X0300219Y0190516D02*
X0304884Y0190516D01*
X0303285Y0188918D02*
X0300219Y0188918D01*
X0300219Y0187319D02*
X0301686Y0187319D01*
X0301479Y0183152D02*
X0301479Y0141892D01*
X0291459Y0141892D02*
X0291459Y0153132D01*
X0295219Y0156892D01*
X0292344Y0158546D02*
X0288944Y0158546D01*
X0287346Y0156948D02*
X0291315Y0156948D01*
X0289716Y0155349D02*
X0286779Y0155349D01*
X0286779Y0153751D02*
X0288685Y0153751D01*
X0288659Y0152152D02*
X0286779Y0152152D01*
X0286779Y0150554D02*
X0288659Y0150554D01*
X0288659Y0148955D02*
X0286779Y0148955D01*
X0286779Y0147357D02*
X0288659Y0147357D01*
X0261850Y0142561D02*
X0181526Y0142561D01*
X0181526Y0140963D02*
X0261920Y0140963D01*
X0261920Y0139364D02*
X0181526Y0139364D01*
X0181526Y0137766D02*
X0262265Y0137766D01*
X0260251Y0144160D02*
X0181526Y0144160D01*
X0181526Y0145758D02*
X0258653Y0145758D01*
X0295219Y0116892D02*
X0295219Y0075642D01*
X0290219Y0069392D01*
X0290091Y0049264D01*
X0283841Y0043270D01*
X0160898Y0235275D02*
X0130057Y0235275D01*
X0131656Y0236873D02*
X0160463Y0236873D01*
X0050511Y0273639D02*
X0358510Y0273639D01*
X0356066Y0272041D02*
X0342172Y0272041D01*
X0340419Y0272041D02*
X0340019Y0272041D01*
X0340019Y0270442D02*
X0340419Y0270442D01*
X0340419Y0268844D02*
X0340019Y0268844D01*
X0340019Y0267245D02*
X0340419Y0267245D01*
X0340419Y0265646D02*
X0340019Y0265646D01*
X0340019Y0264048D02*
X0340419Y0264048D01*
X0340419Y0262449D02*
X0340019Y0262449D01*
X0336977Y0262449D02*
X0333837Y0262449D01*
X0335210Y0264048D02*
X0335495Y0264048D01*
X0336000Y0270442D02*
X0334730Y0270442D01*
X0332684Y0272041D02*
X0338266Y0272041D01*
X0344438Y0270442D02*
X0354557Y0270442D01*
X0353895Y0268844D02*
X0345368Y0268844D01*
X0345719Y0267245D02*
X0353298Y0267245D01*
X0353298Y0265646D02*
X0345590Y0265646D01*
X0344943Y0264048D02*
X0353298Y0264048D01*
X0353916Y0262449D02*
X0343461Y0262449D01*
X0354578Y0260851D02*
X0328138Y0260851D01*
X0326539Y0259252D02*
X0356116Y0259252D01*
X0358631Y0257654D02*
X0324941Y0257654D01*
X0298697Y0260851D02*
X0298640Y0260851D01*
D29*
X0325219Y0231892D03*
X0330219Y0231892D03*
X0330219Y0226892D03*
X0325219Y0226892D03*
X0310219Y0181892D03*
X0295219Y0156892D03*
X0275219Y0156892D03*
X0320219Y0126892D03*
X0325219Y0126892D03*
X0340219Y0156892D03*
X0345219Y0156892D03*
X0270219Y0191892D03*
X0195219Y0146892D03*
X0195219Y0141892D03*
X0190219Y0141892D03*
X0190219Y0146892D03*
M02*
