%
M48
M72
T01C0.01378
T02C0.03200
T03C0.03543
T04C0.04000
T05C0.04724
T06C0.05118
T07C0.05200
T08C0.13386
%
T01
X190219Y146892
X190219Y141892
X195219Y141892
X195219Y146892
X270219Y191892
X310219Y181892
X295219Y156892
X275219Y156892
X320219Y126892
X325219Y126892
X340219Y156892
X345219Y156892
X330219Y226892
X325219Y226892
X325219Y231892
X330219Y231892
T02
X80219Y91892
X110219Y91892
X225219Y131892
X235219Y131892
X350219Y146892
X360219Y146892
T03
X265219Y116892
X295219Y116892
T04
X190219Y266892
X200219Y266892
X260219Y266390
X270219Y266390
X280219Y266390
X290219Y266390
X300219Y266390
X330219Y266892
X340219Y266892
X360219Y216892
X360219Y206892
X360219Y196892
X360219Y186892
X360219Y176892
X360219Y166892
X232719Y196892
X232719Y206892
T05
X85140Y125947
X104825Y125947
X125298Y241695
X64668Y241695
T06
X105219Y14392
X124904Y14392
X275967Y66892
X283841Y43270
X313469Y15392
X333154Y15392
X331872Y43270
X331872Y90514
X283841Y90514
T07
X55919Y51892
X144519Y51892
X160919Y51892
X249519Y51892
T08
X47030Y265672
X361991Y265672
X361991Y13703
X47030Y13703
M30
