G75*
%MOIN*%
%OFA0B0*%
%FSLAX25Y25*%
%IPPOS*%
%LPD*%
%AMOC8*
5,1,8,0,0,1.08239X$1,22.5*
%
%ADD10C,0.00000*%
%ADD11C,0.07400*%
%ADD12C,0.10000*%
%ADD13OC8,0.11811*%
%ADD14R,0.08000X0.08000*%
%ADD15C,0.08000*%
%ADD16C,0.07677*%
%ADD17OC8,0.05200*%
%ADD18C,0.02578*%
%ADD19C,0.01600*%
D10*
X0035219Y0001892D02*
X0035219Y0273546D01*
X0039156Y0277483D01*
X0373802Y0277483D01*
X0373802Y0001892D01*
X0035219Y0001892D01*
X0040337Y0013703D02*
X0040339Y0013867D01*
X0040345Y0014031D01*
X0040355Y0014195D01*
X0040369Y0014359D01*
X0040387Y0014522D01*
X0040409Y0014685D01*
X0040436Y0014847D01*
X0040466Y0015009D01*
X0040500Y0015169D01*
X0040538Y0015329D01*
X0040579Y0015488D01*
X0040625Y0015646D01*
X0040675Y0015802D01*
X0040728Y0015958D01*
X0040785Y0016112D01*
X0040846Y0016264D01*
X0040911Y0016415D01*
X0040980Y0016565D01*
X0041052Y0016712D01*
X0041127Y0016858D01*
X0041207Y0017002D01*
X0041289Y0017144D01*
X0041375Y0017284D01*
X0041465Y0017421D01*
X0041558Y0017557D01*
X0041654Y0017690D01*
X0041754Y0017821D01*
X0041856Y0017949D01*
X0041962Y0018075D01*
X0042071Y0018198D01*
X0042183Y0018318D01*
X0042297Y0018436D01*
X0042415Y0018550D01*
X0042535Y0018662D01*
X0042658Y0018771D01*
X0042784Y0018877D01*
X0042912Y0018979D01*
X0043043Y0019079D01*
X0043176Y0019175D01*
X0043312Y0019268D01*
X0043449Y0019358D01*
X0043589Y0019444D01*
X0043731Y0019526D01*
X0043875Y0019606D01*
X0044021Y0019681D01*
X0044168Y0019753D01*
X0044318Y0019822D01*
X0044469Y0019887D01*
X0044621Y0019948D01*
X0044775Y0020005D01*
X0044931Y0020058D01*
X0045087Y0020108D01*
X0045245Y0020154D01*
X0045404Y0020195D01*
X0045564Y0020233D01*
X0045724Y0020267D01*
X0045886Y0020297D01*
X0046048Y0020324D01*
X0046211Y0020346D01*
X0046374Y0020364D01*
X0046538Y0020378D01*
X0046702Y0020388D01*
X0046866Y0020394D01*
X0047030Y0020396D01*
X0047194Y0020394D01*
X0047358Y0020388D01*
X0047522Y0020378D01*
X0047686Y0020364D01*
X0047849Y0020346D01*
X0048012Y0020324D01*
X0048174Y0020297D01*
X0048336Y0020267D01*
X0048496Y0020233D01*
X0048656Y0020195D01*
X0048815Y0020154D01*
X0048973Y0020108D01*
X0049129Y0020058D01*
X0049285Y0020005D01*
X0049439Y0019948D01*
X0049591Y0019887D01*
X0049742Y0019822D01*
X0049892Y0019753D01*
X0050039Y0019681D01*
X0050185Y0019606D01*
X0050329Y0019526D01*
X0050471Y0019444D01*
X0050611Y0019358D01*
X0050748Y0019268D01*
X0050884Y0019175D01*
X0051017Y0019079D01*
X0051148Y0018979D01*
X0051276Y0018877D01*
X0051402Y0018771D01*
X0051525Y0018662D01*
X0051645Y0018550D01*
X0051763Y0018436D01*
X0051877Y0018318D01*
X0051989Y0018198D01*
X0052098Y0018075D01*
X0052204Y0017949D01*
X0052306Y0017821D01*
X0052406Y0017690D01*
X0052502Y0017557D01*
X0052595Y0017421D01*
X0052685Y0017284D01*
X0052771Y0017144D01*
X0052853Y0017002D01*
X0052933Y0016858D01*
X0053008Y0016712D01*
X0053080Y0016565D01*
X0053149Y0016415D01*
X0053214Y0016264D01*
X0053275Y0016112D01*
X0053332Y0015958D01*
X0053385Y0015802D01*
X0053435Y0015646D01*
X0053481Y0015488D01*
X0053522Y0015329D01*
X0053560Y0015169D01*
X0053594Y0015009D01*
X0053624Y0014847D01*
X0053651Y0014685D01*
X0053673Y0014522D01*
X0053691Y0014359D01*
X0053705Y0014195D01*
X0053715Y0014031D01*
X0053721Y0013867D01*
X0053723Y0013703D01*
X0053721Y0013539D01*
X0053715Y0013375D01*
X0053705Y0013211D01*
X0053691Y0013047D01*
X0053673Y0012884D01*
X0053651Y0012721D01*
X0053624Y0012559D01*
X0053594Y0012397D01*
X0053560Y0012237D01*
X0053522Y0012077D01*
X0053481Y0011918D01*
X0053435Y0011760D01*
X0053385Y0011604D01*
X0053332Y0011448D01*
X0053275Y0011294D01*
X0053214Y0011142D01*
X0053149Y0010991D01*
X0053080Y0010841D01*
X0053008Y0010694D01*
X0052933Y0010548D01*
X0052853Y0010404D01*
X0052771Y0010262D01*
X0052685Y0010122D01*
X0052595Y0009985D01*
X0052502Y0009849D01*
X0052406Y0009716D01*
X0052306Y0009585D01*
X0052204Y0009457D01*
X0052098Y0009331D01*
X0051989Y0009208D01*
X0051877Y0009088D01*
X0051763Y0008970D01*
X0051645Y0008856D01*
X0051525Y0008744D01*
X0051402Y0008635D01*
X0051276Y0008529D01*
X0051148Y0008427D01*
X0051017Y0008327D01*
X0050884Y0008231D01*
X0050748Y0008138D01*
X0050611Y0008048D01*
X0050471Y0007962D01*
X0050329Y0007880D01*
X0050185Y0007800D01*
X0050039Y0007725D01*
X0049892Y0007653D01*
X0049742Y0007584D01*
X0049591Y0007519D01*
X0049439Y0007458D01*
X0049285Y0007401D01*
X0049129Y0007348D01*
X0048973Y0007298D01*
X0048815Y0007252D01*
X0048656Y0007211D01*
X0048496Y0007173D01*
X0048336Y0007139D01*
X0048174Y0007109D01*
X0048012Y0007082D01*
X0047849Y0007060D01*
X0047686Y0007042D01*
X0047522Y0007028D01*
X0047358Y0007018D01*
X0047194Y0007012D01*
X0047030Y0007010D01*
X0046866Y0007012D01*
X0046702Y0007018D01*
X0046538Y0007028D01*
X0046374Y0007042D01*
X0046211Y0007060D01*
X0046048Y0007082D01*
X0045886Y0007109D01*
X0045724Y0007139D01*
X0045564Y0007173D01*
X0045404Y0007211D01*
X0045245Y0007252D01*
X0045087Y0007298D01*
X0044931Y0007348D01*
X0044775Y0007401D01*
X0044621Y0007458D01*
X0044469Y0007519D01*
X0044318Y0007584D01*
X0044168Y0007653D01*
X0044021Y0007725D01*
X0043875Y0007800D01*
X0043731Y0007880D01*
X0043589Y0007962D01*
X0043449Y0008048D01*
X0043312Y0008138D01*
X0043176Y0008231D01*
X0043043Y0008327D01*
X0042912Y0008427D01*
X0042784Y0008529D01*
X0042658Y0008635D01*
X0042535Y0008744D01*
X0042415Y0008856D01*
X0042297Y0008970D01*
X0042183Y0009088D01*
X0042071Y0009208D01*
X0041962Y0009331D01*
X0041856Y0009457D01*
X0041754Y0009585D01*
X0041654Y0009716D01*
X0041558Y0009849D01*
X0041465Y0009985D01*
X0041375Y0010122D01*
X0041289Y0010262D01*
X0041207Y0010404D01*
X0041127Y0010548D01*
X0041052Y0010694D01*
X0040980Y0010841D01*
X0040911Y0010991D01*
X0040846Y0011142D01*
X0040785Y0011294D01*
X0040728Y0011448D01*
X0040675Y0011604D01*
X0040625Y0011760D01*
X0040579Y0011918D01*
X0040538Y0012077D01*
X0040500Y0012237D01*
X0040466Y0012397D01*
X0040436Y0012559D01*
X0040409Y0012721D01*
X0040387Y0012884D01*
X0040369Y0013047D01*
X0040355Y0013211D01*
X0040345Y0013375D01*
X0040339Y0013539D01*
X0040337Y0013703D01*
X0355298Y0013703D02*
X0355300Y0013867D01*
X0355306Y0014031D01*
X0355316Y0014195D01*
X0355330Y0014359D01*
X0355348Y0014522D01*
X0355370Y0014685D01*
X0355397Y0014847D01*
X0355427Y0015009D01*
X0355461Y0015169D01*
X0355499Y0015329D01*
X0355540Y0015488D01*
X0355586Y0015646D01*
X0355636Y0015802D01*
X0355689Y0015958D01*
X0355746Y0016112D01*
X0355807Y0016264D01*
X0355872Y0016415D01*
X0355941Y0016565D01*
X0356013Y0016712D01*
X0356088Y0016858D01*
X0356168Y0017002D01*
X0356250Y0017144D01*
X0356336Y0017284D01*
X0356426Y0017421D01*
X0356519Y0017557D01*
X0356615Y0017690D01*
X0356715Y0017821D01*
X0356817Y0017949D01*
X0356923Y0018075D01*
X0357032Y0018198D01*
X0357144Y0018318D01*
X0357258Y0018436D01*
X0357376Y0018550D01*
X0357496Y0018662D01*
X0357619Y0018771D01*
X0357745Y0018877D01*
X0357873Y0018979D01*
X0358004Y0019079D01*
X0358137Y0019175D01*
X0358273Y0019268D01*
X0358410Y0019358D01*
X0358550Y0019444D01*
X0358692Y0019526D01*
X0358836Y0019606D01*
X0358982Y0019681D01*
X0359129Y0019753D01*
X0359279Y0019822D01*
X0359430Y0019887D01*
X0359582Y0019948D01*
X0359736Y0020005D01*
X0359892Y0020058D01*
X0360048Y0020108D01*
X0360206Y0020154D01*
X0360365Y0020195D01*
X0360525Y0020233D01*
X0360685Y0020267D01*
X0360847Y0020297D01*
X0361009Y0020324D01*
X0361172Y0020346D01*
X0361335Y0020364D01*
X0361499Y0020378D01*
X0361663Y0020388D01*
X0361827Y0020394D01*
X0361991Y0020396D01*
X0362155Y0020394D01*
X0362319Y0020388D01*
X0362483Y0020378D01*
X0362647Y0020364D01*
X0362810Y0020346D01*
X0362973Y0020324D01*
X0363135Y0020297D01*
X0363297Y0020267D01*
X0363457Y0020233D01*
X0363617Y0020195D01*
X0363776Y0020154D01*
X0363934Y0020108D01*
X0364090Y0020058D01*
X0364246Y0020005D01*
X0364400Y0019948D01*
X0364552Y0019887D01*
X0364703Y0019822D01*
X0364853Y0019753D01*
X0365000Y0019681D01*
X0365146Y0019606D01*
X0365290Y0019526D01*
X0365432Y0019444D01*
X0365572Y0019358D01*
X0365709Y0019268D01*
X0365845Y0019175D01*
X0365978Y0019079D01*
X0366109Y0018979D01*
X0366237Y0018877D01*
X0366363Y0018771D01*
X0366486Y0018662D01*
X0366606Y0018550D01*
X0366724Y0018436D01*
X0366838Y0018318D01*
X0366950Y0018198D01*
X0367059Y0018075D01*
X0367165Y0017949D01*
X0367267Y0017821D01*
X0367367Y0017690D01*
X0367463Y0017557D01*
X0367556Y0017421D01*
X0367646Y0017284D01*
X0367732Y0017144D01*
X0367814Y0017002D01*
X0367894Y0016858D01*
X0367969Y0016712D01*
X0368041Y0016565D01*
X0368110Y0016415D01*
X0368175Y0016264D01*
X0368236Y0016112D01*
X0368293Y0015958D01*
X0368346Y0015802D01*
X0368396Y0015646D01*
X0368442Y0015488D01*
X0368483Y0015329D01*
X0368521Y0015169D01*
X0368555Y0015009D01*
X0368585Y0014847D01*
X0368612Y0014685D01*
X0368634Y0014522D01*
X0368652Y0014359D01*
X0368666Y0014195D01*
X0368676Y0014031D01*
X0368682Y0013867D01*
X0368684Y0013703D01*
X0368682Y0013539D01*
X0368676Y0013375D01*
X0368666Y0013211D01*
X0368652Y0013047D01*
X0368634Y0012884D01*
X0368612Y0012721D01*
X0368585Y0012559D01*
X0368555Y0012397D01*
X0368521Y0012237D01*
X0368483Y0012077D01*
X0368442Y0011918D01*
X0368396Y0011760D01*
X0368346Y0011604D01*
X0368293Y0011448D01*
X0368236Y0011294D01*
X0368175Y0011142D01*
X0368110Y0010991D01*
X0368041Y0010841D01*
X0367969Y0010694D01*
X0367894Y0010548D01*
X0367814Y0010404D01*
X0367732Y0010262D01*
X0367646Y0010122D01*
X0367556Y0009985D01*
X0367463Y0009849D01*
X0367367Y0009716D01*
X0367267Y0009585D01*
X0367165Y0009457D01*
X0367059Y0009331D01*
X0366950Y0009208D01*
X0366838Y0009088D01*
X0366724Y0008970D01*
X0366606Y0008856D01*
X0366486Y0008744D01*
X0366363Y0008635D01*
X0366237Y0008529D01*
X0366109Y0008427D01*
X0365978Y0008327D01*
X0365845Y0008231D01*
X0365709Y0008138D01*
X0365572Y0008048D01*
X0365432Y0007962D01*
X0365290Y0007880D01*
X0365146Y0007800D01*
X0365000Y0007725D01*
X0364853Y0007653D01*
X0364703Y0007584D01*
X0364552Y0007519D01*
X0364400Y0007458D01*
X0364246Y0007401D01*
X0364090Y0007348D01*
X0363934Y0007298D01*
X0363776Y0007252D01*
X0363617Y0007211D01*
X0363457Y0007173D01*
X0363297Y0007139D01*
X0363135Y0007109D01*
X0362973Y0007082D01*
X0362810Y0007060D01*
X0362647Y0007042D01*
X0362483Y0007028D01*
X0362319Y0007018D01*
X0362155Y0007012D01*
X0361991Y0007010D01*
X0361827Y0007012D01*
X0361663Y0007018D01*
X0361499Y0007028D01*
X0361335Y0007042D01*
X0361172Y0007060D01*
X0361009Y0007082D01*
X0360847Y0007109D01*
X0360685Y0007139D01*
X0360525Y0007173D01*
X0360365Y0007211D01*
X0360206Y0007252D01*
X0360048Y0007298D01*
X0359892Y0007348D01*
X0359736Y0007401D01*
X0359582Y0007458D01*
X0359430Y0007519D01*
X0359279Y0007584D01*
X0359129Y0007653D01*
X0358982Y0007725D01*
X0358836Y0007800D01*
X0358692Y0007880D01*
X0358550Y0007962D01*
X0358410Y0008048D01*
X0358273Y0008138D01*
X0358137Y0008231D01*
X0358004Y0008327D01*
X0357873Y0008427D01*
X0357745Y0008529D01*
X0357619Y0008635D01*
X0357496Y0008744D01*
X0357376Y0008856D01*
X0357258Y0008970D01*
X0357144Y0009088D01*
X0357032Y0009208D01*
X0356923Y0009331D01*
X0356817Y0009457D01*
X0356715Y0009585D01*
X0356615Y0009716D01*
X0356519Y0009849D01*
X0356426Y0009985D01*
X0356336Y0010122D01*
X0356250Y0010262D01*
X0356168Y0010404D01*
X0356088Y0010548D01*
X0356013Y0010694D01*
X0355941Y0010841D01*
X0355872Y0010991D01*
X0355807Y0011142D01*
X0355746Y0011294D01*
X0355689Y0011448D01*
X0355636Y0011604D01*
X0355586Y0011760D01*
X0355540Y0011918D01*
X0355499Y0012077D01*
X0355461Y0012237D01*
X0355427Y0012397D01*
X0355397Y0012559D01*
X0355370Y0012721D01*
X0355348Y0012884D01*
X0355330Y0013047D01*
X0355316Y0013211D01*
X0355306Y0013375D01*
X0355300Y0013539D01*
X0355298Y0013703D01*
X0355298Y0265672D02*
X0355300Y0265836D01*
X0355306Y0266000D01*
X0355316Y0266164D01*
X0355330Y0266328D01*
X0355348Y0266491D01*
X0355370Y0266654D01*
X0355397Y0266816D01*
X0355427Y0266978D01*
X0355461Y0267138D01*
X0355499Y0267298D01*
X0355540Y0267457D01*
X0355586Y0267615D01*
X0355636Y0267771D01*
X0355689Y0267927D01*
X0355746Y0268081D01*
X0355807Y0268233D01*
X0355872Y0268384D01*
X0355941Y0268534D01*
X0356013Y0268681D01*
X0356088Y0268827D01*
X0356168Y0268971D01*
X0356250Y0269113D01*
X0356336Y0269253D01*
X0356426Y0269390D01*
X0356519Y0269526D01*
X0356615Y0269659D01*
X0356715Y0269790D01*
X0356817Y0269918D01*
X0356923Y0270044D01*
X0357032Y0270167D01*
X0357144Y0270287D01*
X0357258Y0270405D01*
X0357376Y0270519D01*
X0357496Y0270631D01*
X0357619Y0270740D01*
X0357745Y0270846D01*
X0357873Y0270948D01*
X0358004Y0271048D01*
X0358137Y0271144D01*
X0358273Y0271237D01*
X0358410Y0271327D01*
X0358550Y0271413D01*
X0358692Y0271495D01*
X0358836Y0271575D01*
X0358982Y0271650D01*
X0359129Y0271722D01*
X0359279Y0271791D01*
X0359430Y0271856D01*
X0359582Y0271917D01*
X0359736Y0271974D01*
X0359892Y0272027D01*
X0360048Y0272077D01*
X0360206Y0272123D01*
X0360365Y0272164D01*
X0360525Y0272202D01*
X0360685Y0272236D01*
X0360847Y0272266D01*
X0361009Y0272293D01*
X0361172Y0272315D01*
X0361335Y0272333D01*
X0361499Y0272347D01*
X0361663Y0272357D01*
X0361827Y0272363D01*
X0361991Y0272365D01*
X0362155Y0272363D01*
X0362319Y0272357D01*
X0362483Y0272347D01*
X0362647Y0272333D01*
X0362810Y0272315D01*
X0362973Y0272293D01*
X0363135Y0272266D01*
X0363297Y0272236D01*
X0363457Y0272202D01*
X0363617Y0272164D01*
X0363776Y0272123D01*
X0363934Y0272077D01*
X0364090Y0272027D01*
X0364246Y0271974D01*
X0364400Y0271917D01*
X0364552Y0271856D01*
X0364703Y0271791D01*
X0364853Y0271722D01*
X0365000Y0271650D01*
X0365146Y0271575D01*
X0365290Y0271495D01*
X0365432Y0271413D01*
X0365572Y0271327D01*
X0365709Y0271237D01*
X0365845Y0271144D01*
X0365978Y0271048D01*
X0366109Y0270948D01*
X0366237Y0270846D01*
X0366363Y0270740D01*
X0366486Y0270631D01*
X0366606Y0270519D01*
X0366724Y0270405D01*
X0366838Y0270287D01*
X0366950Y0270167D01*
X0367059Y0270044D01*
X0367165Y0269918D01*
X0367267Y0269790D01*
X0367367Y0269659D01*
X0367463Y0269526D01*
X0367556Y0269390D01*
X0367646Y0269253D01*
X0367732Y0269113D01*
X0367814Y0268971D01*
X0367894Y0268827D01*
X0367969Y0268681D01*
X0368041Y0268534D01*
X0368110Y0268384D01*
X0368175Y0268233D01*
X0368236Y0268081D01*
X0368293Y0267927D01*
X0368346Y0267771D01*
X0368396Y0267615D01*
X0368442Y0267457D01*
X0368483Y0267298D01*
X0368521Y0267138D01*
X0368555Y0266978D01*
X0368585Y0266816D01*
X0368612Y0266654D01*
X0368634Y0266491D01*
X0368652Y0266328D01*
X0368666Y0266164D01*
X0368676Y0266000D01*
X0368682Y0265836D01*
X0368684Y0265672D01*
X0368682Y0265508D01*
X0368676Y0265344D01*
X0368666Y0265180D01*
X0368652Y0265016D01*
X0368634Y0264853D01*
X0368612Y0264690D01*
X0368585Y0264528D01*
X0368555Y0264366D01*
X0368521Y0264206D01*
X0368483Y0264046D01*
X0368442Y0263887D01*
X0368396Y0263729D01*
X0368346Y0263573D01*
X0368293Y0263417D01*
X0368236Y0263263D01*
X0368175Y0263111D01*
X0368110Y0262960D01*
X0368041Y0262810D01*
X0367969Y0262663D01*
X0367894Y0262517D01*
X0367814Y0262373D01*
X0367732Y0262231D01*
X0367646Y0262091D01*
X0367556Y0261954D01*
X0367463Y0261818D01*
X0367367Y0261685D01*
X0367267Y0261554D01*
X0367165Y0261426D01*
X0367059Y0261300D01*
X0366950Y0261177D01*
X0366838Y0261057D01*
X0366724Y0260939D01*
X0366606Y0260825D01*
X0366486Y0260713D01*
X0366363Y0260604D01*
X0366237Y0260498D01*
X0366109Y0260396D01*
X0365978Y0260296D01*
X0365845Y0260200D01*
X0365709Y0260107D01*
X0365572Y0260017D01*
X0365432Y0259931D01*
X0365290Y0259849D01*
X0365146Y0259769D01*
X0365000Y0259694D01*
X0364853Y0259622D01*
X0364703Y0259553D01*
X0364552Y0259488D01*
X0364400Y0259427D01*
X0364246Y0259370D01*
X0364090Y0259317D01*
X0363934Y0259267D01*
X0363776Y0259221D01*
X0363617Y0259180D01*
X0363457Y0259142D01*
X0363297Y0259108D01*
X0363135Y0259078D01*
X0362973Y0259051D01*
X0362810Y0259029D01*
X0362647Y0259011D01*
X0362483Y0258997D01*
X0362319Y0258987D01*
X0362155Y0258981D01*
X0361991Y0258979D01*
X0361827Y0258981D01*
X0361663Y0258987D01*
X0361499Y0258997D01*
X0361335Y0259011D01*
X0361172Y0259029D01*
X0361009Y0259051D01*
X0360847Y0259078D01*
X0360685Y0259108D01*
X0360525Y0259142D01*
X0360365Y0259180D01*
X0360206Y0259221D01*
X0360048Y0259267D01*
X0359892Y0259317D01*
X0359736Y0259370D01*
X0359582Y0259427D01*
X0359430Y0259488D01*
X0359279Y0259553D01*
X0359129Y0259622D01*
X0358982Y0259694D01*
X0358836Y0259769D01*
X0358692Y0259849D01*
X0358550Y0259931D01*
X0358410Y0260017D01*
X0358273Y0260107D01*
X0358137Y0260200D01*
X0358004Y0260296D01*
X0357873Y0260396D01*
X0357745Y0260498D01*
X0357619Y0260604D01*
X0357496Y0260713D01*
X0357376Y0260825D01*
X0357258Y0260939D01*
X0357144Y0261057D01*
X0357032Y0261177D01*
X0356923Y0261300D01*
X0356817Y0261426D01*
X0356715Y0261554D01*
X0356615Y0261685D01*
X0356519Y0261818D01*
X0356426Y0261954D01*
X0356336Y0262091D01*
X0356250Y0262231D01*
X0356168Y0262373D01*
X0356088Y0262517D01*
X0356013Y0262663D01*
X0355941Y0262810D01*
X0355872Y0262960D01*
X0355807Y0263111D01*
X0355746Y0263263D01*
X0355689Y0263417D01*
X0355636Y0263573D01*
X0355586Y0263729D01*
X0355540Y0263887D01*
X0355499Y0264046D01*
X0355461Y0264206D01*
X0355427Y0264366D01*
X0355397Y0264528D01*
X0355370Y0264690D01*
X0355348Y0264853D01*
X0355330Y0265016D01*
X0355316Y0265180D01*
X0355306Y0265344D01*
X0355300Y0265508D01*
X0355298Y0265672D01*
X0040337Y0265672D02*
X0040339Y0265836D01*
X0040345Y0266000D01*
X0040355Y0266164D01*
X0040369Y0266328D01*
X0040387Y0266491D01*
X0040409Y0266654D01*
X0040436Y0266816D01*
X0040466Y0266978D01*
X0040500Y0267138D01*
X0040538Y0267298D01*
X0040579Y0267457D01*
X0040625Y0267615D01*
X0040675Y0267771D01*
X0040728Y0267927D01*
X0040785Y0268081D01*
X0040846Y0268233D01*
X0040911Y0268384D01*
X0040980Y0268534D01*
X0041052Y0268681D01*
X0041127Y0268827D01*
X0041207Y0268971D01*
X0041289Y0269113D01*
X0041375Y0269253D01*
X0041465Y0269390D01*
X0041558Y0269526D01*
X0041654Y0269659D01*
X0041754Y0269790D01*
X0041856Y0269918D01*
X0041962Y0270044D01*
X0042071Y0270167D01*
X0042183Y0270287D01*
X0042297Y0270405D01*
X0042415Y0270519D01*
X0042535Y0270631D01*
X0042658Y0270740D01*
X0042784Y0270846D01*
X0042912Y0270948D01*
X0043043Y0271048D01*
X0043176Y0271144D01*
X0043312Y0271237D01*
X0043449Y0271327D01*
X0043589Y0271413D01*
X0043731Y0271495D01*
X0043875Y0271575D01*
X0044021Y0271650D01*
X0044168Y0271722D01*
X0044318Y0271791D01*
X0044469Y0271856D01*
X0044621Y0271917D01*
X0044775Y0271974D01*
X0044931Y0272027D01*
X0045087Y0272077D01*
X0045245Y0272123D01*
X0045404Y0272164D01*
X0045564Y0272202D01*
X0045724Y0272236D01*
X0045886Y0272266D01*
X0046048Y0272293D01*
X0046211Y0272315D01*
X0046374Y0272333D01*
X0046538Y0272347D01*
X0046702Y0272357D01*
X0046866Y0272363D01*
X0047030Y0272365D01*
X0047194Y0272363D01*
X0047358Y0272357D01*
X0047522Y0272347D01*
X0047686Y0272333D01*
X0047849Y0272315D01*
X0048012Y0272293D01*
X0048174Y0272266D01*
X0048336Y0272236D01*
X0048496Y0272202D01*
X0048656Y0272164D01*
X0048815Y0272123D01*
X0048973Y0272077D01*
X0049129Y0272027D01*
X0049285Y0271974D01*
X0049439Y0271917D01*
X0049591Y0271856D01*
X0049742Y0271791D01*
X0049892Y0271722D01*
X0050039Y0271650D01*
X0050185Y0271575D01*
X0050329Y0271495D01*
X0050471Y0271413D01*
X0050611Y0271327D01*
X0050748Y0271237D01*
X0050884Y0271144D01*
X0051017Y0271048D01*
X0051148Y0270948D01*
X0051276Y0270846D01*
X0051402Y0270740D01*
X0051525Y0270631D01*
X0051645Y0270519D01*
X0051763Y0270405D01*
X0051877Y0270287D01*
X0051989Y0270167D01*
X0052098Y0270044D01*
X0052204Y0269918D01*
X0052306Y0269790D01*
X0052406Y0269659D01*
X0052502Y0269526D01*
X0052595Y0269390D01*
X0052685Y0269253D01*
X0052771Y0269113D01*
X0052853Y0268971D01*
X0052933Y0268827D01*
X0053008Y0268681D01*
X0053080Y0268534D01*
X0053149Y0268384D01*
X0053214Y0268233D01*
X0053275Y0268081D01*
X0053332Y0267927D01*
X0053385Y0267771D01*
X0053435Y0267615D01*
X0053481Y0267457D01*
X0053522Y0267298D01*
X0053560Y0267138D01*
X0053594Y0266978D01*
X0053624Y0266816D01*
X0053651Y0266654D01*
X0053673Y0266491D01*
X0053691Y0266328D01*
X0053705Y0266164D01*
X0053715Y0266000D01*
X0053721Y0265836D01*
X0053723Y0265672D01*
X0053721Y0265508D01*
X0053715Y0265344D01*
X0053705Y0265180D01*
X0053691Y0265016D01*
X0053673Y0264853D01*
X0053651Y0264690D01*
X0053624Y0264528D01*
X0053594Y0264366D01*
X0053560Y0264206D01*
X0053522Y0264046D01*
X0053481Y0263887D01*
X0053435Y0263729D01*
X0053385Y0263573D01*
X0053332Y0263417D01*
X0053275Y0263263D01*
X0053214Y0263111D01*
X0053149Y0262960D01*
X0053080Y0262810D01*
X0053008Y0262663D01*
X0052933Y0262517D01*
X0052853Y0262373D01*
X0052771Y0262231D01*
X0052685Y0262091D01*
X0052595Y0261954D01*
X0052502Y0261818D01*
X0052406Y0261685D01*
X0052306Y0261554D01*
X0052204Y0261426D01*
X0052098Y0261300D01*
X0051989Y0261177D01*
X0051877Y0261057D01*
X0051763Y0260939D01*
X0051645Y0260825D01*
X0051525Y0260713D01*
X0051402Y0260604D01*
X0051276Y0260498D01*
X0051148Y0260396D01*
X0051017Y0260296D01*
X0050884Y0260200D01*
X0050748Y0260107D01*
X0050611Y0260017D01*
X0050471Y0259931D01*
X0050329Y0259849D01*
X0050185Y0259769D01*
X0050039Y0259694D01*
X0049892Y0259622D01*
X0049742Y0259553D01*
X0049591Y0259488D01*
X0049439Y0259427D01*
X0049285Y0259370D01*
X0049129Y0259317D01*
X0048973Y0259267D01*
X0048815Y0259221D01*
X0048656Y0259180D01*
X0048496Y0259142D01*
X0048336Y0259108D01*
X0048174Y0259078D01*
X0048012Y0259051D01*
X0047849Y0259029D01*
X0047686Y0259011D01*
X0047522Y0258997D01*
X0047358Y0258987D01*
X0047194Y0258981D01*
X0047030Y0258979D01*
X0046866Y0258981D01*
X0046702Y0258987D01*
X0046538Y0258997D01*
X0046374Y0259011D01*
X0046211Y0259029D01*
X0046048Y0259051D01*
X0045886Y0259078D01*
X0045724Y0259108D01*
X0045564Y0259142D01*
X0045404Y0259180D01*
X0045245Y0259221D01*
X0045087Y0259267D01*
X0044931Y0259317D01*
X0044775Y0259370D01*
X0044621Y0259427D01*
X0044469Y0259488D01*
X0044318Y0259553D01*
X0044168Y0259622D01*
X0044021Y0259694D01*
X0043875Y0259769D01*
X0043731Y0259849D01*
X0043589Y0259931D01*
X0043449Y0260017D01*
X0043312Y0260107D01*
X0043176Y0260200D01*
X0043043Y0260296D01*
X0042912Y0260396D01*
X0042784Y0260498D01*
X0042658Y0260604D01*
X0042535Y0260713D01*
X0042415Y0260825D01*
X0042297Y0260939D01*
X0042183Y0261057D01*
X0042071Y0261177D01*
X0041962Y0261300D01*
X0041856Y0261426D01*
X0041754Y0261554D01*
X0041654Y0261685D01*
X0041558Y0261818D01*
X0041465Y0261954D01*
X0041375Y0262091D01*
X0041289Y0262231D01*
X0041207Y0262373D01*
X0041127Y0262517D01*
X0041052Y0262663D01*
X0040980Y0262810D01*
X0040911Y0262960D01*
X0040846Y0263111D01*
X0040785Y0263263D01*
X0040728Y0263417D01*
X0040675Y0263573D01*
X0040625Y0263729D01*
X0040579Y0263887D01*
X0040538Y0264046D01*
X0040500Y0264206D01*
X0040466Y0264366D01*
X0040436Y0264528D01*
X0040409Y0264690D01*
X0040387Y0264853D01*
X0040369Y0265016D01*
X0040355Y0265180D01*
X0040345Y0265344D01*
X0040339Y0265508D01*
X0040337Y0265672D01*
D11*
X0190219Y0266892D03*
X0200219Y0266892D03*
X0260219Y0266390D03*
X0270219Y0266390D03*
X0280219Y0266390D03*
X0290219Y0266390D03*
X0300219Y0266390D03*
X0330219Y0266892D03*
X0340219Y0266892D03*
X0360219Y0216892D03*
X0360219Y0206892D03*
X0360219Y0196892D03*
X0360219Y0186892D03*
X0360219Y0176892D03*
X0360219Y0166892D03*
X0360219Y0146892D03*
X0350219Y0146892D03*
X0295219Y0116892D03*
X0265219Y0116892D03*
X0235219Y0131892D03*
X0225219Y0131892D03*
X0232719Y0196892D03*
X0232719Y0206892D03*
D12*
X0114825Y0125947D02*
X0104825Y0125947D01*
X0085140Y0125947D02*
X0075140Y0125947D01*
X0055919Y0056892D02*
X0055919Y0046892D01*
X0144519Y0046892D02*
X0144519Y0056892D01*
X0160919Y0056892D02*
X0160919Y0046892D01*
X0249519Y0046892D02*
X0249519Y0056892D01*
D13*
X0125298Y0241695D03*
X0064668Y0241695D03*
D14*
X0105219Y0014392D03*
X0313469Y0015392D03*
D15*
X0333154Y0015392D03*
X0124904Y0014392D03*
D16*
X0275967Y0066892D03*
X0283841Y0043270D03*
X0331872Y0043270D03*
X0331872Y0090514D03*
X0283841Y0090514D03*
D17*
X0110219Y0091892D03*
X0080219Y0091892D03*
D18*
X0190219Y0141892D03*
X0190219Y0146892D03*
X0195219Y0146892D03*
X0195219Y0141892D03*
X0270219Y0191892D03*
X0310219Y0181892D03*
X0295219Y0156892D03*
X0275219Y0156892D03*
X0320219Y0126892D03*
X0325219Y0126892D03*
X0340219Y0156892D03*
X0345219Y0156892D03*
X0330219Y0226892D03*
X0325219Y0226892D03*
X0325219Y0231892D03*
X0330219Y0231892D03*
D19*
X0355895Y0219781D02*
X0355119Y0217907D01*
X0355119Y0215878D01*
X0355895Y0214003D01*
X0357330Y0212569D01*
X0358963Y0211892D01*
X0357330Y0211216D01*
X0355895Y0209781D01*
X0355119Y0207907D01*
X0355119Y0205878D01*
X0355895Y0204003D01*
X0357330Y0202569D01*
X0358963Y0201892D01*
X0357330Y0201216D01*
X0355895Y0199781D01*
X0355119Y0197907D01*
X0355119Y0195878D01*
X0355895Y0194003D01*
X0356451Y0193448D01*
X0354208Y0191205D01*
X0352919Y0189916D01*
X0352919Y0163868D01*
X0358019Y0158768D01*
X0358019Y0151501D01*
X0357330Y0151216D01*
X0355895Y0149781D01*
X0355219Y0148148D01*
X0354543Y0149781D01*
X0353108Y0151216D01*
X0351233Y0151992D01*
X0349204Y0151992D01*
X0347330Y0151216D01*
X0345895Y0149781D01*
X0345119Y0147907D01*
X0345119Y0145878D01*
X0345895Y0144003D01*
X0347330Y0142569D01*
X0349204Y0141792D01*
X0351233Y0141792D01*
X0353108Y0142569D01*
X0354543Y0144003D01*
X0355219Y0145636D01*
X0355895Y0144003D01*
X0357330Y0142569D01*
X0359204Y0141792D01*
X0361233Y0141792D01*
X0363108Y0142569D01*
X0364543Y0144003D01*
X0365319Y0145878D01*
X0365319Y0147907D01*
X0364543Y0149781D01*
X0363108Y0151216D01*
X0362419Y0151501D01*
X0362419Y0160591D01*
X0361218Y0161792D01*
X0361233Y0161792D01*
X0363108Y0162569D01*
X0364543Y0164003D01*
X0365319Y0165878D01*
X0365319Y0167907D01*
X0364543Y0169781D01*
X0363108Y0171216D01*
X0361475Y0171892D01*
X0363108Y0172569D01*
X0364543Y0174003D01*
X0365319Y0175878D01*
X0365319Y0177907D01*
X0364543Y0179781D01*
X0363108Y0181216D01*
X0361475Y0181892D01*
X0363108Y0182569D01*
X0364543Y0184003D01*
X0365319Y0185878D01*
X0365319Y0187907D01*
X0364543Y0189781D01*
X0363108Y0191216D01*
X0361475Y0191892D01*
X0363108Y0192569D01*
X0364543Y0194003D01*
X0365319Y0195878D01*
X0365319Y0197907D01*
X0364543Y0199781D01*
X0363108Y0201216D01*
X0361475Y0201892D01*
X0363108Y0202569D01*
X0364543Y0204003D01*
X0365319Y0205878D01*
X0365319Y0207907D01*
X0364543Y0209781D01*
X0363108Y0211216D01*
X0361475Y0211892D01*
X0363108Y0212569D01*
X0364543Y0214003D01*
X0365319Y0215878D01*
X0365319Y0217907D01*
X0364543Y0219781D01*
X0363108Y0221216D01*
X0361233Y0221992D01*
X0359204Y0221992D01*
X0357330Y0221216D01*
X0355895Y0219781D01*
X0355692Y0219290D02*
X0037019Y0219290D01*
X0037019Y0220888D02*
X0357003Y0220888D01*
X0355119Y0217691D02*
X0037019Y0217691D01*
X0037019Y0216093D02*
X0355119Y0216093D01*
X0355692Y0214494D02*
X0037019Y0214494D01*
X0037019Y0212896D02*
X0357003Y0212896D01*
X0357527Y0211297D02*
X0235411Y0211297D01*
X0235608Y0211216D02*
X0233733Y0211992D01*
X0231704Y0211992D01*
X0229830Y0211216D01*
X0228395Y0209781D01*
X0227619Y0207907D01*
X0227619Y0205878D01*
X0228395Y0204003D01*
X0229830Y0202569D01*
X0231463Y0201892D01*
X0229830Y0201216D01*
X0228395Y0199781D01*
X0227619Y0197907D01*
X0227619Y0195878D01*
X0228395Y0194003D01*
X0229830Y0192569D01*
X0231704Y0191792D01*
X0233733Y0191792D01*
X0235608Y0192569D01*
X0237043Y0194003D01*
X0237819Y0195878D01*
X0237819Y0197907D01*
X0237043Y0199781D01*
X0235608Y0201216D01*
X0233975Y0201892D01*
X0235608Y0202569D01*
X0237043Y0204003D01*
X0237819Y0205878D01*
X0237819Y0207907D01*
X0237043Y0209781D01*
X0235608Y0211216D01*
X0237077Y0209699D02*
X0355861Y0209699D01*
X0355199Y0208100D02*
X0237739Y0208100D01*
X0237819Y0206502D02*
X0355119Y0206502D01*
X0355523Y0204903D02*
X0237415Y0204903D01*
X0236344Y0203305D02*
X0356594Y0203305D01*
X0358514Y0201706D02*
X0234424Y0201706D01*
X0236716Y0200108D02*
X0356222Y0200108D01*
X0355368Y0198509D02*
X0237569Y0198509D01*
X0237819Y0196911D02*
X0355119Y0196911D01*
X0355353Y0195312D02*
X0237585Y0195312D01*
X0236753Y0193713D02*
X0268238Y0193713D01*
X0267939Y0193415D02*
X0267530Y0192427D01*
X0267530Y0191357D01*
X0267939Y0190369D01*
X0268696Y0189613D01*
X0269684Y0189203D01*
X0269797Y0189203D01*
X0273019Y0185981D01*
X0273019Y0158495D01*
X0272939Y0158415D01*
X0272530Y0157427D01*
X0272530Y0156357D01*
X0272939Y0155369D01*
X0273696Y0154613D01*
X0274684Y0154203D01*
X0275754Y0154203D01*
X0276742Y0154613D01*
X0277499Y0155369D01*
X0277908Y0156357D01*
X0277908Y0157427D01*
X0277499Y0158415D01*
X0277419Y0158495D01*
X0277419Y0187803D01*
X0276130Y0189092D01*
X0272908Y0192314D01*
X0272908Y0192427D01*
X0272499Y0193415D01*
X0271742Y0194172D01*
X0270754Y0194581D01*
X0269684Y0194581D01*
X0268696Y0194172D01*
X0267939Y0193415D01*
X0267530Y0192115D02*
X0234513Y0192115D01*
X0230925Y0192115D02*
X0155219Y0192115D01*
X0155219Y0193713D02*
X0228685Y0193713D01*
X0227853Y0195312D02*
X0155219Y0195312D01*
X0155219Y0196911D02*
X0227619Y0196911D01*
X0227868Y0198509D02*
X0155219Y0198509D01*
X0155219Y0200108D02*
X0228722Y0200108D01*
X0231014Y0201706D02*
X0155219Y0201706D01*
X0155219Y0203305D02*
X0229094Y0203305D01*
X0228023Y0204903D02*
X0155219Y0204903D01*
X0155219Y0206502D02*
X0227619Y0206502D01*
X0227699Y0208100D02*
X0037019Y0208100D01*
X0037019Y0206892D02*
X0037019Y0272800D01*
X0039902Y0275683D01*
X0372002Y0275683D01*
X0372002Y0121892D01*
X0296475Y0121892D01*
X0296233Y0121992D01*
X0294204Y0121992D01*
X0293963Y0121892D01*
X0266475Y0121892D01*
X0266233Y0121992D01*
X0264204Y0121992D01*
X0263963Y0121892D01*
X0155219Y0121892D01*
X0155219Y0206892D01*
X0037019Y0206892D01*
X0037019Y0209699D02*
X0228361Y0209699D01*
X0230027Y0211297D02*
X0037019Y0211297D01*
X0037019Y0222487D02*
X0372002Y0222487D01*
X0372002Y0224085D02*
X0037019Y0224085D01*
X0037019Y0225684D02*
X0372002Y0225684D01*
X0372002Y0227282D02*
X0037019Y0227282D01*
X0037019Y0228881D02*
X0372002Y0228881D01*
X0372002Y0230479D02*
X0037019Y0230479D01*
X0037019Y0232078D02*
X0372002Y0232078D01*
X0372002Y0233676D02*
X0037019Y0233676D01*
X0037019Y0235275D02*
X0060191Y0235275D01*
X0061476Y0233990D02*
X0064287Y0233990D01*
X0064287Y0241314D01*
X0065049Y0241314D01*
X0065049Y0242076D01*
X0072373Y0242076D01*
X0072373Y0244887D01*
X0067859Y0249401D01*
X0065049Y0249401D01*
X0065049Y0242076D01*
X0064287Y0242076D01*
X0064287Y0241314D01*
X0056962Y0241314D01*
X0056962Y0238504D01*
X0061476Y0233990D01*
X0064287Y0235275D02*
X0065049Y0235275D01*
X0065049Y0233990D02*
X0067859Y0233990D01*
X0072373Y0238504D01*
X0072373Y0241314D01*
X0065049Y0241314D01*
X0065049Y0233990D01*
X0065049Y0236873D02*
X0064287Y0236873D01*
X0064287Y0238472D02*
X0065049Y0238472D01*
X0065049Y0240070D02*
X0064287Y0240070D01*
X0064287Y0241669D02*
X0037019Y0241669D01*
X0037019Y0243267D02*
X0056962Y0243267D01*
X0056962Y0242076D02*
X0064287Y0242076D01*
X0064287Y0249401D01*
X0061476Y0249401D01*
X0056962Y0244887D01*
X0056962Y0242076D01*
X0056962Y0240070D02*
X0037019Y0240070D01*
X0037019Y0238472D02*
X0056994Y0238472D01*
X0058593Y0236873D02*
X0037019Y0236873D01*
X0037019Y0244866D02*
X0056962Y0244866D01*
X0058540Y0246464D02*
X0037019Y0246464D01*
X0037019Y0248063D02*
X0060138Y0248063D01*
X0064287Y0248063D02*
X0065049Y0248063D01*
X0065049Y0246464D02*
X0064287Y0246464D01*
X0064287Y0244866D02*
X0065049Y0244866D01*
X0065049Y0243267D02*
X0064287Y0243267D01*
X0065049Y0241669D02*
X0117992Y0241669D01*
X0117992Y0243267D02*
X0072373Y0243267D01*
X0072373Y0244866D02*
X0118137Y0244866D01*
X0117992Y0244721D02*
X0117992Y0238669D01*
X0122272Y0234390D01*
X0128324Y0234390D01*
X0132603Y0238669D01*
X0132603Y0244721D01*
X0128324Y0249001D01*
X0122272Y0249001D01*
X0117992Y0244721D01*
X0119735Y0246464D02*
X0070796Y0246464D01*
X0069197Y0248063D02*
X0121334Y0248063D01*
X0129262Y0248063D02*
X0372002Y0248063D01*
X0372002Y0249661D02*
X0037019Y0249661D01*
X0037019Y0251260D02*
X0372002Y0251260D01*
X0372002Y0252858D02*
X0037019Y0252858D01*
X0037019Y0254457D02*
X0372002Y0254457D01*
X0372002Y0256055D02*
X0037019Y0256055D01*
X0037019Y0257654D02*
X0044193Y0257654D01*
X0045341Y0257179D02*
X0048719Y0257179D01*
X0051841Y0258472D01*
X0054230Y0260861D01*
X0055523Y0263982D01*
X0055523Y0267361D01*
X0054230Y0270482D01*
X0051841Y0272872D01*
X0048719Y0274165D01*
X0045341Y0274165D01*
X0042219Y0272872D01*
X0039830Y0270482D01*
X0038537Y0267361D01*
X0038537Y0263982D01*
X0039830Y0260861D01*
X0042219Y0258472D01*
X0045341Y0257179D01*
X0041438Y0259252D02*
X0037019Y0259252D01*
X0037019Y0260851D02*
X0039840Y0260851D01*
X0039172Y0262449D02*
X0037019Y0262449D01*
X0037019Y0264048D02*
X0038537Y0264048D01*
X0038537Y0265646D02*
X0037019Y0265646D01*
X0037019Y0267245D02*
X0038537Y0267245D01*
X0039151Y0268844D02*
X0037019Y0268844D01*
X0037019Y0270442D02*
X0039813Y0270442D01*
X0041388Y0272041D02*
X0037019Y0272041D01*
X0037858Y0273639D02*
X0044072Y0273639D01*
X0039456Y0275238D02*
X0372002Y0275238D01*
X0372002Y0273639D02*
X0364949Y0273639D01*
X0363680Y0274165D02*
X0360301Y0274165D01*
X0357180Y0272872D01*
X0354791Y0270482D01*
X0353498Y0267361D01*
X0353498Y0263982D01*
X0354791Y0260861D01*
X0357180Y0258472D01*
X0360301Y0257179D01*
X0363680Y0257179D01*
X0366801Y0258472D01*
X0369191Y0260861D01*
X0370484Y0263982D01*
X0370484Y0267361D01*
X0369191Y0270482D01*
X0366801Y0272872D01*
X0363680Y0274165D01*
X0367632Y0272041D02*
X0372002Y0272041D01*
X0372002Y0270442D02*
X0369207Y0270442D01*
X0369869Y0268844D02*
X0372002Y0268844D01*
X0372002Y0267245D02*
X0370484Y0267245D01*
X0370484Y0265646D02*
X0372002Y0265646D01*
X0372002Y0264048D02*
X0370484Y0264048D01*
X0369849Y0262449D02*
X0372002Y0262449D01*
X0372002Y0260851D02*
X0369181Y0260851D01*
X0367582Y0259252D02*
X0372002Y0259252D01*
X0372002Y0257654D02*
X0364827Y0257654D01*
X0359154Y0257654D02*
X0049867Y0257654D01*
X0052622Y0259252D02*
X0356399Y0259252D01*
X0354800Y0260851D02*
X0054220Y0260851D01*
X0054888Y0262449D02*
X0187618Y0262449D01*
X0187330Y0262569D02*
X0189204Y0261792D01*
X0191233Y0261792D01*
X0193108Y0262569D01*
X0194543Y0264003D01*
X0195009Y0265129D01*
X0195122Y0264781D01*
X0195515Y0264009D01*
X0196024Y0263309D01*
X0196636Y0262697D01*
X0197336Y0262188D01*
X0198108Y0261795D01*
X0198931Y0261528D01*
X0199786Y0261392D01*
X0200019Y0261392D01*
X0200019Y0266692D01*
X0200419Y0266692D01*
X0200419Y0261392D01*
X0200652Y0261392D01*
X0201507Y0261528D01*
X0202330Y0261795D01*
X0203102Y0262188D01*
X0203802Y0262697D01*
X0204414Y0263309D01*
X0204923Y0264009D01*
X0205316Y0264781D01*
X0205584Y0265604D01*
X0205719Y0266459D01*
X0205719Y0266692D01*
X0200419Y0266692D01*
X0200419Y0267092D01*
X0205719Y0267092D01*
X0205719Y0267325D01*
X0205584Y0268180D01*
X0205316Y0269003D01*
X0204923Y0269775D01*
X0204414Y0270475D01*
X0203802Y0271087D01*
X0203102Y0271596D01*
X0202330Y0271989D01*
X0201507Y0272257D01*
X0200652Y0272392D01*
X0200419Y0272392D01*
X0200419Y0267092D01*
X0200019Y0267092D01*
X0200019Y0272392D01*
X0199786Y0272392D01*
X0198931Y0272257D01*
X0198108Y0271989D01*
X0197336Y0271596D01*
X0196636Y0271087D01*
X0196024Y0270475D01*
X0195515Y0269775D01*
X0195122Y0269003D01*
X0195009Y0268655D01*
X0194543Y0269781D01*
X0193108Y0271216D01*
X0191233Y0271992D01*
X0189204Y0271992D01*
X0187330Y0271216D01*
X0185895Y0269781D01*
X0185119Y0267907D01*
X0185119Y0265878D01*
X0185895Y0264003D01*
X0187330Y0262569D01*
X0185877Y0264048D02*
X0055523Y0264048D01*
X0055523Y0265646D02*
X0185215Y0265646D01*
X0185119Y0267245D02*
X0055523Y0267245D01*
X0054909Y0268844D02*
X0185507Y0268844D01*
X0186556Y0270442D02*
X0054247Y0270442D01*
X0052672Y0272041D02*
X0198266Y0272041D01*
X0200019Y0272041D02*
X0200419Y0272041D01*
X0200419Y0270442D02*
X0200019Y0270442D01*
X0200019Y0268844D02*
X0200419Y0268844D01*
X0200419Y0267245D02*
X0200019Y0267245D01*
X0200019Y0265646D02*
X0200419Y0265646D01*
X0200419Y0264048D02*
X0200019Y0264048D01*
X0200019Y0262449D02*
X0200419Y0262449D01*
X0203461Y0262449D02*
X0256947Y0262449D01*
X0257330Y0262067D02*
X0259204Y0261290D01*
X0261233Y0261290D01*
X0263108Y0262067D01*
X0264543Y0263501D01*
X0265219Y0265134D01*
X0265895Y0263501D01*
X0267330Y0262067D01*
X0269204Y0261290D01*
X0271233Y0261290D01*
X0273108Y0262067D01*
X0274543Y0263501D01*
X0275219Y0265134D01*
X0275895Y0263501D01*
X0277330Y0262067D01*
X0279204Y0261290D01*
X0281233Y0261290D01*
X0283108Y0262067D01*
X0284543Y0263501D01*
X0285219Y0265134D01*
X0285895Y0263501D01*
X0287330Y0262067D01*
X0289204Y0261290D01*
X0291233Y0261290D01*
X0293108Y0262067D01*
X0294543Y0263501D01*
X0295219Y0265134D01*
X0295895Y0263501D01*
X0297330Y0262067D01*
X0299204Y0261290D01*
X0301233Y0261290D01*
X0303108Y0262067D01*
X0304543Y0263501D01*
X0305319Y0265376D01*
X0305319Y0267405D01*
X0304543Y0269279D01*
X0303108Y0270714D01*
X0301233Y0271490D01*
X0299204Y0271490D01*
X0297330Y0270714D01*
X0295895Y0269279D01*
X0295219Y0267646D01*
X0294543Y0269279D01*
X0293108Y0270714D01*
X0291233Y0271490D01*
X0289204Y0271490D01*
X0287330Y0270714D01*
X0285895Y0269279D01*
X0285219Y0267646D01*
X0284543Y0269279D01*
X0283108Y0270714D01*
X0281233Y0271490D01*
X0279204Y0271490D01*
X0277330Y0270714D01*
X0275895Y0269279D01*
X0275219Y0267646D01*
X0274543Y0269279D01*
X0273108Y0270714D01*
X0271233Y0271490D01*
X0269204Y0271490D01*
X0267330Y0270714D01*
X0265895Y0269279D01*
X0265219Y0267646D01*
X0264543Y0269279D01*
X0263108Y0270714D01*
X0261233Y0271490D01*
X0259204Y0271490D01*
X0257330Y0270714D01*
X0255895Y0269279D01*
X0255119Y0267405D01*
X0255119Y0265376D01*
X0255895Y0263501D01*
X0257330Y0262067D01*
X0255669Y0264048D02*
X0204943Y0264048D01*
X0205590Y0265646D02*
X0255119Y0265646D01*
X0255119Y0267245D02*
X0205719Y0267245D01*
X0205368Y0268844D02*
X0255715Y0268844D01*
X0257058Y0270442D02*
X0204438Y0270442D01*
X0202172Y0272041D02*
X0338266Y0272041D01*
X0338108Y0271989D02*
X0337336Y0271596D01*
X0336636Y0271087D01*
X0336024Y0270475D01*
X0335515Y0269775D01*
X0335122Y0269003D01*
X0335009Y0268655D01*
X0334543Y0269781D01*
X0333108Y0271216D01*
X0331233Y0271992D01*
X0329204Y0271992D01*
X0327330Y0271216D01*
X0325895Y0269781D01*
X0325119Y0267907D01*
X0325119Y0265878D01*
X0325895Y0264003D01*
X0327330Y0262569D01*
X0329204Y0261792D01*
X0331233Y0261792D01*
X0333108Y0262569D01*
X0334543Y0264003D01*
X0335009Y0265129D01*
X0335122Y0264781D01*
X0335515Y0264009D01*
X0336024Y0263309D01*
X0336636Y0262697D01*
X0337336Y0262188D01*
X0338108Y0261795D01*
X0338931Y0261528D01*
X0339786Y0261392D01*
X0340019Y0261392D01*
X0340019Y0266692D01*
X0340419Y0266692D01*
X0340419Y0261392D01*
X0340652Y0261392D01*
X0341507Y0261528D01*
X0342330Y0261795D01*
X0343102Y0262188D01*
X0343802Y0262697D01*
X0344414Y0263309D01*
X0344923Y0264009D01*
X0345316Y0264781D01*
X0345584Y0265604D01*
X0345719Y0266459D01*
X0345719Y0266692D01*
X0340419Y0266692D01*
X0340419Y0267092D01*
X0345719Y0267092D01*
X0345719Y0267325D01*
X0345584Y0268180D01*
X0345316Y0269003D01*
X0344923Y0269775D01*
X0344414Y0270475D01*
X0343802Y0271087D01*
X0343102Y0271596D01*
X0342330Y0271989D01*
X0341507Y0272257D01*
X0340652Y0272392D01*
X0340419Y0272392D01*
X0340419Y0267092D01*
X0340019Y0267092D01*
X0340019Y0272392D01*
X0339786Y0272392D01*
X0338931Y0272257D01*
X0338108Y0271989D01*
X0340019Y0272041D02*
X0340419Y0272041D01*
X0340419Y0270442D02*
X0340019Y0270442D01*
X0340019Y0268844D02*
X0340419Y0268844D01*
X0340419Y0267245D02*
X0340019Y0267245D01*
X0340019Y0265646D02*
X0340419Y0265646D01*
X0340419Y0264048D02*
X0340019Y0264048D01*
X0340019Y0262449D02*
X0340419Y0262449D01*
X0343461Y0262449D02*
X0354133Y0262449D01*
X0353498Y0264048D02*
X0344943Y0264048D01*
X0345590Y0265646D02*
X0353498Y0265646D01*
X0353498Y0267245D02*
X0345719Y0267245D01*
X0345368Y0268844D02*
X0354112Y0268844D01*
X0354774Y0270442D02*
X0344438Y0270442D01*
X0342172Y0272041D02*
X0356349Y0272041D01*
X0359033Y0273639D02*
X0049988Y0273639D01*
X0072373Y0240070D02*
X0117992Y0240070D01*
X0118190Y0238472D02*
X0072342Y0238472D01*
X0070743Y0236873D02*
X0119788Y0236873D01*
X0121387Y0235275D02*
X0069145Y0235275D01*
X0129209Y0235275D02*
X0372002Y0235275D01*
X0372002Y0236873D02*
X0130807Y0236873D01*
X0132406Y0238472D02*
X0372002Y0238472D01*
X0372002Y0240070D02*
X0132603Y0240070D01*
X0132603Y0241669D02*
X0372002Y0241669D01*
X0372002Y0243267D02*
X0132603Y0243267D01*
X0132459Y0244866D02*
X0372002Y0244866D01*
X0372002Y0246464D02*
X0130860Y0246464D01*
X0192820Y0262449D02*
X0196977Y0262449D01*
X0195495Y0264048D02*
X0194561Y0264048D01*
X0194931Y0268844D02*
X0195070Y0268844D01*
X0196000Y0270442D02*
X0193882Y0270442D01*
X0263380Y0270442D02*
X0267058Y0270442D01*
X0265715Y0268844D02*
X0264723Y0268844D01*
X0264769Y0264048D02*
X0265669Y0264048D01*
X0266947Y0262449D02*
X0263491Y0262449D01*
X0273491Y0262449D02*
X0276947Y0262449D01*
X0275669Y0264048D02*
X0274769Y0264048D01*
X0274723Y0268844D02*
X0275715Y0268844D01*
X0277058Y0270442D02*
X0273380Y0270442D01*
X0283380Y0270442D02*
X0287058Y0270442D01*
X0285715Y0268844D02*
X0284723Y0268844D01*
X0284769Y0264048D02*
X0285669Y0264048D01*
X0286947Y0262449D02*
X0283491Y0262449D01*
X0293491Y0262449D02*
X0296947Y0262449D01*
X0295669Y0264048D02*
X0294769Y0264048D01*
X0294723Y0268844D02*
X0295715Y0268844D01*
X0297058Y0270442D02*
X0293380Y0270442D01*
X0303380Y0270442D02*
X0326556Y0270442D01*
X0325507Y0268844D02*
X0304723Y0268844D01*
X0305319Y0267245D02*
X0325119Y0267245D01*
X0325215Y0265646D02*
X0305319Y0265646D01*
X0304769Y0264048D02*
X0325877Y0264048D01*
X0327618Y0262449D02*
X0303491Y0262449D01*
X0332820Y0262449D02*
X0336977Y0262449D01*
X0335495Y0264048D02*
X0334561Y0264048D01*
X0334931Y0268844D02*
X0335070Y0268844D01*
X0336000Y0270442D02*
X0333882Y0270442D01*
X0363435Y0220888D02*
X0372002Y0220888D01*
X0372002Y0219290D02*
X0364746Y0219290D01*
X0365319Y0217691D02*
X0372002Y0217691D01*
X0372002Y0216093D02*
X0365319Y0216093D01*
X0364746Y0214494D02*
X0372002Y0214494D01*
X0372002Y0212896D02*
X0363435Y0212896D01*
X0362911Y0211297D02*
X0372002Y0211297D01*
X0372002Y0209699D02*
X0364577Y0209699D01*
X0365239Y0208100D02*
X0372002Y0208100D01*
X0372002Y0206502D02*
X0365319Y0206502D01*
X0364915Y0204903D02*
X0372002Y0204903D01*
X0372002Y0203305D02*
X0363844Y0203305D01*
X0361924Y0201706D02*
X0372002Y0201706D01*
X0372002Y0200108D02*
X0364216Y0200108D01*
X0365069Y0198509D02*
X0372002Y0198509D01*
X0372002Y0196911D02*
X0365319Y0196911D01*
X0365085Y0195312D02*
X0372002Y0195312D01*
X0372002Y0193713D02*
X0364253Y0193713D01*
X0362013Y0192115D02*
X0372002Y0192115D01*
X0372002Y0190516D02*
X0363807Y0190516D01*
X0364900Y0188918D02*
X0372002Y0188918D01*
X0372002Y0187319D02*
X0365319Y0187319D01*
X0365254Y0185721D02*
X0372002Y0185721D01*
X0372002Y0184122D02*
X0364592Y0184122D01*
X0363000Y0182524D02*
X0372002Y0182524D01*
X0372002Y0180925D02*
X0363398Y0180925D01*
X0364731Y0179327D02*
X0372002Y0179327D01*
X0372002Y0177728D02*
X0365319Y0177728D01*
X0365319Y0176130D02*
X0372002Y0176130D01*
X0372002Y0174531D02*
X0364761Y0174531D01*
X0363472Y0172933D02*
X0372002Y0172933D01*
X0372002Y0171334D02*
X0362821Y0171334D01*
X0364561Y0169736D02*
X0372002Y0169736D01*
X0372002Y0168137D02*
X0365223Y0168137D01*
X0365319Y0166539D02*
X0372002Y0166539D01*
X0372002Y0164940D02*
X0364931Y0164940D01*
X0363881Y0163342D02*
X0372002Y0163342D01*
X0372002Y0161743D02*
X0361267Y0161743D01*
X0362419Y0160145D02*
X0372002Y0160145D01*
X0372002Y0158546D02*
X0362419Y0158546D01*
X0362419Y0156948D02*
X0372002Y0156948D01*
X0372002Y0155349D02*
X0362419Y0155349D01*
X0362419Y0153751D02*
X0372002Y0153751D01*
X0372002Y0152152D02*
X0362419Y0152152D01*
X0363770Y0150554D02*
X0372002Y0150554D01*
X0372002Y0148955D02*
X0364885Y0148955D01*
X0365319Y0147357D02*
X0372002Y0147357D01*
X0372002Y0145758D02*
X0365269Y0145758D01*
X0364607Y0144160D02*
X0372002Y0144160D01*
X0372002Y0142561D02*
X0363090Y0142561D01*
X0360219Y0146892D02*
X0360219Y0159680D01*
X0355119Y0164780D01*
X0355119Y0189005D01*
X0360219Y0194105D01*
X0360219Y0196892D01*
X0356185Y0193713D02*
X0272200Y0193713D01*
X0273107Y0192115D02*
X0355118Y0192115D01*
X0353520Y0190516D02*
X0274706Y0190516D01*
X0276304Y0188918D02*
X0352919Y0188918D01*
X0352919Y0187319D02*
X0277419Y0187319D01*
X0277419Y0185721D02*
X0352919Y0185721D01*
X0352919Y0184122D02*
X0311791Y0184122D01*
X0311742Y0184172D02*
X0310754Y0184581D01*
X0309684Y0184581D01*
X0308696Y0184172D01*
X0308616Y0184092D01*
X0299308Y0184092D01*
X0298019Y0182803D01*
X0293019Y0177803D01*
X0293019Y0158495D01*
X0292939Y0158415D01*
X0292530Y0157427D01*
X0292530Y0156357D01*
X0292939Y0155369D01*
X0293696Y0154613D01*
X0294684Y0154203D01*
X0295754Y0154203D01*
X0296742Y0154613D01*
X0297499Y0155369D01*
X0297908Y0156357D01*
X0297908Y0157427D01*
X0297499Y0158415D01*
X0297419Y0158495D01*
X0297419Y0175981D01*
X0301130Y0179692D01*
X0308616Y0179692D01*
X0308696Y0179613D01*
X0309684Y0179203D01*
X0310754Y0179203D01*
X0311742Y0179613D01*
X0312499Y0180369D01*
X0312908Y0181357D01*
X0312908Y0182427D01*
X0312499Y0183415D01*
X0311742Y0184172D01*
X0312868Y0182524D02*
X0352919Y0182524D01*
X0352919Y0180925D02*
X0312729Y0180925D01*
X0311053Y0179327D02*
X0352919Y0179327D01*
X0352919Y0177728D02*
X0299166Y0177728D01*
X0297568Y0176130D02*
X0352919Y0176130D01*
X0352919Y0174531D02*
X0297419Y0174531D01*
X0297419Y0172933D02*
X0352919Y0172933D01*
X0352919Y0171334D02*
X0297419Y0171334D01*
X0297419Y0169736D02*
X0352919Y0169736D01*
X0352919Y0168137D02*
X0297419Y0168137D01*
X0297419Y0166539D02*
X0352919Y0166539D01*
X0352919Y0164940D02*
X0297419Y0164940D01*
X0297419Y0163342D02*
X0353446Y0163342D01*
X0355044Y0161743D02*
X0297419Y0161743D01*
X0297419Y0160145D02*
X0356643Y0160145D01*
X0358019Y0158546D02*
X0297419Y0158546D01*
X0297908Y0156948D02*
X0358019Y0156948D01*
X0358019Y0155349D02*
X0297479Y0155349D01*
X0295219Y0156892D02*
X0295219Y0176892D01*
X0300219Y0181892D01*
X0310219Y0181892D01*
X0309385Y0179327D02*
X0300765Y0179327D01*
X0297739Y0182524D02*
X0277419Y0182524D01*
X0277419Y0184122D02*
X0308646Y0184122D01*
X0298019Y0182803D02*
X0298019Y0182803D01*
X0296141Y0180925D02*
X0277419Y0180925D01*
X0277419Y0179327D02*
X0294542Y0179327D01*
X0293019Y0177728D02*
X0277419Y0177728D01*
X0277419Y0176130D02*
X0293019Y0176130D01*
X0293019Y0174531D02*
X0277419Y0174531D01*
X0277419Y0172933D02*
X0293019Y0172933D01*
X0293019Y0171334D02*
X0277419Y0171334D01*
X0277419Y0169736D02*
X0293019Y0169736D01*
X0293019Y0168137D02*
X0277419Y0168137D01*
X0277419Y0166539D02*
X0293019Y0166539D01*
X0293019Y0164940D02*
X0277419Y0164940D01*
X0277419Y0163342D02*
X0293019Y0163342D01*
X0293019Y0161743D02*
X0277419Y0161743D01*
X0277419Y0160145D02*
X0293019Y0160145D01*
X0293019Y0158546D02*
X0277419Y0158546D01*
X0277908Y0156948D02*
X0292530Y0156948D01*
X0292959Y0155349D02*
X0277479Y0155349D01*
X0275219Y0156892D02*
X0275219Y0186892D01*
X0270219Y0191892D01*
X0267878Y0190516D02*
X0155219Y0190516D01*
X0155219Y0188918D02*
X0270082Y0188918D01*
X0271680Y0187319D02*
X0155219Y0187319D01*
X0155219Y0185721D02*
X0273019Y0185721D01*
X0273019Y0184122D02*
X0155219Y0184122D01*
X0155219Y0182524D02*
X0273019Y0182524D01*
X0273019Y0180925D02*
X0155219Y0180925D01*
X0155219Y0179327D02*
X0273019Y0179327D01*
X0273019Y0177728D02*
X0155219Y0177728D01*
X0155219Y0176130D02*
X0273019Y0176130D01*
X0273019Y0174531D02*
X0155219Y0174531D01*
X0155219Y0172933D02*
X0273019Y0172933D01*
X0273019Y0171334D02*
X0155219Y0171334D01*
X0155219Y0169736D02*
X0273019Y0169736D01*
X0273019Y0168137D02*
X0155219Y0168137D01*
X0155219Y0166539D02*
X0273019Y0166539D01*
X0273019Y0164940D02*
X0155219Y0164940D01*
X0155219Y0163342D02*
X0273019Y0163342D01*
X0273019Y0161743D02*
X0155219Y0161743D01*
X0155219Y0160145D02*
X0273019Y0160145D01*
X0273019Y0158546D02*
X0155219Y0158546D01*
X0155219Y0156948D02*
X0272530Y0156948D01*
X0272959Y0155349D02*
X0155219Y0155349D01*
X0155219Y0153751D02*
X0358019Y0153751D01*
X0358019Y0152152D02*
X0155219Y0152152D01*
X0155219Y0150554D02*
X0346668Y0150554D01*
X0345553Y0148955D02*
X0155219Y0148955D01*
X0155219Y0147357D02*
X0345119Y0147357D01*
X0345168Y0145758D02*
X0155219Y0145758D01*
X0155219Y0144160D02*
X0345831Y0144160D01*
X0347348Y0142561D02*
X0155219Y0142561D01*
X0155219Y0140963D02*
X0372002Y0140963D01*
X0372002Y0139364D02*
X0155219Y0139364D01*
X0155219Y0137766D02*
X0372002Y0137766D01*
X0372002Y0136167D02*
X0238156Y0136167D01*
X0238108Y0136216D02*
X0239543Y0134781D01*
X0240319Y0132907D01*
X0240319Y0130878D01*
X0239543Y0129003D01*
X0238108Y0127569D01*
X0236233Y0126792D01*
X0234204Y0126792D01*
X0232330Y0127569D01*
X0230895Y0129003D01*
X0230219Y0130636D01*
X0229543Y0129003D01*
X0228108Y0127569D01*
X0226233Y0126792D01*
X0224204Y0126792D01*
X0222330Y0127569D01*
X0220895Y0129003D01*
X0220119Y0130878D01*
X0220119Y0132907D01*
X0220895Y0134781D01*
X0222330Y0136216D01*
X0224204Y0136992D01*
X0226233Y0136992D01*
X0228108Y0136216D01*
X0229543Y0134781D01*
X0230219Y0133148D01*
X0230895Y0134781D01*
X0232330Y0136216D01*
X0234204Y0136992D01*
X0236233Y0136992D01*
X0238108Y0136216D01*
X0239631Y0134569D02*
X0372002Y0134569D01*
X0372002Y0132970D02*
X0240293Y0132970D01*
X0240319Y0131372D02*
X0372002Y0131372D01*
X0372002Y0129773D02*
X0239861Y0129773D01*
X0238714Y0128175D02*
X0372002Y0128175D01*
X0372002Y0126576D02*
X0155219Y0126576D01*
X0155219Y0124977D02*
X0372002Y0124977D01*
X0372002Y0123379D02*
X0155219Y0123379D01*
X0155219Y0128175D02*
X0221724Y0128175D01*
X0220576Y0129773D02*
X0155219Y0129773D01*
X0155219Y0131372D02*
X0220119Y0131372D01*
X0220145Y0132970D02*
X0155219Y0132970D01*
X0155219Y0134569D02*
X0220807Y0134569D01*
X0222281Y0136167D02*
X0155219Y0136167D01*
X0122719Y0131892D02*
X0122719Y0044392D01*
X0110219Y0031892D01*
X0110219Y0006892D01*
X0090219Y0006892D01*
X0090219Y0051892D01*
X0100219Y0061892D01*
X0100219Y0131892D01*
X0122719Y0131892D01*
X0122719Y0131372D02*
X0100219Y0131372D01*
X0100219Y0129773D02*
X0122719Y0129773D01*
X0122719Y0128175D02*
X0100219Y0128175D01*
X0100219Y0126576D02*
X0122719Y0126576D01*
X0122719Y0124977D02*
X0100219Y0124977D01*
X0100219Y0123379D02*
X0122719Y0123379D01*
X0122719Y0121780D02*
X0100219Y0121780D01*
X0100219Y0120182D02*
X0122719Y0120182D01*
X0122719Y0118583D02*
X0100219Y0118583D01*
X0100219Y0116985D02*
X0122719Y0116985D01*
X0122719Y0115386D02*
X0100219Y0115386D01*
X0100219Y0113788D02*
X0122719Y0113788D01*
X0122719Y0112189D02*
X0100219Y0112189D01*
X0100219Y0110591D02*
X0122719Y0110591D01*
X0122719Y0108992D02*
X0100219Y0108992D01*
X0100219Y0107394D02*
X0122719Y0107394D01*
X0122719Y0105795D02*
X0100219Y0105795D01*
X0100219Y0104197D02*
X0122719Y0104197D01*
X0122719Y0102598D02*
X0100219Y0102598D01*
X0100219Y0101000D02*
X0122719Y0101000D01*
X0122719Y0099401D02*
X0100219Y0099401D01*
X0100219Y0097803D02*
X0122719Y0097803D01*
X0122719Y0096204D02*
X0100219Y0096204D01*
X0100219Y0094606D02*
X0122719Y0094606D01*
X0122719Y0093007D02*
X0100219Y0093007D01*
X0100219Y0091409D02*
X0122719Y0091409D01*
X0122719Y0089810D02*
X0100219Y0089810D01*
X0100219Y0088212D02*
X0122719Y0088212D01*
X0122719Y0086613D02*
X0100219Y0086613D01*
X0100219Y0085015D02*
X0122719Y0085015D01*
X0122719Y0083416D02*
X0100219Y0083416D01*
X0100219Y0081818D02*
X0122719Y0081818D01*
X0122719Y0080219D02*
X0100219Y0080219D01*
X0100219Y0078621D02*
X0122719Y0078621D01*
X0122719Y0077022D02*
X0100219Y0077022D01*
X0100219Y0075424D02*
X0122719Y0075424D01*
X0122719Y0073825D02*
X0100219Y0073825D01*
X0100219Y0072227D02*
X0122719Y0072227D01*
X0122719Y0070628D02*
X0100219Y0070628D01*
X0100219Y0069030D02*
X0122719Y0069030D01*
X0122719Y0067431D02*
X0100219Y0067431D01*
X0100219Y0065833D02*
X0122719Y0065833D01*
X0122719Y0064234D02*
X0100219Y0064234D01*
X0100219Y0062636D02*
X0122719Y0062636D01*
X0122719Y0061037D02*
X0099364Y0061037D01*
X0097765Y0059439D02*
X0122719Y0059439D01*
X0122719Y0057840D02*
X0096167Y0057840D01*
X0094568Y0056242D02*
X0122719Y0056242D01*
X0122719Y0054643D02*
X0092970Y0054643D01*
X0091371Y0053044D02*
X0122719Y0053044D01*
X0122719Y0051446D02*
X0090219Y0051446D01*
X0090219Y0049847D02*
X0122719Y0049847D01*
X0122719Y0048249D02*
X0090219Y0048249D01*
X0090219Y0046650D02*
X0122719Y0046650D01*
X0122719Y0045052D02*
X0090219Y0045052D01*
X0090219Y0043453D02*
X0121780Y0043453D01*
X0120182Y0041855D02*
X0090219Y0041855D01*
X0090219Y0040256D02*
X0118583Y0040256D01*
X0116985Y0038658D02*
X0090219Y0038658D01*
X0090219Y0037059D02*
X0115386Y0037059D01*
X0113788Y0035461D02*
X0090219Y0035461D01*
X0090219Y0033862D02*
X0112189Y0033862D01*
X0110591Y0032264D02*
X0090219Y0032264D01*
X0090219Y0030665D02*
X0110219Y0030665D01*
X0110219Y0029067D02*
X0090219Y0029067D01*
X0090219Y0027468D02*
X0110219Y0027468D01*
X0110219Y0025870D02*
X0090219Y0025870D01*
X0090219Y0024271D02*
X0110219Y0024271D01*
X0110219Y0022673D02*
X0090219Y0022673D01*
X0090219Y0021074D02*
X0110219Y0021074D01*
X0110219Y0019476D02*
X0090219Y0019476D01*
X0090219Y0017877D02*
X0110219Y0017877D01*
X0110219Y0016279D02*
X0090219Y0016279D01*
X0090219Y0014680D02*
X0110219Y0014680D01*
X0110219Y0013082D02*
X0090219Y0013082D01*
X0090219Y0011483D02*
X0110219Y0011483D01*
X0110219Y0009885D02*
X0090219Y0009885D01*
X0090219Y0008286D02*
X0110219Y0008286D01*
X0120219Y0008286D02*
X0141613Y0008286D01*
X0140219Y0006892D02*
X0170219Y0036892D01*
X0170219Y0061892D01*
X0165219Y0066892D01*
X0140219Y0066892D01*
X0135219Y0061892D01*
X0135219Y0038142D01*
X0120219Y0021892D01*
X0120219Y0006892D01*
X0140219Y0006892D01*
X0143212Y0009885D02*
X0120219Y0009885D01*
X0120219Y0011483D02*
X0144810Y0011483D01*
X0146409Y0013082D02*
X0120219Y0013082D01*
X0120219Y0014680D02*
X0148007Y0014680D01*
X0149606Y0016279D02*
X0120219Y0016279D01*
X0120219Y0017877D02*
X0151204Y0017877D01*
X0152803Y0019476D02*
X0120219Y0019476D01*
X0120219Y0021074D02*
X0154401Y0021074D01*
X0156000Y0022673D02*
X0120940Y0022673D01*
X0122415Y0024271D02*
X0157598Y0024271D01*
X0159197Y0025870D02*
X0123891Y0025870D01*
X0125366Y0027468D02*
X0160795Y0027468D01*
X0162394Y0029067D02*
X0126842Y0029067D01*
X0128317Y0030665D02*
X0163992Y0030665D01*
X0165591Y0032264D02*
X0129793Y0032264D01*
X0131268Y0033862D02*
X0167189Y0033862D01*
X0168788Y0035461D02*
X0132744Y0035461D01*
X0134219Y0037059D02*
X0170219Y0037059D01*
X0170219Y0038658D02*
X0135219Y0038658D01*
X0135219Y0040256D02*
X0170219Y0040256D01*
X0170219Y0041855D02*
X0135219Y0041855D01*
X0135219Y0043453D02*
X0170219Y0043453D01*
X0170219Y0045052D02*
X0135219Y0045052D01*
X0135219Y0046650D02*
X0170219Y0046650D01*
X0170219Y0048249D02*
X0135219Y0048249D01*
X0135219Y0049847D02*
X0170219Y0049847D01*
X0170219Y0051446D02*
X0135219Y0051446D01*
X0135219Y0053044D02*
X0170219Y0053044D01*
X0170219Y0054643D02*
X0135219Y0054643D01*
X0135219Y0056242D02*
X0170219Y0056242D01*
X0170219Y0057840D02*
X0135219Y0057840D01*
X0135219Y0059439D02*
X0170219Y0059439D01*
X0170219Y0061037D02*
X0135219Y0061037D01*
X0135962Y0062636D02*
X0169476Y0062636D01*
X0167877Y0064234D02*
X0137561Y0064234D01*
X0139159Y0065833D02*
X0166278Y0065833D01*
X0240219Y0061892D02*
X0240219Y0041892D01*
X0245219Y0036892D01*
X0260219Y0036892D01*
X0260219Y0056892D01*
X0265219Y0059392D01*
X0276469Y0059392D01*
X0280219Y0061892D01*
X0280219Y0071892D01*
X0277719Y0074392D01*
X0260219Y0074392D01*
X0240219Y0061892D01*
X0240219Y0061037D02*
X0278936Y0061037D01*
X0280219Y0062636D02*
X0241408Y0062636D01*
X0243966Y0064234D02*
X0280219Y0064234D01*
X0280219Y0065833D02*
X0246524Y0065833D01*
X0249081Y0067431D02*
X0280219Y0067431D01*
X0280219Y0069030D02*
X0251639Y0069030D01*
X0254197Y0070628D02*
X0280219Y0070628D01*
X0279884Y0072227D02*
X0256754Y0072227D01*
X0259312Y0073825D02*
X0278286Y0073825D01*
X0276539Y0059439D02*
X0240219Y0059439D01*
X0240219Y0057840D02*
X0262115Y0057840D01*
X0260219Y0056242D02*
X0240219Y0056242D01*
X0240219Y0054643D02*
X0260219Y0054643D01*
X0260219Y0053044D02*
X0240219Y0053044D01*
X0240219Y0051446D02*
X0260219Y0051446D01*
X0260219Y0049847D02*
X0240219Y0049847D01*
X0240219Y0048249D02*
X0260219Y0048249D01*
X0260219Y0046650D02*
X0240219Y0046650D01*
X0240219Y0045052D02*
X0260219Y0045052D01*
X0260219Y0043453D02*
X0240219Y0043453D01*
X0240256Y0041855D02*
X0260219Y0041855D01*
X0260219Y0040256D02*
X0241855Y0040256D01*
X0243453Y0038658D02*
X0260219Y0038658D01*
X0260219Y0037059D02*
X0245052Y0037059D01*
X0300219Y0037059D02*
X0317219Y0037059D01*
X0317219Y0035461D02*
X0300219Y0035461D01*
X0300219Y0033862D02*
X0317219Y0033862D01*
X0317219Y0032264D02*
X0300219Y0032264D01*
X0300219Y0030665D02*
X0317219Y0030665D01*
X0317219Y0029067D02*
X0300219Y0029067D01*
X0300219Y0027468D02*
X0317219Y0027468D01*
X0317219Y0025870D02*
X0300219Y0025870D01*
X0300219Y0024271D02*
X0317219Y0024271D01*
X0317219Y0022673D02*
X0300219Y0022673D01*
X0300219Y0021074D02*
X0317219Y0021074D01*
X0317219Y0019476D02*
X0300219Y0019476D01*
X0300219Y0017877D02*
X0317219Y0017877D01*
X0317219Y0016279D02*
X0300219Y0016279D01*
X0300219Y0014680D02*
X0317219Y0014680D01*
X0317219Y0013082D02*
X0300219Y0013082D01*
X0300219Y0011483D02*
X0317219Y0011483D01*
X0317219Y0009885D02*
X0300219Y0009885D01*
X0300219Y0008286D02*
X0317219Y0008286D01*
X0317219Y0006892D02*
X0300219Y0006892D01*
X0300219Y0071892D01*
X0331469Y0099392D01*
X0343969Y0085642D01*
X0317219Y0062642D01*
X0317219Y0006892D01*
X0328219Y0006892D02*
X0345969Y0006892D01*
X0345969Y0010142D01*
X0345219Y0051892D01*
X0328219Y0051892D01*
X0328219Y0006892D01*
X0328219Y0008286D02*
X0345969Y0008286D01*
X0345969Y0009885D02*
X0328219Y0009885D01*
X0328219Y0011483D02*
X0345945Y0011483D01*
X0345916Y0013082D02*
X0328219Y0013082D01*
X0328219Y0014680D02*
X0345887Y0014680D01*
X0345859Y0016279D02*
X0328219Y0016279D01*
X0328219Y0017877D02*
X0345830Y0017877D01*
X0345801Y0019476D02*
X0328219Y0019476D01*
X0328219Y0021074D02*
X0345773Y0021074D01*
X0345744Y0022673D02*
X0328219Y0022673D01*
X0328219Y0024271D02*
X0345715Y0024271D01*
X0345686Y0025870D02*
X0328219Y0025870D01*
X0328219Y0027468D02*
X0345658Y0027468D01*
X0345629Y0029067D02*
X0328219Y0029067D01*
X0328219Y0030665D02*
X0345600Y0030665D01*
X0345572Y0032264D02*
X0328219Y0032264D01*
X0328219Y0033862D02*
X0345543Y0033862D01*
X0345514Y0035461D02*
X0328219Y0035461D01*
X0328219Y0037059D02*
X0345485Y0037059D01*
X0345457Y0038658D02*
X0328219Y0038658D01*
X0328219Y0040256D02*
X0345428Y0040256D01*
X0345399Y0041855D02*
X0328219Y0041855D01*
X0328219Y0043453D02*
X0345371Y0043453D01*
X0345342Y0045052D02*
X0328219Y0045052D01*
X0328219Y0046650D02*
X0345313Y0046650D01*
X0345284Y0048249D02*
X0328219Y0048249D01*
X0328219Y0049847D02*
X0345256Y0049847D01*
X0345227Y0051446D02*
X0328219Y0051446D01*
X0317219Y0051446D02*
X0300219Y0051446D01*
X0300219Y0053044D02*
X0317219Y0053044D01*
X0317219Y0054643D02*
X0300219Y0054643D01*
X0300219Y0056242D02*
X0317219Y0056242D01*
X0317219Y0057840D02*
X0300219Y0057840D01*
X0300219Y0059439D02*
X0317219Y0059439D01*
X0317219Y0061037D02*
X0300219Y0061037D01*
X0300219Y0062636D02*
X0317219Y0062636D01*
X0319070Y0064234D02*
X0300219Y0064234D01*
X0300219Y0065833D02*
X0320930Y0065833D01*
X0322789Y0067431D02*
X0300219Y0067431D01*
X0300219Y0069030D02*
X0324648Y0069030D01*
X0326507Y0070628D02*
X0300219Y0070628D01*
X0300599Y0072227D02*
X0328366Y0072227D01*
X0330225Y0073825D02*
X0302416Y0073825D01*
X0304232Y0075424D02*
X0332084Y0075424D01*
X0333944Y0077022D02*
X0306049Y0077022D01*
X0307865Y0078621D02*
X0335803Y0078621D01*
X0337662Y0080219D02*
X0309682Y0080219D01*
X0311498Y0081818D02*
X0339521Y0081818D01*
X0341380Y0083416D02*
X0313314Y0083416D01*
X0315131Y0085015D02*
X0343239Y0085015D01*
X0343086Y0086613D02*
X0316947Y0086613D01*
X0318764Y0088212D02*
X0341633Y0088212D01*
X0340180Y0089810D02*
X0320580Y0089810D01*
X0322397Y0091409D02*
X0338727Y0091409D01*
X0337273Y0093007D02*
X0324213Y0093007D01*
X0326030Y0094606D02*
X0335820Y0094606D01*
X0334367Y0096204D02*
X0327846Y0096204D01*
X0329663Y0097803D02*
X0332914Y0097803D01*
X0353090Y0142561D02*
X0357348Y0142561D01*
X0355831Y0144160D02*
X0354607Y0144160D01*
X0354885Y0148955D02*
X0355553Y0148955D01*
X0356668Y0150554D02*
X0353770Y0150554D01*
X0232281Y0136167D02*
X0228156Y0136167D01*
X0229631Y0134569D02*
X0230807Y0134569D01*
X0230576Y0129773D02*
X0229861Y0129773D01*
X0228714Y0128175D02*
X0231724Y0128175D01*
X0300219Y0049847D02*
X0317219Y0049847D01*
X0317219Y0048249D02*
X0300219Y0048249D01*
X0300219Y0046650D02*
X0317219Y0046650D01*
X0317219Y0045052D02*
X0300219Y0045052D01*
X0300219Y0043453D02*
X0317219Y0043453D01*
X0317219Y0041855D02*
X0300219Y0041855D01*
X0300219Y0040256D02*
X0317219Y0040256D01*
X0317219Y0038658D02*
X0300219Y0038658D01*
X0090219Y0081892D02*
X0090219Y0131892D01*
X0070219Y0131892D01*
X0070219Y0096892D01*
X0045219Y0071892D01*
X0045219Y0036892D01*
X0065219Y0036892D01*
X0065219Y0056892D01*
X0090219Y0081892D01*
X0090145Y0081818D02*
X0055145Y0081818D01*
X0056743Y0083416D02*
X0090219Y0083416D01*
X0090219Y0085015D02*
X0058342Y0085015D01*
X0059940Y0086613D02*
X0090219Y0086613D01*
X0090219Y0088212D02*
X0061539Y0088212D01*
X0063137Y0089810D02*
X0090219Y0089810D01*
X0090219Y0091409D02*
X0064736Y0091409D01*
X0066334Y0093007D02*
X0090219Y0093007D01*
X0090219Y0094606D02*
X0067933Y0094606D01*
X0069531Y0096204D02*
X0090219Y0096204D01*
X0090219Y0097803D02*
X0070219Y0097803D01*
X0070219Y0099401D02*
X0090219Y0099401D01*
X0090219Y0101000D02*
X0070219Y0101000D01*
X0070219Y0102598D02*
X0090219Y0102598D01*
X0090219Y0104197D02*
X0070219Y0104197D01*
X0070219Y0105795D02*
X0090219Y0105795D01*
X0090219Y0107394D02*
X0070219Y0107394D01*
X0070219Y0108992D02*
X0090219Y0108992D01*
X0090219Y0110591D02*
X0070219Y0110591D01*
X0070219Y0112189D02*
X0090219Y0112189D01*
X0090219Y0113788D02*
X0070219Y0113788D01*
X0070219Y0115386D02*
X0090219Y0115386D01*
X0090219Y0116985D02*
X0070219Y0116985D01*
X0070219Y0118583D02*
X0090219Y0118583D01*
X0090219Y0120182D02*
X0070219Y0120182D01*
X0070219Y0121780D02*
X0090219Y0121780D01*
X0090219Y0123379D02*
X0070219Y0123379D01*
X0070219Y0124977D02*
X0090219Y0124977D01*
X0090219Y0126576D02*
X0070219Y0126576D01*
X0070219Y0128175D02*
X0090219Y0128175D01*
X0090219Y0129773D02*
X0070219Y0129773D01*
X0070219Y0131372D02*
X0090219Y0131372D01*
X0088546Y0080219D02*
X0053546Y0080219D01*
X0051947Y0078621D02*
X0086947Y0078621D01*
X0085349Y0077022D02*
X0050349Y0077022D01*
X0048750Y0075424D02*
X0083750Y0075424D01*
X0082152Y0073825D02*
X0047152Y0073825D01*
X0045553Y0072227D02*
X0080553Y0072227D01*
X0078955Y0070628D02*
X0045219Y0070628D01*
X0045219Y0069030D02*
X0077356Y0069030D01*
X0075758Y0067431D02*
X0045219Y0067431D01*
X0045219Y0065833D02*
X0074159Y0065833D01*
X0072561Y0064234D02*
X0045219Y0064234D01*
X0045219Y0062636D02*
X0070962Y0062636D01*
X0069364Y0061037D02*
X0045219Y0061037D01*
X0045219Y0059439D02*
X0067765Y0059439D01*
X0066167Y0057840D02*
X0045219Y0057840D01*
X0045219Y0056242D02*
X0065219Y0056242D01*
X0065219Y0054643D02*
X0045219Y0054643D01*
X0045219Y0053044D02*
X0065219Y0053044D01*
X0065219Y0051446D02*
X0045219Y0051446D01*
X0045219Y0049847D02*
X0065219Y0049847D01*
X0065219Y0048249D02*
X0045219Y0048249D01*
X0045219Y0046650D02*
X0065219Y0046650D01*
X0065219Y0045052D02*
X0045219Y0045052D01*
X0045219Y0043453D02*
X0065219Y0043453D01*
X0065219Y0041855D02*
X0045219Y0041855D01*
X0045219Y0040256D02*
X0065219Y0040256D01*
X0065219Y0038658D02*
X0045219Y0038658D01*
X0045219Y0037059D02*
X0065219Y0037059D01*
M02*
