G75*
%MOIN*%
%OFA0B0*%
%FSLAX25Y25*%
%IPPOS*%
%LPD*%
%AMOC8*
5,1,8,0,0,1.08239X$1,22.5*
%
%ADD10C,0.00000*%
%ADD11R,0.05118X0.05906*%
%ADD12R,0.03150X0.04724*%
%ADD13R,0.05512X0.11811*%
%ADD14R,0.03150X0.03543*%
%ADD15R,0.04724X0.03150*%
%ADD16R,0.11811X0.04200*%
%ADD17R,0.06000X0.03000*%
%ADD18R,0.08800X0.04800*%
%ADD19R,0.08661X0.14173*%
D10*
X0035219Y0001892D02*
X0035219Y0273546D01*
X0039156Y0277483D01*
X0373802Y0277483D01*
X0373802Y0001892D01*
X0035219Y0001892D01*
X0040337Y0013703D02*
X0040339Y0013867D01*
X0040345Y0014031D01*
X0040355Y0014195D01*
X0040369Y0014359D01*
X0040387Y0014522D01*
X0040409Y0014685D01*
X0040436Y0014847D01*
X0040466Y0015009D01*
X0040500Y0015169D01*
X0040538Y0015329D01*
X0040579Y0015488D01*
X0040625Y0015646D01*
X0040675Y0015802D01*
X0040728Y0015958D01*
X0040785Y0016112D01*
X0040846Y0016264D01*
X0040911Y0016415D01*
X0040980Y0016565D01*
X0041052Y0016712D01*
X0041127Y0016858D01*
X0041207Y0017002D01*
X0041289Y0017144D01*
X0041375Y0017284D01*
X0041465Y0017421D01*
X0041558Y0017557D01*
X0041654Y0017690D01*
X0041754Y0017821D01*
X0041856Y0017949D01*
X0041962Y0018075D01*
X0042071Y0018198D01*
X0042183Y0018318D01*
X0042297Y0018436D01*
X0042415Y0018550D01*
X0042535Y0018662D01*
X0042658Y0018771D01*
X0042784Y0018877D01*
X0042912Y0018979D01*
X0043043Y0019079D01*
X0043176Y0019175D01*
X0043312Y0019268D01*
X0043449Y0019358D01*
X0043589Y0019444D01*
X0043731Y0019526D01*
X0043875Y0019606D01*
X0044021Y0019681D01*
X0044168Y0019753D01*
X0044318Y0019822D01*
X0044469Y0019887D01*
X0044621Y0019948D01*
X0044775Y0020005D01*
X0044931Y0020058D01*
X0045087Y0020108D01*
X0045245Y0020154D01*
X0045404Y0020195D01*
X0045564Y0020233D01*
X0045724Y0020267D01*
X0045886Y0020297D01*
X0046048Y0020324D01*
X0046211Y0020346D01*
X0046374Y0020364D01*
X0046538Y0020378D01*
X0046702Y0020388D01*
X0046866Y0020394D01*
X0047030Y0020396D01*
X0047194Y0020394D01*
X0047358Y0020388D01*
X0047522Y0020378D01*
X0047686Y0020364D01*
X0047849Y0020346D01*
X0048012Y0020324D01*
X0048174Y0020297D01*
X0048336Y0020267D01*
X0048496Y0020233D01*
X0048656Y0020195D01*
X0048815Y0020154D01*
X0048973Y0020108D01*
X0049129Y0020058D01*
X0049285Y0020005D01*
X0049439Y0019948D01*
X0049591Y0019887D01*
X0049742Y0019822D01*
X0049892Y0019753D01*
X0050039Y0019681D01*
X0050185Y0019606D01*
X0050329Y0019526D01*
X0050471Y0019444D01*
X0050611Y0019358D01*
X0050748Y0019268D01*
X0050884Y0019175D01*
X0051017Y0019079D01*
X0051148Y0018979D01*
X0051276Y0018877D01*
X0051402Y0018771D01*
X0051525Y0018662D01*
X0051645Y0018550D01*
X0051763Y0018436D01*
X0051877Y0018318D01*
X0051989Y0018198D01*
X0052098Y0018075D01*
X0052204Y0017949D01*
X0052306Y0017821D01*
X0052406Y0017690D01*
X0052502Y0017557D01*
X0052595Y0017421D01*
X0052685Y0017284D01*
X0052771Y0017144D01*
X0052853Y0017002D01*
X0052933Y0016858D01*
X0053008Y0016712D01*
X0053080Y0016565D01*
X0053149Y0016415D01*
X0053214Y0016264D01*
X0053275Y0016112D01*
X0053332Y0015958D01*
X0053385Y0015802D01*
X0053435Y0015646D01*
X0053481Y0015488D01*
X0053522Y0015329D01*
X0053560Y0015169D01*
X0053594Y0015009D01*
X0053624Y0014847D01*
X0053651Y0014685D01*
X0053673Y0014522D01*
X0053691Y0014359D01*
X0053705Y0014195D01*
X0053715Y0014031D01*
X0053721Y0013867D01*
X0053723Y0013703D01*
X0053721Y0013539D01*
X0053715Y0013375D01*
X0053705Y0013211D01*
X0053691Y0013047D01*
X0053673Y0012884D01*
X0053651Y0012721D01*
X0053624Y0012559D01*
X0053594Y0012397D01*
X0053560Y0012237D01*
X0053522Y0012077D01*
X0053481Y0011918D01*
X0053435Y0011760D01*
X0053385Y0011604D01*
X0053332Y0011448D01*
X0053275Y0011294D01*
X0053214Y0011142D01*
X0053149Y0010991D01*
X0053080Y0010841D01*
X0053008Y0010694D01*
X0052933Y0010548D01*
X0052853Y0010404D01*
X0052771Y0010262D01*
X0052685Y0010122D01*
X0052595Y0009985D01*
X0052502Y0009849D01*
X0052406Y0009716D01*
X0052306Y0009585D01*
X0052204Y0009457D01*
X0052098Y0009331D01*
X0051989Y0009208D01*
X0051877Y0009088D01*
X0051763Y0008970D01*
X0051645Y0008856D01*
X0051525Y0008744D01*
X0051402Y0008635D01*
X0051276Y0008529D01*
X0051148Y0008427D01*
X0051017Y0008327D01*
X0050884Y0008231D01*
X0050748Y0008138D01*
X0050611Y0008048D01*
X0050471Y0007962D01*
X0050329Y0007880D01*
X0050185Y0007800D01*
X0050039Y0007725D01*
X0049892Y0007653D01*
X0049742Y0007584D01*
X0049591Y0007519D01*
X0049439Y0007458D01*
X0049285Y0007401D01*
X0049129Y0007348D01*
X0048973Y0007298D01*
X0048815Y0007252D01*
X0048656Y0007211D01*
X0048496Y0007173D01*
X0048336Y0007139D01*
X0048174Y0007109D01*
X0048012Y0007082D01*
X0047849Y0007060D01*
X0047686Y0007042D01*
X0047522Y0007028D01*
X0047358Y0007018D01*
X0047194Y0007012D01*
X0047030Y0007010D01*
X0046866Y0007012D01*
X0046702Y0007018D01*
X0046538Y0007028D01*
X0046374Y0007042D01*
X0046211Y0007060D01*
X0046048Y0007082D01*
X0045886Y0007109D01*
X0045724Y0007139D01*
X0045564Y0007173D01*
X0045404Y0007211D01*
X0045245Y0007252D01*
X0045087Y0007298D01*
X0044931Y0007348D01*
X0044775Y0007401D01*
X0044621Y0007458D01*
X0044469Y0007519D01*
X0044318Y0007584D01*
X0044168Y0007653D01*
X0044021Y0007725D01*
X0043875Y0007800D01*
X0043731Y0007880D01*
X0043589Y0007962D01*
X0043449Y0008048D01*
X0043312Y0008138D01*
X0043176Y0008231D01*
X0043043Y0008327D01*
X0042912Y0008427D01*
X0042784Y0008529D01*
X0042658Y0008635D01*
X0042535Y0008744D01*
X0042415Y0008856D01*
X0042297Y0008970D01*
X0042183Y0009088D01*
X0042071Y0009208D01*
X0041962Y0009331D01*
X0041856Y0009457D01*
X0041754Y0009585D01*
X0041654Y0009716D01*
X0041558Y0009849D01*
X0041465Y0009985D01*
X0041375Y0010122D01*
X0041289Y0010262D01*
X0041207Y0010404D01*
X0041127Y0010548D01*
X0041052Y0010694D01*
X0040980Y0010841D01*
X0040911Y0010991D01*
X0040846Y0011142D01*
X0040785Y0011294D01*
X0040728Y0011448D01*
X0040675Y0011604D01*
X0040625Y0011760D01*
X0040579Y0011918D01*
X0040538Y0012077D01*
X0040500Y0012237D01*
X0040466Y0012397D01*
X0040436Y0012559D01*
X0040409Y0012721D01*
X0040387Y0012884D01*
X0040369Y0013047D01*
X0040355Y0013211D01*
X0040345Y0013375D01*
X0040339Y0013539D01*
X0040337Y0013703D01*
X0355298Y0013703D02*
X0355300Y0013867D01*
X0355306Y0014031D01*
X0355316Y0014195D01*
X0355330Y0014359D01*
X0355348Y0014522D01*
X0355370Y0014685D01*
X0355397Y0014847D01*
X0355427Y0015009D01*
X0355461Y0015169D01*
X0355499Y0015329D01*
X0355540Y0015488D01*
X0355586Y0015646D01*
X0355636Y0015802D01*
X0355689Y0015958D01*
X0355746Y0016112D01*
X0355807Y0016264D01*
X0355872Y0016415D01*
X0355941Y0016565D01*
X0356013Y0016712D01*
X0356088Y0016858D01*
X0356168Y0017002D01*
X0356250Y0017144D01*
X0356336Y0017284D01*
X0356426Y0017421D01*
X0356519Y0017557D01*
X0356615Y0017690D01*
X0356715Y0017821D01*
X0356817Y0017949D01*
X0356923Y0018075D01*
X0357032Y0018198D01*
X0357144Y0018318D01*
X0357258Y0018436D01*
X0357376Y0018550D01*
X0357496Y0018662D01*
X0357619Y0018771D01*
X0357745Y0018877D01*
X0357873Y0018979D01*
X0358004Y0019079D01*
X0358137Y0019175D01*
X0358273Y0019268D01*
X0358410Y0019358D01*
X0358550Y0019444D01*
X0358692Y0019526D01*
X0358836Y0019606D01*
X0358982Y0019681D01*
X0359129Y0019753D01*
X0359279Y0019822D01*
X0359430Y0019887D01*
X0359582Y0019948D01*
X0359736Y0020005D01*
X0359892Y0020058D01*
X0360048Y0020108D01*
X0360206Y0020154D01*
X0360365Y0020195D01*
X0360525Y0020233D01*
X0360685Y0020267D01*
X0360847Y0020297D01*
X0361009Y0020324D01*
X0361172Y0020346D01*
X0361335Y0020364D01*
X0361499Y0020378D01*
X0361663Y0020388D01*
X0361827Y0020394D01*
X0361991Y0020396D01*
X0362155Y0020394D01*
X0362319Y0020388D01*
X0362483Y0020378D01*
X0362647Y0020364D01*
X0362810Y0020346D01*
X0362973Y0020324D01*
X0363135Y0020297D01*
X0363297Y0020267D01*
X0363457Y0020233D01*
X0363617Y0020195D01*
X0363776Y0020154D01*
X0363934Y0020108D01*
X0364090Y0020058D01*
X0364246Y0020005D01*
X0364400Y0019948D01*
X0364552Y0019887D01*
X0364703Y0019822D01*
X0364853Y0019753D01*
X0365000Y0019681D01*
X0365146Y0019606D01*
X0365290Y0019526D01*
X0365432Y0019444D01*
X0365572Y0019358D01*
X0365709Y0019268D01*
X0365845Y0019175D01*
X0365978Y0019079D01*
X0366109Y0018979D01*
X0366237Y0018877D01*
X0366363Y0018771D01*
X0366486Y0018662D01*
X0366606Y0018550D01*
X0366724Y0018436D01*
X0366838Y0018318D01*
X0366950Y0018198D01*
X0367059Y0018075D01*
X0367165Y0017949D01*
X0367267Y0017821D01*
X0367367Y0017690D01*
X0367463Y0017557D01*
X0367556Y0017421D01*
X0367646Y0017284D01*
X0367732Y0017144D01*
X0367814Y0017002D01*
X0367894Y0016858D01*
X0367969Y0016712D01*
X0368041Y0016565D01*
X0368110Y0016415D01*
X0368175Y0016264D01*
X0368236Y0016112D01*
X0368293Y0015958D01*
X0368346Y0015802D01*
X0368396Y0015646D01*
X0368442Y0015488D01*
X0368483Y0015329D01*
X0368521Y0015169D01*
X0368555Y0015009D01*
X0368585Y0014847D01*
X0368612Y0014685D01*
X0368634Y0014522D01*
X0368652Y0014359D01*
X0368666Y0014195D01*
X0368676Y0014031D01*
X0368682Y0013867D01*
X0368684Y0013703D01*
X0368682Y0013539D01*
X0368676Y0013375D01*
X0368666Y0013211D01*
X0368652Y0013047D01*
X0368634Y0012884D01*
X0368612Y0012721D01*
X0368585Y0012559D01*
X0368555Y0012397D01*
X0368521Y0012237D01*
X0368483Y0012077D01*
X0368442Y0011918D01*
X0368396Y0011760D01*
X0368346Y0011604D01*
X0368293Y0011448D01*
X0368236Y0011294D01*
X0368175Y0011142D01*
X0368110Y0010991D01*
X0368041Y0010841D01*
X0367969Y0010694D01*
X0367894Y0010548D01*
X0367814Y0010404D01*
X0367732Y0010262D01*
X0367646Y0010122D01*
X0367556Y0009985D01*
X0367463Y0009849D01*
X0367367Y0009716D01*
X0367267Y0009585D01*
X0367165Y0009457D01*
X0367059Y0009331D01*
X0366950Y0009208D01*
X0366838Y0009088D01*
X0366724Y0008970D01*
X0366606Y0008856D01*
X0366486Y0008744D01*
X0366363Y0008635D01*
X0366237Y0008529D01*
X0366109Y0008427D01*
X0365978Y0008327D01*
X0365845Y0008231D01*
X0365709Y0008138D01*
X0365572Y0008048D01*
X0365432Y0007962D01*
X0365290Y0007880D01*
X0365146Y0007800D01*
X0365000Y0007725D01*
X0364853Y0007653D01*
X0364703Y0007584D01*
X0364552Y0007519D01*
X0364400Y0007458D01*
X0364246Y0007401D01*
X0364090Y0007348D01*
X0363934Y0007298D01*
X0363776Y0007252D01*
X0363617Y0007211D01*
X0363457Y0007173D01*
X0363297Y0007139D01*
X0363135Y0007109D01*
X0362973Y0007082D01*
X0362810Y0007060D01*
X0362647Y0007042D01*
X0362483Y0007028D01*
X0362319Y0007018D01*
X0362155Y0007012D01*
X0361991Y0007010D01*
X0361827Y0007012D01*
X0361663Y0007018D01*
X0361499Y0007028D01*
X0361335Y0007042D01*
X0361172Y0007060D01*
X0361009Y0007082D01*
X0360847Y0007109D01*
X0360685Y0007139D01*
X0360525Y0007173D01*
X0360365Y0007211D01*
X0360206Y0007252D01*
X0360048Y0007298D01*
X0359892Y0007348D01*
X0359736Y0007401D01*
X0359582Y0007458D01*
X0359430Y0007519D01*
X0359279Y0007584D01*
X0359129Y0007653D01*
X0358982Y0007725D01*
X0358836Y0007800D01*
X0358692Y0007880D01*
X0358550Y0007962D01*
X0358410Y0008048D01*
X0358273Y0008138D01*
X0358137Y0008231D01*
X0358004Y0008327D01*
X0357873Y0008427D01*
X0357745Y0008529D01*
X0357619Y0008635D01*
X0357496Y0008744D01*
X0357376Y0008856D01*
X0357258Y0008970D01*
X0357144Y0009088D01*
X0357032Y0009208D01*
X0356923Y0009331D01*
X0356817Y0009457D01*
X0356715Y0009585D01*
X0356615Y0009716D01*
X0356519Y0009849D01*
X0356426Y0009985D01*
X0356336Y0010122D01*
X0356250Y0010262D01*
X0356168Y0010404D01*
X0356088Y0010548D01*
X0356013Y0010694D01*
X0355941Y0010841D01*
X0355872Y0010991D01*
X0355807Y0011142D01*
X0355746Y0011294D01*
X0355689Y0011448D01*
X0355636Y0011604D01*
X0355586Y0011760D01*
X0355540Y0011918D01*
X0355499Y0012077D01*
X0355461Y0012237D01*
X0355427Y0012397D01*
X0355397Y0012559D01*
X0355370Y0012721D01*
X0355348Y0012884D01*
X0355330Y0013047D01*
X0355316Y0013211D01*
X0355306Y0013375D01*
X0355300Y0013539D01*
X0355298Y0013703D01*
X0355298Y0265672D02*
X0355300Y0265836D01*
X0355306Y0266000D01*
X0355316Y0266164D01*
X0355330Y0266328D01*
X0355348Y0266491D01*
X0355370Y0266654D01*
X0355397Y0266816D01*
X0355427Y0266978D01*
X0355461Y0267138D01*
X0355499Y0267298D01*
X0355540Y0267457D01*
X0355586Y0267615D01*
X0355636Y0267771D01*
X0355689Y0267927D01*
X0355746Y0268081D01*
X0355807Y0268233D01*
X0355872Y0268384D01*
X0355941Y0268534D01*
X0356013Y0268681D01*
X0356088Y0268827D01*
X0356168Y0268971D01*
X0356250Y0269113D01*
X0356336Y0269253D01*
X0356426Y0269390D01*
X0356519Y0269526D01*
X0356615Y0269659D01*
X0356715Y0269790D01*
X0356817Y0269918D01*
X0356923Y0270044D01*
X0357032Y0270167D01*
X0357144Y0270287D01*
X0357258Y0270405D01*
X0357376Y0270519D01*
X0357496Y0270631D01*
X0357619Y0270740D01*
X0357745Y0270846D01*
X0357873Y0270948D01*
X0358004Y0271048D01*
X0358137Y0271144D01*
X0358273Y0271237D01*
X0358410Y0271327D01*
X0358550Y0271413D01*
X0358692Y0271495D01*
X0358836Y0271575D01*
X0358982Y0271650D01*
X0359129Y0271722D01*
X0359279Y0271791D01*
X0359430Y0271856D01*
X0359582Y0271917D01*
X0359736Y0271974D01*
X0359892Y0272027D01*
X0360048Y0272077D01*
X0360206Y0272123D01*
X0360365Y0272164D01*
X0360525Y0272202D01*
X0360685Y0272236D01*
X0360847Y0272266D01*
X0361009Y0272293D01*
X0361172Y0272315D01*
X0361335Y0272333D01*
X0361499Y0272347D01*
X0361663Y0272357D01*
X0361827Y0272363D01*
X0361991Y0272365D01*
X0362155Y0272363D01*
X0362319Y0272357D01*
X0362483Y0272347D01*
X0362647Y0272333D01*
X0362810Y0272315D01*
X0362973Y0272293D01*
X0363135Y0272266D01*
X0363297Y0272236D01*
X0363457Y0272202D01*
X0363617Y0272164D01*
X0363776Y0272123D01*
X0363934Y0272077D01*
X0364090Y0272027D01*
X0364246Y0271974D01*
X0364400Y0271917D01*
X0364552Y0271856D01*
X0364703Y0271791D01*
X0364853Y0271722D01*
X0365000Y0271650D01*
X0365146Y0271575D01*
X0365290Y0271495D01*
X0365432Y0271413D01*
X0365572Y0271327D01*
X0365709Y0271237D01*
X0365845Y0271144D01*
X0365978Y0271048D01*
X0366109Y0270948D01*
X0366237Y0270846D01*
X0366363Y0270740D01*
X0366486Y0270631D01*
X0366606Y0270519D01*
X0366724Y0270405D01*
X0366838Y0270287D01*
X0366950Y0270167D01*
X0367059Y0270044D01*
X0367165Y0269918D01*
X0367267Y0269790D01*
X0367367Y0269659D01*
X0367463Y0269526D01*
X0367556Y0269390D01*
X0367646Y0269253D01*
X0367732Y0269113D01*
X0367814Y0268971D01*
X0367894Y0268827D01*
X0367969Y0268681D01*
X0368041Y0268534D01*
X0368110Y0268384D01*
X0368175Y0268233D01*
X0368236Y0268081D01*
X0368293Y0267927D01*
X0368346Y0267771D01*
X0368396Y0267615D01*
X0368442Y0267457D01*
X0368483Y0267298D01*
X0368521Y0267138D01*
X0368555Y0266978D01*
X0368585Y0266816D01*
X0368612Y0266654D01*
X0368634Y0266491D01*
X0368652Y0266328D01*
X0368666Y0266164D01*
X0368676Y0266000D01*
X0368682Y0265836D01*
X0368684Y0265672D01*
X0368682Y0265508D01*
X0368676Y0265344D01*
X0368666Y0265180D01*
X0368652Y0265016D01*
X0368634Y0264853D01*
X0368612Y0264690D01*
X0368585Y0264528D01*
X0368555Y0264366D01*
X0368521Y0264206D01*
X0368483Y0264046D01*
X0368442Y0263887D01*
X0368396Y0263729D01*
X0368346Y0263573D01*
X0368293Y0263417D01*
X0368236Y0263263D01*
X0368175Y0263111D01*
X0368110Y0262960D01*
X0368041Y0262810D01*
X0367969Y0262663D01*
X0367894Y0262517D01*
X0367814Y0262373D01*
X0367732Y0262231D01*
X0367646Y0262091D01*
X0367556Y0261954D01*
X0367463Y0261818D01*
X0367367Y0261685D01*
X0367267Y0261554D01*
X0367165Y0261426D01*
X0367059Y0261300D01*
X0366950Y0261177D01*
X0366838Y0261057D01*
X0366724Y0260939D01*
X0366606Y0260825D01*
X0366486Y0260713D01*
X0366363Y0260604D01*
X0366237Y0260498D01*
X0366109Y0260396D01*
X0365978Y0260296D01*
X0365845Y0260200D01*
X0365709Y0260107D01*
X0365572Y0260017D01*
X0365432Y0259931D01*
X0365290Y0259849D01*
X0365146Y0259769D01*
X0365000Y0259694D01*
X0364853Y0259622D01*
X0364703Y0259553D01*
X0364552Y0259488D01*
X0364400Y0259427D01*
X0364246Y0259370D01*
X0364090Y0259317D01*
X0363934Y0259267D01*
X0363776Y0259221D01*
X0363617Y0259180D01*
X0363457Y0259142D01*
X0363297Y0259108D01*
X0363135Y0259078D01*
X0362973Y0259051D01*
X0362810Y0259029D01*
X0362647Y0259011D01*
X0362483Y0258997D01*
X0362319Y0258987D01*
X0362155Y0258981D01*
X0361991Y0258979D01*
X0361827Y0258981D01*
X0361663Y0258987D01*
X0361499Y0258997D01*
X0361335Y0259011D01*
X0361172Y0259029D01*
X0361009Y0259051D01*
X0360847Y0259078D01*
X0360685Y0259108D01*
X0360525Y0259142D01*
X0360365Y0259180D01*
X0360206Y0259221D01*
X0360048Y0259267D01*
X0359892Y0259317D01*
X0359736Y0259370D01*
X0359582Y0259427D01*
X0359430Y0259488D01*
X0359279Y0259553D01*
X0359129Y0259622D01*
X0358982Y0259694D01*
X0358836Y0259769D01*
X0358692Y0259849D01*
X0358550Y0259931D01*
X0358410Y0260017D01*
X0358273Y0260107D01*
X0358137Y0260200D01*
X0358004Y0260296D01*
X0357873Y0260396D01*
X0357745Y0260498D01*
X0357619Y0260604D01*
X0357496Y0260713D01*
X0357376Y0260825D01*
X0357258Y0260939D01*
X0357144Y0261057D01*
X0357032Y0261177D01*
X0356923Y0261300D01*
X0356817Y0261426D01*
X0356715Y0261554D01*
X0356615Y0261685D01*
X0356519Y0261818D01*
X0356426Y0261954D01*
X0356336Y0262091D01*
X0356250Y0262231D01*
X0356168Y0262373D01*
X0356088Y0262517D01*
X0356013Y0262663D01*
X0355941Y0262810D01*
X0355872Y0262960D01*
X0355807Y0263111D01*
X0355746Y0263263D01*
X0355689Y0263417D01*
X0355636Y0263573D01*
X0355586Y0263729D01*
X0355540Y0263887D01*
X0355499Y0264046D01*
X0355461Y0264206D01*
X0355427Y0264366D01*
X0355397Y0264528D01*
X0355370Y0264690D01*
X0355348Y0264853D01*
X0355330Y0265016D01*
X0355316Y0265180D01*
X0355306Y0265344D01*
X0355300Y0265508D01*
X0355298Y0265672D01*
X0040337Y0265672D02*
X0040339Y0265836D01*
X0040345Y0266000D01*
X0040355Y0266164D01*
X0040369Y0266328D01*
X0040387Y0266491D01*
X0040409Y0266654D01*
X0040436Y0266816D01*
X0040466Y0266978D01*
X0040500Y0267138D01*
X0040538Y0267298D01*
X0040579Y0267457D01*
X0040625Y0267615D01*
X0040675Y0267771D01*
X0040728Y0267927D01*
X0040785Y0268081D01*
X0040846Y0268233D01*
X0040911Y0268384D01*
X0040980Y0268534D01*
X0041052Y0268681D01*
X0041127Y0268827D01*
X0041207Y0268971D01*
X0041289Y0269113D01*
X0041375Y0269253D01*
X0041465Y0269390D01*
X0041558Y0269526D01*
X0041654Y0269659D01*
X0041754Y0269790D01*
X0041856Y0269918D01*
X0041962Y0270044D01*
X0042071Y0270167D01*
X0042183Y0270287D01*
X0042297Y0270405D01*
X0042415Y0270519D01*
X0042535Y0270631D01*
X0042658Y0270740D01*
X0042784Y0270846D01*
X0042912Y0270948D01*
X0043043Y0271048D01*
X0043176Y0271144D01*
X0043312Y0271237D01*
X0043449Y0271327D01*
X0043589Y0271413D01*
X0043731Y0271495D01*
X0043875Y0271575D01*
X0044021Y0271650D01*
X0044168Y0271722D01*
X0044318Y0271791D01*
X0044469Y0271856D01*
X0044621Y0271917D01*
X0044775Y0271974D01*
X0044931Y0272027D01*
X0045087Y0272077D01*
X0045245Y0272123D01*
X0045404Y0272164D01*
X0045564Y0272202D01*
X0045724Y0272236D01*
X0045886Y0272266D01*
X0046048Y0272293D01*
X0046211Y0272315D01*
X0046374Y0272333D01*
X0046538Y0272347D01*
X0046702Y0272357D01*
X0046866Y0272363D01*
X0047030Y0272365D01*
X0047194Y0272363D01*
X0047358Y0272357D01*
X0047522Y0272347D01*
X0047686Y0272333D01*
X0047849Y0272315D01*
X0048012Y0272293D01*
X0048174Y0272266D01*
X0048336Y0272236D01*
X0048496Y0272202D01*
X0048656Y0272164D01*
X0048815Y0272123D01*
X0048973Y0272077D01*
X0049129Y0272027D01*
X0049285Y0271974D01*
X0049439Y0271917D01*
X0049591Y0271856D01*
X0049742Y0271791D01*
X0049892Y0271722D01*
X0050039Y0271650D01*
X0050185Y0271575D01*
X0050329Y0271495D01*
X0050471Y0271413D01*
X0050611Y0271327D01*
X0050748Y0271237D01*
X0050884Y0271144D01*
X0051017Y0271048D01*
X0051148Y0270948D01*
X0051276Y0270846D01*
X0051402Y0270740D01*
X0051525Y0270631D01*
X0051645Y0270519D01*
X0051763Y0270405D01*
X0051877Y0270287D01*
X0051989Y0270167D01*
X0052098Y0270044D01*
X0052204Y0269918D01*
X0052306Y0269790D01*
X0052406Y0269659D01*
X0052502Y0269526D01*
X0052595Y0269390D01*
X0052685Y0269253D01*
X0052771Y0269113D01*
X0052853Y0268971D01*
X0052933Y0268827D01*
X0053008Y0268681D01*
X0053080Y0268534D01*
X0053149Y0268384D01*
X0053214Y0268233D01*
X0053275Y0268081D01*
X0053332Y0267927D01*
X0053385Y0267771D01*
X0053435Y0267615D01*
X0053481Y0267457D01*
X0053522Y0267298D01*
X0053560Y0267138D01*
X0053594Y0266978D01*
X0053624Y0266816D01*
X0053651Y0266654D01*
X0053673Y0266491D01*
X0053691Y0266328D01*
X0053705Y0266164D01*
X0053715Y0266000D01*
X0053721Y0265836D01*
X0053723Y0265672D01*
X0053721Y0265508D01*
X0053715Y0265344D01*
X0053705Y0265180D01*
X0053691Y0265016D01*
X0053673Y0264853D01*
X0053651Y0264690D01*
X0053624Y0264528D01*
X0053594Y0264366D01*
X0053560Y0264206D01*
X0053522Y0264046D01*
X0053481Y0263887D01*
X0053435Y0263729D01*
X0053385Y0263573D01*
X0053332Y0263417D01*
X0053275Y0263263D01*
X0053214Y0263111D01*
X0053149Y0262960D01*
X0053080Y0262810D01*
X0053008Y0262663D01*
X0052933Y0262517D01*
X0052853Y0262373D01*
X0052771Y0262231D01*
X0052685Y0262091D01*
X0052595Y0261954D01*
X0052502Y0261818D01*
X0052406Y0261685D01*
X0052306Y0261554D01*
X0052204Y0261426D01*
X0052098Y0261300D01*
X0051989Y0261177D01*
X0051877Y0261057D01*
X0051763Y0260939D01*
X0051645Y0260825D01*
X0051525Y0260713D01*
X0051402Y0260604D01*
X0051276Y0260498D01*
X0051148Y0260396D01*
X0051017Y0260296D01*
X0050884Y0260200D01*
X0050748Y0260107D01*
X0050611Y0260017D01*
X0050471Y0259931D01*
X0050329Y0259849D01*
X0050185Y0259769D01*
X0050039Y0259694D01*
X0049892Y0259622D01*
X0049742Y0259553D01*
X0049591Y0259488D01*
X0049439Y0259427D01*
X0049285Y0259370D01*
X0049129Y0259317D01*
X0048973Y0259267D01*
X0048815Y0259221D01*
X0048656Y0259180D01*
X0048496Y0259142D01*
X0048336Y0259108D01*
X0048174Y0259078D01*
X0048012Y0259051D01*
X0047849Y0259029D01*
X0047686Y0259011D01*
X0047522Y0258997D01*
X0047358Y0258987D01*
X0047194Y0258981D01*
X0047030Y0258979D01*
X0046866Y0258981D01*
X0046702Y0258987D01*
X0046538Y0258997D01*
X0046374Y0259011D01*
X0046211Y0259029D01*
X0046048Y0259051D01*
X0045886Y0259078D01*
X0045724Y0259108D01*
X0045564Y0259142D01*
X0045404Y0259180D01*
X0045245Y0259221D01*
X0045087Y0259267D01*
X0044931Y0259317D01*
X0044775Y0259370D01*
X0044621Y0259427D01*
X0044469Y0259488D01*
X0044318Y0259553D01*
X0044168Y0259622D01*
X0044021Y0259694D01*
X0043875Y0259769D01*
X0043731Y0259849D01*
X0043589Y0259931D01*
X0043449Y0260017D01*
X0043312Y0260107D01*
X0043176Y0260200D01*
X0043043Y0260296D01*
X0042912Y0260396D01*
X0042784Y0260498D01*
X0042658Y0260604D01*
X0042535Y0260713D01*
X0042415Y0260825D01*
X0042297Y0260939D01*
X0042183Y0261057D01*
X0042071Y0261177D01*
X0041962Y0261300D01*
X0041856Y0261426D01*
X0041754Y0261554D01*
X0041654Y0261685D01*
X0041558Y0261818D01*
X0041465Y0261954D01*
X0041375Y0262091D01*
X0041289Y0262231D01*
X0041207Y0262373D01*
X0041127Y0262517D01*
X0041052Y0262663D01*
X0040980Y0262810D01*
X0040911Y0262960D01*
X0040846Y0263111D01*
X0040785Y0263263D01*
X0040728Y0263417D01*
X0040675Y0263573D01*
X0040625Y0263729D01*
X0040579Y0263887D01*
X0040538Y0264046D01*
X0040500Y0264206D01*
X0040466Y0264366D01*
X0040436Y0264528D01*
X0040409Y0264690D01*
X0040387Y0264853D01*
X0040369Y0265016D01*
X0040355Y0265180D01*
X0040345Y0265344D01*
X0040339Y0265508D01*
X0040337Y0265672D01*
D11*
X0233979Y0229392D03*
X0241459Y0229392D03*
X0266479Y0141892D03*
X0273959Y0141892D03*
X0283979Y0141892D03*
X0291459Y0141892D03*
X0301479Y0141892D03*
X0308959Y0141892D03*
X0321479Y0141892D03*
X0328959Y0141892D03*
X0346479Y0131892D03*
X0353959Y0131892D03*
X0257709Y0131892D03*
X0250229Y0131892D03*
D12*
X0202512Y0186892D03*
X0195426Y0186892D03*
X0185012Y0186892D03*
X0177926Y0186892D03*
X0234176Y0241892D03*
X0241262Y0241892D03*
D13*
X0165219Y0242443D03*
X0165219Y0261341D03*
D14*
X0301479Y0130829D03*
X0308959Y0130829D03*
X0305219Y0122561D03*
D15*
X0240219Y0150849D03*
X0240219Y0157935D03*
X0225219Y0157935D03*
X0225219Y0150849D03*
D16*
X0255219Y0157798D03*
X0255219Y0165672D03*
X0255219Y0173546D03*
X0255219Y0181420D03*
X0255219Y0189294D03*
X0255219Y0197168D03*
X0255219Y0205042D03*
X0255219Y0212916D03*
X0318211Y0212916D03*
X0318211Y0205042D03*
X0318211Y0197168D03*
X0318211Y0189294D03*
X0318211Y0181420D03*
X0318211Y0173546D03*
X0318211Y0165672D03*
X0318211Y0157798D03*
D17*
X0241219Y0254392D03*
X0241219Y0269392D03*
X0219219Y0269392D03*
X0219219Y0254392D03*
D18*
X0178019Y0219742D03*
X0178019Y0210642D03*
X0178019Y0201542D03*
D19*
X0202420Y0210642D03*
M02*
